<svg width="40" height="22" viewBox="0 0 40 22" fill="none" xmlns="http://www.w3.org/2000/svg">
<path d="M0.019023 10.8098C0.019023 9.34238 0.222828 7.95651 0.630437 6.65216C1.03805 5.32063 1.64946 4.16574 2.46468 3.18748C3.30707 2.20922 4.35327 1.43476 5.60327 0.864106C6.85327 0.293452 8.32066 0.00812556 10.0054 0.00812556C11.4728 0.00812556 12.7636 0.225518 13.8777 0.660302C15.019 1.06791 15.9701 1.63856 16.731 2.37226C17.4919 3.07878 18.0761 3.894 18.4837 4.81792C18.8913 5.74183 19.1223 6.72009 19.1767 7.7527H15.5082C15.2908 6.12226 14.7201 4.8315 13.7962 3.88041C12.8995 2.92933 11.6359 2.45378 10.0054 2.45378C9.13588 2.45378 8.32066 2.61683 7.55979 2.94291C6.79892 3.24183 6.13316 3.73096 5.56251 4.41031C4.99186 5.08965 4.5299 5.95922 4.17664 7.019C3.85055 8.07879 3.68751 9.34238 3.68751 10.8098C3.68751 12.2772 3.85055 13.5408 4.17664 14.6005C4.5299 15.6603 4.99186 16.5299 5.56251 17.2092C6.13316 17.8886 6.79892 18.3913 7.55979 18.7174C8.32066 19.0163 9.13588 19.1658 10.0054 19.1658C11.6359 19.1658 12.8995 18.6902 13.7962 17.7391C14.7201 16.788 15.2908 15.4973 15.5082 13.8668H19.1767C19.1223 14.8723 18.8913 15.8505 18.4837 16.8016C18.0761 17.7255 17.4919 18.5543 16.731 19.288C15.9701 19.9946 15.019 20.5652 13.8777 21C12.7636 21.4076 11.4728 21.6114 10.0054 21.6114C8.32066 21.6114 6.85327 21.3261 5.60327 20.7554C4.35327 20.1848 3.30707 19.4103 2.46468 18.4321C1.64946 17.4538 1.03805 16.3125 0.630437 15.0081C0.222828 13.6766 0.019023 12.2772 0.019023 10.8098ZM19.1512 0.619541H22.8197L29.3414 17.9429L35.8632 0.619541H39.5316L31.1757 21H27.5072L19.1512 0.619541Z" fill="black"/>
</svg>
