<svg width="940" height="251" viewBox="0 0 940 251" fill="none" xmlns="http://www.w3.org/2000/svg">
<path d="M-0.5 35.2C-0.5 22.8788 -0.5 16.7183 1.89786 12.0122C4.00707 7.87264 7.37264 4.50707 11.5122 2.39786C16.2183 0 22.3788 0 34.7 0H888.8C901.121 0 907.282 0 911.988 2.39786C916.127 4.50707 919.493 7.87264 921.602 12.0122C924 16.7183 924 22.8788 924 35.2V48.8C924 61.1212 924 67.2817 921.602 71.9878C919.493 76.1274 916.127 79.4929 911.988 81.6021C907.282 84 901.121 84 888.8 84H34.7C22.3789 84 16.2183 84 11.5122 81.6021C7.37264 79.4929 4.00707 76.1274 1.89786 71.9878C-0.5 67.2817 -0.5 61.1212 -0.5 48.8V35.2Z" fill="#7571FC"/>
<path d="M501.5 35.2C501.5 22.8788 501.5 16.7183 503.898 12.0122C506.007 7.87264 509.373 4.50707 513.512 2.39786C518.218 0 524.379 0 536.7 0H904.8C917.121 0 923.282 0 927.988 2.39786C932.127 4.50707 935.493 7.87264 937.602 12.0122C940 16.7183 940 22.8788 940 35.2V215.8C940 228.121 940 234.282 937.602 238.988C935.493 243.127 932.127 246.493 927.988 248.602C923.282 251 917.121 251 904.8 251H536.7C524.379 251 518.218 251 513.512 248.602C509.373 246.493 506.007 243.127 503.898 238.988C501.5 234.282 501.5 228.121 501.5 215.8V35.2Z" fill="#7571FC"/>
<path d="M45.9442 26.3973C44.8594 26.1678 43.9415 25.7297 43.1905 25.083C42.4603 24.4154 42.0952 23.4036 42.0952 22.0476C42.0952 21.1506 42.2621 20.3996 42.5959 19.7946C42.9506 19.1896 43.4095 18.7098 43.9728 18.3551C44.536 18.0005 45.1828 17.7501 45.9129 17.6041C46.6639 17.4372 47.4254 17.3538 48.1973 17.3538H55.3945V33H52.7347V26.585H48.6666L44.5986 33H41.6258L45.9442 26.3973ZM44.9116 22.0476C44.9116 22.5483 45.0054 22.9656 45.1932 23.2993C45.3809 23.6123 45.6313 23.8626 45.9442 24.0504C46.2571 24.2381 46.6222 24.3737 47.0394 24.4572C47.4567 24.5197 47.8948 24.551 48.3537 24.551H52.7347V19.3878H48.3537C47.8948 19.3878 47.4567 19.4295 47.0394 19.513C46.6222 19.5755 46.2571 19.7111 45.9442 19.9198C45.6313 20.1075 45.3809 20.3787 45.1932 20.7334C45.0054 21.0671 44.9116 21.5052 44.9116 22.0476ZM63.3839 27.8367H66.0437C66.0437 28.9424 66.3775 29.8499 67.0451 30.5592C67.7335 31.2476 68.8601 31.5918 70.4247 31.5918C71.2383 31.5918 71.9267 31.5084 72.49 31.3415C73.0532 31.1537 73.5018 30.9138 73.8356 30.6218C74.1902 30.3088 74.4405 29.9542 74.5866 29.5578C74.7326 29.1615 74.8056 28.7442 74.8056 28.3061C74.8056 27.6177 74.6074 27.0962 74.2111 26.7415C73.8147 26.3869 73.3244 26.147 72.7403 26.0218C72.1562 25.8758 71.5408 25.8027 70.8941 25.8027H68.0777V23.9252H70.8941C71.9163 23.9252 72.7403 23.727 73.3662 23.3306C74.0129 22.9343 74.3362 22.298 74.3362 21.4218C74.3362 20.7125 74.0337 20.0971 73.4288 19.5755C72.8446 19.0331 71.8433 18.7619 70.4247 18.7619C69.6528 18.7619 69.0061 18.8767 68.4845 19.1062C67.963 19.3356 67.5458 19.6173 67.2328 19.951C66.9199 20.264 66.6904 20.6186 66.5444 21.015C66.4192 21.3905 66.3567 21.7347 66.3567 22.0476H63.6968C63.6968 21.547 63.8011 20.9941 64.0097 20.3891C64.2392 19.7842 64.6043 19.2209 65.105 18.6994C65.6265 18.1778 66.3149 17.7501 67.1703 17.4164C68.0465 17.0617 69.1313 16.8844 70.4247 16.8844C71.6764 16.8844 72.7195 17.0096 73.5539 17.2599C74.4092 17.5102 75.0873 17.8336 75.5879 18.23C76.0886 18.6263 76.4433 19.0853 76.6519 19.6068C76.8814 20.1075 76.9961 20.6082 76.9961 21.1089C76.9961 21.839 76.8292 22.4336 76.4954 22.8925C76.1616 23.3515 75.7861 23.7061 75.3689 23.9565C74.8682 24.2277 74.3154 24.4259 73.7104 24.551V24.7075C74.4405 24.8327 75.0977 25.0413 75.6818 25.3334C76.1616 25.5837 76.5997 25.9488 76.9961 26.4286C77.4133 26.8875 77.6219 27.5134 77.6219 28.3061C77.6219 29.8082 77.0065 31.0494 75.7757 32.0299C74.5657 32.9896 72.782 33.4694 70.4247 33.4694C68.0047 33.4694 66.2211 32.9478 65.0737 31.9048C63.9471 30.8408 63.3839 29.4848 63.3839 27.8367ZM79.0301 28.7755C79.0301 28.1079 79.1448 27.4821 79.3743 26.898C79.6247 26.3138 80.021 25.8027 80.5634 25.3646C81.1058 24.9265 81.8256 24.5823 82.7226 24.332C83.6197 24.0608 84.7358 23.9252 86.0709 23.9252C86.968 23.9252 87.6772 23.8522 88.1988 23.7061C88.7203 23.5601 89.1063 23.3724 89.3566 23.1429C89.6278 22.9134 89.7947 22.6526 89.8573 22.3606C89.9407 22.0476 89.9825 21.7347 89.9825 21.4218C89.9825 20.483 89.6382 19.805 88.9498 19.3878C88.2822 18.9706 87.3226 18.7619 86.0709 18.7619C83.3589 18.7619 82.0029 19.8572 82.0029 22.0476H79.343C79.343 21.1506 79.5099 20.3787 79.8437 19.732C80.1775 19.0853 80.6364 18.5533 81.2206 18.1361C81.8256 17.698 82.5349 17.3851 83.3485 17.1973C84.1829 16.9887 85.0904 16.8844 86.0709 16.8844C88.1988 16.8844 89.826 17.2912 90.9525 18.1048C92.079 18.9184 92.6423 20.2327 92.6423 22.0476V29.2449C92.6423 29.5578 92.6527 29.8395 92.6736 30.0898C92.6945 30.3401 92.7466 30.5488 92.8301 30.7157C92.9344 30.8825 93.0908 31.0077 93.2995 31.0912C93.5081 31.1537 93.8106 31.1642 94.2069 31.1225V33C94.0609 33.0209 93.9149 33.0522 93.7688 33.0939C93.6228 33.1147 93.4663 33.1252 93.2995 33.1252C93.1326 33.146 92.9657 33.1565 92.7988 33.1565C92.4024 33.1565 92.0269 33.1252 91.6722 33.0626C91.3385 33.0209 91.0464 32.9166 90.7961 32.7497C90.5457 32.5828 90.3475 32.3429 90.2015 32.0299C90.0555 31.717 89.9825 31.3102 89.9825 30.8095V30.3401C89.6487 30.9243 89.221 31.4458 88.6995 31.9048C88.2614 32.3011 87.6981 32.6662 87.0097 33C86.3421 33.3129 85.5076 33.4694 84.5063 33.4694C82.6913 33.4694 81.3249 33.0209 80.407 32.1238C79.4891 31.2268 79.0301 30.1107 79.0301 28.7755ZM85.1321 31.5918C85.6745 31.5918 86.2274 31.4875 86.7906 31.2789C87.3748 31.0703 87.8963 30.7261 88.3552 30.2463C88.8351 29.7456 89.221 29.0989 89.5131 28.3061C89.826 27.4925 89.9825 26.5016 89.9825 25.3334V24.2694C89.9825 24.2903 89.9199 24.3633 89.7947 24.4885C89.6904 24.6136 89.4818 24.7492 89.1689 24.8953C88.8559 25.0413 88.4283 25.1769 87.8859 25.3021C87.3435 25.4272 86.6342 25.4898 85.758 25.4898C85.3199 25.4898 84.8714 25.542 84.4124 25.6463C83.9534 25.7297 83.5362 25.8862 83.1607 26.1157C82.7852 26.3243 82.4723 26.6268 82.2219 27.0231C81.9716 27.3987 81.8464 27.8785 81.8464 28.4626C81.8464 29.4014 82.1385 30.1628 82.7226 30.7469C83.3067 31.3102 84.1099 31.5918 85.1321 31.5918ZM98.264 17.3538V23.9252H106.4V17.3538H109.06V33H106.4V25.8027H98.264V33H95.6041V17.3538H98.264ZM111.25 33V17.3538H113.91V29.5578L122.359 17.3538H125.019V33H122.359V20.7959L113.91 33H111.25ZM127.202 33V17.3538H131.27L136.12 30.1837L140.971 17.3538H145.039V33H142.379V19.8572L137.372 33H134.869L129.862 19.8572V33H127.202ZM146.749 28.7755C146.749 28.1079 146.864 27.4821 147.093 26.898C147.343 26.3138 147.74 25.8027 148.282 25.3646C148.825 24.9265 149.544 24.5823 150.441 24.332C151.338 24.0608 152.455 23.9252 153.79 23.9252C154.687 23.9252 155.396 23.8522 155.918 23.7061C156.439 23.5601 156.825 23.3724 157.075 23.1429C157.347 22.9134 157.514 22.6526 157.576 22.3606C157.66 22.0476 157.701 21.7347 157.701 21.4218C157.701 20.483 157.357 19.805 156.669 19.3878C156.001 18.9706 155.041 18.7619 153.79 18.7619C151.078 18.7619 149.722 19.8572 149.722 22.0476H147.062C147.062 21.1506 147.229 20.3787 147.563 19.732C147.896 19.0853 148.355 18.5533 148.939 18.1361C149.544 17.698 150.254 17.3851 151.067 17.1973C151.902 16.9887 152.809 16.8844 153.79 16.8844C155.918 16.8844 157.545 17.2912 158.671 18.1048C159.798 18.9184 160.361 20.2327 160.361 22.0476V29.2449C160.361 29.5578 160.372 29.8395 160.392 30.0898C160.413 30.3401 160.465 30.5488 160.549 30.7157C160.653 30.8825 160.81 31.0077 161.018 31.0912C161.227 31.1537 161.529 31.1642 161.926 31.1225V33C161.78 33.0209 161.634 33.0522 161.488 33.0939C161.342 33.1147 161.185 33.1252 161.018 33.1252C160.851 33.146 160.684 33.1565 160.518 33.1565C160.121 33.1565 159.746 33.1252 159.391 33.0626C159.057 33.0209 158.765 32.9166 158.515 32.7497C158.265 32.5828 158.066 32.3429 157.92 32.0299C157.774 31.717 157.701 31.3102 157.701 30.8095V30.3401C157.367 30.9243 156.94 31.4458 156.418 31.9048C155.98 32.3011 155.417 32.6662 154.728 33C154.061 33.3129 153.226 33.4694 152.225 33.4694C150.41 33.4694 149.044 33.0209 148.126 32.1238C147.208 31.2268 146.749 30.1107 146.749 28.7755ZM152.851 31.5918C153.393 31.5918 153.946 31.4875 154.509 31.2789C155.094 31.0703 155.615 30.7261 156.074 30.2463C156.554 29.7456 156.94 29.0989 157.232 28.3061C157.545 27.4925 157.701 26.5016 157.701 25.3334V24.2694C157.701 24.2903 157.639 24.3633 157.514 24.4885C157.409 24.6136 157.201 24.7492 156.888 24.8953C156.575 25.0413 156.147 25.1769 155.605 25.3021C155.062 25.4272 154.353 25.4898 153.477 25.4898C153.039 25.4898 152.59 25.542 152.131 25.6463C151.672 25.7297 151.255 25.8862 150.88 26.1157C150.504 26.3243 150.191 26.6268 149.941 27.0231C149.69 27.3987 149.565 27.8785 149.565 28.4626C149.565 29.4014 149.857 30.1628 150.441 30.7469C151.026 31.3102 151.829 31.5918 152.851 31.5918ZM163.323 33V17.3538H165.983V23.9252H168.862C168.966 22.9447 169.175 22.0268 169.488 21.1715C169.821 20.3161 170.28 19.5755 170.864 18.9497C171.469 18.303 172.21 17.8023 173.086 17.4477C173.962 17.0721 174.985 16.8844 176.153 16.8844C177.446 16.8844 178.552 17.1034 179.47 17.5415C180.409 17.9796 181.17 18.5742 181.754 19.3252C182.359 20.0762 182.797 20.9628 183.068 21.9851C183.36 22.9864 183.507 24.0504 183.507 25.1769C183.507 26.3034 183.36 27.3778 183.068 28.4C182.797 29.4014 182.359 30.2776 181.754 31.0286C181.17 31.7796 180.409 32.3742 179.47 32.8122C178.552 33.2503 177.446 33.4694 176.153 33.4694C174.922 33.4694 173.848 33.2712 172.93 32.8748C172.033 32.4785 171.282 31.9361 170.677 31.2476C170.092 30.5383 169.644 29.7247 169.331 28.8068C169.039 27.868 168.862 26.8667 168.799 25.8027H165.983V33H163.323ZM171.615 25.1769C171.615 27.4508 172.033 29.0884 172.867 30.0898C173.722 31.0912 174.818 31.5918 176.153 31.5918C177.488 31.5918 178.573 31.0912 179.407 30.0898C180.263 29.0884 180.69 27.4508 180.69 25.1769C180.69 22.903 180.263 21.2653 179.407 20.264C178.573 19.2626 177.488 18.7619 176.153 18.7619C174.818 18.7619 173.722 19.2626 172.867 20.264C172.033 21.2653 171.615 22.903 171.615 25.1769ZM185.074 25.1769C185.074 24.0504 185.23 22.9864 185.543 21.9851C185.856 20.9628 186.325 20.0762 186.951 19.3252C187.598 18.5742 188.401 17.9796 189.361 17.5415C190.32 17.1034 191.447 16.8844 192.74 16.8844C193.867 16.8844 194.858 17.0513 195.713 17.3851C196.589 17.698 197.319 18.1361 197.903 18.6994C198.488 19.2418 198.936 19.8676 199.249 20.5769C199.562 21.2862 199.739 22.0372 199.781 22.83H196.965C196.798 21.5783 196.36 20.5873 195.65 19.8572C194.962 19.127 193.992 18.7619 192.74 18.7619C192.073 18.7619 191.447 18.8871 190.863 19.1374C190.279 19.3669 189.767 19.7424 189.329 20.264C188.891 20.7855 188.537 21.4531 188.265 22.2667C188.015 23.0803 187.89 24.0504 187.89 25.1769C187.89 26.3034 188.015 27.2735 188.265 28.0871C188.537 28.9007 188.891 29.5683 189.329 30.0898C189.767 30.6113 190.279 30.9973 190.863 31.2476C191.447 31.4771 192.073 31.5918 192.74 31.5918C193.992 31.5918 194.962 31.2268 195.65 30.4966C196.36 29.7664 196.798 28.7755 196.965 27.5238H199.781C199.739 28.2957 199.562 29.0467 199.249 29.7769C198.936 30.4862 198.488 31.1225 197.903 31.6857C197.319 32.2281 196.589 32.6662 195.713 33C194.858 33.3129 193.867 33.4694 192.74 33.4694C191.447 33.4694 190.32 33.2503 189.361 32.8122C188.401 32.3742 187.598 31.7796 186.951 31.0286C186.325 30.2776 185.856 29.4014 185.543 28.4C185.23 27.3778 185.074 26.3034 185.074 25.1769ZM204.304 17.3538V23.7687H208.528C209.342 23.7687 210.114 23.8417 210.844 23.9878C211.595 24.1129 212.252 24.3529 212.815 24.7075C213.379 25.0413 213.817 25.5002 214.13 26.0844C214.463 26.6685 214.63 27.4091 214.63 28.3061C214.63 29.2032 214.463 29.9542 214.13 30.5592C213.817 31.1642 213.379 31.644 212.815 31.9986C212.252 32.3533 211.595 32.6141 210.844 32.781C210.114 32.927 209.342 33 208.528 33H201.644V17.3538H204.304ZM204.304 30.966H208.372C208.852 30.966 209.3 30.9347 209.717 30.8721C210.135 30.7887 210.5 30.6531 210.813 30.4653C211.126 30.2567 211.365 29.9855 211.532 29.6517C211.72 29.2971 211.814 28.8485 211.814 28.3061C211.814 27.8055 211.72 27.3987 211.532 27.0857C211.365 26.7519 211.126 26.4912 210.813 26.3034C210.5 26.1157 210.135 25.9905 209.717 25.9279C209.3 25.8445 208.852 25.8027 208.372 25.8027H204.304V30.966ZM222.607 33V17.3538H236.063V33H233.403V19.3878H225.267V33H222.607ZM238.254 37.6939V17.3538H240.913V20.1701C241.247 19.5651 241.665 19.0123 242.165 18.5116C242.603 18.0944 243.156 17.7189 243.824 17.3851C244.491 17.0513 245.294 16.8844 246.233 16.8844C247.485 16.8844 248.559 17.1139 249.456 17.5728C250.374 18.0109 251.125 18.6159 251.709 19.3878C252.294 20.1597 252.721 21.0463 252.992 22.0476C253.284 23.0281 253.43 24.0712 253.43 25.1769C253.43 26.2617 253.284 27.3048 252.992 28.3061C252.721 29.3075 252.294 30.1941 251.709 30.966C251.125 31.7379 250.374 32.3533 249.456 32.8122C248.559 33.2503 247.485 33.4694 246.233 33.4694C245.294 33.4694 244.491 33.3025 243.824 32.9687C243.156 32.6141 242.603 32.2281 242.165 31.8109C241.665 31.3311 241.247 30.7887 240.913 30.1837V37.6939H238.254ZM240.913 25.1769C240.913 26.2408 241.039 27.1692 241.289 27.9619C241.56 28.7547 241.915 29.4222 242.353 29.9646C242.791 30.507 243.302 30.9138 243.886 31.185C244.47 31.4562 245.096 31.5918 245.764 31.5918C246.431 31.5918 247.057 31.4771 247.641 31.2476C248.225 30.9973 248.737 30.6113 249.175 30.0898C249.613 29.5683 249.957 28.9007 250.207 28.0871C250.479 27.2735 250.614 26.3034 250.614 25.1769C250.614 24.0504 250.479 23.0803 250.207 22.2667C249.957 21.4531 249.613 20.7855 249.175 20.264C248.737 19.7424 248.225 19.3669 247.641 19.1374C247.057 18.8871 246.431 18.7619 245.764 18.7619C245.096 18.7619 244.47 18.8975 243.886 19.1687C243.302 19.4399 242.791 19.8467 242.353 20.3891C241.915 20.9315 241.56 21.5991 241.289 22.3919C241.039 23.1846 240.913 24.1129 240.913 25.1769ZM254.993 25.1769C254.993 24.0504 255.149 22.9864 255.462 21.9851C255.775 20.9628 256.244 20.0762 256.87 19.3252C257.517 18.5742 258.32 17.9796 259.28 17.5415C260.239 17.1034 261.366 16.8844 262.659 16.8844C263.953 16.8844 265.079 17.1034 266.039 17.5415C266.999 17.9796 267.791 18.5742 268.417 19.3252C269.064 20.0762 269.544 20.9628 269.857 21.9851C270.169 22.9864 270.326 24.0504 270.326 25.1769C270.326 26.3034 270.169 27.3778 269.857 28.4C269.544 29.4014 269.064 30.2776 268.417 31.0286C267.791 31.7796 266.999 32.3742 266.039 32.8122C265.079 33.2503 263.953 33.4694 262.659 33.4694C261.366 33.4694 260.239 33.2503 259.28 32.8122C258.32 32.3742 257.517 31.7796 256.87 31.0286C256.244 30.2776 255.775 29.4014 255.462 28.4C255.149 27.3778 254.993 26.3034 254.993 25.1769ZM257.809 25.1769C257.809 26.3034 257.934 27.2735 258.184 28.0871C258.456 28.9007 258.81 29.5683 259.248 30.0898C259.687 30.6113 260.198 30.9973 260.782 31.2476C261.366 31.4771 261.992 31.5918 262.659 31.5918C263.327 31.5918 263.953 31.4771 264.537 31.2476C265.121 30.9973 265.632 30.6113 266.07 30.0898C266.508 29.5683 266.852 28.9007 267.103 28.0871C267.374 27.2735 267.51 26.3034 267.51 25.1769C267.51 24.0504 267.374 23.0803 267.103 22.2667C266.852 21.4531 266.508 20.7855 266.07 20.264C265.632 19.7424 265.121 19.3669 264.537 19.1374C263.953 18.8871 263.327 18.7619 262.659 18.7619C261.992 18.7619 261.366 18.8871 260.782 19.1374C260.198 19.3669 259.687 19.7424 259.248 20.264C258.81 20.7855 258.456 21.4531 258.184 22.2667C257.934 23.0803 257.809 24.0504 257.809 25.1769ZM270.322 37.6939V30.966H270.948C271.491 30.966 271.97 30.7887 272.388 30.434C272.826 30.0794 273.191 29.5057 273.483 28.7129C273.775 27.9202 273.994 26.8875 274.14 25.615C274.307 24.3424 274.39 22.7882 274.39 20.9524V17.3538H285.812V30.966H288.628V37.6939H285.969V33H272.982V37.6939H270.322ZM283.152 30.966V19.3878H276.894V21.2653C276.894 23.581 276.737 25.6046 276.424 27.3361C276.132 29.0467 275.559 30.2567 274.703 30.966H283.152ZM291.142 17.3538L296.336 30.215L300.999 17.3538H303.815L297.4 33.7823C297.129 34.4707 296.858 35.0653 296.586 35.566C296.315 36.0875 296.002 36.5152 295.648 36.849C295.293 37.1828 294.876 37.4331 294.396 37.6C293.937 37.7669 293.374 37.8503 292.706 37.8503C292.477 37.8503 292.237 37.8399 291.986 37.819C291.757 37.819 291.538 37.8086 291.329 37.7877C291.1 37.746 290.881 37.7147 290.672 37.6939V35.7224C290.86 35.7433 291.048 35.7642 291.235 35.785C291.402 35.785 291.569 35.785 291.736 35.785C291.903 35.8059 292.07 35.8163 292.237 35.8163C292.779 35.8163 293.249 35.6703 293.645 35.3782C294.062 35.107 294.427 34.5751 294.74 33.7823L295.053 33L288.169 17.3538H291.142ZM305.208 17.3538H307.868V25.4898L315.535 17.3538H318.508L312.468 23.6436L318.821 33H315.691L310.747 25.4585L307.868 28.4626V33H305.208V17.3538ZM318.976 19.3878V17.3538H333.214V19.3878H327.425V33H324.765V19.3878H318.976ZM333.377 25.1769C333.377 24.0504 333.533 22.9864 333.846 21.9851C334.159 20.9628 334.628 20.0762 335.254 19.3252C335.901 18.5742 336.704 17.9796 337.664 17.5415C338.623 17.1034 339.75 16.8844 341.043 16.8844C342.337 16.8844 343.463 17.1034 344.423 17.5415C345.382 17.9796 346.175 18.5742 346.801 19.3252C347.448 20.0762 347.928 20.9628 348.24 21.9851C348.553 22.9864 348.71 24.0504 348.71 25.1769C348.71 26.3034 348.553 27.3778 348.24 28.4C347.928 29.4014 347.448 30.2776 346.801 31.0286C346.175 31.7796 345.382 32.3742 344.423 32.8122C343.463 33.2503 342.337 33.4694 341.043 33.4694C339.75 33.4694 338.623 33.2503 337.664 32.8122C336.704 32.3742 335.901 31.7796 335.254 31.0286C334.628 30.2776 334.159 29.4014 333.846 28.4C333.533 27.3778 333.377 26.3034 333.377 25.1769ZM336.193 25.1769C336.193 26.3034 336.318 27.2735 336.568 28.0871C336.84 28.9007 337.194 29.5683 337.632 30.0898C338.07 30.6113 338.582 30.9973 339.166 31.2476C339.75 31.4771 340.376 31.5918 341.043 31.5918C341.711 31.5918 342.337 31.4771 342.921 31.2476C343.505 30.9973 344.016 30.6113 344.454 30.0898C344.892 29.5683 345.236 28.9007 345.487 28.0871C345.758 27.2735 345.894 26.3034 345.894 25.1769C345.894 24.0504 345.758 23.0803 345.487 22.2667C345.236 21.4531 344.892 20.7855 344.454 20.264C344.016 19.7424 343.505 19.3669 342.921 19.1374C342.337 18.8871 341.711 18.7619 341.043 18.7619C340.376 18.7619 339.75 18.8871 339.166 19.1374C338.582 19.3669 338.07 19.7424 337.632 20.264C337.194 20.7855 336.84 21.4531 336.568 22.2667C336.318 23.0803 336.193 24.0504 336.193 25.1769ZM357.942 17.3538C358.693 17.3538 359.403 17.4164 360.07 17.5415C360.759 17.6667 361.353 17.8753 361.854 18.1674C362.375 18.4594 362.793 18.8454 363.106 19.3252C363.419 19.805 363.575 20.3996 363.575 21.1089C363.575 21.839 363.419 22.4336 363.106 22.8925C362.793 23.3515 362.459 23.7061 362.104 23.9565C361.666 24.2277 361.165 24.4259 360.602 24.551V24.7075C361.27 24.8327 361.875 25.0517 362.417 25.3646C362.855 25.615 363.262 25.9905 363.638 26.4912C364.013 26.971 364.201 27.6281 364.201 28.4626C364.201 29.3179 364.034 30.0376 363.7 30.6218C363.387 31.2059 362.949 31.6753 362.386 32.0299C361.823 32.3846 361.165 32.6349 360.414 32.781C359.684 32.927 358.912 33 358.099 33H350.589V17.3538H357.942ZM357.942 30.966C358.422 30.966 358.871 30.9347 359.288 30.8721C359.705 30.7887 360.07 30.6531 360.383 30.4653C360.696 30.2567 360.936 29.9855 361.103 29.6517C361.291 29.2971 361.385 28.8485 361.385 28.3061C361.385 27.8055 361.291 27.3987 361.103 27.0857C360.936 26.7519 360.696 26.4912 360.383 26.3034C360.07 26.1157 359.705 25.9905 359.288 25.9279C358.871 25.8445 358.422 25.8027 357.942 25.8027H353.248V30.966H357.942ZM357.473 23.9252C358.495 23.9252 359.319 23.7583 359.945 23.4245C360.592 23.0699 360.915 22.4544 360.915 21.5783C360.915 21.0984 360.821 20.7229 360.633 20.4517C360.467 20.1597 360.237 19.9406 359.945 19.7946C359.653 19.6277 359.319 19.5234 358.944 19.4817C358.568 19.4191 358.182 19.3878 357.786 19.3878H353.248V23.9252H357.473ZM365.929 17.3538H368.589V23.7687H372.188C373.001 23.7687 373.773 23.8417 374.503 23.9878C375.254 24.1129 375.912 24.3529 376.475 24.7075C377.038 25.0413 377.476 25.5002 377.789 26.0844C378.123 26.6685 378.29 27.4091 378.29 28.3061C378.29 29.2032 378.123 29.9542 377.789 30.5592C377.476 31.1642 377.038 31.644 376.475 31.9986C375.912 32.3533 375.254 32.6141 374.503 32.781C373.773 32.927 373.001 33 372.188 33H365.929V17.3538ZM379.854 17.3538H382.514V33H379.854V17.3538ZM368.589 25.8027V30.966H372.031C372.511 30.966 372.96 30.9347 373.377 30.8721C373.794 30.7887 374.159 30.6531 374.472 30.4653C374.785 30.2567 375.025 29.9855 375.192 29.6517C375.38 29.2971 375.473 28.8485 375.473 28.3061C375.473 27.8055 375.38 27.3987 375.192 27.0857C375.025 26.7519 374.785 26.4912 374.472 26.3034C374.159 26.1157 373.794 25.9905 373.377 25.9279C372.96 25.8445 372.511 25.8027 372.031 25.8027H368.589ZM384.692 33V17.3538H388.761L393.611 30.1837L398.461 17.3538H402.529V33H399.869V19.8572L394.863 33H392.359L387.352 19.8572V33H384.692ZM410.973 33V17.3538H413.633V29.5578L422.082 17.3538H424.742V33H422.082V20.7959L413.633 33H410.973ZM433.19 17.3538H435.85V25.4898L443.516 17.3538H446.489L440.45 23.6436L446.802 33H443.673L438.728 25.4585L435.85 28.4626V33H433.19V17.3538ZM446.659 25.1769C446.659 24.0504 446.815 22.9864 447.128 21.9851C447.441 20.9628 447.911 20.0762 448.536 19.3252C449.183 18.5742 449.986 17.9796 450.946 17.5415C451.906 17.1034 453.032 16.8844 454.326 16.8844C455.619 16.8844 456.745 17.1034 457.705 17.5415C458.665 17.9796 459.457 18.5742 460.083 19.3252C460.73 20.0762 461.21 20.9628 461.523 21.9851C461.836 22.9864 461.992 24.0504 461.992 25.1769C461.992 26.3034 461.836 27.3778 461.523 28.4C461.21 29.4014 460.73 30.2776 460.083 31.0286C459.457 31.7796 458.665 32.3742 457.705 32.8122C456.745 33.2503 455.619 33.4694 454.326 33.4694C453.032 33.4694 451.906 33.2503 450.946 32.8122C449.986 32.3742 449.183 31.7796 448.536 31.0286C447.911 30.2776 447.441 29.4014 447.128 28.4C446.815 27.3778 446.659 26.3034 446.659 25.1769ZM449.475 25.1769C449.475 26.3034 449.6 27.2735 449.851 28.0871C450.122 28.9007 450.477 29.5683 450.915 30.0898C451.353 30.6113 451.864 30.9973 452.448 31.2476C453.032 31.4771 453.658 31.5918 454.326 31.5918C454.993 31.5918 455.619 31.4771 456.203 31.2476C456.787 30.9973 457.298 30.6113 457.736 30.0898C458.174 29.5683 458.519 28.9007 458.769 28.0871C459.04 27.2735 459.176 26.3034 459.176 25.1769C459.176 24.0504 459.04 23.0803 458.769 22.2667C458.519 21.4531 458.174 20.7855 457.736 20.264C457.298 19.7424 456.787 19.3669 456.203 19.1374C455.619 18.8871 454.993 18.7619 454.326 18.7619C453.658 18.7619 453.032 18.8871 452.448 19.1374C451.864 19.3669 451.353 19.7424 450.915 20.264C450.477 20.7855 450.122 21.4531 449.851 22.2667C449.6 23.0803 449.475 24.0504 449.475 25.1769ZM463.871 33V17.3538H467.939L472.789 30.1837L477.64 17.3538H481.708V33H479.048V19.8572L474.041 33H471.538L466.531 19.8572V33H463.871ZM483.887 33V17.3538H487.955L492.805 30.1837L497.656 17.3538H501.724V33H499.064V19.8572L494.057 33H491.554L486.547 19.8572V33H483.887ZM506.094 17.3538L511.288 30.215L515.951 17.3538H518.767L512.352 33.7823C512.081 34.4707 511.81 35.0653 511.539 35.566C511.267 36.0875 510.954 36.5152 510.6 36.849C510.245 37.1828 509.828 37.4331 509.348 37.6C508.889 37.7669 508.326 37.8503 507.658 37.8503C507.429 37.8503 507.189 37.8399 506.939 37.819C506.709 37.819 506.49 37.8086 506.281 37.7877C506.052 37.746 505.833 37.7147 505.624 37.6939V35.7224C505.812 35.7433 506 35.7642 506.188 35.785C506.354 35.785 506.521 35.785 506.688 35.785C506.855 35.8059 507.022 35.8163 507.189 35.8163C507.731 35.8163 508.201 35.6703 508.597 35.3782C509.014 35.107 509.379 34.5751 509.692 33.7823L510.005 33L503.121 17.3538H506.094ZM522.821 17.3538V23.9252H530.957V17.3538H533.616V33H530.957V25.8027H522.821V33H520.161V17.3538H522.821ZM535.807 33V17.3538H538.467V29.5578L546.916 17.3538H549.576V33H546.916V20.7959L538.467 33H535.807ZM551.759 17.3538H554.419V25.4898L562.085 17.3538H565.058L559.019 23.6436L565.371 33H562.242L557.297 25.4585L554.419 28.4626V33H551.759V17.3538ZM565.866 28.7755C565.866 28.1079 565.981 27.4821 566.21 26.898C566.461 26.3138 566.857 25.8027 567.399 25.3646C567.942 24.9265 568.661 24.5823 569.558 24.332C570.456 24.0608 571.572 23.9252 572.907 23.9252C573.804 23.9252 574.513 23.8522 575.035 23.7061C575.556 23.5601 575.942 23.3724 576.192 23.1429C576.464 22.9134 576.631 22.6526 576.693 22.3606C576.777 22.0476 576.818 21.7347 576.818 21.4218C576.818 20.483 576.474 19.805 575.786 19.3878C575.118 18.9706 574.158 18.7619 572.907 18.7619C570.195 18.7619 568.839 19.8572 568.839 22.0476H566.179C566.179 21.1506 566.346 20.3787 566.68 19.732C567.013 19.0853 567.472 18.5533 568.056 18.1361C568.661 17.698 569.371 17.3851 570.184 17.1973C571.019 16.9887 571.926 16.8844 572.907 16.8844C575.035 16.8844 576.662 17.2912 577.788 18.1048C578.915 18.9184 579.478 20.2327 579.478 22.0476V29.2449C579.478 29.5578 579.489 29.8395 579.509 30.0898C579.53 30.3401 579.582 30.5488 579.666 30.7157C579.77 30.8825 579.927 31.0077 580.135 31.0912C580.344 31.1537 580.646 31.1642 581.043 31.1225V33C580.897 33.0209 580.751 33.0522 580.605 33.0939C580.459 33.1147 580.302 33.1252 580.135 33.1252C579.968 33.146 579.802 33.1565 579.635 33.1565C579.238 33.1565 578.863 33.1252 578.508 33.0626C578.174 33.0209 577.882 32.9166 577.632 32.7497C577.382 32.5828 577.183 32.3429 577.037 32.0299C576.891 31.717 576.818 31.3102 576.818 30.8095V30.3401C576.485 30.9243 576.057 31.4458 575.535 31.9048C575.097 32.3011 574.534 32.6662 573.846 33C573.178 33.3129 572.343 33.4694 571.342 33.4694C569.527 33.4694 568.161 33.0209 567.243 32.1238C566.325 31.2268 565.866 30.1107 565.866 28.7755ZM571.968 31.5918C572.51 31.5918 573.063 31.4875 573.626 31.2789C574.211 31.0703 574.732 30.7261 575.191 30.2463C575.671 29.7456 576.057 29.0989 576.349 28.3061C576.662 27.4925 576.818 26.5016 576.818 25.3334V24.2694C576.818 24.2903 576.756 24.3633 576.631 24.4885C576.526 24.6136 576.318 24.7492 576.005 24.8953C575.692 25.0413 575.264 25.1769 574.722 25.3021C574.179 25.4272 573.47 25.4898 572.594 25.4898C572.156 25.4898 571.707 25.542 571.248 25.6463C570.789 25.7297 570.372 25.8862 569.997 26.1157C569.621 26.3243 569.308 26.6268 569.058 27.0231C568.807 27.3987 568.682 27.8785 568.682 28.4626C568.682 29.4014 568.974 30.1628 569.558 30.7469C570.143 31.3102 570.946 31.5918 571.968 31.5918ZM582.44 33V17.3538H585.1V30.966H593.236V17.3538H595.896V30.966H598.712V37.6939H596.052V33H582.44ZM600.134 33V17.3538H602.793V29.5578L611.242 17.3538H613.902V33H611.242V20.7959L602.793 33H600.134ZM615.773 25.1769C615.773 24.0504 615.929 22.9864 616.242 21.9851C616.555 20.9628 617.024 20.0762 617.65 19.3252C618.297 18.5742 619.1 17.9796 620.06 17.5415C621.019 17.1034 622.146 16.8844 623.439 16.8844C624.733 16.8844 625.859 17.1034 626.819 17.5415C627.778 17.9796 628.571 18.5742 629.197 19.3252C629.844 20.0762 630.324 20.9628 630.636 21.9851C630.949 22.9864 631.106 24.0504 631.106 25.1769C631.106 26.3034 630.949 27.3778 630.636 28.4C630.324 29.4014 629.844 30.2776 629.197 31.0286C628.571 31.7796 627.778 32.3742 626.819 32.8122C625.859 33.2503 624.733 33.4694 623.439 33.4694C622.146 33.4694 621.019 33.2503 620.06 32.8122C619.1 32.3742 618.297 31.7796 617.65 31.0286C617.024 30.2776 616.555 29.4014 616.242 28.4C615.929 27.3778 615.773 26.3034 615.773 25.1769ZM618.589 25.1769C618.589 26.3034 618.714 27.2735 618.964 28.0871C619.236 28.9007 619.59 29.5683 620.028 30.0898C620.466 30.6113 620.978 30.9973 621.562 31.2476C622.146 31.4771 622.772 31.5918 623.439 31.5918C624.107 31.5918 624.733 31.4771 625.317 31.2476C625.901 30.9973 626.412 30.6113 626.85 30.0898C627.288 29.5683 627.632 28.9007 627.883 28.0871C628.154 27.2735 628.29 26.3034 628.29 25.1769C628.29 24.0504 628.154 23.0803 627.883 22.2667C627.632 21.4531 627.288 20.7855 626.85 20.264C626.412 19.7424 625.901 19.3669 625.317 19.1374C624.733 18.8871 624.107 18.7619 623.439 18.7619C622.772 18.7619 622.146 18.8871 621.562 19.1374C620.978 19.3669 620.466 19.7424 620.028 20.264C619.59 20.7855 619.236 21.4531 618.964 22.2667C618.714 23.0803 618.589 24.0504 618.589 25.1769ZM635.644 17.3538V23.9252H643.78V17.3538H646.44V33H643.78V25.8027H635.644V33H632.985V17.3538H635.644ZM651.291 17.3538V23.9252H659.427V17.3538H662.087V33H659.427V25.8027H651.291V33H648.631V17.3538H651.291ZM664.277 17.3538H666.937V23.7687H670.536C671.349 23.7687 672.121 23.8417 672.851 23.9878C673.602 24.1129 674.259 24.3529 674.823 24.7075C675.386 25.0413 675.824 25.5002 676.137 26.0844C676.471 26.6685 676.638 27.4091 676.638 28.3061C676.638 29.2032 676.471 29.9542 676.137 30.5592C675.824 31.1642 675.386 31.644 674.823 31.9986C674.259 32.3533 673.602 32.6141 672.851 32.781C672.121 32.927 671.349 33 670.536 33H664.277V17.3538ZM678.202 17.3538H680.862V33H678.202V17.3538ZM666.937 25.8027V30.966H670.379C670.859 30.966 671.307 30.9347 671.725 30.8721C672.142 30.7887 672.507 30.6531 672.82 30.4653C673.133 30.2567 673.373 29.9855 673.54 29.6517C673.727 29.2971 673.821 28.8485 673.821 28.3061C673.821 27.8055 673.727 27.3987 673.54 27.0857C673.373 26.7519 673.133 26.4912 672.82 26.3034C672.507 26.1157 672.142 25.9905 671.725 25.9279C671.307 25.8445 670.859 25.8027 670.379 25.8027H666.937ZM683.04 33V17.3538H687.108L691.959 30.1837L696.809 17.3538H700.877V33H698.217V19.8572L693.21 33H690.707L685.7 19.8572V33H683.04ZM41.3129 67.6939V60.966H41.9388C42.4812 60.966 42.961 60.7887 43.3782 60.434C43.8163 60.0794 44.1814 59.5057 44.4735 58.7129C44.7655 57.9202 44.9846 56.8875 45.1306 55.615C45.2975 54.3424 45.3809 52.7882 45.3809 50.9524V47.3538H56.8027V60.966H59.619V67.6939H56.9591V63H43.9728V67.6939H41.3129ZM54.1428 60.966V49.3878H47.8843V51.2653C47.8843 53.581 47.7279 55.6046 47.415 57.3361C47.1229 59.0467 46.5492 60.2567 45.6939 60.966H54.1428ZM61.0418 63V47.3538H63.7017V59.5578L72.1506 47.3538H74.8105V63H72.1506V50.7959L63.7017 63H61.0418ZM76.5243 57.8367H79.1841C79.1841 58.9424 79.5179 59.8499 80.1855 60.5592C80.8739 61.2476 82.0004 61.5918 83.5651 61.5918C84.3787 61.5918 85.0671 61.5084 85.6304 61.3415C86.1936 61.1537 86.6421 60.9138 86.9759 60.6218C87.3306 60.3088 87.5809 59.9542 87.727 59.5578C87.873 59.1615 87.946 58.7442 87.946 58.3061C87.946 57.6177 87.7478 57.0962 87.3514 56.7415C86.9551 56.3869 86.4648 56.147 85.8807 56.0218C85.2966 55.8758 84.6812 55.8027 84.0344 55.8027H81.2181V53.9252H84.0344C85.0567 53.9252 85.8807 53.727 86.5065 53.3306C87.1533 52.9343 87.4766 52.298 87.4766 51.4218C87.4766 50.7125 87.1741 50.0971 86.5691 49.5755C85.985 49.0331 84.9836 48.7619 83.5651 48.7619C82.7932 48.7619 82.1465 48.8767 81.6249 49.1062C81.1034 49.3356 80.6862 49.6173 80.3732 49.951C80.0603 50.264 79.8308 50.6186 79.6848 51.015C79.5596 51.3905 79.497 51.7347 79.497 52.0476H76.8372C76.8372 51.547 76.9415 50.9941 77.1501 50.3891C77.3796 49.7842 77.7447 49.2209 78.2453 48.6994C78.7669 48.1778 79.4553 47.7501 80.3106 47.4164C81.1868 47.0617 82.2716 46.8844 83.5651 46.8844C84.8168 46.8844 85.8598 47.0096 86.6943 47.2599C87.5496 47.5102 88.2276 47.8336 88.7283 48.23C89.229 48.6263 89.5836 49.0853 89.7923 49.6068C90.0217 50.1075 90.1365 50.6082 90.1365 51.1089C90.1365 51.839 89.9696 52.4336 89.6358 52.8925C89.302 53.3515 88.9265 53.7061 88.5093 53.9565C88.0086 54.2277 87.4558 54.4259 86.8508 54.551V54.7075C87.5809 54.8327 88.2381 55.0413 88.8222 55.3334C89.302 55.5837 89.7401 55.9488 90.1365 56.4286C90.5537 56.8875 90.7623 57.5134 90.7623 58.3061C90.7623 59.8082 90.1469 61.0494 88.9161 62.0299C87.7061 62.9896 85.9224 63.4694 83.5651 63.4694C81.1451 63.4694 79.3614 62.9478 78.214 61.9048C77.0875 60.8408 76.5243 59.4848 76.5243 57.8367ZM92.1705 58.7755C92.1705 58.1079 92.2852 57.4821 92.5147 56.898C92.765 56.3138 93.1614 55.8027 93.7038 55.3646C94.2462 54.9265 94.9659 54.5823 95.863 54.332C96.76 54.0608 97.8761 53.9252 99.2113 53.9252C100.108 53.9252 100.818 53.8522 101.339 53.7061C101.861 53.5601 102.247 53.3724 102.497 53.1429C102.768 52.9134 102.935 52.6526 102.998 52.3606C103.081 52.0476 103.123 51.7347 103.123 51.4218C103.123 50.483 102.779 49.805 102.09 49.3878C101.423 48.9706 100.463 48.7619 99.2113 48.7619C96.4993 48.7619 95.1433 49.8572 95.1433 52.0476H92.4834C92.4834 51.1506 92.6503 50.3787 92.9841 49.732C93.3179 49.0853 93.7768 48.5533 94.361 48.1361C94.9659 47.698 95.6752 47.3851 96.4888 47.1973C97.3233 46.9887 98.2308 46.8844 99.2113 46.8844C101.339 46.8844 102.966 47.2912 104.093 48.1048C105.219 48.9184 105.783 50.2327 105.783 52.0476V59.2449C105.783 59.5578 105.793 59.8395 105.814 60.0898C105.835 60.3401 105.887 60.5488 105.97 60.7157C106.075 60.8825 106.231 61.0077 106.44 61.0912C106.648 61.1537 106.951 61.1642 107.347 61.1225V63C107.201 63.0209 107.055 63.0522 106.909 63.0939C106.763 63.1147 106.607 63.1252 106.44 63.1252C106.273 63.146 106.106 63.1565 105.939 63.1565C105.543 63.1565 105.167 63.1252 104.813 63.0626C104.479 63.0209 104.187 62.9166 103.936 62.7497C103.686 62.5828 103.488 62.3429 103.342 62.0299C103.196 61.717 103.123 61.3102 103.123 60.8095V60.3401C102.789 60.9243 102.361 61.4458 101.84 61.9048C101.402 62.3011 100.838 62.6662 100.15 63C99.4825 63.3129 98.648 63.4694 97.6467 63.4694C95.8317 63.4694 94.4653 63.0209 93.5473 62.1238C92.6294 61.2268 92.1705 60.1107 92.1705 58.7755ZM98.2725 61.5918C98.8149 61.5918 99.3677 61.4875 99.931 61.2789C100.515 61.0703 101.037 60.7261 101.496 60.2463C101.975 59.7456 102.361 59.0989 102.653 58.3061C102.966 57.4925 103.123 56.5016 103.123 55.3334V54.2694C103.123 54.2903 103.06 54.3633 102.935 54.4885C102.831 54.6136 102.622 54.7492 102.309 54.8953C101.996 55.0413 101.569 55.1769 101.026 55.3021C100.484 55.4272 99.7745 55.4898 98.8984 55.4898C98.4603 55.4898 98.0117 55.542 97.5528 55.6463C97.0938 55.7297 96.6766 55.8862 96.3011 56.1157C95.9256 56.3243 95.6126 56.6268 95.3623 57.0231C95.112 57.3987 94.9868 57.8785 94.9868 58.4626C94.9868 59.4014 95.2789 60.1628 95.863 60.7469C96.4471 61.3102 97.2503 61.5918 98.2725 61.5918ZM108.744 63V47.3538H111.404V59.5578L119.853 47.3538H122.513V63H119.853V50.7959L111.404 63H108.744ZM113.125 42.6599C113.125 43.2858 113.313 43.8073 113.689 44.2245C114.064 44.6418 114.711 44.8504 115.629 44.8504C116.547 44.8504 117.193 44.6418 117.569 44.2245C117.944 43.8073 118.132 43.2858 118.132 42.6599H120.636C120.636 43.0146 120.573 43.4109 120.448 43.849C120.323 44.2871 120.072 44.6939 119.697 45.0694C119.342 45.4449 118.842 45.7683 118.195 46.0395C117.548 46.2898 116.693 46.415 115.629 46.415C114.565 46.415 113.71 46.2898 113.063 46.0395C112.416 45.7683 111.905 45.4449 111.53 45.0694C111.175 44.6939 110.935 44.2871 110.81 43.849C110.685 43.4109 110.622 43.0146 110.622 42.6599H113.125ZM127.356 47.3538V53.9252H135.492V47.3538H138.152V63H135.492V55.8027H127.356V63H124.696V47.3538H127.356ZM140.03 55.1769C140.03 54.0504 140.186 52.9864 140.499 51.9851C140.812 50.9628 141.281 50.0762 141.907 49.3252C142.554 48.5742 143.357 47.9796 144.317 47.5415C145.276 47.1034 146.403 46.8844 147.696 46.8844C148.99 46.8844 150.116 47.1034 151.076 47.5415C152.035 47.9796 152.828 48.5742 153.454 49.3252C154.101 50.0762 154.581 50.9628 154.893 51.9851C155.206 52.9864 155.363 54.0504 155.363 55.1769C155.363 56.3034 155.206 57.3778 154.893 58.4C154.581 59.4014 154.101 60.2776 153.454 61.0286C152.828 61.7796 152.035 62.3742 151.076 62.8122C150.116 63.2503 148.99 63.4694 147.696 63.4694C146.403 63.4694 145.276 63.2503 144.317 62.8122C143.357 62.3742 142.554 61.7796 141.907 61.0286C141.281 60.2776 140.812 59.4014 140.499 58.4C140.186 57.3778 140.03 56.3034 140.03 55.1769ZM142.846 55.1769C142.846 56.3034 142.971 57.2735 143.221 58.0871C143.493 58.9007 143.847 59.5683 144.285 60.0898C144.723 60.6113 145.235 60.9973 145.819 61.2476C146.403 61.4771 147.029 61.5918 147.696 61.5918C148.364 61.5918 148.99 61.4771 149.574 61.2476C150.158 60.9973 150.669 60.6113 151.107 60.0898C151.545 59.5683 151.889 58.9007 152.14 58.0871C152.411 57.2735 152.547 56.3034 152.547 55.1769C152.547 54.0504 152.411 53.0803 152.14 52.2667C151.889 51.4531 151.545 50.7855 151.107 50.264C150.669 49.7424 150.158 49.3669 149.574 49.1374C148.99 48.8871 148.364 48.7619 147.696 48.7619C147.029 48.7619 146.403 48.8871 145.819 49.1374C145.235 49.3669 144.723 49.7424 144.285 50.264C143.847 50.7855 143.493 51.4531 143.221 52.2667C142.971 53.0803 142.846 54.0504 142.846 55.1769ZM157.242 63V47.3538H161.31L166.16 60.1837L171.01 47.3538H175.078V63H172.418V49.8572L167.412 63H164.908L159.902 49.8572V63H157.242ZM177.352 66.7551V65.5034C178.144 65.5034 178.676 65.3156 178.948 64.9401C179.24 64.5855 179.386 64.0952 179.386 63.4694V63H177.946V60.0272H180.637V63.4694C180.637 64.5751 180.377 65.3991 179.855 65.9415C179.334 66.4839 178.603 66.7551 177.665 66.7551H177.352ZM189.787 63V47.3538H192.447V59.5578L200.896 47.3538H203.556V63H200.896V50.7959L192.447 63H189.787ZM205.739 63V47.3538H208.399V60.966H215.064V47.3538H217.693V60.966H224.358V47.3538H227.018V60.966H229.834V67.6939H227.174V63H205.739ZM232.346 47.3538L237.541 60.215L242.203 47.3538H245.019L238.604 63.7823C238.333 64.4707 238.062 65.0653 237.791 65.566C237.52 66.0875 237.207 66.5152 236.852 66.849C236.497 67.1828 236.08 67.4331 235.6 67.6C235.141 67.7669 234.578 67.8503 233.911 67.8503C233.681 67.8503 233.441 67.8399 233.191 67.819C232.961 67.819 232.742 67.8086 232.534 67.7877C232.304 67.746 232.085 67.7147 231.877 67.6939V65.7224C232.064 65.7433 232.252 65.7642 232.44 65.785C232.607 65.785 232.774 65.785 232.941 65.785C233.107 65.8059 233.274 65.8163 233.441 65.8163C233.984 65.8163 234.453 65.6703 234.849 65.3782C235.267 65.107 235.632 64.5751 235.945 63.7823L236.258 63L229.373 47.3538H232.346ZM252.677 63V47.3538H256.746L261.596 60.1837L266.446 47.3538H270.514V63H267.854V49.8572L262.848 63H260.344L255.337 49.8572V63H252.677ZM272.381 55.1769C272.381 54.0504 272.537 52.9864 272.85 51.9851C273.163 50.9628 273.632 50.0762 274.258 49.3252C274.884 48.5742 275.666 47.9796 276.605 47.5415C277.544 47.1034 278.639 46.8844 279.891 46.8844C281.184 46.8844 282.28 47.1139 283.177 47.5728C284.095 48.0109 284.846 48.595 285.43 49.3252C286.014 50.0345 286.431 50.8481 286.681 51.766C286.953 52.6839 287.088 53.6123 287.088 54.551V55.8027H275.197C275.301 57.8472 275.812 59.3284 276.73 60.2463C277.669 61.1433 278.775 61.5918 280.047 61.5918C281.07 61.5918 281.967 61.3206 282.739 60.7782C283.531 60.2358 284.042 59.4118 284.272 58.3061H286.932C286.619 59.8082 285.878 61.0494 284.71 62.0299C283.563 62.9896 282.008 63.4694 280.047 63.4694C278.754 63.4694 277.627 63.2503 276.668 62.8122C275.708 62.3742 274.905 61.7796 274.258 61.0286C273.632 60.2776 273.163 59.4014 272.85 58.4C272.537 57.3778 272.381 56.3034 272.381 55.1769ZM284.272 53.9252C284.272 52.1311 283.834 50.8272 282.958 50.0136C282.102 49.1792 281.08 48.7619 279.891 48.7619C278.681 48.7619 277.648 49.1687 276.793 49.9823C275.938 50.7959 275.427 52.1102 275.26 53.9252H284.272ZM288.638 55.1769C288.638 54.0504 288.795 52.9864 289.108 51.9851C289.42 50.9628 289.89 50.0762 290.516 49.3252C291.162 48.5742 291.966 47.9796 292.925 47.5415C293.885 47.1034 295.011 46.8844 296.305 46.8844C297.431 46.8844 298.422 47.0513 299.278 47.3851C300.154 47.698 300.884 48.1361 301.468 48.6994C302.052 49.2418 302.501 49.8676 302.814 50.5769C303.127 51.2862 303.304 52.0372 303.346 52.83H300.529C300.362 51.5783 299.924 50.5873 299.215 49.8572C298.527 49.127 297.556 48.7619 296.305 48.7619C295.637 48.7619 295.011 48.8871 294.427 49.1374C293.843 49.3669 293.332 49.7424 292.894 50.264C292.456 50.7855 292.101 51.4531 291.83 52.2667C291.58 53.0803 291.454 54.0504 291.454 55.1769C291.454 56.3034 291.58 57.2735 291.83 58.0871C292.101 58.9007 292.456 59.5683 292.894 60.0898C293.332 60.6113 293.843 60.9973 294.427 61.2476C295.011 61.4771 295.637 61.5918 296.305 61.5918C297.556 61.5918 298.527 61.2268 299.215 60.4966C299.924 59.7664 300.362 58.7755 300.529 57.5238H303.346C303.304 58.2957 303.127 59.0467 302.814 59.7769C302.501 60.4862 302.052 61.1225 301.468 61.6857C300.884 62.2281 300.154 62.6662 299.278 63C298.422 63.3129 297.431 63.4694 296.305 63.4694C295.011 63.4694 293.885 63.2503 292.925 62.8122C291.966 62.3742 291.162 61.7796 290.516 61.0286C289.89 60.2776 289.42 59.4014 289.108 58.4C288.795 57.3778 288.638 56.3034 288.638 55.1769ZM303.482 49.3878V47.3538H317.721V49.3878H311.931V63H309.272V49.3878H303.482ZM317.883 55.1769C317.883 54.0504 318.04 52.9864 318.352 51.9851C318.665 50.9628 319.135 50.0762 319.761 49.3252C320.407 48.5742 321.211 47.9796 322.17 47.5415C323.13 47.1034 324.256 46.8844 325.55 46.8844C326.843 46.8844 327.97 47.1034 328.929 47.5415C329.889 47.9796 330.682 48.5742 331.308 49.3252C331.954 50.0762 332.434 50.9628 332.747 51.9851C333.06 52.9864 333.216 54.0504 333.216 55.1769C333.216 56.3034 333.06 57.3778 332.747 58.4C332.434 59.4014 331.954 60.2776 331.308 61.0286C330.682 61.7796 329.889 62.3742 328.929 62.8122C327.97 63.2503 326.843 63.4694 325.55 63.4694C324.256 63.4694 323.13 63.2503 322.17 62.8122C321.211 62.3742 320.407 61.7796 319.761 61.0286C319.135 60.2776 318.665 59.4014 318.352 58.4C318.04 57.3778 317.883 56.3034 317.883 55.1769ZM320.699 55.1769C320.699 56.3034 320.825 57.2735 321.075 58.0871C321.346 58.9007 321.701 59.5683 322.139 60.0898C322.577 60.6113 323.088 60.9973 323.672 61.2476C324.256 61.4771 324.882 61.5918 325.55 61.5918C326.217 61.5918 326.843 61.4771 327.427 61.2476C328.011 60.9973 328.523 60.6113 328.961 60.0898C329.399 59.5683 329.743 58.9007 329.993 58.0871C330.264 57.2735 330.4 56.3034 330.4 55.1769C330.4 54.0504 330.264 53.0803 329.993 52.2667C329.743 51.4531 329.399 50.7855 328.961 50.264C328.523 49.7424 328.011 49.3669 327.427 49.1374C326.843 48.8871 326.217 48.7619 325.55 48.7619C324.882 48.7619 324.256 48.8871 323.672 49.1374C323.088 49.3669 322.577 49.7424 322.139 50.264C321.701 50.7855 321.346 51.4531 321.075 52.2667C320.825 53.0803 320.699 54.0504 320.699 55.1769ZM334.242 66.7551V65.5034C335.034 65.5034 335.566 65.3156 335.838 64.9401C336.13 64.5855 336.276 64.0952 336.276 63.4694V63H334.836V60.0272H337.527V63.4694C337.527 64.5751 337.267 65.3991 336.745 65.9415C336.224 66.4839 335.493 66.7551 334.555 66.7551H334.242ZM346.677 63V47.3538H357.786V49.3878H349.337V63H346.677ZM356.376 67.6939V60.966H357.002C357.545 60.966 358.025 60.7887 358.442 60.434C358.88 60.0794 359.245 59.5057 359.537 58.7129C359.829 57.9202 360.048 56.8875 360.194 55.615C360.361 54.3424 360.445 52.7882 360.445 50.9524V47.3538H371.866V60.966H374.683V67.6939H372.023V63H359.036V67.6939H356.376ZM369.206 60.966V49.3878H362.948V51.2653C362.948 53.581 362.791 55.6046 362.479 57.3361C362.186 59.0467 361.613 60.2567 360.757 60.966H369.206ZM374.998 55.1769C374.998 54.0504 375.154 52.9864 375.467 51.9851C375.78 50.9628 376.25 50.0762 376.875 49.3252C377.501 48.5742 378.284 47.9796 379.222 47.5415C380.161 47.1034 381.256 46.8844 382.508 46.8844C383.802 46.8844 384.897 47.1139 385.794 47.5728C386.712 48.0109 387.463 48.595 388.047 49.3252C388.631 50.0345 389.048 50.8481 389.299 51.766C389.57 52.6839 389.705 53.6123 389.705 54.551V55.8027H377.814C377.919 57.8472 378.43 59.3284 379.348 60.2463C380.286 61.1433 381.392 61.5918 382.665 61.5918C383.687 61.5918 384.584 61.3206 385.356 60.7782C386.148 60.2358 386.66 59.4118 386.889 58.3061H389.549C389.236 59.8082 388.495 61.0494 387.327 62.0299C386.18 62.9896 384.626 63.4694 382.665 63.4694C381.371 63.4694 380.245 63.2503 379.285 62.8122C378.325 62.3742 377.522 61.7796 376.875 61.0286C376.25 60.2776 375.78 59.4014 375.467 58.4C375.154 57.3778 374.998 56.3034 374.998 55.1769ZM386.889 53.9252C386.889 52.1311 386.451 50.8272 385.575 50.0136C384.719 49.1792 383.697 48.7619 382.508 48.7619C381.298 48.7619 380.266 49.1687 379.41 49.9823C378.555 50.7959 378.044 52.1102 377.877 53.9252H386.889ZM397.52 55.1769C397.52 54.0504 397.676 52.9864 397.989 51.9851C398.302 50.9628 398.772 50.0762 399.397 49.3252C400.044 48.5742 400.847 47.9796 401.807 47.5415C402.767 47.1034 403.893 46.8844 405.187 46.8844C406.313 46.8844 407.304 47.0513 408.159 47.3851C409.036 47.698 409.766 48.1361 410.35 48.6994C410.934 49.2418 411.383 49.8676 411.695 50.5769C412.008 51.2862 412.186 52.0372 412.227 52.83H409.411C409.244 51.5783 408.806 50.5873 408.097 49.8572C407.408 49.127 406.438 48.7619 405.187 48.7619C404.519 48.7619 403.893 48.8871 403.309 49.1374C402.725 49.3669 402.214 49.7424 401.776 50.264C401.338 50.7855 400.983 51.4531 400.712 52.2667C400.461 53.0803 400.336 54.0504 400.336 55.1769C400.336 56.3034 400.461 57.2735 400.712 58.0871C400.983 58.9007 401.338 59.5683 401.776 60.0898C402.214 60.6113 402.725 60.9973 403.309 61.2476C403.893 61.4771 404.519 61.5918 405.187 61.5918C406.438 61.5918 407.408 61.2268 408.097 60.4966C408.806 59.7664 409.244 58.7755 409.411 57.5238H412.227C412.186 58.2957 412.008 59.0467 411.695 59.7769C411.383 60.4862 410.934 61.1225 410.35 61.6857C409.766 62.2281 409.036 62.6662 408.159 63C407.304 63.3129 406.313 63.4694 405.187 63.4694C403.893 63.4694 402.767 63.2503 401.807 62.8122C400.847 62.3742 400.044 61.7796 399.397 61.0286C398.772 60.2776 398.302 59.4014 397.989 58.4C397.676 57.3778 397.52 56.3034 397.52 55.1769ZM414.09 63V47.3538H418.158L423.009 60.1837L427.859 47.3538H431.927V63H429.267V49.8572L424.26 63H421.757L416.75 49.8572V63H414.09ZM433.794 55.1769C433.794 54.0504 433.95 52.9864 434.263 51.9851C434.576 50.9628 435.045 50.0762 435.671 49.3252C436.318 48.5742 437.121 47.9796 438.081 47.5415C439.04 47.1034 440.167 46.8844 441.46 46.8844C442.754 46.8844 443.88 47.1034 444.84 47.5415C445.799 47.9796 446.592 48.5742 447.218 49.3252C447.865 50.0762 448.344 50.9628 448.657 51.9851C448.97 52.9864 449.127 54.0504 449.127 55.1769C449.127 56.3034 448.97 57.3778 448.657 58.4C448.344 59.4014 447.865 60.2776 447.218 61.0286C446.592 61.7796 445.799 62.3742 444.84 62.8122C443.88 63.2503 442.754 63.4694 441.46 63.4694C440.167 63.4694 439.04 63.2503 438.081 62.8122C437.121 62.3742 436.318 61.7796 435.671 61.0286C435.045 60.2776 434.576 59.4014 434.263 58.4C433.95 57.3778 433.794 56.3034 433.794 55.1769ZM436.61 55.1769C436.61 56.3034 436.735 57.2735 436.985 58.0871C437.257 58.9007 437.611 59.5683 438.049 60.0898C438.487 60.6113 438.998 60.9973 439.583 61.2476C440.167 61.4771 440.793 61.5918 441.46 61.5918C442.128 61.5918 442.754 61.4771 443.338 61.2476C443.922 60.9973 444.433 60.6113 444.871 60.0898C445.309 59.5683 445.653 58.9007 445.904 58.0871C446.175 57.2735 446.31 56.3034 446.31 55.1769C446.31 54.0504 446.175 53.0803 445.904 52.2667C445.653 51.4531 445.309 50.7855 444.871 50.264C444.433 49.7424 443.922 49.3669 443.338 49.1374C442.754 48.8871 442.128 48.7619 441.46 48.7619C440.793 48.7619 440.167 48.8871 439.583 49.1374C438.998 49.3669 438.487 49.7424 438.049 50.264C437.611 50.7855 437.257 51.4531 436.985 52.2667C436.735 53.0803 436.61 54.0504 436.61 55.1769ZM451.006 63V47.3538H462.114V49.3878H453.665V63H451.006ZM465.878 47.3538L471.073 60.215L475.735 47.3538H478.551L472.137 63.7823C471.865 64.4707 471.594 65.0653 471.323 65.566C471.052 66.0875 470.739 66.5152 470.384 66.849C470.03 67.1828 469.612 67.4331 469.132 67.6C468.674 67.7669 468.11 67.8503 467.443 67.8503C467.213 67.8503 466.973 67.8399 466.723 67.819C466.493 67.819 466.274 67.8086 466.066 67.7877C465.836 67.746 465.617 67.7147 465.409 67.6939V65.7224C465.596 65.7433 465.784 65.7642 465.972 65.785C466.139 65.785 466.306 65.785 466.473 65.785C466.64 65.8059 466.806 65.8163 466.973 65.8163C467.516 65.8163 467.985 65.6703 468.381 65.3782C468.799 65.107 469.164 64.5751 469.477 63.7823L469.79 63L462.905 47.3538H465.878ZM486.21 63V47.3538H499.665V63H497.005V49.3878H488.869V63H486.21ZM501.856 67.6939V47.3538H504.516V50.1701C504.849 49.5651 505.267 49.0123 505.767 48.5116C506.205 48.0944 506.758 47.7189 507.426 47.3851C508.093 47.0513 508.897 46.8844 509.835 46.8844C511.087 46.8844 512.161 47.1139 513.058 47.5728C513.976 48.0109 514.727 48.6159 515.312 49.3878C515.896 50.1597 516.323 51.0463 516.595 52.0476C516.887 53.0281 517.033 54.0712 517.033 55.1769C517.033 56.2617 516.887 57.3048 516.595 58.3061C516.323 59.3075 515.896 60.1941 515.312 60.966C514.727 61.7379 513.976 62.3533 513.058 62.8122C512.161 63.2503 511.087 63.4694 509.835 63.4694C508.897 63.4694 508.093 63.3025 507.426 62.9687C506.758 62.6141 506.205 62.2281 505.767 61.8109C505.267 61.3311 504.849 60.7887 504.516 60.1837V67.6939H501.856ZM504.516 55.1769C504.516 56.2408 504.641 57.1692 504.891 57.9619C505.162 58.7547 505.517 59.4222 505.955 59.9646C506.393 60.507 506.904 60.9138 507.488 61.185C508.073 61.4562 508.698 61.5918 509.366 61.5918C510.034 61.5918 510.659 61.4771 511.244 61.2476C511.828 60.9973 512.339 60.6113 512.777 60.0898C513.215 59.5683 513.559 58.9007 513.81 58.0871C514.081 57.2735 514.216 56.3034 514.216 55.1769C514.216 54.0504 514.081 53.0803 513.81 52.2667C513.559 51.4531 513.215 50.7855 512.777 50.264C512.339 49.7424 511.828 49.3669 511.244 49.1374C510.659 48.8871 510.034 48.7619 509.366 48.7619C508.698 48.7619 508.073 48.8975 507.488 49.1687C506.904 49.4399 506.393 49.8467 505.955 50.3891C505.517 50.9315 505.162 51.5991 504.891 52.3919C504.641 53.1846 504.516 54.1129 504.516 55.1769ZM518.908 63V47.3538H521.568V59.5578L530.017 47.3538H532.676V63H530.017V50.7959L521.568 63H518.908ZM534.86 63V47.3538H538.928L543.778 60.1837L548.628 47.3538H552.696V63H550.036V49.8572L545.03 63H542.526L537.519 49.8572V63H534.86ZM554.563 55.1769C554.563 54.0504 554.719 52.9864 555.032 51.9851C555.345 50.9628 555.814 50.0762 556.44 49.3252C557.066 48.5742 557.848 47.9796 558.787 47.5415C559.726 47.1034 560.821 46.8844 562.073 46.8844C563.366 46.8844 564.462 47.1139 565.359 47.5728C566.277 48.0109 567.028 48.595 567.612 49.3252C568.196 50.0345 568.613 50.8481 568.863 51.766C569.135 52.6839 569.27 53.6123 569.27 54.551V55.8027H557.379C557.483 57.8472 557.995 59.3284 558.912 60.2463C559.851 61.1433 560.957 61.5918 562.229 61.5918C563.252 61.5918 564.149 61.3206 564.921 60.7782C565.713 60.2358 566.224 59.4118 566.454 58.3061H569.114C568.801 59.8082 568.06 61.0494 566.892 62.0299C565.745 62.9896 564.19 63.4694 562.229 63.4694C560.936 63.4694 559.809 63.2503 558.85 62.8122C557.89 62.3742 557.087 61.7796 556.44 61.0286C555.814 60.2776 555.345 59.4014 555.032 58.4C554.719 57.3778 554.563 56.3034 554.563 55.1769ZM566.454 53.9252C566.454 52.1311 566.016 50.8272 565.14 50.0136C564.284 49.1792 563.262 48.7619 562.073 48.7619C560.863 48.7619 559.83 49.1687 558.975 49.9823C558.12 50.7959 557.609 52.1102 557.442 53.9252H566.454ZM573.793 47.3538V53.9252H581.929V47.3538H584.589V63H581.929V55.8027H573.793V63H571.133V47.3538H573.793ZM586.779 63V47.3538H589.439V59.5578L597.888 47.3538H600.548V63H597.888V50.7959L589.439 63H586.779ZM602.105 49.3878V47.3538H616.343V49.3878H610.554V63H607.894V49.3878H602.105ZM620.579 47.3538V53.7687H624.803C625.617 53.7687 626.389 53.8417 627.119 53.9878C627.87 54.1129 628.527 54.3529 629.09 54.7075C629.654 55.0413 630.092 55.5002 630.405 56.0844C630.738 56.6685 630.905 57.4091 630.905 58.3061C630.905 59.2032 630.738 59.9542 630.405 60.5592C630.092 61.1642 629.654 61.644 629.09 61.9986C628.527 62.3533 627.87 62.6141 627.119 62.781C626.389 62.927 625.617 63 624.803 63H617.919V47.3538H620.579ZM620.579 60.966H624.647C625.127 60.966 625.575 60.9347 625.992 60.8721C626.41 60.7887 626.775 60.6531 627.088 60.4653C627.401 60.2567 627.64 59.9855 627.807 59.6517C627.995 59.2971 628.089 58.8485 628.089 58.3061C628.089 57.8055 627.995 57.3987 627.807 57.0857C627.64 56.7519 627.401 56.4912 627.088 56.3034C626.775 56.1157 626.41 55.9905 625.992 55.9279C625.575 55.8445 625.127 55.8027 624.647 55.8027H620.579V60.966ZM638.57 55.1769C638.57 54.0504 638.726 52.9864 639.039 51.9851C639.352 50.9628 639.821 50.0762 640.447 49.3252C641.094 48.5742 641.897 47.9796 642.857 47.5415C643.816 47.1034 644.943 46.8844 646.236 46.8844C647.363 46.8844 648.354 47.0513 649.209 47.3851C650.085 47.698 650.815 48.1361 651.399 48.6994C651.984 49.2418 652.432 49.8676 652.745 50.5769C653.058 51.2862 653.235 52.0372 653.277 52.83H650.461C650.294 51.5783 649.856 50.5873 649.146 49.8572C648.458 49.127 647.488 48.7619 646.236 48.7619C645.569 48.7619 644.943 48.8871 644.359 49.1374C643.775 49.3669 643.263 49.7424 642.825 50.264C642.387 50.7855 642.033 51.4531 641.761 52.2667C641.511 53.0803 641.386 54.0504 641.386 55.1769C641.386 56.3034 641.511 57.2735 641.761 58.0871C642.033 58.9007 642.387 59.5683 642.825 60.0898C643.263 60.6113 643.775 60.9973 644.359 61.2476C644.943 61.4771 645.569 61.5918 646.236 61.5918C647.488 61.5918 648.458 61.2268 649.146 60.4966C649.856 59.7664 650.294 58.7755 650.461 57.5238H653.277C653.235 58.2957 653.058 59.0467 652.745 59.7769C652.432 60.4862 651.984 61.1225 651.399 61.6857C650.815 62.2281 650.085 62.6662 649.209 63C648.354 63.3129 647.363 63.4694 646.236 63.4694C644.943 63.4694 643.816 63.2503 642.857 62.8122C641.897 62.3742 641.094 61.7796 640.447 61.0286C639.821 60.2776 639.352 59.4014 639.039 58.4C638.726 57.3778 638.57 56.3034 638.57 55.1769ZM662.494 47.3538C663.245 47.3538 663.954 47.4164 664.622 47.5415C665.31 47.6667 665.905 47.8753 666.405 48.1674C666.927 48.4594 667.344 48.8454 667.657 49.3252C667.97 49.805 668.126 50.3996 668.126 51.1089C668.126 51.839 667.97 52.4336 667.657 52.8925C667.344 53.3515 667.01 53.7061 666.656 53.9565C666.217 54.2277 665.717 54.4259 665.153 54.551V54.7075C665.821 54.8327 666.426 55.0517 666.968 55.3646C667.407 55.615 667.813 55.9905 668.189 56.4912C668.564 56.971 668.752 57.6281 668.752 58.4626C668.752 59.3179 668.585 60.0376 668.251 60.6218C667.939 61.2059 667.5 61.6753 666.937 62.0299C666.374 62.3846 665.717 62.6349 664.966 62.781C664.236 62.927 663.464 63 662.65 63H655.14V47.3538H662.494ZM662.494 60.966C662.973 60.966 663.422 60.9347 663.839 60.8721C664.256 60.7887 664.622 60.6531 664.934 60.4653C665.247 60.2567 665.487 59.9855 665.654 59.6517C665.842 59.2971 665.936 58.8485 665.936 58.3061C665.936 57.8055 665.842 57.3987 665.654 57.0857C665.487 56.7519 665.247 56.4912 664.934 56.3034C664.622 56.1157 664.256 55.9905 663.839 55.9279C663.422 55.8445 662.973 55.8027 662.494 55.8027H657.8V60.966H662.494ZM662.024 53.9252C663.046 53.9252 663.871 53.7583 664.496 53.4245C665.143 53.0699 665.466 52.4544 665.466 51.5783C665.466 51.0984 665.373 50.7229 665.185 50.4517C665.018 50.1597 664.788 49.9406 664.496 49.7946C664.204 49.6277 663.871 49.5234 663.495 49.4817C663.119 49.4191 662.734 49.3878 662.337 49.3878H657.8V53.9252H662.024ZM670.015 55.1769C670.015 54.0504 670.171 52.9864 670.484 51.9851C670.797 50.9628 671.266 50.0762 671.892 49.3252C672.539 48.5742 673.342 47.9796 674.302 47.5415C675.261 47.1034 676.388 46.8844 677.681 46.8844C678.975 46.8844 680.101 47.1034 681.061 47.5415C682.021 47.9796 682.813 48.5742 683.439 49.3252C684.086 50.0762 684.566 50.9628 684.879 51.9851C685.192 52.9864 685.348 54.0504 685.348 55.1769C685.348 56.3034 685.192 57.3778 684.879 58.4C684.566 59.4014 684.086 60.2776 683.439 61.0286C682.813 61.7796 682.021 62.3742 681.061 62.8122C680.101 63.2503 678.975 63.4694 677.681 63.4694C676.388 63.4694 675.261 63.2503 674.302 62.8122C673.342 62.3742 672.539 61.7796 671.892 61.0286C671.266 60.2776 670.797 59.4014 670.484 58.4C670.171 57.3778 670.015 56.3034 670.015 55.1769ZM672.831 55.1769C672.831 56.3034 672.956 57.2735 673.207 58.0871C673.478 58.9007 673.832 59.5683 674.271 60.0898C674.709 60.6113 675.22 60.9973 675.804 61.2476C676.388 61.4771 677.014 61.5918 677.681 61.5918C678.349 61.5918 678.975 61.4771 679.559 61.2476C680.143 60.9973 680.654 60.6113 681.092 60.0898C681.53 59.5683 681.875 58.9007 682.125 58.0871C682.396 57.2735 682.532 56.3034 682.532 55.1769C682.532 54.0504 682.396 53.0803 682.125 52.2667C681.875 51.4531 681.53 50.7855 681.092 50.264C680.654 49.7424 680.143 49.3669 679.559 49.1374C678.975 48.8871 678.349 48.7619 677.681 48.7619C677.014 48.7619 676.388 48.8871 675.804 49.1374C675.22 49.3669 674.709 49.7424 674.271 50.264C673.832 50.7855 673.478 51.4531 673.207 52.2667C672.956 53.0803 672.831 54.0504 672.831 55.1769ZM687.227 63V47.3538H689.887V59.5578L698.336 47.3538H700.996V63H698.336V50.7959L689.887 63H687.227ZM712.103 47.3538V53.9252H720.239V47.3538H722.899V63H720.239V55.8027H712.103V63H709.443V47.3538H712.103ZM724.62 58.7755C724.62 58.1079 724.735 57.4821 724.964 56.898C725.215 56.3138 725.611 55.8027 726.153 55.3646C726.696 54.9265 727.416 54.5823 728.313 54.332C729.21 54.0608 730.326 53.9252 731.661 53.9252C732.558 53.9252 733.267 53.8522 733.789 53.7061C734.31 53.5601 734.696 53.3724 734.947 53.1429C735.218 52.9134 735.385 52.6526 735.447 52.3606C735.531 52.0476 735.572 51.7347 735.572 51.4218C735.572 50.483 735.228 49.805 734.54 49.3878C733.872 48.9706 732.913 48.7619 731.661 48.7619C728.949 48.7619 727.593 49.8572 727.593 52.0476H724.933C724.933 51.1506 725.1 50.3787 725.434 49.732C725.768 49.0853 726.226 48.5533 726.811 48.1361C727.416 47.698 728.125 47.3851 728.938 47.1973C729.773 46.9887 730.68 46.8844 731.661 46.8844C733.789 46.8844 735.416 47.2912 736.543 48.1048C737.669 48.9184 738.232 50.2327 738.232 52.0476V59.2449C738.232 59.5578 738.243 59.8395 738.264 60.0898C738.284 60.3401 738.337 60.5488 738.42 60.7157C738.524 60.8825 738.681 61.0077 738.889 61.0912C739.098 61.1537 739.401 61.1642 739.797 61.1225V63C739.651 63.0209 739.505 63.0522 739.359 63.0939C739.213 63.1147 739.056 63.1252 738.889 63.1252C738.723 63.146 738.556 63.1565 738.389 63.1565C737.992 63.1565 737.617 63.1252 737.262 63.0626C736.928 63.0209 736.636 62.9166 736.386 62.7497C736.136 62.5828 735.938 62.3429 735.792 62.0299C735.645 61.717 735.572 61.3102 735.572 60.8095V60.3401C735.239 60.9243 734.811 61.4458 734.289 61.9048C733.851 62.3011 733.288 62.6662 732.6 63C731.932 63.3129 731.098 63.4694 730.096 63.4694C728.281 63.4694 726.915 63.0209 725.997 62.1238C725.079 61.2268 724.62 60.1107 724.62 58.7755ZM730.722 61.5918C731.265 61.5918 731.817 61.4875 732.381 61.2789C732.965 61.0703 733.486 60.7261 733.945 60.2463C734.425 59.7456 734.811 59.0989 735.103 58.3061C735.416 57.4925 735.572 56.5016 735.572 55.3334V54.2694C735.572 54.2903 735.51 54.3633 735.385 54.4885C735.28 54.6136 735.072 54.7492 734.759 54.8953C734.446 55.0413 734.018 55.1769 733.476 55.3021C732.933 55.4272 732.224 55.4898 731.348 55.4898C730.91 55.4898 730.461 55.542 730.002 55.6463C729.543 55.7297 729.126 55.8862 728.751 56.1157C728.375 56.3243 728.062 56.6268 727.812 57.0231C727.562 57.3987 727.436 57.8785 727.436 58.4626C727.436 59.4014 727.728 60.1628 728.313 60.7469C728.897 61.3102 729.7 61.5918 730.722 61.5918ZM748.548 47.3538C749.299 47.3538 750.008 47.4164 750.676 47.5415C751.364 47.6667 751.959 47.8753 752.459 48.1674C752.981 48.4594 753.398 48.8454 753.711 49.3252C754.024 49.805 754.18 50.3996 754.18 51.1089C754.18 51.839 754.024 52.4336 753.711 52.8925C753.398 53.3515 753.064 53.7061 752.71 53.9565C752.272 54.2277 751.771 54.4259 751.208 54.551V54.7075C751.875 54.8327 752.48 55.0517 753.023 55.3646C753.461 55.615 753.868 55.9905 754.243 56.4912C754.619 56.971 754.806 57.6281 754.806 58.4626C754.806 59.3179 754.639 60.0376 754.306 60.6218C753.993 61.2059 753.555 61.6753 752.991 62.0299C752.428 62.3846 751.771 62.6349 751.02 62.781C750.29 62.927 749.518 63 748.704 63H741.194V47.3538H748.548ZM748.548 60.966C749.028 60.966 749.476 60.9347 749.893 60.8721C750.311 60.7887 750.676 60.6531 750.989 60.4653C751.302 60.2567 751.541 59.9855 751.708 59.6517C751.896 59.2971 751.99 58.8485 751.99 58.3061C751.99 57.8055 751.896 57.3987 751.708 57.0857C751.541 56.7519 751.302 56.4912 750.989 56.3034C750.676 56.1157 750.311 55.9905 749.893 55.9279C749.476 55.8445 749.028 55.8027 748.548 55.8027H743.854V60.966H748.548ZM748.078 53.9252C749.101 53.9252 749.925 53.7583 750.551 53.4245C751.197 53.0699 751.521 52.4544 751.521 51.5783C751.521 51.0984 751.427 50.7229 751.239 50.4517C751.072 50.1597 750.843 49.9406 750.551 49.7946C750.258 49.6277 749.925 49.5234 749.549 49.4817C749.174 49.4191 748.788 49.3878 748.391 49.3878H743.854V53.9252H748.078ZM756.535 47.3538H759.195V53.7687H762.793C763.607 53.7687 764.379 53.8417 765.109 53.9878C765.86 54.1129 766.517 54.3529 767.08 54.7075C767.644 55.0413 768.082 55.5002 768.395 56.0844C768.728 56.6685 768.895 57.4091 768.895 58.3061C768.895 59.2032 768.728 59.9542 768.395 60.5592C768.082 61.1642 767.644 61.644 767.08 61.9986C766.517 62.3533 765.86 62.6141 765.109 62.781C764.379 62.927 763.607 63 762.793 63H756.535V47.3538ZM770.46 47.3538H773.12V63H770.46V47.3538ZM759.195 55.8027V60.966H762.637C763.117 60.966 763.565 60.9347 763.982 60.8721C764.4 60.7887 764.765 60.6531 765.078 60.4653C765.391 60.2567 765.63 59.9855 765.797 59.6517C765.985 59.2971 766.079 58.8485 766.079 58.3061C766.079 57.8055 765.985 57.3987 765.797 57.0857C765.63 56.7519 765.391 56.4912 765.078 56.3034C764.765 56.1157 764.4 55.9905 763.982 55.9279C763.565 55.8445 763.117 55.8027 762.637 55.8027H759.195ZM775.298 47.3538H777.958V55.4898L785.625 47.3538H788.597L782.558 53.6436L788.91 63H785.781L780.837 55.4585L777.958 58.4626V63H775.298V47.3538ZM790.486 63V47.3538H793.146V59.5578L801.595 47.3538H804.254V63H801.595V50.7959L793.146 63H790.486ZM806.532 66.7551V65.5034C807.324 65.5034 807.856 65.3156 808.127 64.9401C808.419 64.5855 808.566 64.0952 808.566 63.4694V63H807.126V60.0272H809.817V63.4694C809.817 64.5751 809.556 65.3991 809.035 65.9415C808.513 66.4839 807.783 66.7551 806.844 66.7551H806.532Z" fill="white"/>
<path d="M538.599 77.3538V81.4218C538.599 82.8404 538.891 83.873 539.475 84.5197C540.059 85.1665 541.019 85.4898 542.354 85.4898C543.459 85.4898 544.356 85.3021 545.045 84.9265C545.754 84.5302 546.109 83.9356 546.109 83.1429V77.3538H548.769V93H546.109V85.6463C545.817 86.0009 545.452 86.3138 545.014 86.585C544.638 86.8145 544.169 87.0336 543.605 87.2422C543.042 87.4299 542.364 87.5238 541.571 87.5238C539.923 87.5238 538.567 87.0857 537.503 86.2095C536.46 85.3125 535.939 83.9252 535.939 82.0476V77.3538H538.599ZM550.321 79.3878V77.3538H564.559V79.3878H558.77V93H556.11V79.3878H550.321ZM564.722 85.1769C564.722 84.0504 564.878 82.9864 565.191 81.9851C565.504 80.9628 565.973 80.0762 566.599 79.3252C567.246 78.5742 568.049 77.9796 569.009 77.5415C569.968 77.1034 571.095 76.8844 572.388 76.8844C573.682 76.8844 574.808 77.1034 575.768 77.5415C576.728 77.9796 577.52 78.5742 578.146 79.3252C578.793 80.0762 579.273 80.9628 579.586 81.9851C579.899 82.9864 580.055 84.0504 580.055 85.1769C580.055 86.3034 579.899 87.3778 579.586 88.4C579.273 89.4014 578.793 90.2776 578.146 91.0286C577.52 91.7796 576.728 92.3742 575.768 92.8122C574.808 93.2503 573.682 93.4694 572.388 93.4694C571.095 93.4694 569.968 93.2503 569.009 92.8122C568.049 92.3742 567.246 91.7796 566.599 91.0286C565.973 90.2776 565.504 89.4014 565.191 88.4C564.878 87.3778 564.722 86.3034 564.722 85.1769ZM567.538 85.1769C567.538 86.3034 567.663 87.2735 567.914 88.0871C568.185 88.9007 568.539 89.5683 568.977 90.0898C569.416 90.6113 569.927 90.9973 570.511 91.2476C571.095 91.4771 571.721 91.5918 572.388 91.5918C573.056 91.5918 573.682 91.4771 574.266 91.2476C574.85 90.9973 575.361 90.6113 575.799 90.0898C576.237 89.5683 576.582 88.9007 576.832 88.0871C577.103 87.2735 577.239 86.3034 577.239 85.1769C577.239 84.0504 577.103 83.0803 576.832 82.2667C576.582 81.4531 576.237 80.7855 575.799 80.264C575.361 79.7424 574.85 79.3669 574.266 79.1374C573.682 78.8871 573.056 78.7619 572.388 78.7619C571.721 78.7619 571.095 78.8871 570.511 79.1374C569.927 79.3669 569.416 79.7424 568.977 80.264C568.539 80.7855 568.185 81.4531 567.914 82.2667C567.663 83.0803 567.538 84.0504 567.538 85.1769ZM581.621 84.2381C581.621 82.5483 581.767 81.0046 582.059 79.6068C582.372 78.1882 582.873 76.9678 583.561 75.9456C584.249 74.9025 585.157 74.0994 586.283 73.5361C587.431 72.952 588.849 72.6599 590.539 72.6599H592.26C592.97 72.6599 593.512 72.5556 593.887 72.347C594.263 72.1384 594.451 71.7211 594.451 71.0953H596.015C596.015 71.4499 595.984 71.8672 595.921 72.347C595.88 72.8059 595.734 73.244 595.483 73.6613C595.233 74.0785 594.858 74.4331 594.357 74.7252C593.856 75.0173 593.157 75.1633 592.26 75.1633H589.6C588.787 75.1633 588.036 75.2885 587.347 75.5388C586.659 75.7892 586.054 76.1855 585.532 76.7279C585.011 77.2703 584.583 77.9796 584.249 78.8558C583.936 79.732 583.738 80.7959 583.655 82.0476H583.811C584.062 81.1923 584.437 80.4309 584.938 79.7633C585.376 79.2 585.96 78.6889 586.69 78.23C587.441 77.7501 588.411 77.5102 589.6 77.5102C590.894 77.5102 592 77.7397 592.917 78.1987C593.856 78.6368 594.618 79.2313 595.202 79.9823C595.807 80.7125 596.245 81.5574 596.516 82.517C596.808 83.4767 596.954 84.4676 596.954 85.4898C596.954 86.5538 596.798 87.5655 596.485 88.5252C596.172 89.4848 595.692 90.3297 595.045 91.0599C594.419 91.79 593.627 92.3742 592.667 92.8122C591.707 93.2503 590.581 93.4694 589.287 93.4694C587.952 93.4694 586.805 93.2503 585.845 92.8122C584.886 92.3533 584.093 91.717 583.467 90.9034C582.841 90.0898 582.372 89.1197 582.059 87.9932C581.767 86.8667 581.621 85.615 581.621 84.2381ZM589.287 91.5918C589.955 91.5918 590.581 91.4771 591.165 91.2476C591.749 90.9973 592.26 90.6218 592.698 90.1211C593.136 89.6204 593.481 88.9946 593.731 88.2435C594.002 87.4717 594.138 86.5538 594.138 85.4898C594.138 84.4259 594.002 83.5184 593.731 82.7674C593.481 81.9955 593.136 81.3592 592.698 80.8585C592.26 80.3579 591.749 79.9928 591.165 79.7633C590.581 79.513 589.955 79.3878 589.287 79.3878C588.62 79.3878 587.994 79.5234 587.41 79.7946C586.826 80.0658 586.315 80.4622 585.877 80.9837C585.439 81.4844 585.084 82.1207 584.813 82.8925C584.562 83.6436 584.437 84.5093 584.437 85.4898C584.437 86.5538 584.562 87.4717 584.813 88.2435C585.084 88.9946 585.439 89.6204 585.877 90.1211C586.315 90.6218 586.826 90.9973 587.41 91.2476C587.994 91.4771 588.62 91.5918 589.287 91.5918ZM598.833 77.3538H601.493V83.7687H605.091C605.905 83.7687 606.677 83.8417 607.407 83.9878C608.158 84.1129 608.815 84.3529 609.378 84.7075C609.942 85.0413 610.38 85.5002 610.693 86.0844C611.027 86.6685 611.193 87.4091 611.193 88.3061C611.193 89.2032 611.027 89.9542 610.693 90.5592C610.38 91.1642 609.942 91.644 609.378 91.9986C608.815 92.3533 608.158 92.6141 607.407 92.781C606.677 92.927 605.905 93 605.091 93H598.833V77.3538ZM612.758 77.3538H615.418V93H612.758V77.3538ZM601.493 85.8027V90.966H604.935C605.415 90.966 605.863 90.9347 606.281 90.8721C606.698 90.7887 607.063 90.6531 607.376 90.4653C607.689 90.2567 607.929 89.9855 608.095 89.6517C608.283 89.2971 608.377 88.8485 608.377 88.3061C608.377 87.8055 608.283 87.3987 608.095 87.0857C607.929 86.7519 607.689 86.4912 607.376 86.3034C607.063 86.1157 606.698 85.9905 606.281 85.9279C605.863 85.8445 605.415 85.8027 604.935 85.8027H601.493ZM623.861 93V77.3538H626.521V89.5578L634.97 77.3538H637.629V93H634.97V80.7959L626.521 93H623.861ZM639.343 87.8367H642.003C642.003 88.9424 642.337 89.8499 643.004 90.5592C643.693 91.2476 644.819 91.5918 646.384 91.5918C647.198 91.5918 647.886 91.5084 648.449 91.3415C649.013 91.1537 649.461 90.9138 649.795 90.6218C650.15 90.3088 650.4 89.9542 650.546 89.5578C650.692 89.1615 650.765 88.7442 650.765 88.3061C650.765 87.6177 650.567 87.0962 650.17 86.7415C649.774 86.3869 649.284 86.147 648.7 86.0218C648.116 85.8758 647.5 85.8027 646.853 85.8027H644.037V83.9252H646.853C647.876 83.9252 648.7 83.727 649.325 83.3306C649.972 82.9343 650.296 82.298 650.296 81.4218C650.296 80.7125 649.993 80.0971 649.388 79.5755C648.804 79.0331 647.803 78.7619 646.384 78.7619C645.612 78.7619 644.965 78.8767 644.444 79.1062C643.922 79.3356 643.505 79.6173 643.192 79.951C642.879 80.264 642.65 80.6186 642.504 81.015C642.379 81.3905 642.316 81.7347 642.316 82.0476H639.656C639.656 81.547 639.76 80.9941 639.969 80.3891C640.199 79.7842 640.564 79.2209 641.064 78.6994C641.586 78.1778 642.274 77.7501 643.13 77.4164C644.006 77.0617 645.091 76.8844 646.384 76.8844C647.636 76.8844 648.679 77.0096 649.513 77.2599C650.369 77.5102 651.047 77.8336 651.547 78.23C652.048 78.6263 652.403 79.0853 652.611 79.6068C652.841 80.1075 652.955 80.6082 652.955 81.1089C652.955 81.839 652.789 82.4336 652.455 82.8925C652.121 83.3515 651.745 83.7061 651.328 83.9565C650.828 84.2277 650.275 84.4259 649.67 84.551V84.7075C650.4 84.8327 651.057 85.0413 651.641 85.3334C652.121 85.5837 652.559 85.9488 652.955 86.4286C653.373 86.8875 653.581 87.5134 653.581 88.3061C653.581 89.8082 652.966 91.0494 651.735 92.0299C650.525 92.9896 648.741 93.4694 646.384 93.4694C643.964 93.4694 642.18 92.9478 641.033 91.9048C639.906 90.8408 639.343 89.4848 639.343 87.8367ZM655.306 93V77.3538H659.374L664.224 90.1837L669.075 77.3538H673.143V93H670.483V79.8572L665.476 93H662.973L657.966 79.8572V93H655.306ZM675.009 85.1769C675.009 84.0504 675.166 82.9864 675.479 81.9851C675.792 80.9628 676.261 80.0762 676.887 79.3252C677.513 78.5742 678.295 77.9796 679.234 77.5415C680.172 77.1034 681.268 76.8844 682.519 76.8844C683.813 76.8844 684.908 77.1139 685.805 77.5728C686.723 78.0109 687.474 78.595 688.058 79.3252C688.642 80.0345 689.06 80.8481 689.31 81.766C689.581 82.6839 689.717 83.6123 689.717 84.551V85.8027H677.826C677.93 87.8472 678.441 89.3284 679.359 90.2463C680.298 91.1433 681.403 91.5918 682.676 91.5918C683.698 91.5918 684.595 91.3206 685.367 90.7782C686.16 90.2358 686.671 89.4118 686.9 88.3061H689.56C689.247 89.8082 688.507 91.0494 687.338 92.0299C686.191 92.9896 684.637 93.4694 682.676 93.4694C681.382 93.4694 680.256 93.2503 679.296 92.8122C678.337 92.3742 677.533 91.7796 676.887 91.0286C676.261 90.2776 675.792 89.4014 675.479 88.4C675.166 87.3778 675.009 86.3034 675.009 85.1769ZM686.9 83.9252C686.9 82.1311 686.462 80.8272 685.586 80.0136C684.731 79.1792 683.709 78.7619 682.519 78.7619C681.309 78.7619 680.277 79.1687 679.421 79.9823C678.566 80.7959 678.055 82.1102 677.888 83.9252H686.9ZM694.239 77.3538V83.9252H702.375V77.3538H705.035V93H702.375V85.8027H694.239V93H691.58V77.3538H694.239ZM707.226 93V77.3538H709.886V89.5578L718.335 77.3538H720.994V93H718.335V80.7959L709.886 93H707.226ZM722.552 79.3878V77.3538H736.79V79.3878H731.001V93H728.341V79.3878H722.552ZM741.025 77.3538V83.7687H745.25C746.063 83.7687 746.835 83.8417 747.565 83.9878C748.316 84.1129 748.974 84.3529 749.537 84.7075C750.1 85.0413 750.538 85.5002 750.851 86.0844C751.185 86.6685 751.352 87.4091 751.352 88.3061C751.352 89.2032 751.185 89.9542 750.851 90.5592C750.538 91.1642 750.1 91.644 749.537 91.9986C748.974 92.3533 748.316 92.6141 747.565 92.781C746.835 92.927 746.063 93 745.25 93H738.365V77.3538H741.025ZM741.025 90.966H745.093C745.573 90.966 746.022 90.9347 746.439 90.8721C746.856 90.7887 747.221 90.6531 747.534 90.4653C747.847 90.2567 748.087 89.9855 748.254 89.6517C748.442 89.2971 748.535 88.8485 748.535 88.3061C748.535 87.8055 748.442 87.3987 748.254 87.0857C748.087 86.7519 747.847 86.4912 747.534 86.3034C747.221 86.1157 746.856 85.9905 746.439 85.9279C746.022 85.8445 745.573 85.8027 745.093 85.8027H741.025V90.966ZM759.329 93V77.3538H763.397L768.247 90.1837L773.098 77.3538H777.166V93H774.506V79.8572L769.499 93H766.996L761.989 79.8572V93H759.329ZM779.345 93V77.3538H782.005V89.5578L790.454 77.3538H793.114V93H790.454V80.7959L782.005 93H779.345ZM795.297 97.6939V77.3538H797.957V80.1701C798.291 79.5651 798.708 79.0123 799.208 78.5116C799.647 78.0944 800.199 77.7189 800.867 77.3851C801.535 77.0513 802.338 76.8844 803.276 76.8844C804.528 76.8844 805.603 77.1139 806.5 77.5728C807.418 78.0109 808.169 78.6159 808.753 79.3878C809.337 80.1597 809.764 81.0463 810.036 82.0476C810.328 83.0281 810.474 84.0712 810.474 85.1769C810.474 86.2617 810.328 87.3048 810.036 88.3061C809.764 89.3075 809.337 90.1941 808.753 90.966C808.169 91.7379 807.418 92.3533 806.5 92.8122C805.603 93.2503 804.528 93.4694 803.276 93.4694C802.338 93.4694 801.535 93.3025 800.867 92.9687C800.199 92.6141 799.647 92.2281 799.208 91.8109C798.708 91.3311 798.291 90.7887 797.957 90.1837V97.6939H795.297ZM797.957 85.1769C797.957 86.2408 798.082 87.1692 798.332 87.9619C798.603 88.7547 798.958 89.4222 799.396 89.9646C799.834 90.507 800.345 90.9138 800.93 91.185C801.514 91.4562 802.14 91.5918 802.807 91.5918C803.475 91.5918 804.101 91.4771 804.685 91.2476C805.269 90.9973 805.78 90.6113 806.218 90.0898C806.656 89.5683 807 88.9007 807.251 88.0871C807.522 87.2735 807.657 86.3034 807.657 85.1769C807.657 84.0504 807.522 83.0803 807.251 82.2667C807 81.4531 806.656 80.7855 806.218 80.264C805.78 79.7424 805.269 79.3669 804.685 79.1374C804.101 78.8871 803.475 78.7619 802.807 78.7619C802.14 78.7619 801.514 78.8975 800.93 79.1687C800.345 79.4399 799.834 79.8467 799.396 80.3891C798.958 80.9315 798.603 81.5991 798.332 82.3919C798.082 83.1846 797.957 84.1129 797.957 85.1769ZM536.095 106.354H538.755V114.49L546.422 106.354H549.395L543.355 112.644L549.707 122H546.578L541.634 114.459L538.755 117.463V122H536.095V106.354ZM556.609 122V119.81C556.651 119.83 556.703 119.841 556.765 119.841C556.807 119.841 556.859 119.851 556.922 119.872C556.984 119.872 557.057 119.872 557.141 119.872C557.642 119.872 558.09 119.789 558.486 119.622C558.904 119.434 559.248 119.048 559.519 118.464C559.79 117.88 559.999 117.035 560.145 115.929C560.291 114.824 560.364 113.353 560.364 111.517V106.354H571.786V122H569.126V108.388H562.867V111.83C562.867 113.708 562.774 115.303 562.586 116.618C562.398 117.932 562.106 118.996 561.71 119.81C561.313 120.623 560.792 121.218 560.145 121.593C559.519 121.969 558.758 122.156 557.861 122.156C557.673 122.156 557.496 122.146 557.329 122.125C557.183 122.125 557.057 122.115 556.953 122.094C556.828 122.052 556.713 122.021 556.609 122ZM576.179 106.354L581.373 119.215L586.036 106.354H588.852L582.437 122.782C582.166 123.471 581.895 124.065 581.624 124.566C581.353 125.088 581.04 125.515 580.685 125.849C580.33 126.183 579.913 126.433 579.433 126.6C578.974 126.767 578.411 126.85 577.744 126.85C577.514 126.85 577.274 126.84 577.024 126.819C576.794 126.819 576.575 126.809 576.367 126.788C576.137 126.746 575.918 126.715 575.71 126.694V124.722C575.897 124.743 576.085 124.764 576.273 124.785C576.44 124.785 576.607 124.785 576.773 124.785C576.94 124.806 577.107 124.816 577.274 124.816C577.817 124.816 578.286 124.67 578.682 124.378C579.1 124.107 579.465 123.575 579.778 122.782L580.09 122L573.206 106.354H576.179ZM592.749 106.354V110.422C592.749 111.84 593.041 112.873 593.625 113.52C594.21 114.166 595.169 114.49 596.504 114.49C597.61 114.49 598.507 114.302 599.195 113.927C599.905 113.53 600.259 112.936 600.259 112.143V106.354H602.919V122H600.259V114.646C599.967 115.001 599.602 115.314 599.164 115.585C598.789 115.815 598.319 116.034 597.756 116.242C597.193 116.43 596.515 116.524 595.722 116.524C594.074 116.524 592.718 116.086 591.654 115.21C590.611 114.312 590.089 112.925 590.089 111.048V106.354H592.749ZM605.098 122V106.354H607.757V119.966H614.423V106.354H617.051V119.966H623.717V106.354H626.376V122H605.098ZM628.254 114.177C628.254 113.05 628.41 111.986 628.723 110.985C629.036 109.963 629.506 109.076 630.131 108.325C630.757 107.574 631.54 106.98 632.478 106.542C633.417 106.103 634.512 105.884 635.764 105.884C637.058 105.884 638.153 106.114 639.05 106.573C639.968 107.011 640.719 107.595 641.303 108.325C641.887 109.034 642.304 109.848 642.555 110.766C642.826 111.684 642.961 112.612 642.961 113.551V114.803H631.07C631.175 116.847 631.686 118.328 632.604 119.246C633.542 120.143 634.648 120.592 635.921 120.592C636.943 120.592 637.84 120.321 638.612 119.778C639.404 119.236 639.916 118.412 640.145 117.306H642.805C642.492 118.808 641.751 120.049 640.583 121.03C639.436 121.99 637.882 122.469 635.921 122.469C634.627 122.469 633.501 122.25 632.541 121.812C631.581 121.374 630.778 120.78 630.131 120.029C629.506 119.278 629.036 118.401 628.723 117.4C628.41 116.378 628.254 115.303 628.254 114.177ZM640.145 112.925C640.145 111.131 639.707 109.827 638.831 109.014C637.975 108.179 636.953 107.762 635.764 107.762C634.554 107.762 633.521 108.169 632.666 108.982C631.811 109.796 631.3 111.11 631.133 112.925H640.145ZM644.824 122V106.354H648.892L653.743 119.184L658.593 106.354H662.661V122H660.001V108.857L654.994 122H652.491L647.484 108.857V122H644.824ZM667.031 106.354L672.225 119.215L676.888 106.354H679.704L673.289 122.782C673.018 123.471 672.747 124.065 672.476 124.566C672.205 125.088 671.892 125.515 671.537 125.849C671.182 126.183 670.765 126.433 670.285 126.6C669.826 126.767 669.263 126.85 668.596 126.85C668.366 126.85 668.126 126.84 667.876 126.819C667.646 126.819 667.427 126.809 667.219 126.788C666.989 126.746 666.77 126.715 666.561 126.694V124.722C666.749 124.743 666.937 124.764 667.125 124.785C667.292 124.785 667.459 124.785 667.625 124.785C667.792 124.806 667.959 124.816 668.126 124.816C668.669 124.816 669.138 124.67 669.534 124.378C669.952 124.107 670.317 123.575 670.63 122.782L670.942 122L664.058 106.354H667.031ZM679.28 122V119.027H681.972V122H679.28Z" fill="white"/>
<rect x="526" y="183" width="200" height="50" rx="20" fill="white"/>
<path d="M606.019 207.81C606.019 206.342 606.223 204.957 606.63 203.652C607.038 202.321 607.649 201.166 608.465 200.187C609.307 199.209 610.353 198.435 611.603 197.864C612.853 197.293 614.321 197.008 616.005 197.008C617.473 197.008 618.764 197.226 619.878 197.66C621.019 198.068 621.97 198.639 622.731 199.372C623.492 200.079 624.076 200.894 624.484 201.818C624.891 202.742 625.122 203.72 625.177 204.753H621.508C621.291 203.122 620.72 201.832 619.796 200.88C618.899 199.929 617.636 199.454 616.005 199.454C615.136 199.454 614.321 199.617 613.56 199.943C612.799 200.242 612.133 200.731 611.563 201.41C610.992 202.09 610.53 202.959 610.177 204.019C609.851 205.079 609.688 206.342 609.688 207.81C609.688 209.277 609.851 210.541 610.177 211.601C610.53 212.66 610.992 213.53 611.563 214.209C612.133 214.889 612.799 215.391 613.56 215.717C614.321 216.016 615.136 216.166 616.005 216.166C617.636 216.166 618.899 215.69 619.796 214.739C620.72 213.788 621.291 212.497 621.508 210.867H625.177C625.122 211.872 624.891 212.851 624.484 213.802C624.076 214.726 623.492 215.554 622.731 216.288C621.97 216.995 621.019 217.565 619.878 218C618.764 218.408 617.473 218.611 616.005 218.611C614.321 218.611 612.853 218.326 611.603 217.755C610.353 217.185 609.307 216.41 608.465 215.432C607.649 214.454 607.038 213.312 606.63 212.008C606.223 210.677 606.019 209.277 606.019 207.81ZM625.151 197.62H628.82L635.341 214.943L641.863 197.62H645.532L637.176 218H633.507L625.151 197.62Z" fill="black"/>
</svg>
