<svg width="883" height="352" viewBox="0 0 883 352" fill="none" xmlns="http://www.w3.org/2000/svg">
<path d="M0 20C0 8.9543 8.95431 0 20 0L422.5 -1.90735e-06C433.546 -1.90735e-06 442.5 8.9543 442.5 20V329.5C442.5 340.546 419.046 349.5 408 349.5H20C8.9543 349.5 0 340.546 0 329.5V20Z" fill="#7571FC"/>
<path d="M863 35.5C874.046 35.5 883 44.4543 883 55.5V331.5C883 342.546 874.046 351.5 863 351.5L22 351.5C10.9543 351.5 1.99999 342.546 1.99999 331.5L2 55.5C2 44.4543 10.9543 35.5 22 35.5L442.5 35.5L863 35.5Z" fill="#7571FC"/>
<path d="M32.4617 55.4254V45.499H33.3851C34.1853 45.499 34.8933 45.2374 35.5089 44.7141C36.1552 44.1909 36.6939 43.3444 37.1248 42.1748C37.5557 41.0052 37.8789 39.4816 38.0944 37.604C38.3406 35.7265 38.4637 33.4334 38.4637 30.7248V25.4153H55.3155V45.499H59.4708V55.4254H55.5464V48.5H36.3861V55.4254H32.4617ZM51.3911 45.499V28.4163H42.1573V31.1865C42.1573 34.603 41.9264 37.5886 41.4647 40.1434C41.0338 42.6673 40.1874 44.4525 38.9254 45.499H51.3911ZM60.6358 48.5V45.2681C60.6974 45.2989 60.7743 45.3143 60.8667 45.3143C60.9282 45.3143 61.0052 45.3297 61.0975 45.3605C61.1898 45.3605 61.2976 45.3605 61.4207 45.3605C62.1594 45.3605 62.8212 45.2374 63.406 44.9911C64.0216 44.7141 64.5294 44.1447 64.9296 43.2829C65.3297 42.421 65.6375 41.1745 65.8529 39.5432C66.0684 37.9118 66.1761 35.7419 66.1761 33.0333V25.4153H83.0279V48.5H79.1035V28.4163H69.8697V33.495C69.8697 36.2651 69.7312 38.6198 69.4541 40.5589C69.1771 42.498 68.7462 44.0677 68.1614 45.2681C67.5766 46.4685 66.8071 47.3458 65.8529 47.8998C64.9296 48.4538 63.8061 48.7308 62.4826 48.7308C62.2056 48.7308 61.9439 48.7155 61.6977 48.6847C61.4822 48.6847 61.2976 48.6693 61.1437 48.6385C60.959 48.5769 60.7897 48.5308 60.6358 48.5ZM91.9566 38.7583C90.3561 38.4197 89.0018 37.7733 87.8937 36.8192C86.8165 35.8342 86.2778 34.3414 86.2778 32.3407C86.2778 31.0172 86.5241 29.9092 87.0165 29.0165C87.5398 28.1239 88.2169 27.416 89.048 26.8928C89.879 26.3695 90.8332 26.0001 91.9105 25.7847C93.0185 25.5385 94.142 25.4153 95.2808 25.4153H105.9V48.5H101.975V39.0353H95.9734L89.9714 48.5H85.5853L91.9566 38.7583ZM90.4331 32.3407C90.4331 33.0794 90.5716 33.695 90.8486 34.1875C91.1256 34.6492 91.4949 35.0186 91.9566 35.2956C92.4183 35.5726 92.957 35.7727 93.5726 35.8958C94.1882 35.9881 94.8345 36.0343 95.5117 36.0343H101.975V28.4163H95.5117C94.8345 28.4163 94.1882 28.4779 93.5726 28.601C92.957 28.6934 92.4183 28.8934 91.9566 29.2012C91.4949 29.4782 91.1256 29.8784 90.8486 30.4016C90.5716 30.8941 90.4331 31.5405 90.4331 32.3407ZM118.38 55.4254V25.4153H122.304V29.5706C122.797 28.678 123.412 27.8623 124.151 27.1236C124.797 26.508 125.613 25.954 126.598 25.4615C127.583 24.969 128.768 24.7228 130.153 24.7228C132 24.7228 133.585 25.0614 134.909 25.7385C136.263 26.3849 137.371 27.2775 138.233 28.4163C139.095 29.5552 139.726 30.8633 140.126 32.3407C140.557 33.7874 140.772 35.3264 140.772 36.9577C140.772 38.5582 140.557 40.0972 140.126 41.5746C139.726 43.052 139.095 44.3602 138.233 45.499C137.371 46.6378 136.263 47.5458 134.909 48.223C133.585 48.8694 132 49.1925 130.153 49.1925C128.768 49.1925 127.583 48.9463 126.598 48.4538C125.613 47.9306 124.797 47.3612 124.151 46.7456C123.412 46.0376 122.797 45.2374 122.304 44.3448V55.4254H118.38ZM122.304 36.9577C122.304 38.5274 122.489 39.8971 122.858 41.0667C123.258 42.2364 123.782 43.2213 124.428 44.0216C125.074 44.8218 125.829 45.422 126.69 45.8222C127.552 46.2223 128.476 46.4224 129.461 46.4224C130.446 46.4224 131.369 46.2531 132.231 45.9145C133.093 45.5452 133.847 44.9757 134.493 44.2063C135.139 43.4368 135.647 42.4518 136.017 41.2514C136.417 40.051 136.617 38.6198 136.617 36.9577C136.617 35.2956 136.417 33.8643 136.017 32.6639C135.647 31.4635 135.139 30.4786 134.493 29.7091C133.847 28.9396 133.093 28.3856 132.231 28.047C131.369 27.6776 130.446 27.493 129.461 27.493C128.476 27.493 127.552 27.693 126.69 28.0932C125.829 28.4933 125.074 29.0935 124.428 29.8938C123.782 30.694 123.258 31.679 122.858 32.8486C122.489 34.0182 122.304 35.3879 122.304 36.9577ZM142.846 42.2671C142.846 41.2822 143.015 40.3588 143.354 39.497C143.723 38.6352 144.308 37.8811 145.108 37.2347C145.909 36.5883 146.971 36.0805 148.294 35.7111C149.618 35.311 151.264 35.1109 153.234 35.1109C154.558 35.1109 155.604 35.0032 156.374 34.7877C157.143 34.5723 157.713 34.2952 158.082 33.9567C158.482 33.6181 158.728 33.2333 158.821 32.8024C158.944 32.3407 159.005 31.879 159.005 31.4173C159.005 30.0323 158.497 29.0319 157.482 28.4163C156.497 27.8008 155.081 27.493 153.234 27.493C149.233 27.493 147.232 29.1089 147.232 32.3407H143.308C143.308 31.0172 143.554 29.8784 144.046 28.9242C144.539 27.97 145.216 27.1852 146.078 26.5696C146.971 25.9232 148.017 25.4615 149.217 25.1845C150.449 24.8767 151.788 24.7228 153.234 24.7228C156.374 24.7228 158.774 25.323 160.437 26.5234C162.099 27.7238 162.93 29.6629 162.93 32.3407V42.9597C162.93 43.4214 162.945 43.8369 162.976 44.2063C163.007 44.5756 163.084 44.8834 163.207 45.1296C163.361 45.3759 163.591 45.5606 163.899 45.6837C164.207 45.776 164.653 45.7914 165.238 45.7298V48.5C165.023 48.5308 164.807 48.5769 164.592 48.6385C164.376 48.6693 164.146 48.6847 163.899 48.6847C163.653 48.7155 163.407 48.7308 163.161 48.7308C162.576 48.7308 162.022 48.6847 161.498 48.5923C161.006 48.5308 160.575 48.3769 160.206 48.1306C159.836 47.8844 159.544 47.5304 159.329 47.0688C159.113 46.6071 159.005 46.0069 159.005 45.2681V44.5756C158.513 45.4374 157.882 46.2069 157.112 46.8841C156.466 47.4689 155.635 48.0075 154.619 48.5C153.634 48.9617 152.403 49.1925 150.926 49.1925C148.248 49.1925 146.232 48.5308 144.878 47.2073C143.523 45.8837 142.846 44.237 142.846 42.2671ZM151.849 46.4224C152.649 46.4224 153.465 46.2685 154.296 45.9607C155.158 45.6529 155.927 45.145 156.605 44.4371C157.312 43.6984 157.882 42.7442 158.313 41.5746C158.774 40.3742 159.005 38.9122 159.005 37.1885V35.6188C159.005 35.6495 158.913 35.7573 158.728 35.9419C158.574 36.1266 158.267 36.3267 157.805 36.5421C157.343 36.7576 156.712 36.9577 155.912 37.1423C155.112 37.327 154.065 37.4194 152.772 37.4194C152.126 37.4194 151.464 37.4963 150.787 37.6502C150.11 37.7733 149.494 38.0042 148.94 38.3427C148.386 38.6505 147.925 39.0968 147.555 39.6817C147.186 40.2357 147.001 40.9436 147.001 41.8054C147.001 43.1905 147.432 44.314 148.294 45.1758C149.156 46.0069 150.341 46.4224 151.849 46.4224ZM166.162 35.5726C166.162 33.0794 166.377 30.8018 166.808 28.7395C167.27 26.6465 168.008 24.8459 169.024 23.3377C170.04 21.7987 171.379 20.6137 173.041 19.7827C174.734 18.9208 176.827 18.4899 179.32 18.4899H181.859C182.906 18.4899 183.706 18.336 184.26 18.0282C184.814 17.7204 185.091 17.1049 185.091 16.1815H187.399C187.399 16.7047 187.353 17.3203 187.261 18.0282C187.199 18.7054 186.984 19.3518 186.615 19.9674C186.245 20.5829 185.691 21.1062 184.952 21.5371C184.214 21.968 183.183 22.1835 181.859 22.1835H177.935C176.734 22.1835 175.626 22.3682 174.611 22.7375C173.595 23.1069 172.702 23.6917 171.933 24.4919C171.163 25.2922 170.532 26.3387 170.04 27.6315C169.578 28.9242 169.286 30.494 169.163 32.3407H169.393C169.763 31.0788 170.317 29.9553 171.056 28.9704C171.702 28.1393 172.564 27.3852 173.641 26.7081C174.749 26.0001 176.18 25.6462 177.935 25.6462C179.843 25.6462 181.474 25.9848 182.829 26.6619C184.214 27.3083 185.337 28.1855 186.199 29.2936C187.092 30.3708 187.738 31.6174 188.138 33.0333C188.569 34.4491 188.785 35.9112 188.785 37.4194C188.785 38.9891 188.554 40.4819 188.092 41.8978C187.63 43.3136 186.922 44.5602 185.968 45.6375C185.045 46.7148 183.875 47.5766 182.459 48.223C181.043 48.8694 179.381 49.1925 177.473 49.1925C175.503 49.1925 173.81 48.8694 172.394 48.223C170.979 47.5458 169.809 46.6071 168.886 45.4067C167.962 44.2063 167.27 42.775 166.808 41.1129C166.377 39.4508 166.162 37.604 166.162 35.5726ZM177.473 46.4224C178.458 46.4224 179.381 46.2531 180.243 45.9145C181.105 45.5452 181.859 44.9911 182.506 44.2524C183.152 43.5137 183.66 42.5903 184.029 41.4823C184.429 40.3434 184.629 38.9891 184.629 37.4194C184.629 35.8496 184.429 34.5107 184.029 33.4026C183.66 32.2638 183.152 31.325 182.506 30.5863C181.859 29.8476 181.105 29.3089 180.243 28.9704C179.381 28.601 178.458 28.4163 177.473 28.4163C176.488 28.4163 175.565 28.6164 174.703 29.0165C173.841 29.4167 173.087 30.0015 172.441 30.771C171.794 31.5097 171.271 32.4485 170.871 33.5873C170.501 34.6954 170.317 35.9727 170.317 37.4194C170.317 38.9891 170.501 40.3434 170.871 41.4823C171.271 42.5903 171.794 43.5137 172.441 44.2524C173.087 44.9911 173.841 45.5452 174.703 45.9145C175.565 46.2531 176.488 46.4224 177.473 46.4224ZM191.095 36.9577C191.095 35.2956 191.326 33.7258 191.787 32.2484C192.249 30.7402 192.942 29.4321 193.865 28.324C194.819 27.2159 196.004 26.3387 197.42 25.6924C198.836 25.046 200.498 24.7228 202.406 24.7228C204.315 24.7228 205.977 25.046 207.393 25.6924C208.808 26.3387 209.978 27.2159 210.901 28.324C211.856 29.4321 212.564 30.7402 213.025 32.2484C213.487 33.7258 213.718 35.2956 213.718 36.9577C213.718 38.6198 213.487 40.2049 213.025 41.7131C212.564 43.1905 211.856 44.4833 210.901 45.5913C209.978 46.6994 208.808 47.5766 207.393 48.223C205.977 48.8694 204.315 49.1925 202.406 49.1925C200.498 49.1925 198.836 48.8694 197.42 48.223C196.004 47.5766 194.819 46.6994 193.865 45.5913C192.942 44.4833 192.249 43.1905 191.787 41.7131C191.326 40.2049 191.095 38.6198 191.095 36.9577ZM195.25 36.9577C195.25 38.6198 195.435 40.051 195.804 41.2514C196.204 42.4518 196.727 43.4368 197.374 44.2063C198.02 44.9757 198.774 45.5452 199.636 45.9145C200.498 46.2531 201.421 46.4224 202.406 46.4224C203.391 46.4224 204.315 46.2531 205.176 45.9145C206.038 45.5452 206.792 44.9757 207.439 44.2063C208.085 43.4368 208.593 42.4518 208.962 41.2514C209.362 40.051 209.563 38.6198 209.563 36.9577C209.563 35.2956 209.362 33.8643 208.962 32.6639C208.593 31.4635 208.085 30.4786 207.439 29.7091C206.792 28.9396 206.038 28.3856 205.176 28.047C204.315 27.6776 203.391 27.493 202.406 27.493C201.421 27.493 200.498 27.6776 199.636 28.047C198.774 28.3856 198.02 28.9396 197.374 29.7091C196.727 30.4786 196.204 31.4635 195.804 32.6639C195.435 33.8643 195.25 35.2956 195.25 36.9577ZM213.943 28.4163V25.4153H234.95V28.4163H226.409V48.5H222.485V28.4163H213.943ZM237.275 25.4153H241.199V34.88H246.509C247.709 34.88 248.848 34.9878 249.925 35.2032C251.033 35.3879 252.003 35.7419 252.834 36.2651C253.665 36.7576 254.311 37.4348 254.773 38.2966C255.266 39.1584 255.512 40.2511 255.512 41.5746C255.512 42.8981 255.266 44.0062 254.773 44.8988C254.311 45.7914 253.665 46.4993 252.834 47.0226C252.003 47.5458 251.033 47.9306 249.925 48.1768C248.848 48.3923 247.709 48.5 246.509 48.5H237.275V25.4153ZM257.82 25.4153H261.745V48.5H257.82V25.4153ZM241.199 37.8811V45.499H246.278C246.986 45.499 247.648 45.4528 248.263 45.3605C248.879 45.2374 249.417 45.0373 249.879 44.7603C250.341 44.4525 250.695 44.0524 250.941 43.5599C251.218 43.0366 251.357 42.3749 251.357 41.5746C251.357 40.8359 251.218 40.2357 250.941 39.774C250.695 39.2815 250.341 38.8968 249.879 38.6198C249.417 38.3427 248.879 38.1581 248.263 38.0657C247.648 37.9426 246.986 37.8811 246.278 37.8811H241.199ZM33.6159 86.5V63.4153H37.5403V81.4214L50.006 63.4153H53.9304V86.5H50.006V68.494L37.5403 86.5H33.6159ZM66.3943 63.4153H70.3187V75.4194L81.6302 63.4153H86.0163L77.1056 72.6954L86.478 86.5H81.8611L74.5663 75.3732L70.3187 79.8054V86.5H66.3943V63.4153ZM86.267 74.9577C86.267 73.2956 86.4978 71.7258 86.9595 70.2484C87.4212 68.7402 88.1138 67.4321 89.0372 66.324C89.9913 65.2159 91.1763 64.3387 92.5922 63.6924C94.0081 63.046 95.6701 62.7228 97.5785 62.7228C99.4868 62.7228 101.149 63.046 102.565 63.6924C103.981 64.3387 105.15 65.2159 106.074 66.324C107.028 67.4321 107.736 68.7402 108.197 70.2484C108.659 71.7258 108.89 73.2956 108.89 74.9577C108.89 76.6198 108.659 78.2049 108.197 79.7131C107.736 81.1905 107.028 82.4833 106.074 83.5913C105.15 84.6994 103.981 85.5766 102.565 86.223C101.149 86.8694 99.4868 87.1925 97.5785 87.1925C95.6701 87.1925 94.0081 86.8694 92.5922 86.223C91.1763 85.5766 89.9913 84.6994 89.0372 83.5913C88.1138 82.4833 87.4212 81.1905 86.9595 79.7131C86.4978 78.2049 86.267 76.6198 86.267 74.9577ZM90.4222 74.9577C90.4222 76.6198 90.6069 78.051 90.9763 79.2514C91.3764 80.4518 91.8997 81.4368 92.546 82.2063C93.1924 82.9757 93.9465 83.5452 94.8083 83.9145C95.6701 84.2531 96.5935 84.4224 97.5785 84.4224C98.5634 84.4224 99.4868 84.2531 100.349 83.9145C101.21 83.5452 101.965 82.9757 102.611 82.2063C103.257 81.4368 103.765 80.4518 104.135 79.2514C104.535 78.051 104.735 76.6198 104.735 74.9577C104.735 73.2956 104.535 71.8643 104.135 70.6639C103.765 69.4635 103.257 68.4786 102.611 67.7091C101.965 66.9396 101.21 66.3856 100.349 66.047C99.4868 65.6776 98.5634 65.493 97.5785 65.493C96.5935 65.493 95.6701 65.6776 94.8083 66.047C93.9465 66.3856 93.1924 66.9396 92.546 67.7091C91.8997 68.4786 91.3764 69.4635 90.9763 70.6639C90.6069 71.8643 90.4222 73.2956 90.4222 74.9577ZM108.879 86.5V83.2681C108.941 83.2989 109.018 83.3143 109.11 83.3143C109.172 83.3143 109.249 83.3297 109.341 83.3605C109.433 83.3605 109.541 83.3605 109.664 83.3605C110.403 83.3605 111.064 83.2374 111.649 82.9911C112.265 82.7141 112.773 82.1447 113.173 81.2829C113.573 80.421 113.881 79.1745 114.096 77.5432C114.312 75.9118 114.419 73.7419 114.419 71.0333V63.4153H131.271V86.5H127.347V66.4163H118.113V71.495C118.113 74.2651 117.975 76.6198 117.697 78.5589C117.42 80.498 116.99 82.0677 116.405 83.2681C115.82 84.4685 115.05 85.3458 114.096 85.8998C113.173 86.4538 112.049 86.7308 110.726 86.7308C110.449 86.7308 110.187 86.7155 109.941 86.6847C109.726 86.6847 109.541 86.6693 109.387 86.6385C109.202 86.5769 109.033 86.5308 108.879 86.5ZM133.829 80.2671C133.829 79.2822 133.998 78.3588 134.336 77.497C134.706 76.6352 135.291 75.8811 136.091 75.2347C136.891 74.5883 137.953 74.0805 139.277 73.7111C140.6 73.311 142.247 73.1109 144.217 73.1109C145.54 73.1109 146.587 73.0032 147.356 72.7877C148.126 72.5723 148.695 72.2952 149.064 71.9567C149.465 71.6181 149.711 71.2333 149.803 70.8024C149.926 70.3407 149.988 69.879 149.988 69.4173C149.988 68.0323 149.48 67.0319 148.464 66.4163C147.479 65.8008 146.063 65.493 144.217 65.493C140.215 65.493 138.215 67.1089 138.215 70.3407H134.29C134.29 69.0172 134.537 67.8784 135.029 66.9242C135.521 65.97 136.199 65.1852 137.06 64.5696C137.953 63.9232 139 63.4615 140.2 63.1845C141.431 62.8767 142.77 62.7228 144.217 62.7228C147.356 62.7228 149.757 63.323 151.419 64.5234C153.081 65.7238 153.912 67.6629 153.912 70.3407V80.9597C153.912 81.4214 153.928 81.8369 153.958 82.2063C153.989 82.5756 154.066 82.8834 154.189 83.1296C154.343 83.3759 154.574 83.5606 154.882 83.6837C155.19 83.776 155.636 83.7914 156.221 83.7298V86.5C156.005 86.5308 155.79 86.5769 155.574 86.6385C155.359 86.6693 155.128 86.6847 154.882 86.6847C154.636 86.7155 154.389 86.7308 154.143 86.7308C153.558 86.7308 153.004 86.6847 152.481 86.5923C151.989 86.5308 151.558 86.3769 151.188 86.1306C150.819 85.8844 150.527 85.5304 150.311 85.0688C150.096 84.6071 149.988 84.0069 149.988 83.2681V82.5756C149.495 83.4374 148.864 84.2069 148.095 84.8841C147.449 85.4689 146.618 86.0075 145.602 86.5C144.617 86.9617 143.386 87.1925 141.908 87.1925C139.23 87.1925 137.214 86.5308 135.86 85.2073C134.506 83.8837 133.829 82.237 133.829 80.2671ZM142.832 84.4224C143.632 84.4224 144.448 84.2685 145.279 83.9607C146.14 83.6529 146.91 83.145 147.587 82.4371C148.295 81.6984 148.864 80.7442 149.295 79.5746C149.757 78.3742 149.988 76.9122 149.988 75.1885V73.6188C149.988 73.6495 149.896 73.7573 149.711 73.9419C149.557 74.1266 149.249 74.3267 148.787 74.5421C148.326 74.7576 147.695 74.9577 146.895 75.1423C146.094 75.327 145.048 75.4194 143.755 75.4194C143.109 75.4194 142.447 75.4963 141.77 75.6502C141.093 75.7733 140.477 76.0042 139.923 76.3427C139.369 76.6505 138.907 77.0968 138.538 77.6817C138.169 78.2357 137.984 78.9436 137.984 79.8054C137.984 81.1905 138.415 82.314 139.277 83.1758C140.138 84.0069 141.323 84.4224 142.832 84.4224ZM157.144 73.5726C157.144 71.0794 157.36 68.8018 157.79 66.7395C158.252 64.6465 158.991 62.8459 160.007 61.3377C161.022 59.7987 162.361 58.6137 164.023 57.7827C165.716 56.9208 167.809 56.4899 170.302 56.4899H172.842C173.888 56.4899 174.688 56.336 175.243 56.0282C175.797 55.7204 176.074 55.1049 176.074 54.1815H178.382C178.382 54.7047 178.336 55.3203 178.244 56.0282C178.182 56.7054 177.966 57.3518 177.597 57.9674C177.228 58.5829 176.674 59.1062 175.935 59.5371C175.196 59.968 174.165 60.1835 172.842 60.1835H168.917C167.717 60.1835 166.609 60.3682 165.593 60.7375C164.577 61.1069 163.685 61.6917 162.915 62.4919C162.146 63.2922 161.515 64.3387 161.022 65.6315C160.561 66.9242 160.268 68.494 160.145 70.3407H160.376C160.745 69.0788 161.299 67.9553 162.038 66.9704C162.684 66.1393 163.546 65.3852 164.624 64.7081C165.732 64.0001 167.163 63.6462 168.917 63.6462C170.826 63.6462 172.457 63.9848 173.811 64.6619C175.196 65.3083 176.32 66.1855 177.182 67.2936C178.074 68.3708 178.721 69.6174 179.121 71.0333C179.552 72.4491 179.767 73.9112 179.767 75.4194C179.767 76.9891 179.536 78.4819 179.075 79.8978C178.613 81.3136 177.905 82.5602 176.951 83.6375C176.027 84.7148 174.858 85.5766 173.442 86.223C172.026 86.8694 170.364 87.1925 168.456 87.1925C166.486 87.1925 164.793 86.8694 163.377 86.223C161.961 85.5458 160.792 84.6071 159.868 83.4067C158.945 82.2063 158.252 80.775 157.79 79.1129C157.36 77.4508 157.144 75.604 157.144 73.5726ZM168.456 84.4224C169.441 84.4224 170.364 84.2531 171.226 83.9145C172.088 83.5452 172.842 82.9911 173.488 82.2524C174.134 81.5137 174.642 80.5903 175.012 79.4823C175.412 78.3434 175.612 76.9891 175.612 75.4194C175.612 73.8496 175.412 72.5107 175.012 71.4026C174.642 70.2638 174.134 69.325 173.488 68.5863C172.842 67.8476 172.088 67.3089 171.226 66.9704C170.364 66.601 169.441 66.4163 168.456 66.4163C167.471 66.4163 166.547 66.6164 165.685 67.0165C164.824 67.4167 164.07 68.0015 163.423 68.771C162.777 69.5097 162.254 70.4485 161.853 71.5873C161.484 72.6954 161.299 73.9727 161.299 75.4194C161.299 76.9891 161.484 78.3434 161.853 79.4823C162.254 80.5903 162.777 81.5137 163.423 82.2524C164.07 82.9911 164.824 83.5452 165.685 83.9145C166.547 84.2531 167.471 84.4224 168.456 84.4224ZM182.077 74.9577C182.077 73.2956 182.308 71.7258 182.77 70.2484C183.232 68.7402 183.924 67.4321 184.848 66.324C185.802 65.2159 186.987 64.3387 188.403 63.6924C189.818 63.046 191.481 62.7228 193.389 62.7228C195.297 62.7228 196.959 63.046 198.375 63.6924C199.791 64.3387 200.961 65.2159 201.884 66.324C202.838 67.4321 203.546 68.7402 204.008 70.2484C204.469 71.7258 204.7 73.2956 204.7 74.9577C204.7 76.6198 204.469 78.2049 204.008 79.7131C203.546 81.1905 202.838 82.4833 201.884 83.5913C200.961 84.6994 199.791 85.5766 198.375 86.223C196.959 86.8694 195.297 87.1925 193.389 87.1925C191.481 87.1925 189.818 86.8694 188.403 86.223C186.987 85.5766 185.802 84.6994 184.848 83.5913C183.924 82.4833 183.232 81.1905 182.77 79.7131C182.308 78.2049 182.077 76.6198 182.077 74.9577ZM186.233 74.9577C186.233 76.6198 186.417 78.051 186.787 79.2514C187.187 80.4518 187.71 81.4368 188.356 82.2063C189.003 82.9757 189.757 83.5452 190.619 83.9145C191.481 84.2531 192.404 84.4224 193.389 84.4224C194.374 84.4224 195.297 84.2531 196.159 83.9145C197.021 83.5452 197.775 82.9757 198.421 82.2063C199.068 81.4368 199.576 80.4518 199.945 79.2514C200.345 78.051 200.545 76.6198 200.545 74.9577C200.545 73.2956 200.345 71.8643 199.945 70.6639C199.576 69.4635 199.068 68.4786 198.421 67.7091C197.775 66.9396 197.021 66.3856 196.159 66.047C195.297 65.6776 194.374 65.493 193.389 65.493C192.404 65.493 191.481 65.6776 190.619 66.047C189.757 66.3856 189.003 66.9396 188.356 67.7091C187.71 68.4786 187.187 69.4635 186.787 70.6639C186.417 71.8643 186.233 73.2956 186.233 74.9577ZM207.472 93.4254V63.4153H211.397V67.5706C211.889 66.678 212.505 65.8623 213.243 65.1236C213.89 64.508 214.705 63.954 215.69 63.4615C216.675 62.969 217.86 62.7228 219.245 62.7228C221.092 62.7228 222.677 63.0614 224.001 63.7385C225.355 64.3849 226.463 65.2775 227.325 66.4163C228.187 67.5552 228.818 68.8633 229.218 70.3407C229.649 71.7874 229.864 73.3264 229.864 74.9577C229.864 76.5582 229.649 78.0972 229.218 79.5746C228.818 81.052 228.187 82.3602 227.325 83.499C226.463 84.6378 225.355 85.5458 224.001 86.223C222.677 86.8694 221.092 87.1925 219.245 87.1925C217.86 87.1925 216.675 86.9463 215.69 86.4538C214.705 85.9306 213.89 85.3612 213.243 84.7456C212.505 84.0376 211.889 83.2374 211.397 82.3448V93.4254H207.472ZM211.397 74.9577C211.397 76.5274 211.581 77.8971 211.951 79.0667C212.351 80.2364 212.874 81.2213 213.52 82.0216C214.167 82.8218 214.921 83.422 215.783 83.8222C216.645 84.2223 217.568 84.4224 218.553 84.4224C219.538 84.4224 220.461 84.2531 221.323 83.9145C222.185 83.5452 222.939 82.9757 223.585 82.2063C224.232 81.4368 224.74 80.4518 225.109 79.2514C225.509 78.051 225.709 76.6198 225.709 74.9577C225.709 73.2956 225.509 71.8643 225.109 70.6639C224.74 69.4635 224.232 68.4786 223.585 67.7091C222.939 66.9396 222.185 66.3856 221.323 66.047C220.461 65.6776 219.538 65.493 218.553 65.493C217.568 65.493 216.645 65.693 215.783 66.0932C214.921 66.4933 214.167 67.0935 213.52 67.8938C212.874 68.694 212.351 69.679 211.951 70.8486C211.581 72.0182 211.397 73.3879 211.397 74.9577ZM231.938 80.2671C231.938 79.2822 232.108 78.3588 232.446 77.497C232.816 76.6352 233.4 75.8811 234.201 75.2347C235.001 74.5883 236.063 74.0805 237.386 73.7111C238.71 73.311 240.357 73.1109 242.327 73.1109C243.65 73.1109 244.697 73.0032 245.466 72.7877C246.236 72.5723 246.805 72.2952 247.174 71.9567C247.574 71.6181 247.821 71.2333 247.913 70.8024C248.036 70.3407 248.098 69.879 248.098 69.4173C248.098 68.0323 247.59 67.0319 246.574 66.4163C245.589 65.8008 244.173 65.493 242.327 65.493C238.325 65.493 236.325 67.1089 236.325 70.3407H232.4C232.4 69.0172 232.646 67.8784 233.139 66.9242C233.631 65.97 234.308 65.1852 235.17 64.5696C236.063 63.9232 237.109 63.4615 238.31 63.1845C239.541 62.8767 240.88 62.7228 242.327 62.7228C245.466 62.7228 247.867 63.323 249.529 64.5234C251.191 65.7238 252.022 67.6629 252.022 70.3407V80.9597C252.022 81.4214 252.037 81.8369 252.068 82.2063C252.099 82.5756 252.176 82.8834 252.299 83.1296C252.453 83.3759 252.684 83.5606 252.992 83.6837C253.299 83.776 253.746 83.7914 254.331 83.7298V86.5C254.115 86.5308 253.9 86.5769 253.684 86.6385C253.469 86.6693 253.238 86.6847 252.992 86.6847C252.745 86.7155 252.499 86.7308 252.253 86.7308C251.668 86.7308 251.114 86.6847 250.591 86.5923C250.098 86.5308 249.667 86.3769 249.298 86.1306C248.929 85.8844 248.636 85.5304 248.421 85.0688C248.205 84.6071 248.098 84.0069 248.098 83.2681V82.5756C247.605 83.4374 246.974 84.2069 246.205 84.8841C245.558 85.4689 244.727 86.0075 243.712 86.5C242.727 86.9617 241.495 87.1925 240.018 87.1925C237.34 87.1925 235.324 86.5308 233.97 85.2073C232.616 83.8837 231.938 82.237 231.938 80.2671ZM240.941 84.4224C241.742 84.4224 242.557 84.2685 243.388 83.9607C244.25 83.6529 245.02 83.145 245.697 82.4371C246.405 81.6984 246.974 80.7442 247.405 79.5746C247.867 78.3742 248.098 76.9122 248.098 75.1885V73.6188C248.098 73.6495 248.005 73.7573 247.821 73.9419C247.667 74.1266 247.359 74.3267 246.897 74.5421C246.436 74.7576 245.805 74.9577 245.004 75.1423C244.204 75.327 243.158 75.4194 241.865 75.4194C241.218 75.4194 240.557 75.4963 239.88 75.6502C239.202 75.7733 238.587 76.0042 238.033 76.3427C237.479 76.6505 237.017 77.0968 236.648 77.6817C236.278 78.2357 236.094 78.9436 236.094 79.8054C236.094 81.1905 236.525 82.314 237.386 83.1758C238.248 84.0069 239.433 84.4224 240.941 84.4224ZM256.392 86.5V63.4153H260.316V83.499H272.32V63.4153H276.245V83.499H280.4V93.4254H276.476V86.5H256.392ZM282.497 86.5V63.4153H286.422V81.4214L298.888 63.4153H302.812V86.5H298.888V68.494L286.422 86.5H282.497ZM306.033 86.5V63.4153H309.957V81.4214L322.423 63.4153H326.347V86.5H322.423V68.494L309.957 86.5H306.033ZM312.497 56.4899C312.497 57.4133 312.774 58.1828 313.328 58.7984C313.882 59.414 314.836 59.7218 316.19 59.7218C317.545 59.7218 318.499 59.414 319.053 58.7984C319.607 58.1828 319.884 57.4133 319.884 56.4899H323.577C323.577 57.0132 323.485 57.598 323.3 58.2444C323.116 58.8907 322.746 59.4909 322.192 60.045C321.669 60.599 320.93 61.0761 319.976 61.4762C319.022 61.8456 317.76 62.0303 316.19 62.0303C314.62 62.0303 313.359 61.8456 312.404 61.4762C311.45 61.0761 310.696 60.599 310.142 60.045C309.619 59.4909 309.265 58.8907 309.08 58.2444C308.895 57.598 308.803 57.0132 308.803 56.4899H312.497Z" fill="white"/>
<path d="M457.891 258.12V278.5H454.427V258.12H457.891ZM457.891 252.005V255.878H454.427V252.005H457.891ZM479.71 247.726C482.128 247.726 484.397 248.147 486.517 248.989C488.636 249.804 490.484 250.959 492.06 252.454C493.663 253.948 494.927 255.715 495.851 257.753C496.775 259.791 497.237 262.019 497.237 264.437C497.237 266.231 496.979 267.793 496.462 269.125C495.973 270.429 495.321 271.53 494.506 272.427C493.718 273.296 492.821 273.948 491.816 274.383C490.837 274.818 489.859 275.035 488.881 275.035C487.739 275.035 486.843 274.75 486.191 274.179C485.538 273.582 485.212 272.508 485.212 270.959C484.859 271.747 484.37 272.454 483.745 273.079C483.229 273.622 482.549 274.125 481.707 274.587C480.864 275.022 479.791 275.239 478.487 275.239C477.318 275.239 476.204 275.022 475.144 274.587C474.085 274.125 473.147 273.473 472.332 272.63C471.544 271.761 470.905 270.715 470.416 269.492C469.954 268.242 469.723 266.829 469.723 265.253C469.723 263.677 469.954 262.277 470.416 261.054C470.905 259.804 471.544 258.758 472.332 257.916C473.147 257.046 474.085 256.394 475.144 255.959C476.204 255.497 477.318 255.266 478.487 255.266C479.791 255.266 480.864 255.484 481.707 255.918C482.549 256.353 483.229 256.842 483.745 257.386C484.37 258.038 484.859 258.758 485.212 259.546V255.878H488.269V269.94C488.269 270.864 488.351 271.503 488.514 271.856C488.677 272.209 489.071 272.386 489.696 272.386C489.995 272.386 490.43 272.277 491 272.06C491.571 271.815 492.128 271.394 492.672 270.796C493.242 270.198 493.731 269.383 494.139 268.351C494.574 267.318 494.791 266.014 494.791 264.437C494.791 262.345 494.397 260.429 493.609 258.69C492.821 256.951 491.734 255.456 490.348 254.206C488.989 252.929 487.4 251.937 485.579 251.231C483.758 250.524 481.802 250.171 479.71 250.171C477.536 250.171 475.525 250.552 473.677 251.312C471.829 252.046 470.226 253.092 468.867 254.451C467.536 255.783 466.489 257.372 465.729 259.22C464.995 261.068 464.628 263.079 464.628 265.253C464.628 267.427 464.995 269.437 465.729 271.285C466.489 273.133 467.536 274.736 468.867 276.095C470.226 277.427 471.829 278.459 473.677 279.193C475.525 279.954 477.536 280.334 479.71 280.334C481.014 280.334 482.277 280.171 483.5 279.845C484.723 279.519 485.878 279.057 486.965 278.459L488.147 280.579C486.87 281.285 485.525 281.829 484.112 282.209C482.726 282.59 481.258 282.78 479.71 282.78C477.182 282.78 474.845 282.332 472.699 281.435C470.579 280.565 468.731 279.356 467.155 277.807C465.606 276.231 464.383 274.383 463.487 272.264C462.617 270.117 462.182 267.78 462.182 265.253C462.182 262.726 462.617 260.402 463.487 258.283C464.383 256.136 465.606 254.288 467.155 252.739C468.731 251.163 470.579 249.94 472.699 249.071C474.845 248.174 477.182 247.726 479.71 247.726ZM479.302 272.793C481.041 272.793 482.454 272.128 483.541 270.796C484.655 269.465 485.212 267.617 485.212 265.253C485.212 262.889 484.655 261.041 483.541 259.709C482.454 258.378 481.041 257.712 479.302 257.712C478.432 257.712 477.617 257.875 476.856 258.201C476.095 258.5 475.43 258.962 474.859 259.587C474.288 260.212 473.826 261 473.473 261.951C473.147 262.875 472.984 263.976 472.984 265.253C472.984 266.53 473.147 267.644 473.473 268.595C473.826 269.519 474.288 270.293 474.859 270.918C475.43 271.543 476.095 272.019 476.856 272.345C477.617 272.644 478.432 272.793 479.302 272.793ZM500.507 257.508C500.507 256.394 500.697 255.456 501.078 254.696C501.485 253.908 501.988 253.269 502.586 252.78C503.184 252.291 503.836 251.937 504.542 251.72C505.276 251.503 505.969 251.394 506.621 251.394C507.273 251.394 507.953 251.503 508.659 251.72C509.393 251.937 510.059 252.291 510.657 252.78C511.254 253.269 511.744 253.908 512.124 254.696C512.532 255.456 512.735 256.394 512.735 257.508C512.735 258.622 512.532 259.573 512.124 260.361C511.744 261.122 511.254 261.747 510.657 262.236C510.059 262.726 509.393 263.079 508.659 263.296C507.953 263.514 507.273 263.622 506.621 263.622C505.969 263.622 505.276 263.514 504.542 263.296C503.836 263.079 503.184 262.726 502.586 262.236C501.988 261.747 501.485 261.122 501.078 260.361C500.697 259.573 500.507 258.622 500.507 257.508ZM522.11 266.883C522.763 266.883 523.442 266.992 524.148 267.209C524.882 267.427 525.548 267.78 526.146 268.269C526.744 268.758 527.233 269.397 527.613 270.185C528.021 270.946 528.225 271.883 528.225 272.997C528.225 274.111 528.021 275.062 527.613 275.851C527.233 276.611 526.744 277.236 526.146 277.726C525.548 278.215 524.882 278.568 524.148 278.785C523.442 279.003 522.763 279.111 522.11 279.111C521.458 279.111 520.765 279.003 520.032 278.785C519.325 278.568 518.673 278.215 518.075 277.726C517.477 277.236 516.975 276.611 516.567 275.851C516.187 275.062 515.996 274.111 515.996 272.997C515.996 271.883 516.187 270.946 516.567 270.185C516.975 269.397 517.477 268.758 518.075 268.269C518.673 267.78 519.325 267.427 520.032 267.209C520.765 266.992 521.458 266.883 522.11 266.883ZM502.545 277.562L524.352 251.394L526.187 252.943L504.379 279.111L502.545 277.562ZM522.11 276.666C523.143 276.666 523.972 276.34 524.597 275.687C525.249 275.035 525.575 274.139 525.575 272.997C525.575 271.856 525.249 270.959 524.597 270.307C523.972 269.655 523.143 269.329 522.11 269.329C521.078 269.329 520.235 269.655 519.583 270.307C518.958 270.959 518.646 271.856 518.646 272.997C518.646 274.139 518.958 275.035 519.583 275.687C520.235 276.34 521.078 276.666 522.11 276.666ZM503.157 257.508C503.157 258.649 503.469 259.546 504.094 260.198C504.746 260.851 505.589 261.177 506.621 261.177C507.654 261.177 508.483 260.851 509.108 260.198C509.76 259.546 510.086 258.649 510.086 257.508C510.086 256.367 509.76 255.47 509.108 254.818C508.483 254.166 507.654 253.84 506.621 253.84C505.589 253.84 504.746 254.166 504.094 254.818C503.469 255.47 503.157 256.367 503.157 257.508ZM530.436 269.736H533.901C533.901 270.606 534.023 271.448 534.268 272.264C534.539 273.052 534.933 273.758 535.45 274.383C535.993 275.008 536.673 275.524 537.488 275.932C538.303 276.34 539.281 276.584 540.423 276.666V266.272C538.656 266.217 537.162 266.014 535.939 265.66C534.716 265.28 533.724 264.777 532.963 264.152C532.23 263.5 531.686 262.753 531.333 261.91C531.007 261.041 530.844 260.117 530.844 259.139C530.844 256.992 531.673 255.212 533.33 253.799C535.015 252.359 537.379 251.571 540.423 251.435V248.948H542.868V251.435C544.635 251.516 546.102 251.815 547.27 252.331C548.466 252.848 549.417 253.486 550.124 254.247C550.83 255.008 551.319 255.837 551.591 256.734C551.89 257.63 552.039 258.5 552.039 259.342H548.575C548.575 258.772 548.48 258.187 548.289 257.59C548.099 256.965 547.773 256.394 547.311 255.878C546.876 255.361 546.292 254.927 545.558 254.573C544.825 254.193 543.928 253.962 542.868 253.88V263.622C544.743 263.649 546.306 263.826 547.556 264.152C548.833 264.451 549.866 264.899 550.654 265.497C551.442 266.095 551.999 266.815 552.325 267.658C552.678 268.5 552.855 269.465 552.855 270.552C552.855 271.693 552.651 272.766 552.243 273.772C551.836 274.777 551.211 275.66 550.368 276.421C549.553 277.182 548.52 277.807 547.27 278.296C546.02 278.758 544.553 279.03 542.868 279.111V281.557H540.423V279.071C538.629 278.989 537.094 278.69 535.817 278.174C534.567 277.63 533.534 276.937 532.719 276.095C531.931 275.226 531.347 274.247 530.966 273.16C530.613 272.046 530.436 270.905 530.436 269.736ZM542.868 276.666C544.064 276.584 545.069 276.367 545.885 276.014C546.7 275.633 547.352 275.185 547.841 274.668C548.33 274.125 548.67 273.527 548.86 272.875C549.078 272.223 549.186 271.584 549.186 270.959C549.186 269.628 548.738 268.554 547.841 267.739C546.972 266.897 545.314 266.421 542.868 266.312V276.666ZM534.512 259.139C534.512 260.361 534.988 261.38 535.939 262.196C536.917 263.011 538.412 263.486 540.423 263.622V253.88C538.683 253.989 537.257 254.465 536.143 255.307C535.056 256.149 534.512 257.427 534.512 259.139ZM554.484 272.997C554.484 272.128 554.633 271.312 554.932 270.552C555.258 269.791 555.774 269.125 556.481 268.554C557.187 267.984 558.125 267.535 559.293 267.209C560.462 266.856 561.916 266.679 563.655 266.679C564.823 266.679 565.747 266.584 566.426 266.394C567.106 266.204 567.609 265.959 567.935 265.66C568.288 265.361 568.505 265.022 568.587 264.641C568.696 264.234 568.75 263.826 568.75 263.418C568.75 262.196 568.301 261.312 567.405 260.769C566.535 260.226 565.285 259.954 563.655 259.954C560.122 259.954 558.356 261.38 558.356 264.234H554.891C554.891 263.065 555.109 262.06 555.543 261.217C555.978 260.375 556.576 259.682 557.337 259.139C558.125 258.568 559.049 258.16 560.109 257.916C561.196 257.644 562.378 257.508 563.655 257.508C566.426 257.508 568.546 258.038 570.013 259.098C571.481 260.158 572.215 261.87 572.215 264.234V273.609C572.215 274.016 572.228 274.383 572.255 274.709C572.282 275.035 572.35 275.307 572.459 275.524C572.595 275.742 572.799 275.905 573.071 276.014C573.342 276.095 573.736 276.109 574.253 276.054V278.5C574.062 278.527 573.872 278.568 573.682 278.622C573.492 278.649 573.288 278.663 573.071 278.663C572.853 278.69 572.636 278.704 572.418 278.704C571.902 278.704 571.413 278.663 570.951 278.582C570.516 278.527 570.136 278.391 569.81 278.174C569.484 277.957 569.225 277.644 569.035 277.236C568.845 276.829 568.75 276.299 568.75 275.647V275.035C568.315 275.796 567.758 276.476 567.079 277.073C566.508 277.59 565.774 278.065 564.878 278.5C564.008 278.908 562.921 279.111 561.617 279.111C559.253 279.111 557.473 278.527 556.277 277.359C555.081 276.19 554.484 274.736 554.484 272.997ZM562.432 276.666C563.138 276.666 563.859 276.53 564.592 276.258C565.353 275.986 566.032 275.538 566.63 274.913C567.255 274.261 567.758 273.418 568.138 272.386C568.546 271.326 568.75 270.035 568.75 268.514V267.128C568.75 267.155 568.668 267.25 568.505 267.413C568.369 267.576 568.098 267.753 567.69 267.943C567.282 268.133 566.725 268.31 566.019 268.473C565.312 268.636 564.388 268.717 563.247 268.717C562.676 268.717 562.092 268.785 561.494 268.921C560.897 269.03 560.353 269.234 559.864 269.533C559.375 269.804 558.967 270.198 558.641 270.715C558.315 271.204 558.152 271.829 558.152 272.59C558.152 273.812 558.532 274.804 559.293 275.565C560.054 276.299 561.1 276.666 562.432 276.666ZM584.642 257.508C585.865 257.508 586.911 257.726 587.78 258.16C588.677 258.595 589.397 259.084 589.941 259.628C590.593 260.28 591.136 261 591.571 261.788V258.12H595.036V276.462C595.036 277.739 594.832 278.908 594.424 279.967C594.017 281.054 593.405 281.978 592.59 282.739C591.775 283.527 590.756 284.139 589.533 284.573C588.31 285.008 586.884 285.226 585.253 285.226C582.482 285.226 580.308 284.587 578.732 283.31C577.183 282.033 576.299 280.429 576.082 278.5H579.547C579.764 279.94 580.376 281.014 581.381 281.72C582.414 282.427 583.704 282.78 585.253 282.78C586.068 282.78 586.857 282.671 587.617 282.454C588.378 282.264 589.044 281.924 589.615 281.435C590.213 280.973 590.688 280.334 591.041 279.519C591.395 278.704 591.571 277.685 591.571 276.462V274.016C591.136 274.804 590.593 275.511 589.941 276.136C589.397 276.679 588.677 277.182 587.78 277.644C586.911 278.079 585.865 278.296 584.642 278.296C583.011 278.296 581.598 278.011 580.403 277.44C579.234 276.842 578.27 276.068 577.509 275.117C576.748 274.139 576.177 273.024 575.797 271.774C575.443 270.524 575.267 269.234 575.267 267.902C575.267 266.571 575.443 265.28 575.797 264.03C576.177 262.78 576.748 261.679 577.509 260.728C578.27 259.75 579.234 258.976 580.403 258.405C581.598 257.807 583.011 257.508 584.642 257.508ZM585.253 275.851C586.123 275.851 586.938 275.674 587.699 275.321C588.46 274.967 589.126 274.465 589.696 273.812C590.267 273.133 590.715 272.304 591.041 271.326C591.395 270.321 591.571 269.179 591.571 267.902C591.571 266.625 591.395 265.497 591.041 264.519C590.715 263.514 590.267 262.685 589.696 262.033C589.126 261.353 588.46 260.837 587.699 260.484C586.938 260.13 586.123 259.954 585.253 259.954C584.384 259.954 583.568 260.117 582.808 260.443C582.047 260.742 581.381 261.217 580.81 261.87C580.24 262.522 579.778 263.351 579.424 264.356C579.098 265.334 578.935 266.516 578.935 267.902C578.935 269.288 579.098 270.484 579.424 271.489C579.778 272.467 580.24 273.283 580.81 273.935C581.381 274.587 582.047 275.076 582.808 275.402C583.568 275.701 584.384 275.851 585.253 275.851ZM601.351 258.12V263.582C601.405 263.446 601.568 263.079 601.84 262.481C602.112 261.856 602.519 261.217 603.063 260.565C603.633 259.886 604.367 259.274 605.264 258.731C606.16 258.187 607.234 257.916 608.484 257.916H609.503V261.177H608.28C606.242 261.177 604.571 261.87 603.266 263.255C601.989 264.641 601.351 266.87 601.351 269.94V278.5H597.886V258.12H601.351ZM610.53 272.997C610.53 272.128 610.679 271.312 610.978 270.552C611.304 269.791 611.821 269.125 612.527 268.554C613.234 267.984 614.171 267.535 615.34 267.209C616.508 266.856 617.962 266.679 619.701 266.679C620.869 266.679 621.793 266.584 622.473 266.394C623.152 266.204 623.655 265.959 623.981 265.66C624.334 265.361 624.552 265.022 624.633 264.641C624.742 264.234 624.796 263.826 624.796 263.418C624.796 262.196 624.348 261.312 623.451 260.769C622.581 260.226 621.331 259.954 619.701 259.954C616.168 259.954 614.402 261.38 614.402 264.234H610.937C610.937 263.065 611.155 262.06 611.59 261.217C612.024 260.375 612.622 259.682 613.383 259.139C614.171 258.568 615.095 258.16 616.155 257.916C617.242 257.644 618.424 257.508 619.701 257.508C622.473 257.508 624.592 258.038 626.06 259.098C627.527 260.158 628.261 261.87 628.261 264.234V273.609C628.261 274.016 628.274 274.383 628.302 274.709C628.329 275.035 628.397 275.307 628.505 275.524C628.641 275.742 628.845 275.905 629.117 276.014C629.389 276.095 629.783 276.109 630.299 276.054V278.5C630.109 278.527 629.918 278.568 629.728 278.622C629.538 278.649 629.334 278.663 629.117 278.663C628.899 278.69 628.682 278.704 628.465 278.704C627.948 278.704 627.459 278.663 626.997 278.582C626.562 278.527 626.182 278.391 625.856 278.174C625.53 277.957 625.272 277.644 625.081 277.236C624.891 276.829 624.796 276.299 624.796 275.647V275.035C624.361 275.796 623.804 276.476 623.125 277.073C622.554 277.59 621.821 278.065 620.924 278.5C620.054 278.908 618.967 279.111 617.663 279.111C615.299 279.111 613.519 278.527 612.323 277.359C611.128 276.19 610.53 274.736 610.53 272.997ZM618.478 276.666C619.185 276.666 619.905 276.53 620.639 276.258C621.399 275.986 622.079 275.538 622.677 274.913C623.302 274.261 623.804 273.418 624.185 272.386C624.592 271.326 624.796 270.035 624.796 268.514V267.128C624.796 267.155 624.715 267.25 624.552 267.413C624.416 267.576 624.144 267.753 623.736 267.943C623.329 268.133 622.772 268.31 622.065 268.473C621.359 268.636 620.435 268.717 619.293 268.717C618.723 268.717 618.139 268.785 617.541 268.921C616.943 269.03 616.399 269.234 615.91 269.533C615.421 269.804 615.014 270.198 614.687 270.715C614.361 271.204 614.198 271.829 614.198 272.59C614.198 273.812 614.579 274.804 615.34 275.565C616.1 276.299 617.147 276.666 618.478 276.666ZM632.119 258.12H635.583V261.788C636.018 261 636.535 260.28 637.132 259.628C637.649 259.084 638.274 258.595 639.007 258.16C639.768 257.726 640.665 257.508 641.698 257.508C643.165 257.508 644.374 257.875 645.325 258.609C646.276 259.342 646.942 260.47 647.323 261.992C647.377 261.91 647.54 261.625 647.812 261.136C648.111 260.647 648.518 260.144 649.035 259.628C649.578 259.084 650.23 258.595 650.991 258.16C651.779 257.726 652.689 257.508 653.722 257.508C655.679 257.508 657.187 258.092 658.247 259.261C659.306 260.402 659.836 262.196 659.836 264.641V278.5H656.372V265.457C656.372 263.609 656.059 262.264 655.434 261.421C654.836 260.579 653.926 260.158 652.703 260.158C652.051 260.158 651.426 260.293 650.828 260.565C650.23 260.81 649.687 261.19 649.198 261.707C648.736 262.223 648.355 262.861 648.056 263.622C647.785 264.356 647.635 265.212 647.608 266.19V278.5H644.143V265.457C644.143 263.609 643.844 262.264 643.246 261.421C642.676 260.579 641.82 260.158 640.679 260.158C640.026 260.158 639.388 260.293 638.763 260.565C638.138 260.837 637.594 261.245 637.132 261.788C636.67 262.332 636.29 262.997 635.991 263.785C635.719 264.546 635.583 265.443 635.583 266.476V278.5H632.119V258.12ZM663.586 278.5V274.628H667.092V278.5H663.586ZM663.586 261.992V258.12H667.092V261.992H663.586ZM454.019 302.31C454.019 300.842 454.223 299.457 454.63 298.152C455.038 296.821 455.649 295.666 456.465 294.687C457.28 293.709 458.299 292.935 459.522 292.364C460.745 291.793 462.171 291.508 463.802 291.508C465.486 291.508 466.913 291.807 468.082 292.405C469.277 292.976 470.255 293.736 471.016 294.687C471.777 295.611 472.321 296.671 472.647 297.867C473 299.062 473.177 300.272 473.177 301.495V303.125H457.688C457.823 305.788 458.489 307.717 459.685 308.913C460.908 310.082 462.348 310.666 464.005 310.666C465.337 310.666 466.505 310.312 467.511 309.606C468.543 308.899 469.209 307.826 469.508 306.386H472.973C472.565 308.342 471.601 309.959 470.079 311.236C468.584 312.486 466.56 313.111 464.005 313.111C462.321 313.111 460.853 312.826 459.603 312.255C458.353 311.685 457.307 310.91 456.465 309.932C455.649 308.954 455.038 307.812 454.63 306.508C454.223 305.177 454.019 303.777 454.019 302.31ZM469.508 300.679C469.508 298.342 468.938 296.644 467.796 295.584C466.682 294.497 465.351 293.954 463.802 293.954C462.226 293.954 460.88 294.484 459.766 295.543C458.652 296.603 457.986 298.315 457.769 300.679H469.508ZM478.253 306.386C478.253 307.609 478.701 308.628 479.598 309.443C480.522 310.258 481.908 310.666 483.755 310.666C484.815 310.666 485.685 310.557 486.364 310.34C487.043 310.095 487.587 309.796 487.995 309.443C488.402 309.062 488.674 308.641 488.81 308.179C488.973 307.717 489.054 307.255 489.054 306.793C489.054 306.332 488.973 305.883 488.81 305.448C488.647 305.014 488.348 304.62 487.913 304.266C487.505 303.913 486.908 303.641 486.12 303.451C485.359 303.234 484.367 303.125 483.144 303.125C480.59 303.125 478.62 302.677 477.234 301.78C475.875 300.856 475.196 299.47 475.196 297.622C475.196 296.807 475.372 296.033 475.725 295.299C476.079 294.565 476.609 293.913 477.315 293.342C478.049 292.772 478.946 292.323 480.005 291.997C481.092 291.671 482.342 291.508 483.755 291.508C485.495 291.508 486.894 291.739 487.954 292.201C489.014 292.636 489.829 293.179 490.399 293.831C490.997 294.484 491.391 295.177 491.581 295.91C491.799 296.617 491.908 297.255 491.908 297.826H488.443C488.443 297.527 488.389 297.16 488.28 296.726C488.171 296.264 487.954 295.829 487.628 295.421C487.302 295.014 486.826 294.674 486.201 294.402C485.603 294.103 484.788 293.954 483.755 293.954C482.206 293.954 480.997 294.266 480.128 294.891C479.285 295.489 478.864 296.399 478.864 297.622C478.864 298.764 479.34 299.565 480.291 300.027C481.269 300.462 482.628 300.679 484.367 300.679C487.247 300.679 489.353 301.196 490.685 302.228C492.043 303.261 492.723 304.647 492.723 306.386C492.723 308.315 491.989 309.918 490.522 311.196C489.081 312.473 486.826 313.111 483.755 313.111C482.179 313.111 480.821 312.935 479.679 312.582C478.565 312.228 477.641 311.753 476.908 311.155C476.174 310.53 475.63 309.81 475.277 308.995C474.951 308.179 474.788 307.31 474.788 306.386H478.253ZM494.75 286.005H498.214V295.788C498.758 295 499.383 294.28 500.089 293.628C500.714 293.084 501.462 292.595 502.331 292.16C503.201 291.726 504.206 291.508 505.348 291.508C507.386 291.508 509.043 292.092 510.32 293.261C511.625 294.402 512.277 296.196 512.277 298.641V312.5H508.812V299.457C508.812 297.609 508.391 296.264 507.549 295.421C506.733 294.579 505.66 294.158 504.329 294.158C503.513 294.158 502.739 294.307 502.005 294.606C501.271 294.878 500.619 295.312 500.049 295.91C499.478 296.481 499.03 297.215 498.704 298.111C498.377 299.008 498.214 300.068 498.214 301.291V312.5H494.75V286.005ZM515.13 312.5V286.005H518.595V312.5H515.13ZM524.516 292.12V290.693C524.516 288.764 524.829 287.432 525.454 286.698C526.079 285.965 527.261 285.598 529 285.598H532.465V288.247H530.019C529.204 288.247 528.66 288.383 528.389 288.655C528.117 288.899 527.981 289.579 527.981 290.693V292.12H532.465V294.769H527.981V312.5H524.516V294.769H520.44V292.12H524.516ZM537.98 292.12V297.582C538.034 297.446 538.198 297.079 538.469 296.481C538.741 295.856 539.149 295.217 539.692 294.565C540.263 293.886 540.996 293.274 541.893 292.731C542.79 292.187 543.863 291.916 545.113 291.916H546.132V295.177H544.91C542.871 295.177 541.2 295.87 539.896 297.255C538.619 298.641 537.98 300.87 537.98 303.94V312.5H534.515V292.12H537.98ZM547.548 292.12H551.216L557.738 309.443L564.26 292.12H567.928L559.572 312.5H555.904L547.548 292.12Z" fill="white"/>
<path d="M46.019 267.31C46.019 265.842 46.2228 264.457 46.6304 263.152C47.038 261.821 47.6495 260.666 48.4647 259.687C49.2799 258.709 50.2989 257.935 51.5217 257.364C52.7446 256.793 54.1712 256.508 55.8016 256.508C57.4864 256.508 58.9131 256.807 60.0815 257.405C61.2772 257.976 62.2555 258.736 63.0163 259.687C63.7772 260.611 64.3207 261.671 64.6468 262.867C65 264.062 65.1767 265.272 65.1767 266.495V268.125H49.6875C49.8234 270.788 50.4891 272.717 51.6848 273.913C52.9076 275.082 54.3478 275.666 56.0054 275.666C57.337 275.666 58.5055 275.312 59.5109 274.606C60.5435 273.899 61.2093 272.826 61.5082 271.386H64.9729C64.5652 273.342 63.6006 274.959 62.0788 276.236C60.5843 277.486 58.5598 278.111 56.0054 278.111C54.3207 278.111 52.8533 277.826 51.6033 277.255C50.3533 276.685 49.3071 275.91 48.4647 274.932C47.6495 273.954 47.038 272.812 46.6304 271.508C46.2228 270.177 46.019 268.777 46.019 267.31ZM61.5082 265.679C61.5082 263.342 60.9375 261.644 59.7962 260.584C58.6821 259.497 57.3506 258.954 55.8016 258.954C54.2256 258.954 52.8804 259.484 51.7663 260.543C50.6522 261.603 49.9864 263.315 49.769 265.679H61.5082ZM70.2527 271.386C70.2527 272.609 70.701 273.628 71.5978 274.443C72.5217 275.258 73.9076 275.666 75.7554 275.666C76.8152 275.666 77.6847 275.557 78.3641 275.34C79.0434 275.095 79.5869 274.796 79.9945 274.443C80.4021 274.062 80.6739 273.641 80.8097 273.179C80.9728 272.717 81.0543 272.255 81.0543 271.793C81.0543 271.332 80.9728 270.883 80.8097 270.448C80.6467 270.014 80.3478 269.62 79.913 269.266C79.5054 268.913 78.9076 268.641 78.1195 268.451C77.3586 268.234 76.3668 268.125 75.144 268.125C72.5896 268.125 70.6195 267.677 69.2336 266.78C67.8749 265.856 67.1956 264.47 67.1956 262.622C67.1956 261.807 67.3722 261.033 67.7255 260.299C68.0787 259.565 68.6086 258.913 69.3152 258.342C70.0489 257.772 70.9456 257.323 72.0054 256.997C73.0923 256.671 74.3423 256.508 75.7554 256.508C77.4945 256.508 78.894 256.739 79.9538 257.201C81.0135 257.636 81.8288 258.179 82.3994 258.831C82.9972 259.484 83.3913 260.177 83.5815 260.91C83.7989 261.617 83.9076 262.255 83.9076 262.826H80.4429C80.4429 262.527 80.3885 262.16 80.2798 261.726C80.1712 261.264 79.9538 260.829 79.6277 260.421C79.3016 260.014 78.826 259.674 78.201 259.402C77.6032 259.103 76.788 258.954 75.7554 258.954C74.2065 258.954 72.9972 259.266 72.1277 259.891C71.2853 260.489 70.8641 261.399 70.8641 262.622C70.8641 263.764 71.3396 264.565 72.2907 265.027C73.269 265.462 74.6277 265.679 76.3668 265.679C79.2472 265.679 81.3532 266.196 82.6847 267.228C84.0434 268.261 84.7228 269.647 84.7228 271.386C84.7228 273.315 83.9891 274.918 82.5217 276.196C81.0815 277.473 78.826 278.111 75.7554 278.111C74.1793 278.111 72.8206 277.935 71.6793 277.582C70.5652 277.228 69.6412 276.753 68.9076 276.155C68.1739 275.53 67.6304 274.81 67.2771 273.995C66.951 273.179 66.788 272.31 66.788 271.386H70.2527ZM86.7497 251.005H90.2144V260.788C90.7578 260 91.3828 259.28 92.0894 258.628C92.7144 258.084 93.4617 257.595 94.3312 257.16C95.2008 256.726 96.2062 256.508 97.3475 256.508C99.3856 256.508 101.043 257.092 102.32 258.261C103.625 259.402 104.277 261.196 104.277 263.641V277.5H100.812V264.457C100.812 262.609 100.391 261.264 99.5486 260.421C98.7334 259.579 97.66 259.158 96.3285 259.158C95.5133 259.158 94.7388 259.307 94.0051 259.606C93.2714 259.878 92.6193 260.312 92.0486 260.91C91.478 261.481 91.0296 262.215 90.7035 263.111C90.3774 264.008 90.2144 265.068 90.2144 266.291V277.5H86.7497V251.005ZM107.13 277.5V251.005H110.595V277.5H107.13ZM112.848 271.997C112.848 271.128 112.997 270.312 113.296 269.552C113.622 268.791 114.139 268.125 114.845 267.554C115.552 266.984 116.489 266.535 117.658 266.209C118.826 265.856 120.28 265.679 122.019 265.679C123.188 265.679 124.111 265.584 124.791 265.394C125.47 265.204 125.973 264.959 126.299 264.66C126.652 264.361 126.87 264.022 126.951 263.641C127.06 263.234 127.114 262.826 127.114 262.418C127.114 261.196 126.666 260.312 125.769 259.769C124.899 259.226 123.649 258.954 122.019 258.954C118.486 258.954 116.72 260.38 116.72 263.234H113.255C113.255 262.065 113.473 261.06 113.908 260.217C114.342 259.375 114.94 258.682 115.701 258.139C116.489 257.568 117.413 257.16 118.473 256.916C119.56 256.644 120.742 256.508 122.019 256.508C124.791 256.508 126.91 257.038 128.378 258.098C129.845 259.158 130.579 260.87 130.579 263.234V272.609C130.579 273.016 130.592 273.383 130.62 273.709C130.647 274.035 130.715 274.307 130.823 274.524C130.959 274.742 131.163 274.905 131.435 275.014C131.707 275.095 132.101 275.109 132.617 275.054V277.5C132.427 277.527 132.236 277.568 132.046 277.622C131.856 277.649 131.652 277.663 131.435 277.663C131.217 277.69 131 277.704 130.783 277.704C130.266 277.704 129.777 277.663 129.315 277.582C128.88 277.527 128.5 277.391 128.174 277.174C127.848 276.957 127.59 276.644 127.399 276.236C127.209 275.829 127.114 275.299 127.114 274.647V274.035C126.679 274.796 126.122 275.476 125.443 276.073C124.872 276.59 124.139 277.065 123.242 277.5C122.372 277.908 121.285 278.111 119.981 278.111C117.617 278.111 115.837 277.527 114.641 276.359C113.446 275.19 112.848 273.736 112.848 271.997ZM120.796 275.666C121.503 275.666 122.223 275.53 122.957 275.258C123.717 274.986 124.397 274.538 124.995 273.913C125.62 273.261 126.122 272.418 126.503 271.386C126.91 270.326 127.114 269.035 127.114 267.514V266.128C127.114 266.155 127.033 266.25 126.87 266.413C126.734 266.576 126.462 266.753 126.054 266.943C125.647 267.133 125.09 267.31 124.383 267.473C123.677 267.636 122.753 267.717 121.611 267.717C121.041 267.717 120.457 267.785 119.859 267.921C119.261 268.03 118.717 268.234 118.228 268.533C117.739 268.804 117.332 269.198 117.005 269.715C116.679 270.204 116.516 270.829 116.516 271.59C116.516 272.812 116.897 273.804 117.658 274.565C118.418 275.299 119.465 275.666 120.796 275.666ZM136.26 257.12V255.693C136.26 253.764 136.572 252.432 137.197 251.698C137.822 250.965 139.004 250.598 140.744 250.598H144.208V253.247H141.763C140.947 253.247 140.404 253.383 140.132 253.655C139.86 253.899 139.725 254.579 139.725 255.693V257.12H144.208V259.769H139.725V277.5H136.26V259.769H132.184V257.12H136.26ZM144.418 267.31C144.418 265.842 144.622 264.457 145.03 263.152C145.437 261.821 146.049 260.666 146.864 259.687C147.679 258.709 148.698 257.935 149.921 257.364C151.144 256.793 152.571 256.508 154.201 256.508C155.886 256.508 157.312 256.807 158.481 257.405C159.677 257.976 160.655 258.736 161.416 259.687C162.177 260.611 162.72 261.671 163.046 262.867C163.399 264.062 163.576 265.272 163.576 266.495V268.125H148.087C148.223 270.788 148.889 272.717 150.084 273.913C151.307 275.082 152.747 275.666 154.405 275.666C155.736 275.666 156.905 275.312 157.91 274.606C158.943 273.899 159.609 272.826 159.908 271.386H163.372C162.965 273.342 162 274.959 160.478 276.236C158.984 277.486 156.959 278.111 154.405 278.111C152.72 278.111 151.253 277.826 150.003 277.255C148.753 276.685 147.706 275.91 146.864 274.932C146.049 273.954 145.437 272.812 145.03 271.508C144.622 270.177 144.418 268.777 144.418 267.31ZM159.908 265.679C159.908 263.342 159.337 261.644 158.196 260.584C157.081 259.497 155.75 258.954 154.201 258.954C152.625 258.954 151.28 259.484 150.166 260.543C149.052 261.603 148.386 263.315 148.168 265.679H159.908ZM169.467 257.12V262.582C169.522 262.446 169.685 262.079 169.956 261.481C170.228 260.856 170.636 260.217 171.179 259.565C171.75 258.886 172.484 258.274 173.38 257.731C174.277 257.187 175.35 256.916 176.6 256.916H177.619V260.177H176.397C174.359 260.177 172.687 260.87 171.383 262.255C170.106 263.641 169.467 265.87 169.467 268.94V277.5H166.003V257.12H169.467ZM178.213 267.31C178.213 265.842 178.417 264.457 178.825 263.152C179.232 261.821 179.844 260.666 180.659 259.687C181.501 258.709 182.548 257.935 183.798 257.364C185.048 256.793 186.515 256.508 188.2 256.508C189.885 256.508 191.352 256.793 192.602 257.364C193.852 257.935 194.885 258.709 195.7 259.687C196.542 260.666 197.167 261.821 197.575 263.152C197.982 264.457 198.186 265.842 198.186 267.31C198.186 268.777 197.982 270.177 197.575 271.508C197.167 272.812 196.542 273.954 195.7 274.932C194.885 275.91 193.852 276.685 192.602 277.255C191.352 277.826 189.885 278.111 188.2 278.111C186.515 278.111 185.048 277.826 183.798 277.255C182.548 276.685 181.501 275.91 180.659 274.932C179.844 273.954 179.232 272.812 178.825 271.508C178.417 270.177 178.213 268.777 178.213 267.31ZM181.882 267.31C181.882 268.777 182.045 270.041 182.371 271.101C182.724 272.16 183.186 273.03 183.757 273.709C184.328 274.389 184.993 274.891 185.754 275.217C186.515 275.516 187.33 275.666 188.2 275.666C189.069 275.666 189.885 275.516 190.645 275.217C191.406 274.891 192.072 274.389 192.643 273.709C193.213 273.03 193.662 272.16 193.988 271.101C194.341 270.041 194.518 268.777 194.518 267.31C194.518 265.842 194.341 264.579 193.988 263.519C193.662 262.459 193.213 261.59 192.643 260.91C192.072 260.231 191.406 259.742 190.645 259.443C189.885 259.117 189.069 258.954 188.2 258.954C187.33 258.954 186.515 259.117 185.754 259.443C184.993 259.742 184.328 260.231 183.757 260.91C183.186 261.59 182.724 262.459 182.371 263.519C182.045 264.579 181.882 265.842 181.882 267.31ZM198.181 257.12H201.85L208.372 274.443L214.893 257.12H218.562L210.206 277.5H206.537L198.181 257.12ZM238.734 246.726C241.152 246.726 243.421 247.147 245.541 247.989C247.66 248.804 249.508 249.959 251.084 251.454C252.688 252.948 253.951 254.715 254.875 256.753C255.799 258.791 256.261 261.019 256.261 263.437C256.261 265.231 256.003 266.793 255.487 268.125C254.997 269.429 254.345 270.53 253.53 271.427C252.742 272.296 251.845 272.948 250.84 273.383C249.862 273.818 248.883 274.035 247.905 274.035C246.764 274.035 245.867 273.75 245.215 273.179C244.563 272.582 244.237 271.508 244.237 269.959C243.883 270.747 243.394 271.454 242.769 272.079C242.253 272.622 241.573 273.125 240.731 273.587C239.889 274.022 238.815 274.239 237.511 274.239C236.342 274.239 235.228 274.022 234.169 273.587C233.109 273.125 232.171 272.473 231.356 271.63C230.568 270.761 229.929 269.715 229.44 268.492C228.978 267.242 228.747 265.829 228.747 264.253C228.747 262.677 228.978 261.277 229.44 260.054C229.929 258.804 230.568 257.758 231.356 256.916C232.171 256.046 233.109 255.394 234.169 254.959C235.228 254.497 236.342 254.266 237.511 254.266C238.815 254.266 239.889 254.484 240.731 254.918C241.573 255.353 242.253 255.842 242.769 256.386C243.394 257.038 243.883 257.758 244.237 258.546V254.878H247.294V268.94C247.294 269.864 247.375 270.503 247.538 270.856C247.701 271.209 248.095 271.386 248.72 271.386C249.019 271.386 249.454 271.277 250.025 271.06C250.595 270.815 251.152 270.394 251.696 269.796C252.266 269.198 252.756 268.383 253.163 267.351C253.598 266.318 253.815 265.014 253.815 263.437C253.815 261.345 253.421 259.429 252.633 257.69C251.845 255.951 250.758 254.456 249.372 253.206C248.014 251.929 246.424 250.937 244.603 250.231C242.783 249.524 240.826 249.171 238.734 249.171C236.56 249.171 234.549 249.552 232.701 250.312C230.853 251.046 229.25 252.092 227.891 253.451C226.56 254.783 225.514 256.372 224.753 258.22C224.019 260.068 223.652 262.079 223.652 264.253C223.652 266.427 224.019 268.437 224.753 270.285C225.514 272.133 226.56 273.736 227.891 275.095C229.25 276.427 230.853 277.459 232.701 278.193C234.549 278.954 236.56 279.334 238.734 279.334C240.038 279.334 241.302 279.171 242.525 278.845C243.747 278.519 244.902 278.057 245.989 277.459L247.171 279.579C245.894 280.285 244.549 280.829 243.136 281.209C241.75 281.59 240.283 281.78 238.734 281.78C236.207 281.78 233.87 281.332 231.723 280.435C229.603 279.565 227.756 278.356 226.179 276.807C224.63 275.231 223.408 273.383 222.511 271.264C221.641 269.117 221.207 266.78 221.207 264.253C221.207 261.726 221.641 259.402 222.511 257.283C223.408 255.136 224.63 253.288 226.179 251.739C227.756 250.163 229.603 248.94 231.723 248.071C233.87 247.174 236.207 246.726 238.734 246.726ZM238.326 271.793C240.065 271.793 241.478 271.128 242.565 269.796C243.679 268.465 244.237 266.617 244.237 264.253C244.237 261.889 243.679 260.041 242.565 258.709C241.478 257.378 240.065 256.712 238.326 256.712C237.457 256.712 236.641 256.875 235.881 257.201C235.12 257.5 234.454 257.962 233.883 258.587C233.313 259.212 232.851 260 232.497 260.951C232.171 261.875 232.008 262.976 232.008 264.253C232.008 265.53 232.171 266.644 232.497 267.595C232.851 268.519 233.313 269.293 233.883 269.918C234.454 270.543 235.12 271.019 235.881 271.345C236.641 271.644 237.457 271.793 238.326 271.793ZM269.11 256.508C270.333 256.508 271.379 256.726 272.249 257.16C273.146 257.595 273.866 258.084 274.409 258.628C275.061 259.28 275.605 260 276.04 260.788V257.12H279.504V275.462C279.504 276.739 279.3 277.908 278.893 278.967C278.485 280.054 277.874 280.978 277.059 281.739C276.243 282.527 275.224 283.139 274.002 283.573C272.779 284.008 271.352 284.226 269.722 284.226C266.95 284.226 264.776 283.587 263.2 282.31C261.651 281.033 260.768 279.429 260.55 277.5H264.015C264.232 278.94 264.844 280.014 265.849 280.72C266.882 281.427 268.173 281.78 269.722 281.78C270.537 281.78 271.325 281.671 272.086 281.454C272.847 281.264 273.512 280.924 274.083 280.435C274.681 279.973 275.156 279.334 275.51 278.519C275.863 277.704 276.04 276.685 276.04 275.462V273.016C275.605 273.804 275.061 274.511 274.409 275.136C273.866 275.679 273.146 276.182 272.249 276.644C271.379 277.079 270.333 277.296 269.11 277.296C267.48 277.296 266.067 277.011 264.871 276.44C263.703 275.842 262.738 275.068 261.977 274.117C261.216 273.139 260.646 272.024 260.265 270.774C259.912 269.524 259.735 268.234 259.735 266.902C259.735 265.571 259.912 264.28 260.265 263.03C260.646 261.78 261.216 260.679 261.977 259.728C262.738 258.75 263.703 257.976 264.871 257.405C266.067 256.807 267.48 256.508 269.11 256.508ZM269.722 274.851C270.591 274.851 271.406 274.674 272.167 274.321C272.928 273.967 273.594 273.465 274.165 272.812C274.735 272.133 275.184 271.304 275.51 270.326C275.863 269.321 276.04 268.179 276.04 266.902C276.04 265.625 275.863 264.497 275.51 263.519C275.184 262.514 274.735 261.685 274.165 261.033C273.594 260.353 272.928 259.837 272.167 259.484C271.406 259.13 270.591 258.954 269.722 258.954C268.852 258.954 268.037 259.117 267.276 259.443C266.515 259.742 265.849 260.217 265.279 260.87C264.708 261.522 264.246 262.351 263.893 263.356C263.567 264.334 263.404 265.516 263.404 266.902C263.404 268.288 263.567 269.484 263.893 270.489C264.246 271.467 264.708 272.283 265.279 272.935C265.849 273.587 266.515 274.076 267.276 274.402C268.037 274.701 268.852 274.851 269.722 274.851ZM282.354 257.12H285.819V260.788C286.254 260 286.77 259.28 287.368 258.628C287.884 258.084 288.509 257.595 289.243 257.16C290.004 256.726 290.901 256.508 291.933 256.508C293.401 256.508 294.61 256.875 295.561 257.609C296.512 258.342 297.178 259.47 297.558 260.992C297.612 260.91 297.776 260.625 298.047 260.136C298.346 259.647 298.754 259.144 299.27 258.628C299.814 258.084 300.466 257.595 301.227 257.16C302.015 256.726 302.925 256.508 303.958 256.508C305.914 256.508 307.422 257.092 308.482 258.261C309.542 259.402 310.072 261.196 310.072 263.641V277.5H306.607V264.457C306.607 262.609 306.295 261.264 305.67 260.421C305.072 259.579 304.161 259.158 302.939 259.158C302.286 259.158 301.661 259.293 301.064 259.565C300.466 259.81 299.922 260.19 299.433 260.707C298.971 261.223 298.591 261.861 298.292 262.622C298.02 263.356 297.871 264.212 297.843 265.19V277.5H294.379V264.457C294.379 262.609 294.08 261.264 293.482 260.421C292.911 259.579 292.055 259.158 290.914 259.158C290.262 259.158 289.623 259.293 288.998 259.565C288.373 259.837 287.83 260.245 287.368 260.788C286.906 261.332 286.526 261.997 286.227 262.785C285.955 263.546 285.819 264.443 285.819 265.476V277.5H282.354V257.12ZM312.314 271.997C312.314 271.128 312.463 270.312 312.762 269.552C313.088 268.791 313.604 268.125 314.311 267.554C315.017 266.984 315.955 266.535 317.123 266.209C318.292 265.856 319.746 265.679 321.485 265.679C322.653 265.679 323.577 265.584 324.257 265.394C324.936 265.204 325.439 264.959 325.765 264.66C326.118 264.361 326.335 264.022 326.417 263.641C326.526 263.234 326.58 262.826 326.58 262.418C326.58 261.196 326.132 260.312 325.235 259.769C324.365 259.226 323.115 258.954 321.485 258.954C317.952 258.954 316.186 260.38 316.186 263.234H312.721C312.721 262.065 312.939 261.06 313.373 260.217C313.808 259.375 314.406 258.682 315.167 258.139C315.955 257.568 316.879 257.16 317.939 256.916C319.026 256.644 320.208 256.508 321.485 256.508C324.257 256.508 326.376 257.038 327.844 258.098C329.311 259.158 330.045 260.87 330.045 263.234V272.609C330.045 273.016 330.058 273.383 330.085 273.709C330.113 274.035 330.18 274.307 330.289 274.524C330.425 274.742 330.629 274.905 330.901 275.014C331.172 275.095 331.566 275.109 332.083 275.054V277.5C331.892 277.527 331.702 277.568 331.512 277.622C331.322 277.649 331.118 277.663 330.901 277.663C330.683 277.69 330.466 277.704 330.248 277.704C329.732 277.704 329.243 277.663 328.781 277.582C328.346 277.527 327.966 277.391 327.64 277.174C327.314 276.957 327.055 276.644 326.865 276.236C326.675 275.829 326.58 275.299 326.58 274.647V274.035C326.145 274.796 325.588 275.476 324.909 276.073C324.338 276.59 323.604 277.065 322.708 277.5C321.838 277.908 320.751 278.111 319.447 278.111C317.083 278.111 315.303 277.527 314.107 276.359C312.911 275.19 312.314 273.736 312.314 271.997ZM320.262 275.666C320.969 275.666 321.689 275.53 322.422 275.258C323.183 274.986 323.863 274.538 324.46 273.913C325.085 273.261 325.588 272.418 325.969 271.386C326.376 270.326 326.58 269.035 326.58 267.514V266.128C326.58 266.155 326.498 266.25 326.335 266.413C326.199 266.576 325.928 266.753 325.52 266.943C325.113 267.133 324.555 267.31 323.849 267.473C323.142 267.636 322.219 267.717 321.077 267.717C320.507 267.717 319.922 267.785 319.324 267.921C318.727 268.03 318.183 268.234 317.694 268.533C317.205 268.804 316.797 269.198 316.471 269.715C316.145 270.204 315.982 270.829 315.982 271.59C315.982 272.812 316.363 273.804 317.123 274.565C317.884 275.299 318.93 275.666 320.262 275.666ZM337.367 257.12V277.5H333.903V257.12H337.367ZM337.367 251.005V254.878H333.903V251.005H337.367ZM340.232 277.5V251.005H343.696V277.5H340.232ZM347.457 277.5V273.628H350.963V277.5H347.457ZM353.079 267.31C353.079 265.842 353.283 264.457 353.691 263.152C354.098 261.821 354.71 260.666 355.525 259.687C356.367 258.709 357.414 257.935 358.664 257.364C359.914 256.793 361.381 256.508 363.066 256.508C364.533 256.508 365.824 256.726 366.938 257.16C368.079 257.568 369.03 258.139 369.791 258.872C370.552 259.579 371.136 260.394 371.544 261.318C371.952 262.242 372.183 263.22 372.237 264.253H368.568C368.351 262.622 367.78 261.332 366.856 260.38C365.96 259.429 364.696 258.954 363.066 258.954C362.196 258.954 361.381 259.117 360.62 259.443C359.859 259.742 359.193 260.231 358.623 260.91C358.052 261.59 357.59 262.459 357.237 263.519C356.911 264.579 356.748 265.842 356.748 267.31C356.748 268.777 356.911 270.041 357.237 271.101C357.59 272.16 358.052 273.03 358.623 273.709C359.193 274.389 359.859 274.891 360.62 275.217C361.381 275.516 362.196 275.666 363.066 275.666C364.696 275.666 365.96 275.19 366.856 274.239C367.78 273.288 368.351 271.997 368.568 270.367H372.237C372.183 271.372 371.952 272.351 371.544 273.302C371.136 274.226 370.552 275.054 369.791 275.788C369.03 276.495 368.079 277.065 366.938 277.5C365.824 277.908 364.533 278.111 363.066 278.111C361.381 278.111 359.914 277.826 358.664 277.255C357.414 276.685 356.367 275.91 355.525 274.932C354.71 273.954 354.098 272.812 353.691 271.508C353.283 270.177 353.079 268.777 353.079 267.31ZM374.256 267.31C374.256 265.842 374.46 264.457 374.867 263.152C375.275 261.821 375.886 260.666 376.702 259.687C377.544 258.709 378.59 257.935 379.84 257.364C381.09 256.793 382.558 256.508 384.242 256.508C385.927 256.508 387.394 256.793 388.644 257.364C389.894 257.935 390.927 258.709 391.742 259.687C392.585 260.666 393.21 261.821 393.617 263.152C394.025 264.457 394.229 265.842 394.229 267.31C394.229 268.777 394.025 270.177 393.617 271.508C393.21 272.812 392.585 273.954 391.742 274.932C390.927 275.91 389.894 276.685 388.644 277.255C387.394 277.826 385.927 278.111 384.242 278.111C382.558 278.111 381.09 277.826 379.84 277.255C378.59 276.685 377.544 275.91 376.702 274.932C375.886 273.954 375.275 272.812 374.867 271.508C374.46 270.177 374.256 268.777 374.256 267.31ZM377.924 267.31C377.924 268.777 378.087 270.041 378.413 271.101C378.767 272.16 379.229 273.03 379.799 273.709C380.37 274.389 381.036 274.891 381.797 275.217C382.558 275.516 383.373 275.666 384.242 275.666C385.112 275.666 385.927 275.516 386.688 275.217C387.449 274.891 388.115 274.389 388.685 273.709C389.256 273.03 389.704 272.16 390.03 271.101C390.384 270.041 390.56 268.777 390.56 267.31C390.56 265.842 390.384 264.579 390.03 263.519C389.704 262.459 389.256 261.59 388.685 260.91C388.115 260.231 387.449 259.742 386.688 259.443C385.927 259.117 385.112 258.954 384.242 258.954C383.373 258.954 382.558 259.117 381.797 259.443C381.036 259.742 380.37 260.231 379.799 260.91C379.229 261.59 378.767 262.459 378.413 263.519C378.087 264.579 377.924 265.842 377.924 267.31ZM396.676 257.12H400.141V260.788C400.575 260 401.092 259.28 401.69 258.628C402.206 258.084 402.831 257.595 403.565 257.16C404.325 256.726 405.222 256.508 406.255 256.508C407.722 256.508 408.931 256.875 409.882 257.609C410.834 258.342 411.499 259.47 411.88 260.992C411.934 260.91 412.097 260.625 412.369 260.136C412.668 259.647 413.075 259.144 413.592 258.628C414.135 258.084 414.787 257.595 415.548 257.16C416.336 256.726 417.247 256.508 418.279 256.508C420.236 256.508 421.744 257.092 422.804 258.261C423.863 259.402 424.393 261.196 424.393 263.641V277.5H420.929V264.457C420.929 262.609 420.616 261.264 419.991 260.421C419.393 259.579 418.483 259.158 417.26 259.158C416.608 259.158 415.983 259.293 415.385 259.565C414.787 259.81 414.244 260.19 413.755 260.707C413.293 261.223 412.912 261.861 412.613 262.622C412.342 263.356 412.192 264.212 412.165 265.19V277.5H408.7V264.457C408.7 262.609 408.402 261.264 407.804 260.421C407.233 259.579 406.377 259.158 405.236 259.158C404.584 259.158 403.945 259.293 403.32 259.565C402.695 259.837 402.152 260.245 401.69 260.788C401.228 261.332 400.847 261.997 400.548 262.785C400.277 263.546 400.141 264.443 400.141 265.476V277.5H396.676V257.12Z" fill="white"/>
<path d="M694.611 263.769V261.12H698.688V255.005H702.152V261.12H706.636V263.769H702.152V276.405C702.152 277.546 702.315 278.307 702.641 278.687C702.967 279.068 703.484 279.258 704.19 279.258C704.408 279.258 704.652 279.258 704.924 279.258C705.196 279.231 705.467 279.204 705.739 279.177C706.038 279.149 706.337 279.122 706.636 279.095V281.5C706.337 281.582 706.011 281.649 705.658 281.704C704.978 281.84 704.149 281.908 703.171 281.908C701.432 281.908 700.25 281.486 699.625 280.644C699 279.774 698.688 278.361 698.688 276.405V263.769H694.611ZM707.438 271.31C707.438 269.842 707.642 268.457 708.05 267.152C708.457 265.821 709.069 264.666 709.884 263.687C710.699 262.709 711.718 261.935 712.941 261.364C714.164 260.793 715.591 260.508 717.221 260.508C718.906 260.508 720.332 260.807 721.501 261.405C722.697 261.976 723.675 262.736 724.436 263.687C725.197 264.611 725.74 265.671 726.066 266.867C726.419 268.062 726.596 269.272 726.596 270.495V272.125H711.107C711.243 274.788 711.908 276.717 713.104 277.913C714.327 279.082 715.767 279.666 717.425 279.666C718.756 279.666 719.925 279.312 720.93 278.606C721.963 277.899 722.629 276.826 722.928 275.386H726.392C725.985 277.342 725.02 278.959 723.498 280.236C722.004 281.486 719.979 282.111 717.425 282.111C715.74 282.111 714.273 281.826 713.023 281.255C711.773 280.685 710.726 279.91 709.884 278.932C709.069 277.954 708.457 276.812 708.05 275.508C707.642 274.177 707.438 272.777 707.438 271.31ZM722.928 269.679C722.928 267.342 722.357 265.644 721.216 264.584C720.101 263.497 718.77 262.954 717.221 262.954C715.645 262.954 714.3 263.484 713.186 264.543C712.072 265.603 711.406 267.315 711.188 269.679H722.928ZM729.023 281.5V255.005H732.487V281.5H729.023ZM734.944 271.31C734.944 269.842 735.148 268.457 735.555 267.152C735.963 265.821 736.574 264.666 737.39 263.687C738.205 262.709 739.224 261.935 740.447 261.364C741.67 260.793 743.096 260.508 744.727 260.508C746.411 260.508 747.838 260.807 749.007 261.405C750.202 261.976 751.18 262.736 751.941 263.687C752.702 264.611 753.246 265.671 753.572 266.867C753.925 268.062 754.102 269.272 754.102 270.495V272.125H738.613C738.748 274.788 739.414 276.717 740.61 277.913C741.833 279.082 743.273 279.666 744.93 279.666C746.262 279.666 747.43 279.312 748.436 278.606C749.468 277.899 750.134 276.826 750.433 275.386H753.898C753.49 277.342 752.526 278.959 751.004 280.236C749.509 281.486 747.485 282.111 744.93 282.111C743.246 282.111 741.778 281.826 740.528 281.255C739.278 280.685 738.232 279.91 737.39 278.932C736.574 277.954 735.963 276.812 735.555 275.508C735.148 274.177 734.944 272.777 734.944 271.31ZM750.433 269.679C750.433 267.342 749.863 265.644 748.721 264.584C747.607 263.497 746.276 262.954 744.727 262.954C743.151 262.954 741.805 263.484 740.691 264.543C739.577 265.603 738.911 267.315 738.694 269.679H750.433ZM765.496 260.508C766.718 260.508 767.765 260.726 768.634 261.16C769.531 261.595 770.251 262.084 770.795 262.628C771.447 263.28 771.99 264 772.425 264.788V261.12H775.89V279.462C775.89 280.739 775.686 281.908 775.278 282.967C774.871 284.054 774.259 284.978 773.444 285.739C772.629 286.527 771.61 287.139 770.387 287.573C769.164 288.008 767.737 288.226 766.107 288.226C763.335 288.226 761.161 287.587 759.585 286.31C758.036 285.033 757.153 283.429 756.936 281.5H760.4C760.618 282.94 761.229 284.014 762.235 284.72C763.267 285.427 764.558 285.78 766.107 285.78C766.922 285.78 767.71 285.671 768.471 285.454C769.232 285.264 769.898 284.924 770.468 284.435C771.066 283.973 771.542 283.334 771.895 282.519C772.248 281.704 772.425 280.685 772.425 279.462V277.016C771.99 277.804 771.447 278.511 770.795 279.136C770.251 279.679 769.531 280.182 768.634 280.644C767.765 281.079 766.718 281.296 765.496 281.296C763.865 281.296 762.452 281.011 761.256 280.44C760.088 279.842 759.123 279.068 758.362 278.117C757.602 277.139 757.031 276.024 756.65 274.774C756.297 273.524 756.121 272.234 756.121 270.902C756.121 269.571 756.297 268.28 756.65 267.03C757.031 265.78 757.602 264.679 758.362 263.728C759.123 262.75 760.088 261.976 761.256 261.405C762.452 260.807 763.865 260.508 765.496 260.508ZM766.107 278.851C766.977 278.851 767.792 278.674 768.553 278.321C769.314 277.967 769.979 277.465 770.55 276.812C771.121 276.133 771.569 275.304 771.895 274.326C772.248 273.321 772.425 272.179 772.425 270.902C772.425 269.625 772.248 268.497 771.895 267.519C771.569 266.514 771.121 265.685 770.55 265.033C769.979 264.353 769.314 263.837 768.553 263.484C767.792 263.13 766.977 262.954 766.107 262.954C765.237 262.954 764.422 263.117 763.661 263.443C762.9 263.742 762.235 264.217 761.664 264.87C761.093 265.522 760.631 266.351 760.278 267.356C759.952 268.334 759.789 269.516 759.789 270.902C759.789 272.288 759.952 273.484 760.278 274.489C760.631 275.467 761.093 276.283 761.664 276.935C762.235 277.587 762.9 278.076 763.661 278.402C764.422 278.701 765.237 278.851 766.107 278.851ZM782.204 261.12V266.582C782.259 266.446 782.422 266.079 782.694 265.481C782.965 264.856 783.373 264.217 783.916 263.565C784.487 262.886 785.221 262.274 786.117 261.731C787.014 261.187 788.088 260.916 789.338 260.916H790.357V264.177H789.134C787.096 264.177 785.425 264.87 784.12 266.255C782.843 267.641 782.204 269.87 782.204 272.94V281.5H778.74V261.12H782.204ZM791.384 275.997C791.384 275.128 791.533 274.312 791.832 273.552C792.158 272.791 792.674 272.125 793.381 271.554C794.087 270.984 795.025 270.535 796.193 270.209C797.362 269.856 798.816 269.679 800.555 269.679C801.723 269.679 802.647 269.584 803.327 269.394C804.006 269.204 804.509 268.959 804.835 268.66C805.188 268.361 805.405 268.022 805.487 267.641C805.596 267.234 805.65 266.826 805.65 266.418C805.65 265.196 805.202 264.312 804.305 263.769C803.435 263.226 802.185 262.954 800.555 262.954C797.022 262.954 795.256 264.38 795.256 267.234H791.791C791.791 266.065 792.009 265.06 792.443 264.217C792.878 263.375 793.476 262.682 794.237 262.139C795.025 261.568 795.949 261.16 797.009 260.916C798.096 260.644 799.278 260.508 800.555 260.508C803.327 260.508 805.446 261.038 806.913 262.098C808.381 263.158 809.115 264.87 809.115 267.234V276.609C809.115 277.016 809.128 277.383 809.155 277.709C809.182 278.035 809.25 278.307 809.359 278.524C809.495 278.742 809.699 278.905 809.971 279.014C810.242 279.095 810.636 279.109 811.153 279.054V281.5C810.962 281.527 810.772 281.568 810.582 281.622C810.392 281.649 810.188 281.663 809.971 281.663C809.753 281.69 809.536 281.704 809.318 281.704C808.802 281.704 808.313 281.663 807.851 281.582C807.416 281.527 807.036 281.391 806.71 281.174C806.384 280.957 806.125 280.644 805.935 280.236C805.745 279.829 805.65 279.299 805.65 278.647V278.035C805.215 278.796 804.658 279.476 803.979 280.073C803.408 280.59 802.674 281.065 801.778 281.5C800.908 281.908 799.821 282.111 798.517 282.111C796.153 282.111 794.373 281.527 793.177 280.359C791.981 279.19 791.384 277.736 791.384 275.997ZM799.332 279.666C800.038 279.666 800.759 279.53 801.492 279.258C802.253 278.986 802.932 278.538 803.53 277.913C804.155 277.261 804.658 276.418 805.038 275.386C805.446 274.326 805.65 273.035 805.65 271.514V270.128C805.65 270.155 805.568 270.25 805.405 270.413C805.269 270.576 804.998 270.753 804.59 270.943C804.182 271.133 803.625 271.31 802.919 271.473C802.212 271.636 801.288 271.717 800.147 271.717C799.577 271.717 798.992 271.785 798.394 271.921C797.797 272.03 797.253 272.234 796.764 272.533C796.275 272.804 795.867 273.198 795.541 273.715C795.215 274.204 795.052 274.829 795.052 275.59C795.052 276.812 795.432 277.804 796.193 278.565C796.954 279.299 798 279.666 799.332 279.666ZM812.973 261.12H816.437V264.788C816.872 264 817.388 263.28 817.986 262.628C818.502 262.084 819.127 261.595 819.861 261.16C820.622 260.726 821.519 260.508 822.551 260.508C824.019 260.508 825.228 260.875 826.179 261.609C827.13 262.342 827.796 263.47 828.176 264.992C828.231 264.91 828.394 264.625 828.665 264.136C828.964 263.647 829.372 263.144 829.888 262.628C830.432 262.084 831.084 261.595 831.845 261.16C832.633 260.726 833.543 260.508 834.576 260.508C836.532 260.508 838.04 261.092 839.1 262.261C840.16 263.402 840.69 265.196 840.69 267.641V281.5H837.225V268.457C837.225 266.609 836.913 265.264 836.288 264.421C835.69 263.579 834.78 263.158 833.557 263.158C832.905 263.158 832.28 263.293 831.682 263.565C831.084 263.81 830.54 264.19 830.051 264.707C829.589 265.223 829.209 265.861 828.91 266.622C828.638 267.356 828.489 268.212 828.462 269.19V281.5H824.997V268.457C824.997 266.609 824.698 265.264 824.1 264.421C823.53 263.579 822.674 263.158 821.532 263.158C820.88 263.158 820.242 263.293 819.617 263.565C818.992 263.837 818.448 264.245 817.986 264.788C817.524 265.332 817.144 265.997 816.845 266.785C816.573 267.546 816.437 268.443 816.437 269.476V281.5H812.973V261.12ZM844.44 281.5V277.628H847.945V281.5H844.44ZM844.44 264.992V261.12H847.945V264.992H844.44ZM695.019 305.31C695.019 303.842 695.223 302.457 695.63 301.152C696.038 299.821 696.649 298.666 697.465 297.687C698.28 296.709 699.299 295.935 700.522 295.364C701.745 294.793 703.171 294.508 704.802 294.508C706.486 294.508 707.913 294.807 709.082 295.405C710.277 295.976 711.255 296.736 712.016 297.687C712.777 298.611 713.321 299.671 713.647 300.867C714 302.062 714.177 303.272 714.177 304.495V306.125H698.688C698.823 308.788 699.489 310.717 700.685 311.913C701.908 313.082 703.348 313.666 705.005 313.666C706.337 313.666 707.505 313.312 708.511 312.606C709.543 311.899 710.209 310.826 710.508 309.386H713.973C713.565 311.342 712.601 312.959 711.079 314.236C709.584 315.486 707.56 316.111 705.005 316.111C703.321 316.111 701.853 315.826 700.603 315.255C699.353 314.685 698.307 313.91 697.465 312.932C696.649 311.954 696.038 310.812 695.63 309.508C695.223 308.177 695.019 306.777 695.019 305.31ZM710.508 303.679C710.508 301.342 709.938 299.644 708.796 298.584C707.682 297.497 706.351 296.954 704.802 296.954C703.226 296.954 701.88 297.484 700.766 298.543C699.652 299.603 698.986 301.315 698.769 303.679H710.508ZM719.253 309.386C719.253 310.609 719.701 311.628 720.598 312.443C721.522 313.258 722.908 313.666 724.755 313.666C725.815 313.666 726.685 313.557 727.364 313.34C728.043 313.095 728.587 312.796 728.995 312.443C729.402 312.062 729.674 311.641 729.81 311.179C729.973 310.717 730.054 310.255 730.054 309.793C730.054 309.332 729.973 308.883 729.81 308.448C729.647 308.014 729.348 307.62 728.913 307.266C728.505 306.913 727.908 306.641 727.12 306.451C726.359 306.234 725.367 306.125 724.144 306.125C721.59 306.125 719.62 305.677 718.234 304.78C716.875 303.856 716.196 302.47 716.196 300.622C716.196 299.807 716.372 299.033 716.725 298.299C717.079 297.565 717.609 296.913 718.315 296.342C719.049 295.772 719.946 295.323 721.005 294.997C722.092 294.671 723.342 294.508 724.755 294.508C726.495 294.508 727.894 294.739 728.954 295.201C730.014 295.636 730.829 296.179 731.399 296.831C731.997 297.484 732.391 298.177 732.581 298.91C732.799 299.617 732.908 300.255 732.908 300.826H729.443C729.443 300.527 729.389 300.16 729.28 299.726C729.171 299.264 728.954 298.829 728.628 298.421C728.302 298.014 727.826 297.674 727.201 297.402C726.603 297.103 725.788 296.954 724.755 296.954C723.206 296.954 721.997 297.266 721.128 297.891C720.285 298.489 719.864 299.399 719.864 300.622C719.864 301.764 720.34 302.565 721.291 303.027C722.269 303.462 723.628 303.679 725.367 303.679C728.247 303.679 730.353 304.196 731.685 305.228C733.043 306.261 733.723 307.647 733.723 309.386C733.723 311.315 732.989 312.918 731.522 314.196C730.081 315.473 727.826 316.111 724.755 316.111C723.179 316.111 721.821 315.935 720.679 315.582C719.565 315.228 718.641 314.753 717.908 314.155C717.174 313.53 716.63 312.81 716.277 311.995C715.951 311.179 715.788 310.31 715.788 309.386H719.253ZM735.75 289.005H739.214V298.788C739.758 298 740.383 297.28 741.089 296.628C741.714 296.084 742.462 295.595 743.331 295.16C744.201 294.726 745.206 294.508 746.348 294.508C748.386 294.508 750.043 295.092 751.32 296.261C752.625 297.402 753.277 299.196 753.277 301.641V315.5H749.812V302.457C749.812 300.609 749.391 299.264 748.549 298.421C747.733 297.579 746.66 297.158 745.329 297.158C744.513 297.158 743.739 297.307 743.005 297.606C742.271 297.878 741.619 298.312 741.049 298.91C740.478 299.481 740.03 300.215 739.704 301.111C739.377 302.008 739.214 303.068 739.214 304.291V315.5H735.75V289.005ZM756.13 315.5V289.005H759.595V315.5H756.13ZM765.516 295.12V293.693C765.516 291.764 765.829 290.432 766.454 289.698C767.079 288.965 768.261 288.598 770 288.598H773.465V291.247H771.019C770.204 291.247 769.66 291.383 769.389 291.655C769.117 291.899 768.981 292.579 768.981 293.693V295.12H773.465V297.769H768.981V315.5H765.516V297.769H761.44V295.12H765.516ZM778.98 295.12V300.582C779.034 300.446 779.198 300.079 779.469 299.481C779.741 298.856 780.149 298.217 780.692 297.565C781.263 296.886 781.996 296.274 782.893 295.731C783.79 295.187 784.863 294.916 786.113 294.916H787.132V298.177H785.91C783.871 298.177 782.2 298.87 780.896 300.255C779.619 301.641 778.98 303.87 778.98 306.94V315.5H775.515V295.12H778.98ZM788.548 295.12H792.216L798.738 312.443L805.26 295.12H808.928L800.572 315.5H796.904L788.548 295.12Z" fill="white"/>
</svg>
