<svg width="271" height="39" viewBox="0 0 271 39" fill="none" xmlns="http://www.w3.org/2000/svg">
<path d="M0.154233 19.4577C0.154233 17.7956 0.38508 16.2258 0.846773 14.7484C1.30847 13.2402 2.00101 11.9321 2.92439 10.824C3.84778 9.71594 5.00201 8.83872 6.38709 8.19235C7.77217 7.54598 9.3881 7.22279 11.2349 7.22279C13.1432 7.22279 14.7591 7.56137 16.0827 8.23852C17.437 8.88489 18.545 9.74672 19.4068 10.824C20.2687 11.8705 20.8843 13.0709 21.2536 14.4252C21.6538 15.7795 21.8538 17.1492 21.8538 18.5343V20.3811H4.30947C4.46337 23.3975 5.21747 25.5828 6.57177 26.9371C7.95685 28.2606 9.58817 28.9224 11.4657 28.9224C12.9739 28.9224 14.2974 28.5222 15.4363 27.722C16.6059 26.9217 17.36 25.7059 17.6986 24.0746H21.623C21.1613 26.2907 20.0686 28.1221 18.3449 29.5688C16.6521 30.9846 14.359 31.6925 11.4657 31.6925C9.55739 31.6925 7.89529 31.3694 6.47943 30.723C5.06357 30.0766 3.87856 29.1994 2.92439 28.0913C2.00101 26.9833 1.30847 25.6905 0.846773 24.2131C0.38508 22.7049 0.154233 21.1198 0.154233 19.4577ZM17.6986 17.6109C17.6986 14.9639 17.0522 13.0401 15.7595 11.8397C14.4975 10.6085 12.9893 9.99296 11.2349 9.99296C9.44966 9.99296 7.92607 10.5932 6.66411 11.7936C5.40215 12.994 4.64805 14.9331 4.40181 17.6109H17.6986ZM34.7596 7.22279C36.1447 7.22279 37.3297 7.46903 38.3146 7.96151C39.3304 8.45398 40.146 9.00801 40.7616 9.6236C41.5003 10.3623 42.1159 11.178 42.6084 12.0706V7.91534H46.5328V28.6915C46.5328 30.1382 46.3019 31.4617 45.8402 32.6621C45.3785 33.8933 44.686 34.9398 43.7626 35.8016C42.8392 36.6942 41.685 37.3868 40.2999 37.8792C38.9148 38.3717 37.2989 38.6179 35.4521 38.6179C32.3126 38.6179 29.8502 37.8946 28.065 36.448C26.3106 35.0013 25.3103 33.1853 25.064 31H28.9884C29.2347 32.6313 29.9272 33.8471 31.066 34.6474C32.2357 35.4476 33.6977 35.8478 35.4521 35.8478C36.3755 35.8478 37.2681 35.7247 38.1299 35.4784C38.9918 35.263 39.7459 34.8782 40.3922 34.3242C41.0694 33.8009 41.608 33.0776 42.0082 32.1542C42.4083 31.2308 42.6084 30.0766 42.6084 28.6915V25.9214C42.1159 26.814 41.5003 27.6142 40.7616 28.3222C40.146 28.9378 39.3304 29.5072 38.3146 30.0304C37.3297 30.5229 36.1447 30.7692 34.7596 30.7692C32.9128 30.7692 31.3123 30.446 29.958 29.7996C28.6345 29.1224 27.5418 28.2452 26.68 27.1679C25.8181 26.0599 25.1718 24.7979 24.7408 23.3821C24.3407 21.9662 24.1406 20.5042 24.1406 18.996C24.1406 17.4878 24.3407 16.0257 24.7408 14.6099C25.1718 13.194 25.8181 11.9475 26.68 10.8702C27.5418 9.76211 28.6345 8.88489 29.958 8.23852C31.3123 7.56137 32.9128 7.22279 34.7596 7.22279ZM35.4521 27.999C36.4371 27.999 37.3605 27.7989 38.2223 27.3988C39.0841 26.9987 39.8382 26.4292 40.4846 25.6905C41.131 24.921 41.6388 23.9823 42.0082 22.8742C42.4083 21.7354 42.6084 20.4426 42.6084 18.996C42.6084 17.5493 42.4083 16.272 42.0082 15.1639C41.6388 14.0251 41.131 13.0863 40.4846 12.3476C39.8382 11.5781 39.0841 10.9933 38.2223 10.5932C37.3605 10.193 36.4371 9.99296 35.4521 9.99296C34.4672 9.99296 33.5438 10.1776 32.682 10.547C31.8201 10.8856 31.066 11.4242 30.4197 12.1629C29.7733 12.9016 29.25 13.8404 28.8499 14.9792C28.4806 16.0873 28.2959 17.4262 28.2959 18.996C28.2959 20.5657 28.4806 21.92 28.8499 23.0589C29.25 24.1669 29.7733 25.0903 30.4197 25.829C31.066 26.5677 31.8201 27.1218 32.682 27.4911C33.5438 27.8297 34.4672 27.999 35.4521 27.999ZM49.2993 19.4577C49.2993 17.7956 49.5302 16.2258 49.9919 14.7484C50.4536 13.2402 51.1461 11.9321 52.0695 10.824C53.0236 9.71594 54.2087 8.83872 55.6245 8.19235C57.0404 7.54598 58.7025 7.22279 60.6108 7.22279C62.5191 7.22279 64.1812 7.54598 65.5971 8.19235C67.013 8.83872 68.1826 9.71594 69.106 10.824C70.0601 11.9321 70.7681 13.2402 71.2297 14.7484C71.6914 16.2258 71.9223 17.7956 71.9223 19.4577C71.9223 21.1198 71.6914 22.7049 71.2297 24.2131C70.7681 25.6905 70.0601 26.9833 69.106 28.0913C68.1826 29.1994 67.013 30.0766 65.5971 30.723C64.1812 31.3694 62.5191 31.6925 60.6108 31.6925C58.7025 31.6925 57.0404 31.3694 55.6245 30.723C54.2087 30.0766 53.0236 29.1994 52.0695 28.0913C51.1461 26.9833 50.4536 25.6905 49.9919 24.2131C49.5302 22.7049 49.2993 21.1198 49.2993 19.4577ZM53.4546 19.4577C53.4546 21.1198 53.6392 22.551 54.0086 23.7514C54.4087 24.9518 54.932 25.9368 55.5783 26.7063C56.2247 27.4757 56.9788 28.0452 57.8406 28.4145C58.7025 28.7531 59.6259 28.9224 60.6108 28.9224C61.5957 28.9224 62.5191 28.7531 63.381 28.4145C64.2428 28.0452 64.9969 27.4757 65.6433 26.7063C66.2896 25.9368 66.7975 24.9518 67.1668 23.7514C67.567 22.551 67.767 21.1198 67.767 19.4577C67.767 17.7956 67.567 16.3643 67.1668 15.1639C66.7975 13.9635 66.2896 12.9786 65.6433 12.2091C64.9969 11.4396 64.2428 10.8856 63.381 10.547C62.5191 10.1776 61.5957 9.99296 60.6108 9.99296C59.6259 9.99296 58.7025 10.1776 57.8406 10.547C56.9788 10.8856 56.2247 11.4396 55.5783 12.2091C54.932 12.9786 54.4087 13.9635 54.0086 15.1639C53.6392 16.3643 53.4546 17.7956 53.4546 19.4577ZM78.6186 7.91534V14.102C78.6802 13.9481 78.8649 13.5326 79.1727 12.8555C79.4805 12.1475 79.9422 11.4242 80.5578 10.6855C81.2041 9.91601 82.0352 9.22347 83.0509 8.60788C84.0666 7.99229 85.2824 7.68449 86.6983 7.68449H87.8525V11.378H86.4674C84.159 11.378 82.266 12.1629 80.7886 13.7327C79.342 15.3024 78.6186 17.8264 78.6186 21.3044V31H74.6942V7.91534H78.6186ZM102.628 24.0746C102.628 25.4597 103.136 26.6139 104.152 27.5373C105.199 28.4607 106.768 28.9224 108.861 28.9224C110.062 28.9224 111.047 28.7993 111.816 28.553C112.586 28.276 113.201 27.9374 113.663 27.5373C114.125 27.1064 114.432 26.6293 114.586 26.1061C114.771 25.5828 114.863 25.0595 114.863 24.5363C114.863 24.013 114.771 23.5052 114.586 23.0127C114.402 22.5202 114.063 22.0739 113.571 21.6738C113.109 21.2737 112.432 20.9659 111.539 20.7504C110.677 20.5042 109.554 20.3811 108.169 20.3811C105.276 20.3811 103.044 19.8732 101.474 18.8575C99.9353 17.811 99.1658 16.2412 99.1658 14.1482C99.1658 13.2248 99.3659 12.3476 99.766 11.5165C100.166 10.6855 100.766 9.94679 101.567 9.30042C102.398 8.65404 103.413 8.14618 104.614 7.77683C105.845 7.40747 107.261 7.22279 108.861 7.22279C110.831 7.22279 112.416 7.48442 113.617 8.00767C114.817 8.50015 115.741 9.11574 116.387 9.85445C117.064 10.5932 117.51 11.378 117.726 12.2091C117.972 13.0094 118.095 13.7327 118.095 14.379H114.171C114.171 14.0405 114.109 13.6249 113.986 13.1325C113.863 12.6092 113.617 12.1167 113.247 11.6551C112.878 11.1934 112.339 10.8086 111.632 10.5008C110.954 10.1622 110.031 9.99296 108.861 9.99296C107.107 9.99296 105.737 10.3469 104.752 11.0549C103.798 11.732 103.321 12.7631 103.321 14.1482C103.321 15.4409 103.86 16.3489 104.937 16.8722C106.045 17.3647 107.584 17.6109 109.554 17.6109C112.817 17.6109 115.202 18.1957 116.71 19.3653C118.249 20.535 119.019 22.1047 119.019 24.0746C119.019 26.2599 118.188 28.0759 116.525 29.5226C114.894 30.9692 112.339 31.6925 108.861 31.6925C107.076 31.6925 105.537 31.4925 104.244 31.0923C102.982 30.6922 101.936 30.1536 101.105 29.4764C100.274 28.7685 99.6583 27.9528 99.2581 27.0294C98.8888 26.1061 98.7041 25.1211 98.7041 24.0746H102.628ZM121.314 0.989936H125.239V12.0706C125.854 11.178 126.562 10.3623 127.363 9.6236C128.071 9.00801 128.917 8.45398 129.902 7.96151C130.887 7.46903 132.026 7.22279 133.318 7.22279C135.627 7.22279 137.504 7.88456 138.951 9.20808C140.429 10.5008 141.167 12.5323 141.167 15.3024V31H137.243V16.2258C137.243 14.1328 136.766 12.6092 135.812 11.6551C134.888 10.7009 133.672 10.2238 132.164 10.2238C131.241 10.2238 130.364 10.3931 129.533 10.7317C128.702 11.0395 127.963 11.5319 127.316 12.2091C126.67 12.8555 126.162 13.6865 125.793 14.7022C125.424 15.718 125.239 16.9184 125.239 18.3034V31H121.314V0.989936ZM144.399 31V0.989936H148.324V31H144.399ZM150.875 24.7671C150.875 23.7822 151.045 22.8588 151.383 21.997C151.753 21.1352 152.337 20.3811 153.138 19.7347C153.938 19.0883 155 18.5805 156.323 18.2111C157.647 17.811 159.294 17.6109 161.264 17.6109C162.587 17.6109 163.634 17.5032 164.403 17.2877C165.173 17.0723 165.742 16.7952 166.111 16.4567C166.511 16.1181 166.758 15.7333 166.85 15.3024C166.973 14.8407 167.035 14.379 167.035 13.9173C167.035 12.5323 166.527 11.5319 165.511 10.9163C164.526 10.3008 163.11 9.99296 161.264 9.99296C157.262 9.99296 155.262 11.6089 155.262 14.8407H151.337C151.337 13.5172 151.583 12.3784 152.076 11.4242C152.568 10.47 153.245 9.68516 154.107 9.06957C155 8.4232 156.046 7.96151 157.247 7.68449C158.478 7.37669 159.817 7.22279 161.264 7.22279C164.403 7.22279 166.804 7.823 168.466 9.0234C170.128 10.2238 170.959 12.1629 170.959 14.8407V25.4597C170.959 25.9214 170.974 26.3369 171.005 26.7063C171.036 27.0756 171.113 27.3834 171.236 27.6296C171.39 27.8759 171.621 28.0606 171.929 28.1837C172.236 28.276 172.683 28.2914 173.268 28.2298V31C173.052 31.0308 172.837 31.0769 172.621 31.1385C172.406 31.1693 172.175 31.1847 171.929 31.1847C171.682 31.2155 171.436 31.2308 171.19 31.2308C170.605 31.2308 170.051 31.1847 169.528 31.0923C169.035 31.0308 168.604 30.8769 168.235 30.6306C167.866 30.3844 167.573 30.0304 167.358 29.5688C167.142 29.1071 167.035 28.5069 167.035 27.7681V27.0756C166.542 27.9374 165.911 28.7069 165.142 29.3841C164.495 29.9689 163.664 30.5075 162.649 31C161.664 31.4617 160.432 31.6925 158.955 31.6925C156.277 31.6925 154.261 31.0308 152.907 29.7073C151.553 28.3837 150.875 26.737 150.875 24.7671ZM159.878 28.9224C160.679 28.9224 161.494 28.7685 162.325 28.4607C163.187 28.1529 163.957 27.645 164.634 26.9371C165.342 26.1984 165.911 25.2442 166.342 24.0746C166.804 22.8742 167.035 21.4122 167.035 19.6885V18.1188C167.035 18.1495 166.942 18.2573 166.758 18.4419C166.604 18.6266 166.296 18.8267 165.834 19.0421C165.373 19.2576 164.742 19.4577 163.941 19.6423C163.141 19.827 162.095 19.9194 160.802 19.9194C160.155 19.9194 159.494 19.9963 158.817 20.1502C158.139 20.2733 157.524 20.5042 156.97 20.8427C156.416 21.1505 155.954 21.5968 155.585 22.1817C155.215 22.7357 155.031 23.4436 155.031 24.3054C155.031 25.6905 155.462 26.814 156.323 27.6758C157.185 28.5069 158.37 28.9224 159.878 28.9224ZM177.394 7.91534V6.29941C177.394 4.11406 177.748 2.60586 178.456 1.77482C179.164 0.943767 180.503 0.528243 182.473 0.528243H186.397V3.52925H183.627C182.703 3.52925 182.088 3.68315 181.78 3.99094C181.472 4.26796 181.318 5.03745 181.318 6.29941V7.91534H186.397V10.9163H181.318V31H177.394V10.9163H172.777V7.91534H177.394ZM186.635 19.4577C186.635 17.7956 186.866 16.2258 187.328 14.7484C187.789 13.2402 188.482 11.9321 189.405 10.824C190.329 9.71594 191.483 8.83872 192.868 8.19235C194.253 7.54598 195.869 7.22279 197.716 7.22279C199.624 7.22279 201.24 7.56137 202.563 8.23852C203.918 8.88489 205.026 9.74672 205.888 10.824C206.749 11.8705 207.365 13.0709 207.734 14.4252C208.135 15.7795 208.335 17.1492 208.335 18.5343V20.3811H190.79C190.944 23.3975 191.698 25.5828 193.053 26.9371C194.438 28.2606 196.069 28.9224 197.947 28.9224C199.455 28.9224 200.778 28.5222 201.917 27.722C203.087 26.9217 203.841 25.7059 204.179 24.0746H208.104C207.642 26.2907 206.549 28.1221 204.826 29.5688C203.133 30.9846 200.84 31.6925 197.947 31.6925C196.038 31.6925 194.376 31.3694 192.96 30.723C191.544 30.0766 190.359 29.1994 189.405 28.0913C188.482 26.9833 187.789 25.6905 187.328 24.2131C186.866 22.7049 186.635 21.1198 186.635 19.4577ZM204.179 17.6109C204.179 14.9639 203.533 13.0401 202.24 11.8397C200.978 10.6085 199.47 9.99296 197.716 9.99296C195.93 9.99296 194.407 10.5932 193.145 11.7936C191.883 12.994 191.129 14.9331 190.883 17.6109H204.179ZM215.008 7.91534V14.102C215.069 13.9481 215.254 13.5326 215.562 12.8555C215.869 12.1475 216.331 11.4242 216.947 10.6855C217.593 9.91601 218.424 9.22347 219.44 8.60788C220.456 7.99229 221.671 7.68449 223.087 7.68449H224.241V11.378H222.856C220.548 11.378 218.655 12.1629 217.177 13.7327C215.731 15.3024 215.008 17.8264 215.008 21.3044V31H211.083V7.91534H215.008ZM224.914 19.4577C224.914 17.7956 225.145 16.2258 225.607 14.7484C226.068 13.2402 226.761 11.9321 227.684 10.824C228.638 9.71594 229.823 8.83872 231.239 8.19235C232.655 7.54598 234.317 7.22279 236.226 7.22279C238.134 7.22279 239.796 7.54598 241.212 8.19235C242.628 8.83872 243.797 9.71594 244.721 10.824C245.675 11.9321 246.383 13.2402 246.845 14.7484C247.306 16.2258 247.537 17.7956 247.537 19.4577C247.537 21.1198 247.306 22.7049 246.845 24.2131C246.383 25.6905 245.675 26.9833 244.721 28.0913C243.797 29.1994 242.628 30.0766 241.212 30.723C239.796 31.3694 238.134 31.6925 236.226 31.6925C234.317 31.6925 232.655 31.3694 231.239 30.723C229.823 30.0766 228.638 29.1994 227.684 28.0913C226.761 26.9833 226.068 25.6905 225.607 24.2131C225.145 22.7049 224.914 21.1198 224.914 19.4577ZM229.069 19.4577C229.069 21.1198 229.254 22.551 229.623 23.7514C230.023 24.9518 230.547 25.9368 231.193 26.7063C231.839 27.4757 232.594 28.0452 233.455 28.4145C234.317 28.7531 235.241 28.9224 236.226 28.9224C237.211 28.9224 238.134 28.7531 238.996 28.4145C239.858 28.0452 240.612 27.4757 241.258 26.7063C241.904 25.9368 242.412 24.9518 242.782 23.7514C243.182 22.551 243.382 21.1198 243.382 19.4577C243.382 17.7956 243.182 16.3643 242.782 15.1639C242.412 13.9635 241.904 12.9786 241.258 12.2091C240.612 11.4396 239.858 10.8856 238.996 10.547C238.134 10.1776 237.211 9.99296 236.226 9.99296C235.241 9.99296 234.317 10.1776 233.455 10.547C232.594 10.8856 231.839 11.4396 231.193 12.2091C230.547 12.9786 230.023 13.9635 229.623 15.1639C229.254 16.3643 229.069 17.7956 229.069 19.4577ZM247.532 7.91534H251.687L259.074 27.5373L266.461 7.91534H270.616L261.152 31H256.996L247.532 7.91534Z" fill="black"/>
</svg>
