<svg width="1437" height="506" viewBox="0 0 1437 506" fill="none" xmlns="http://www.w3.org/2000/svg">
<rect width="1437" height="506" rx="50" fill="#E2CEF6"/>
<path d="M62.9566 116.434C62.9566 110.736 63.748 105.355 65.3306 100.291C66.9133 95.1205 69.2873 90.6363 72.4526 86.838C75.7234 83.0396 79.7855 80.0325 84.639 77.8168C89.4925 75.6011 95.1901 74.4932 101.732 74.4932C108.273 74.4932 113.971 75.6011 118.824 77.8168C123.678 80.0325 127.687 83.0396 130.853 86.838C134.123 90.6363 136.55 95.1205 138.133 100.291C139.715 105.355 140.507 110.736 140.507 116.434C140.507 122.131 139.715 127.565 138.133 132.735C136.55 137.799 134.123 142.231 130.853 146.029C127.687 149.828 123.678 152.835 118.824 155.05C113.971 157.266 108.273 158.374 101.732 158.374C95.1901 158.374 89.4925 157.266 84.639 155.05C79.7855 152.835 75.7234 149.828 72.4526 146.029C69.2873 142.231 66.9133 137.799 65.3306 132.735C63.748 127.565 62.9566 122.131 62.9566 116.434ZM77.2005 116.434C77.2005 122.131 77.8336 127.037 79.0997 131.152C80.4714 135.267 82.265 138.644 84.4808 141.281C86.6965 143.919 89.2815 145.871 92.2358 147.137C95.1901 148.298 98.3554 148.878 101.732 148.878C105.108 148.878 108.273 148.298 111.228 147.137C114.182 145.871 116.767 143.919 118.983 141.281C121.198 138.644 122.939 135.267 124.205 131.152C125.577 127.037 126.263 122.131 126.263 116.434C126.263 110.736 125.577 105.83 124.205 101.715C122.939 97.6 121.198 94.2237 118.983 91.5859C116.767 88.9482 114.182 87.049 111.228 85.8884C108.273 84.6222 105.108 83.9892 101.732 83.9892C98.3554 83.9892 95.1901 84.6222 92.2358 85.8884C89.2815 87.049 86.6965 88.9482 84.4808 91.5859C82.265 94.2237 80.4714 97.6 79.0997 101.715C77.8336 105.83 77.2005 110.736 77.2005 116.434ZM163.461 76.8672V110.103H204.61V76.8672H218.063V156H204.61V119.599H163.461V156H150.009V76.8672H163.461ZM224.394 156V144.921C224.605 145.027 224.868 145.08 225.185 145.08C225.396 145.08 225.66 145.132 225.976 145.238C226.293 145.238 226.662 145.238 227.084 145.238C229.616 145.238 231.885 144.816 233.89 143.972C236 143.022 237.741 141.07 239.112 138.116C240.484 135.162 241.539 130.889 242.278 125.296C243.016 119.704 243.386 112.266 243.386 102.981V76.8672H301.152V156H287.7V87.1545H256.047V104.564C256.047 114.06 255.572 122.131 254.622 128.778C253.673 135.425 252.196 140.807 250.191 144.921C248.186 149.036 245.549 152.043 242.278 153.943C239.112 155.842 235.261 156.791 230.724 156.791C229.775 156.791 228.878 156.739 228.034 156.633C227.295 156.633 226.662 156.58 226.135 156.475C225.502 156.264 224.921 156.106 224.394 156ZM309.919 134.634C309.919 131.258 310.499 128.093 311.66 125.138C312.926 122.184 314.931 119.599 317.674 117.383C320.417 115.167 324.057 113.427 328.594 112.16C333.131 110.789 338.776 110.103 345.529 110.103C350.066 110.103 353.653 109.734 356.291 108.995C358.928 108.257 360.88 107.307 362.147 106.146C363.518 104.986 364.362 103.667 364.679 102.19C365.101 100.607 365.312 99.0244 365.312 97.4417C365.312 92.6938 363.571 89.2647 360.089 87.1545C356.713 85.0443 351.859 83.9892 345.529 83.9892C331.812 83.9892 324.954 89.5285 324.954 100.607H311.502C311.502 96.0701 312.346 92.1662 314.034 88.8954C315.722 85.6246 318.043 82.9341 320.998 80.8239C324.057 78.6081 327.645 77.0255 331.76 76.0759C335.98 75.0208 340.57 74.4932 345.529 74.4932C356.291 74.4932 364.521 76.5507 370.218 80.6656C375.916 84.7805 378.764 91.4277 378.764 100.607V137.008C378.764 138.591 378.817 140.015 378.923 141.281C379.028 142.547 379.292 143.603 379.714 144.447C380.242 145.291 381.033 145.924 382.088 146.346C383.143 146.662 384.673 146.715 386.678 146.504V156C385.939 156.106 385.201 156.264 384.462 156.475C383.723 156.58 382.932 156.633 382.088 156.633C381.244 156.739 380.4 156.791 379.556 156.791C377.551 156.791 375.652 156.633 373.858 156.317C372.17 156.106 370.693 155.578 369.427 154.734C368.161 153.89 367.158 152.676 366.42 151.094C365.681 149.511 365.312 147.454 365.312 144.921V142.547C363.624 145.502 361.461 148.139 358.823 150.461C356.607 152.465 353.758 154.312 350.277 156C346.9 157.583 342.68 158.374 337.615 158.374C328.436 158.374 321.525 156.106 316.883 151.569C312.24 147.032 309.919 141.387 309.919 134.634ZM340.781 148.878C343.524 148.878 346.32 148.35 349.169 147.295C352.123 146.24 354.761 144.499 357.082 142.073C359.509 139.54 361.461 136.27 362.938 132.26C364.521 128.145 365.312 123.134 365.312 117.225V111.844C365.312 111.949 364.995 112.319 364.362 112.952C363.835 113.585 362.78 114.271 361.197 115.009C359.614 115.748 357.451 116.434 354.708 117.067C351.965 117.7 348.377 118.016 343.946 118.016C341.73 118.016 339.462 118.28 337.141 118.808C334.819 119.23 332.709 120.021 330.81 121.182C328.911 122.237 327.328 123.767 326.062 125.771C324.796 127.67 324.163 130.097 324.163 133.051C324.163 137.799 325.64 141.651 328.594 144.605C331.549 147.454 335.611 148.878 340.781 148.878ZM393.744 156V76.8672H407.197V138.591L449.928 76.8672H463.381V156H449.928V94.2764L407.197 156H393.744ZM415.901 53.1274C415.901 56.2927 416.851 58.9305 418.75 61.0407C420.649 63.1509 423.92 64.206 428.562 64.206C433.205 64.206 436.476 63.1509 438.375 61.0407C440.274 58.9305 441.224 56.2927 441.224 53.1274H453.885C453.885 54.9211 453.568 56.9258 452.935 59.1415C452.302 61.3572 451.036 63.4147 449.137 65.3138C447.343 67.213 444.811 68.8484 441.54 70.2201C438.269 71.4862 433.943 72.1193 428.562 72.1193C423.181 72.1193 418.855 71.4862 415.585 70.2201C412.314 68.8484 409.729 67.213 407.83 65.3138C406.036 63.4147 404.823 61.3572 404.19 59.1415C403.556 56.9258 403.24 54.9211 403.24 53.1274H415.901ZM487.875 76.8672V110.103H529.024V76.8672H542.477V156H529.024V119.599H487.875V156H474.422V76.8672H487.875ZM617.659 109.312H554.353V99.8157H617.659V109.312ZM629.597 156V76.8672H643.049V145.713H676.76V76.8672H690.054V145.713H723.765V76.8672H737.217V156H629.597ZM748.296 76.8672H761.749V118.016L800.524 76.8672H815.559L785.014 108.679L817.141 156H801.315L776.309 117.858L761.749 133.051V156H748.296V76.8672ZM816.418 116.434C816.418 110.736 817.209 105.355 818.792 100.291C820.375 95.1205 822.749 90.6363 825.914 86.838C829.185 83.0396 833.247 80.0325 838.101 77.8168C842.954 75.6011 848.652 74.4932 855.193 74.4932C861.735 74.4932 867.432 75.6011 872.286 77.8168C877.139 80.0325 881.149 83.0396 884.314 86.838C887.585 90.6363 890.012 95.1205 891.594 100.291C893.177 105.355 893.968 110.736 893.968 116.434C893.968 122.131 893.177 127.565 891.594 132.735C890.012 137.799 887.585 142.231 884.314 146.029C881.149 149.828 877.139 152.835 872.286 155.05C867.432 157.266 861.735 158.374 855.193 158.374C848.652 158.374 842.954 157.266 838.101 155.05C833.247 152.835 829.185 149.828 825.914 146.029C822.749 142.231 820.375 137.799 818.792 132.735C817.209 127.565 816.418 122.131 816.418 116.434ZM830.662 116.434C830.662 122.131 831.295 127.037 832.561 131.152C833.933 135.267 835.727 138.644 837.942 141.281C840.158 143.919 842.743 145.871 845.697 147.137C848.652 148.298 851.817 148.878 855.193 148.878C858.57 148.878 861.735 148.298 864.689 147.137C867.643 145.871 870.228 143.919 872.444 141.281C874.66 138.644 876.401 135.267 877.667 131.152C879.039 127.037 879.724 122.131 879.724 116.434C879.724 110.736 879.039 105.83 877.667 101.715C876.401 97.6 874.66 94.2237 872.444 91.5859C870.228 88.9482 867.643 87.049 864.689 85.8884C861.735 84.6222 858.57 83.9892 855.193 83.9892C851.817 83.9892 848.652 84.6222 845.697 85.8884C842.743 87.049 840.158 88.9482 837.942 91.5859C835.727 94.2237 833.933 97.6 832.561 101.715C831.295 105.83 830.662 110.736 830.662 116.434ZM893.931 156V144.921C894.142 145.027 894.406 145.08 894.722 145.08C894.934 145.08 895.197 145.132 895.514 145.238C895.83 145.238 896.2 145.238 896.622 145.238C899.154 145.238 901.422 144.816 903.427 143.972C905.537 143.022 907.278 141.07 908.65 138.116C910.021 135.162 911.077 130.889 911.815 125.296C912.554 119.704 912.923 112.266 912.923 102.981V76.8672H970.69V156H957.237V87.1545H925.584V104.564C925.584 114.06 925.109 122.131 924.16 128.778C923.21 135.425 921.733 140.807 919.728 144.921C917.724 149.036 915.086 152.043 911.815 153.943C908.65 155.842 904.799 156.791 900.262 156.791C899.312 156.791 898.415 156.739 897.571 156.633C896.833 156.633 896.2 156.58 895.672 156.475C895.039 156.264 894.459 156.106 893.931 156ZM979.456 134.634C979.456 131.258 980.037 128.093 981.197 125.138C982.463 122.184 984.468 119.599 987.211 117.383C989.955 115.167 993.595 113.427 998.132 112.16C1002.67 110.789 1008.31 110.103 1015.07 110.103C1019.6 110.103 1023.19 109.734 1025.83 108.995C1028.47 108.257 1030.42 107.307 1031.68 106.146C1033.06 104.986 1033.9 103.667 1034.22 102.19C1034.64 100.607 1034.85 99.0244 1034.85 97.4417C1034.85 92.6938 1033.11 89.2647 1029.63 87.1545C1026.25 85.0443 1021.4 83.9892 1015.07 83.9892C1001.35 83.9892 994.492 89.5285 994.492 100.607H981.039C981.039 96.0701 981.883 92.1662 983.571 88.8954C985.259 85.6246 987.581 82.9341 990.535 80.8239C993.595 78.6081 997.182 77.0255 1001.3 76.0759C1005.52 75.0208 1010.11 74.4932 1015.07 74.4932C1025.83 74.4932 1034.06 76.5507 1039.76 80.6656C1045.45 84.7805 1048.3 91.4277 1048.3 100.607V137.008C1048.3 138.591 1048.35 140.015 1048.46 141.281C1048.57 142.547 1048.83 143.603 1049.25 144.447C1049.78 145.291 1050.57 145.924 1051.63 146.346C1052.68 146.662 1054.21 146.715 1056.22 146.504V156C1055.48 156.106 1054.74 156.264 1054 156.475C1053.26 156.58 1052.47 156.633 1051.63 156.633C1050.78 156.739 1049.94 156.791 1049.09 156.791C1047.09 156.791 1045.19 156.633 1043.4 156.317C1041.71 156.106 1040.23 155.578 1038.96 154.734C1037.7 153.89 1036.7 152.676 1035.96 151.094C1035.22 149.511 1034.85 147.454 1034.85 144.921V142.547C1033.16 145.502 1031 148.139 1028.36 150.461C1026.14 152.465 1023.3 154.312 1019.81 156C1016.44 157.583 1012.22 158.374 1007.15 158.374C997.973 158.374 991.063 156.106 986.42 151.569C981.778 147.032 979.456 141.387 979.456 134.634ZM1010.32 148.878C1013.06 148.878 1015.86 148.35 1018.71 147.295C1021.66 146.24 1024.3 144.499 1026.62 142.073C1029.05 139.54 1031 136.27 1032.48 132.26C1034.06 128.145 1034.85 123.134 1034.85 117.225V111.844C1034.85 111.949 1034.53 112.319 1033.9 112.952C1033.37 113.585 1032.32 114.271 1030.73 115.009C1029.15 115.748 1026.99 116.434 1024.25 117.067C1021.5 117.7 1017.91 118.016 1013.48 118.016C1011.27 118.016 1009 118.28 1006.68 118.808C1004.36 119.23 1002.25 120.021 1000.35 121.182C998.448 122.237 996.866 123.767 995.599 125.771C994.333 127.67 993.7 130.097 993.7 133.051C993.7 137.799 995.177 141.651 998.132 144.605C1001.09 147.454 1005.15 148.878 1010.32 148.878ZM64.5393 297V217.867H85.1138L109.645 282.756L134.176 217.867H154.751V297H141.298V230.528L115.976 297H103.314L77.9919 230.528V297H64.5393ZM164.191 257.434C164.191 251.736 164.982 246.355 166.565 241.291C168.148 236.121 170.522 231.636 173.687 227.838C176.852 224.04 180.809 221.033 185.557 218.817C190.305 216.601 195.844 215.493 202.175 215.493C208.716 215.493 214.256 216.654 218.793 218.975C223.435 221.191 227.233 224.145 230.188 227.838C233.142 231.425 235.252 235.54 236.518 240.183C237.89 244.825 238.576 249.52 238.576 254.268V260.599H178.435C178.962 270.939 181.547 278.43 186.19 283.073C190.938 287.61 196.53 289.878 202.966 289.878C208.136 289.878 212.673 288.506 216.577 285.763C220.586 283.02 223.171 278.852 224.332 273.26H237.784C236.202 280.857 232.456 287.135 226.548 292.094C220.745 296.947 212.884 299.374 202.966 299.374C196.424 299.374 190.727 298.266 185.873 296.05C181.02 293.835 176.958 290.828 173.687 287.029C170.522 283.231 168.148 278.799 166.565 273.735C164.982 268.565 164.191 263.131 164.191 257.434ZM224.332 251.103C224.332 242.029 222.116 235.435 217.685 231.32C213.359 227.099 208.189 224.989 202.175 224.989C196.055 224.989 190.832 227.047 186.506 231.162C182.18 235.276 179.595 241.924 178.751 251.103H224.332ZM261.45 217.867V251.103H302.599V217.867H316.052V297H302.599V260.599H261.45V297H247.998V217.867H261.45ZM323.965 228.154V217.867H395.976V228.154H366.697V297H353.244V228.154H323.965ZM399.252 275.634C399.252 272.258 399.833 269.093 400.993 266.138C402.259 263.184 404.264 260.599 407.007 258.383C409.751 256.167 413.391 254.427 417.928 253.16C422.465 251.789 428.109 251.103 434.862 251.103C439.399 251.103 442.986 250.734 445.624 249.995C448.262 249.257 450.214 248.307 451.48 247.146C452.852 245.986 453.696 244.667 454.012 243.19C454.434 241.607 454.645 240.024 454.645 238.442C454.645 233.694 452.904 230.265 449.423 228.154C446.046 226.044 441.193 224.989 434.862 224.989C421.146 224.989 414.288 230.528 414.288 241.607H400.835C400.835 237.07 401.679 233.166 403.367 229.895C405.055 226.625 407.377 223.934 410.331 221.824C413.391 219.608 416.978 218.025 421.093 217.076C425.313 216.021 429.903 215.493 434.862 215.493C445.624 215.493 453.854 217.551 459.552 221.666C465.249 225.781 468.098 232.428 468.098 241.607V278.008C468.098 279.591 468.151 281.015 468.256 282.281C468.362 283.547 468.625 284.603 469.047 285.447C469.575 286.291 470.366 286.924 471.421 287.346C472.477 287.662 474.006 287.715 476.011 287.504V297C475.273 297.106 474.534 297.264 473.795 297.475C473.057 297.58 472.266 297.633 471.421 297.633C470.577 297.739 469.733 297.791 468.889 297.791C466.885 297.791 464.985 297.633 463.192 297.317C461.503 297.106 460.026 296.578 458.76 295.734C457.494 294.89 456.492 293.676 455.753 292.094C455.015 290.511 454.645 288.454 454.645 285.921V283.547C452.957 286.502 450.794 289.139 448.156 291.461C445.941 293.465 443.092 295.312 439.61 297C436.234 298.583 432.013 299.374 426.949 299.374C417.769 299.374 410.859 297.106 406.216 292.569C401.574 288.032 399.252 282.387 399.252 275.634ZM430.114 289.878C432.857 289.878 435.653 289.35 438.502 288.295C441.457 287.24 444.094 285.499 446.416 283.073C448.842 280.54 450.794 277.27 452.271 273.26C453.854 269.145 454.645 264.134 454.645 258.225V252.844C454.645 252.949 454.329 253.319 453.696 253.952C453.168 254.585 452.113 255.271 450.53 256.009C448.948 256.748 446.785 257.434 444.042 258.067C441.298 258.7 437.711 259.016 433.279 259.016C431.064 259.016 428.795 259.28 426.474 259.808C424.153 260.23 422.043 261.021 420.143 262.182C418.244 263.237 416.662 264.767 415.395 266.771C414.129 268.67 413.496 271.097 413.496 274.051C413.496 278.799 414.973 282.651 417.928 285.605C420.882 288.454 424.944 289.878 430.114 289.878ZM479.875 297V285.921C480.086 286.027 480.35 286.08 480.666 286.08C480.877 286.08 481.141 286.132 481.458 286.238C481.774 286.238 482.144 286.238 482.566 286.238C485.098 286.238 487.366 285.816 489.371 284.972C491.481 284.022 493.222 282.07 494.594 279.116C495.965 276.162 497.021 271.889 497.759 266.296C498.498 260.704 498.867 253.266 498.867 243.981V217.867H556.634V297H543.181V228.154H511.528V245.564C511.528 255.06 511.053 263.131 510.104 269.778C509.154 276.425 507.677 281.807 505.672 285.921C503.668 290.036 501.03 293.043 497.759 294.943C494.594 296.842 490.743 297.791 486.206 297.791C485.256 297.791 484.359 297.739 483.515 297.633C482.777 297.633 482.144 297.58 481.616 297.475C480.983 297.264 480.403 297.106 479.875 297ZM581.227 217.867V250.312H602.593C606.708 250.312 610.611 250.681 614.304 251.42C618.103 252.053 621.426 253.266 624.275 255.06C627.124 256.748 629.34 259.069 630.922 262.023C632.61 264.978 633.454 268.723 633.454 273.26C633.454 277.797 632.61 281.595 630.922 284.655C629.34 287.715 627.124 290.142 624.275 291.936C621.426 293.729 618.103 295.048 614.304 295.892C610.611 296.631 606.708 297 602.593 297H567.774V217.867H581.227ZM581.227 286.713H601.801C604.228 286.713 606.497 286.554 608.607 286.238C610.717 285.816 612.563 285.13 614.146 284.18C615.729 283.125 616.942 281.754 617.786 280.066C618.736 278.272 619.211 276.003 619.211 273.26C619.211 270.728 618.736 268.67 617.786 267.088C616.942 265.4 615.729 264.081 614.146 263.131C612.563 262.182 610.717 261.549 608.607 261.232C606.497 260.81 604.228 260.599 601.801 260.599H581.227V286.713ZM655.568 217.867V251.103H696.717V217.867H710.17V297H696.717V260.599H655.568V297H642.116V217.867H655.568ZM719.666 257.434C719.666 251.736 720.457 246.355 722.04 241.291C723.623 236.121 725.997 231.636 729.162 227.838C732.433 224.04 736.495 221.033 741.348 218.817C746.202 216.601 751.899 215.493 758.441 215.493C764.983 215.493 770.68 216.601 775.534 218.817C780.387 221.033 784.397 224.04 787.562 227.838C790.833 231.636 793.259 236.121 794.842 241.291C796.425 246.355 797.216 251.736 797.216 257.434C797.216 263.131 796.425 268.565 794.842 273.735C793.259 278.799 790.833 283.231 787.562 287.029C784.397 290.828 780.387 293.835 775.534 296.05C770.68 298.266 764.983 299.374 758.441 299.374C751.899 299.374 746.202 298.266 741.348 296.05C736.495 293.835 732.433 290.828 729.162 287.029C725.997 283.231 723.623 278.799 722.04 273.735C720.457 268.565 719.666 263.131 719.666 257.434ZM733.91 257.434C733.91 263.131 734.543 268.037 735.809 272.152C737.181 276.267 738.974 279.644 741.19 282.281C743.406 284.919 745.991 286.871 748.945 288.137C751.899 289.298 755.065 289.878 758.441 289.878C761.817 289.878 764.983 289.298 767.937 288.137C770.891 286.871 773.476 284.919 775.692 282.281C777.908 279.644 779.649 276.267 780.915 272.152C782.286 268.037 782.972 263.131 782.972 257.434C782.972 251.736 782.286 246.83 780.915 242.715C779.649 238.6 777.908 235.224 775.692 232.586C773.476 229.948 770.891 228.049 767.937 226.888C764.983 225.622 761.817 224.989 758.441 224.989C755.065 224.989 751.899 225.622 748.945 226.888C745.991 228.049 743.406 229.948 741.19 232.586C738.974 235.224 737.181 238.6 735.809 242.715C734.543 246.83 733.91 251.736 733.91 257.434ZM806.718 297V217.867H862.902V228.154H820.171V297H806.718ZM864.485 257.434C864.485 251.736 865.276 246.355 866.859 241.291C868.442 236.121 870.816 231.636 873.981 227.838C877.252 224.04 881.314 221.033 886.167 218.817C891.021 216.601 896.718 215.493 903.26 215.493C909.802 215.493 915.499 216.601 920.353 218.817C925.206 221.033 929.216 224.04 932.381 227.838C935.652 231.636 938.079 236.121 939.661 241.291C941.244 246.355 942.035 251.736 942.035 257.434C942.035 263.131 941.244 268.565 939.661 273.735C938.079 278.799 935.652 283.231 932.381 287.029C929.216 290.828 925.206 293.835 920.353 296.05C915.499 298.266 909.802 299.374 903.26 299.374C896.718 299.374 891.021 298.266 886.167 296.05C881.314 293.835 877.252 290.828 873.981 287.029C870.816 283.231 868.442 278.799 866.859 273.735C865.276 268.565 864.485 263.131 864.485 257.434ZM878.729 257.434C878.729 263.131 879.362 268.037 880.628 272.152C882 276.267 883.793 279.644 886.009 282.281C888.225 284.919 890.81 286.871 893.764 288.137C896.718 289.298 899.884 289.878 903.26 289.878C906.636 289.878 909.802 289.298 912.756 288.137C915.71 286.871 918.295 284.919 920.511 282.281C922.727 279.644 924.468 276.267 925.734 272.152C927.105 268.037 927.791 263.131 927.791 257.434C927.791 251.736 927.105 246.83 925.734 242.715C924.468 238.6 922.727 235.224 920.511 232.586C918.295 229.948 915.71 228.049 912.756 226.888C909.802 225.622 906.636 224.989 903.26 224.989C899.884 224.989 896.718 225.622 893.764 226.888C890.81 228.049 888.225 229.948 886.009 232.586C883.793 235.224 882 238.6 880.628 242.715C879.362 246.83 878.729 251.736 878.729 257.434ZM62.1653 411.886H75.6179C75.6179 417.478 77.306 422.068 80.6824 425.655C84.1642 429.137 89.8618 430.878 97.7751 430.878C101.89 430.878 105.372 430.456 108.221 429.612C111.069 428.662 113.338 427.449 115.026 425.972C116.82 424.389 118.086 422.595 118.824 420.591C119.563 418.586 119.932 416.476 119.932 414.26C119.932 410.778 118.93 408.141 116.925 406.347C114.92 404.553 112.441 403.34 109.487 402.707C106.532 401.968 103.42 401.599 100.149 401.599H85.9051V392.103H100.149C105.319 392.103 109.487 391.101 112.652 389.096C115.923 387.091 117.558 383.873 117.558 379.442C117.558 375.854 116.028 372.742 112.969 370.104C110.014 367.361 104.95 365.989 97.7751 365.989C93.8712 365.989 90.6004 366.569 87.9626 367.73C85.3248 368.891 83.2146 370.315 81.632 372.003C80.0493 373.586 78.8887 375.38 78.1501 377.384C77.5171 379.283 77.2005 381.024 77.2005 382.607H63.748C63.748 380.075 64.2755 377.279 65.3306 374.219C66.4912 371.159 68.3377 368.31 70.8699 365.673C73.5077 363.035 76.9895 360.872 81.3154 359.184C85.7469 357.39 91.2334 356.493 97.7751 356.493C104.106 356.493 109.381 357.126 113.602 358.392C117.928 359.659 121.357 361.294 123.889 363.299C126.421 365.303 128.215 367.625 129.27 370.262C130.431 372.795 131.011 375.327 131.011 377.859C131.011 381.552 130.167 384.559 128.479 386.88C126.79 389.201 124.891 390.995 122.781 392.261C120.249 393.633 117.453 394.635 114.393 395.268V396.06C118.086 396.693 121.409 397.748 124.364 399.225C126.79 400.491 129.006 402.337 131.011 404.764C133.121 407.085 134.176 410.251 134.176 414.26C134.176 421.857 131.064 428.135 124.838 433.094C118.719 437.947 109.698 440.374 97.7751 440.374C85.5359 440.374 76.5147 437.736 70.7117 432.461C65.0141 427.08 62.1653 420.222 62.1653 411.886ZM137.397 461.74V427.713H140.562C143.306 427.713 145.732 426.816 147.843 425.022C150.058 423.229 151.905 420.327 153.382 416.318C154.859 412.308 155.967 407.085 156.705 400.649C157.55 394.213 157.972 386.353 157.972 377.068V358.867H215.739V427.713H229.982V461.74H216.53V438H150.85V461.74H137.397ZM202.286 427.713V369.154H170.633V378.65C170.633 390.362 169.842 400.597 168.259 409.354C166.782 418.006 163.88 424.125 159.554 427.713H202.286ZM231.577 398.434C231.577 392.736 232.369 387.355 233.951 382.291C235.534 377.121 237.908 372.636 241.073 368.838C244.344 365.04 248.406 362.033 253.26 359.817C258.113 357.601 263.811 356.493 270.353 356.493C276.894 356.493 282.592 357.601 287.445 359.817C292.299 362.033 296.308 365.04 299.473 368.838C302.744 372.636 305.171 377.121 306.754 382.291C308.336 387.355 309.128 392.736 309.128 398.434C309.128 404.131 308.336 409.565 306.754 414.735C305.171 419.799 302.744 424.231 299.473 428.029C296.308 431.828 292.299 434.835 287.445 437.05C282.592 439.266 276.894 440.374 270.353 440.374C263.811 440.374 258.113 439.266 253.26 437.05C248.406 434.835 244.344 431.828 241.073 428.029C237.908 424.231 235.534 419.799 233.951 414.735C232.369 409.565 231.577 404.131 231.577 398.434ZM245.821 398.434C245.821 404.131 246.454 409.037 247.721 413.152C249.092 417.267 250.886 420.644 253.102 423.281C255.317 425.919 257.902 427.871 260.857 429.137C263.811 430.298 266.976 430.878 270.353 430.878C273.729 430.878 276.894 430.298 279.848 429.137C282.803 427.871 285.388 425.919 287.603 423.281C289.819 420.644 291.56 417.267 292.826 413.152C294.198 409.037 294.884 404.131 294.884 398.434C294.884 392.736 294.198 387.83 292.826 383.715C291.56 379.6 289.819 376.224 287.603 373.586C285.388 370.948 282.803 369.049 279.848 367.888C276.894 366.622 273.729 365.989 270.353 365.989C266.976 365.989 263.811 366.622 260.857 367.888C257.902 369.049 255.317 370.948 253.102 373.586C250.886 376.224 249.092 379.6 247.721 383.715C246.454 387.83 245.821 392.736 245.821 398.434ZM318.63 461.74V358.867H332.082V373.111C333.77 370.051 335.881 367.255 338.413 364.723C340.629 362.613 343.425 360.714 346.801 359.025C350.177 357.337 354.239 356.493 358.987 356.493C365.318 356.493 370.752 357.654 375.289 359.975C379.931 362.191 383.73 365.251 386.684 369.154C389.638 373.058 391.801 377.543 393.173 382.607C394.65 387.566 395.388 392.842 395.388 398.434C395.388 403.92 394.65 409.196 393.173 414.26C391.801 419.325 389.638 423.809 386.684 427.713C383.73 431.617 379.931 434.729 375.289 437.05C370.752 439.266 365.318 440.374 358.987 440.374C354.239 440.374 350.177 439.53 346.801 437.842C343.425 436.048 340.629 434.096 338.413 431.986C335.881 429.559 333.77 426.816 332.082 423.756V461.74H318.63ZM332.082 398.434C332.082 403.815 332.715 408.51 333.981 412.519C335.353 416.529 337.147 419.905 339.362 422.648C341.578 425.392 344.163 427.449 347.117 428.821C350.072 430.192 353.237 430.878 356.613 430.878C359.99 430.878 363.155 430.298 366.109 429.137C369.064 427.871 371.649 425.919 373.864 423.281C376.08 420.644 377.821 417.267 379.087 413.152C380.459 409.037 381.145 404.131 381.145 398.434C381.145 392.736 380.459 387.83 379.087 383.715C377.821 379.6 376.08 376.224 373.864 373.586C371.649 370.948 369.064 369.049 366.109 367.888C363.155 366.622 359.99 365.989 356.613 365.989C353.237 365.989 350.072 366.675 347.117 368.047C344.163 369.418 341.578 371.476 339.362 374.219C337.147 376.962 335.353 380.339 333.981 384.348C332.715 388.357 332.082 393.053 332.082 398.434ZM403.289 398.434C403.289 392.736 404.081 387.355 405.663 382.291C407.246 377.121 409.62 372.636 412.785 368.838C416.056 365.04 420.118 362.033 424.972 359.817C429.825 357.601 435.523 356.493 442.064 356.493C448.606 356.493 454.304 357.601 459.157 359.817C464.011 362.033 468.02 365.04 471.185 368.838C474.456 372.636 476.883 377.121 478.466 382.291C480.048 387.355 480.84 392.736 480.84 398.434C480.84 404.131 480.048 409.565 478.466 414.735C476.883 419.799 474.456 424.231 471.185 428.029C468.02 431.828 464.011 434.835 459.157 437.05C454.304 439.266 448.606 440.374 442.064 440.374C435.523 440.374 429.825 439.266 424.972 437.05C420.118 434.835 416.056 431.828 412.785 428.029C409.62 424.231 407.246 419.799 405.663 414.735C404.081 409.565 403.289 404.131 403.289 398.434ZM417.533 398.434C417.533 404.131 418.166 409.037 419.432 413.152C420.804 417.267 422.598 420.644 424.814 423.281C427.029 425.919 429.614 427.871 432.569 429.137C435.523 430.298 438.688 430.878 442.064 430.878C445.441 430.878 448.606 430.298 451.56 429.137C454.515 427.871 457.1 425.919 459.315 423.281C461.531 420.644 463.272 417.267 464.538 413.152C465.91 409.037 466.596 404.131 466.596 398.434C466.596 392.736 465.91 387.83 464.538 383.715C463.272 379.6 461.531 376.224 459.315 373.586C457.1 370.948 454.515 369.049 451.56 367.888C448.606 366.622 445.441 365.989 442.064 365.989C438.688 365.989 435.523 366.622 432.569 367.888C429.614 369.049 427.029 370.948 424.814 373.586C422.598 376.224 420.804 379.6 419.432 383.715C418.166 387.83 417.533 392.736 417.533 398.434ZM527.534 358.867C531.332 358.867 534.92 359.184 538.296 359.817C541.778 360.45 544.785 361.505 547.317 362.982C549.955 364.459 552.065 366.411 553.648 368.838C555.231 371.265 556.022 374.272 556.022 377.859C556.022 381.552 555.231 384.559 553.648 386.88C552.065 389.201 550.377 390.995 548.583 392.261C546.368 393.633 543.835 394.635 540.987 395.268V396.06C544.363 396.693 547.423 397.801 550.166 399.383C552.382 400.649 554.439 402.549 556.338 405.081C558.238 407.508 559.187 410.831 559.187 415.051C559.187 419.377 558.343 423.018 556.655 425.972C555.072 428.926 552.857 431.3 550.008 433.094C547.159 434.887 543.835 436.154 540.037 436.892C536.344 437.631 532.44 438 528.325 438H490.342V358.867H527.534ZM527.534 427.713C529.961 427.713 532.229 427.554 534.339 427.238C536.45 426.816 538.296 426.13 539.879 425.18C541.461 424.125 542.675 422.754 543.519 421.066C544.468 419.272 544.943 417.003 544.943 414.26C544.943 411.728 544.468 409.67 543.519 408.088C542.675 406.4 541.461 405.081 539.879 404.131C538.296 403.182 536.45 402.549 534.339 402.232C532.229 401.81 529.961 401.599 527.534 401.599H503.794V427.713H527.534ZM525.16 392.103C530.33 392.103 534.498 391.259 537.663 389.571C540.934 387.777 542.569 384.665 542.569 380.233C542.569 377.806 542.094 375.907 541.145 374.536C540.301 373.058 539.14 371.951 537.663 371.212C536.186 370.368 534.498 369.84 532.599 369.629C530.699 369.313 528.747 369.154 526.743 369.154H503.794V392.103H525.16ZM581.381 358.867V391.312H602.747C606.862 391.312 610.766 391.681 614.459 392.42C618.257 393.053 621.581 394.266 624.43 396.06C627.278 397.748 629.494 400.069 631.077 403.023C632.765 405.978 633.609 409.723 633.609 414.26C633.609 418.797 632.765 422.595 631.077 425.655C629.494 428.715 627.278 431.142 624.43 432.936C621.581 434.729 618.257 436.048 614.459 436.892C610.766 437.631 606.862 438 602.747 438H567.929V358.867H581.381ZM581.381 427.713H601.956C604.383 427.713 606.651 427.554 608.761 427.238C610.872 426.816 612.718 426.13 614.301 425.18C615.883 424.125 617.097 422.754 617.941 421.066C618.89 419.272 619.365 417.003 619.365 414.26C619.365 411.728 618.89 409.67 617.941 408.088C617.097 406.4 615.883 405.081 614.301 404.131C612.718 403.182 610.872 402.549 608.761 402.232C606.651 401.81 604.383 401.599 601.956 401.599H581.381V427.713ZM658.646 404.606C653.159 403.445 648.517 401.23 644.719 397.959C641.026 394.582 639.179 389.465 639.179 382.607C639.179 378.07 640.023 374.272 641.711 371.212C643.505 368.152 645.826 365.725 648.675 363.932C651.524 362.138 654.795 360.872 658.488 360.133C662.286 359.289 666.137 358.867 670.041 358.867H706.442V438H692.99V405.556H672.415L651.84 438H636.805L658.646 404.606ZM653.423 382.607C653.423 385.139 653.898 387.25 654.848 388.938C655.797 390.52 657.063 391.786 658.646 392.736C660.229 393.686 662.075 394.371 664.185 394.794C666.295 395.11 668.511 395.268 670.832 395.268H692.99V369.154H670.832C668.511 369.154 666.295 369.366 664.185 369.788C662.075 370.104 660.229 370.79 658.646 371.845C657.063 372.795 655.797 374.166 654.848 375.96C653.898 377.648 653.423 379.864 653.423 382.607ZM749.223 335.127H762.676V373.111C764.786 370.051 767.213 367.255 769.956 364.723C772.383 362.613 775.284 360.714 778.661 359.025C782.037 357.337 785.941 356.493 790.372 356.493C798.286 356.493 804.722 358.762 809.681 363.299C814.745 367.73 817.277 374.694 817.277 384.19V438H803.825V387.355C803.825 380.18 802.189 374.958 798.919 371.687C795.753 368.416 791.586 366.781 786.416 366.781C783.25 366.781 780.243 367.361 777.395 368.521C774.546 369.577 772.013 371.265 769.798 373.586C767.582 375.802 765.841 378.65 764.575 382.132C763.309 385.614 762.676 389.729 762.676 394.477V438H749.223V335.127ZM826.773 398.434C826.773 392.736 827.565 387.355 829.147 382.291C830.73 377.121 833.104 372.636 836.269 368.838C839.54 365.04 843.602 362.033 848.456 359.817C853.309 357.601 859.007 356.493 865.548 356.493C872.09 356.493 877.788 357.601 882.641 359.817C887.495 362.033 891.504 365.04 894.669 368.838C897.94 372.636 900.367 377.121 901.95 382.291C903.532 387.355 904.324 392.736 904.324 398.434C904.324 404.131 903.532 409.565 901.95 414.735C900.367 419.799 897.94 424.231 894.669 428.029C891.504 431.828 887.495 434.835 882.641 437.05C877.788 439.266 872.09 440.374 865.548 440.374C859.007 440.374 853.309 439.266 848.456 437.05C843.602 434.835 839.54 431.828 836.269 428.029C833.104 424.231 830.73 419.799 829.147 414.735C827.565 409.565 826.773 404.131 826.773 398.434ZM841.017 398.434C841.017 404.131 841.65 409.037 842.916 413.152C844.288 417.267 846.082 420.644 848.298 423.281C850.513 425.919 853.098 427.871 856.053 429.137C859.007 430.298 862.172 430.878 865.548 430.878C868.925 430.878 872.09 430.298 875.044 429.137C877.999 427.871 880.584 425.919 882.799 423.281C885.015 420.644 886.756 417.267 888.022 413.152C889.394 409.037 890.08 404.131 890.08 398.434C890.08 392.736 889.394 387.83 888.022 383.715C886.756 379.6 885.015 376.224 882.799 373.586C880.584 370.948 877.999 369.049 875.044 367.888C872.09 366.622 868.925 365.989 865.548 365.989C862.172 365.989 859.007 366.622 856.053 367.888C853.098 369.049 850.513 370.948 848.298 373.586C846.082 376.224 844.288 379.6 842.916 383.715C841.65 387.83 841.017 392.736 841.017 398.434ZM927.278 335.127V400.016L966.053 358.867H981.088L950.543 390.679L982.671 438H966.845L941.839 399.858L927.278 415.051V438H913.826V335.127H927.278Z" fill="black"/>
</svg>
