<svg width="1437" height="506" viewBox="0 0 1437 506" fill="none" xmlns="http://www.w3.org/2000/svg">
<rect width="1437" height="506" rx="50" fill="#FF2E2E"/>
<path d="M62.9566 111.686C62.9566 103.139 63.6952 95.3315 65.1724 88.2623C66.755 81.0876 69.2873 74.9153 72.7691 69.7453C76.2509 64.4698 80.8406 60.4076 86.5382 57.5588C92.3413 54.6045 99.516 53.1274 108.062 53.1274H116.767C120.354 53.1274 123.098 52.5998 124.997 51.5447C126.896 50.4896 127.846 48.3794 127.846 45.2141H135.759C135.759 47.0078 135.601 49.118 135.284 51.5447C135.073 53.866 134.334 56.0817 133.068 58.1919C131.802 60.3021 129.903 62.0958 127.371 63.5729C124.838 65.0501 121.304 65.7886 116.767 65.7886H103.314C99.1995 65.7886 95.4011 66.4217 91.9192 67.6878C88.4374 68.9539 85.3776 70.9586 82.7398 73.7019C80.1021 76.4452 77.9391 80.0325 76.2509 84.464C74.6683 88.8954 73.6659 94.2764 73.2439 100.607H74.0352C75.3014 96.2811 77.2005 92.43 79.7328 89.0537C81.9485 86.2049 84.9028 83.6199 88.5957 81.2987C92.394 78.8719 97.3003 77.6585 103.314 77.6585C109.856 77.6585 115.448 78.8192 120.091 81.1404C124.838 83.3561 128.69 86.3632 131.644 90.1615C134.704 93.8544 136.919 98.1276 138.291 102.981C139.768 107.835 140.507 112.846 140.507 118.016C140.507 123.397 139.715 128.515 138.133 133.368C136.55 138.222 134.123 142.495 130.853 146.188C127.687 149.88 123.678 152.835 118.824 155.05C113.971 157.266 108.273 158.374 101.732 158.374C94.979 158.374 89.176 157.266 84.3225 155.05C79.469 152.729 75.4596 149.511 72.2943 145.396C69.129 141.281 66.755 136.375 65.1724 130.678C63.6952 124.98 62.9566 118.649 62.9566 111.686ZM101.732 148.878C105.108 148.878 108.273 148.298 111.228 147.137C114.182 145.871 116.767 143.972 118.983 141.44C121.198 138.907 122.939 135.742 124.205 131.944C125.577 128.04 126.263 123.397 126.263 118.016C126.263 112.635 125.577 108.046 124.205 104.247C122.939 100.343 121.198 97.1252 118.983 94.593C116.767 92.0607 114.182 90.2143 111.228 89.0537C108.273 87.7875 105.108 87.1545 101.732 87.1545C98.3554 87.1545 95.1901 87.8403 92.2358 89.2119C89.2815 90.5836 86.6965 92.5883 84.4808 95.226C82.265 97.7583 80.4714 100.976 79.0997 104.88C77.8336 108.679 77.2005 113.057 77.2005 118.016C77.2005 123.397 77.8336 128.04 79.0997 131.944C80.4714 135.742 82.265 138.907 84.4808 141.44C86.6965 143.972 89.2815 145.871 92.2358 147.137C95.1901 148.298 98.3554 148.878 101.732 148.878ZM150.009 179.74V76.8672H163.461V91.1111C165.15 88.0513 167.26 85.2553 169.792 82.723C172.008 80.6128 174.804 78.7137 178.18 77.0255C181.556 75.3373 185.619 74.4932 190.367 74.4932C196.697 74.4932 202.131 75.6539 206.668 77.9751C211.31 80.1908 215.109 83.2506 218.063 87.1545C221.017 91.0584 223.18 95.5426 224.552 100.607C226.029 105.566 226.768 110.842 226.768 116.434C226.768 121.92 226.029 127.196 224.552 132.26C223.18 137.325 221.017 141.809 218.063 145.713C215.109 149.617 211.31 152.729 206.668 155.05C202.131 157.266 196.697 158.374 190.367 158.374C185.619 158.374 181.556 157.53 178.18 155.842C174.804 154.048 172.008 152.096 169.792 149.986C167.26 147.559 165.15 144.816 163.461 141.756V179.74H150.009ZM163.461 116.434C163.461 121.815 164.095 126.51 165.361 130.519C166.732 134.529 168.526 137.905 170.742 140.648C172.957 143.392 175.542 145.449 178.497 146.821C181.451 148.192 184.616 148.878 187.993 148.878C191.369 148.878 194.534 148.298 197.489 147.137C200.443 145.871 203.028 143.919 205.244 141.281C207.459 138.644 209.2 135.267 210.466 131.152C211.838 127.037 212.524 122.131 212.524 116.434C212.524 110.736 211.838 105.83 210.466 101.715C209.2 97.6 207.459 94.2237 205.244 91.5859C203.028 88.9482 200.443 87.049 197.489 85.8884C194.534 84.6222 191.369 83.9892 187.993 83.9892C184.616 83.9892 181.451 84.675 178.497 86.0466C175.542 87.4183 172.957 89.4757 170.742 92.219C168.526 94.9623 166.732 98.3386 165.361 102.348C164.095 106.357 163.461 111.053 163.461 116.434ZM234.669 116.434C234.669 110.736 235.46 105.355 237.043 100.291C238.625 95.1205 240.999 90.6363 244.165 86.838C247.33 83.0396 251.286 80.0325 256.034 77.8168C260.782 75.6011 266.322 74.4932 272.652 74.4932C279.194 74.4932 284.733 75.6539 289.27 77.9751C293.913 80.1908 297.711 83.1451 300.665 86.838C303.62 90.4253 305.73 94.5402 306.996 99.1827C308.368 103.825 309.053 108.52 309.053 113.268V119.599H248.912C249.44 129.939 252.025 137.43 256.667 142.073C261.415 146.61 267.008 148.878 273.444 148.878C278.614 148.878 283.151 147.506 287.054 144.763C291.064 142.02 293.649 137.852 294.809 132.26H308.262C306.679 139.857 302.934 146.135 297.025 151.094C291.222 155.947 283.362 158.374 273.444 158.374C266.902 158.374 261.204 157.266 256.351 155.05C251.497 152.835 247.435 149.828 244.165 146.029C240.999 142.231 238.625 137.799 237.043 132.735C235.46 127.565 234.669 122.131 234.669 116.434ZM294.809 110.103C294.809 101.029 292.594 94.4347 288.162 90.3198C283.836 86.0994 278.666 83.9892 272.652 83.9892C266.533 83.9892 261.31 86.0466 256.984 90.1615C252.658 94.2764 250.073 100.924 249.229 110.103H294.809ZM331.928 76.8672V110.103H373.077V76.8672H386.529V156H373.077V119.599H331.928V156H318.475V76.8672H331.928ZM393.651 179.74V145.713H396.817C399.56 145.713 401.987 144.816 404.097 143.022C406.313 141.229 408.159 138.327 409.636 134.318C411.113 130.308 412.221 125.085 412.96 118.649C413.804 112.213 414.226 104.353 414.226 95.0678V76.8672H471.993V145.713H486.237V179.74H472.784V156H407.104V179.74H393.651ZM458.54 145.713V87.1545H426.887V96.6504C426.887 108.362 426.096 118.597 424.513 127.354C423.036 136.006 420.134 142.125 415.808 145.713H458.54ZM493.433 156V76.8672H506.885V138.591L549.617 76.8672H563.07V156H549.617V94.2764L506.885 156H493.433ZM587.564 76.8672V110.103H628.713V76.8672H642.165V156H628.713V119.599H587.564V156H574.111V76.8672H587.564ZM653.244 156V76.8672H709.428V87.1545H666.696V156H653.244ZM101.732 217.867C105.53 217.867 109.117 218.184 112.494 218.817C115.976 219.45 118.983 220.505 121.515 221.982C124.153 223.459 126.263 225.411 127.846 227.838C129.428 230.265 130.219 233.272 130.219 236.859C130.219 240.552 129.428 243.559 127.846 245.88C126.263 248.201 124.575 249.995 122.781 251.261C120.565 252.633 118.033 253.635 115.184 254.268V255.06C118.561 255.693 121.62 256.801 124.364 258.383C126.579 259.649 128.637 261.549 130.536 264.081C132.435 266.508 133.385 269.831 133.385 274.051C133.385 278.377 132.541 282.018 130.853 284.972C129.27 287.926 127.054 290.3 124.205 292.094C121.357 293.887 118.033 295.154 114.235 295.892C110.542 296.631 106.638 297 102.523 297H64.5393V217.867H101.732ZM101.732 286.713C104.158 286.713 106.427 286.554 108.537 286.238C110.647 285.816 112.494 285.13 114.076 284.18C115.659 283.125 116.872 281.754 117.717 280.066C118.666 278.272 119.141 276.003 119.141 273.26C119.141 270.728 118.666 268.67 117.717 267.088C116.872 265.4 115.659 264.081 114.076 263.131C112.494 262.182 110.647 261.549 108.537 261.232C106.427 260.81 104.158 260.599 101.732 260.599H77.9919V286.713H101.732ZM99.3577 251.103C104.528 251.103 108.695 250.259 111.861 248.571C115.132 246.777 116.767 243.665 116.767 239.233C116.767 236.806 116.292 234.907 115.343 233.536C114.498 232.058 113.338 230.951 111.861 230.212C110.384 229.368 108.695 228.84 106.796 228.629C104.897 228.313 102.945 228.154 100.94 228.154H77.9919V251.103H99.3577ZM142.127 217.867H155.579V250.312H173.78C177.895 250.312 181.798 250.681 185.491 251.42C189.29 252.053 192.613 253.266 195.462 255.06C198.311 256.748 200.526 259.069 202.109 262.023C203.797 264.978 204.641 268.723 204.641 273.26C204.641 277.797 203.797 281.595 202.109 284.655C200.526 287.715 198.311 290.142 195.462 291.936C192.613 293.729 189.29 295.048 185.491 295.892C181.798 296.631 177.895 297 173.78 297H142.127V217.867ZM212.555 217.867H226.007V297H212.555V217.867ZM155.579 260.599V286.713H172.988C175.415 286.713 177.684 286.554 179.794 286.238C181.904 285.816 183.75 285.13 185.333 284.18C186.916 283.125 188.129 281.754 188.973 280.066C189.923 278.272 190.397 276.003 190.397 273.26C190.397 270.728 189.923 268.67 188.973 267.088C188.129 265.4 186.916 264.081 185.333 263.131C183.75 262.182 181.904 261.549 179.794 261.232C177.684 260.81 175.415 260.599 172.988 260.599H155.579ZM235.441 257.434C235.441 251.736 236.233 246.355 237.815 241.291C239.398 236.121 241.772 231.636 244.937 227.838C248.208 224.04 252.27 221.033 257.124 218.817C261.977 216.601 267.675 215.493 274.216 215.493C279.914 215.493 284.926 216.337 289.252 218.025C293.683 219.608 297.376 221.824 300.33 224.673C303.285 227.416 305.553 230.581 307.136 234.169C308.718 237.756 309.615 241.554 309.826 245.564H295.582C294.738 239.233 292.522 234.221 288.935 230.528C285.453 226.836 280.547 224.989 274.216 224.989C270.84 224.989 267.675 225.622 264.72 226.888C261.766 228.049 259.181 229.948 256.965 232.586C254.75 235.224 252.956 238.6 251.584 242.715C250.318 246.83 249.685 251.736 249.685 257.434C249.685 263.131 250.318 268.037 251.584 272.152C252.956 276.267 254.75 279.644 256.965 282.281C259.181 284.919 261.766 286.871 264.72 288.137C267.675 289.298 270.84 289.878 274.216 289.878C280.547 289.878 285.453 288.032 288.935 284.339C292.522 280.646 294.738 275.634 295.582 269.304H309.826C309.615 273.207 308.718 277.006 307.136 280.699C305.553 284.286 303.285 287.504 300.33 290.353C297.376 293.096 293.683 295.312 289.252 297C284.926 298.583 279.914 299.374 274.216 299.374C267.675 299.374 261.977 298.266 257.124 296.05C252.27 293.835 248.208 290.828 244.937 287.029C241.772 283.231 239.398 278.799 237.815 273.735C236.233 268.565 235.441 263.131 235.441 257.434ZM310.519 228.154V217.867H382.529V228.154H353.25V297H339.798V228.154H310.519ZM385.806 275.634C385.806 272.258 386.386 269.093 387.547 266.138C388.813 263.184 390.818 260.599 393.561 258.383C396.304 256.167 399.944 254.427 404.481 253.16C409.018 251.789 414.663 251.103 421.416 251.103C425.953 251.103 429.54 250.734 432.178 249.995C434.816 249.257 436.768 248.307 438.034 247.146C439.405 245.986 440.249 244.667 440.566 243.19C440.988 241.607 441.199 240.024 441.199 238.442C441.199 233.694 439.458 230.265 435.976 228.154C432.6 226.044 427.746 224.989 421.416 224.989C407.699 224.989 400.841 230.528 400.841 241.607H387.389C387.389 237.07 388.233 233.166 389.921 229.895C391.609 226.625 393.93 223.934 396.885 221.824C399.944 219.608 403.532 218.025 407.647 217.076C411.867 216.021 416.457 215.493 421.416 215.493C432.178 215.493 440.408 217.551 446.105 221.666C451.803 225.781 454.652 232.428 454.652 241.607V278.008C454.652 279.591 454.704 281.015 454.81 282.281C454.915 283.547 455.179 284.603 455.601 285.447C456.129 286.291 456.92 286.924 457.975 287.346C459.03 287.662 460.56 287.715 462.565 287.504V297C461.826 297.106 461.088 297.264 460.349 297.475C459.611 297.58 458.819 297.633 457.975 297.633C457.131 297.739 456.287 297.791 455.443 297.791C453.438 297.791 451.539 297.633 449.745 297.317C448.057 297.106 446.58 296.578 445.314 295.734C444.048 294.89 443.045 293.676 442.307 292.094C441.568 290.511 441.199 288.454 441.199 285.921V283.547C439.511 286.502 437.348 289.139 434.71 291.461C432.494 293.465 429.646 295.312 426.164 297C422.787 298.583 418.567 299.374 413.502 299.374C404.323 299.374 397.412 297.106 392.77 292.569C388.127 288.032 385.806 282.387 385.806 275.634ZM416.668 289.878C419.411 289.878 422.207 289.35 425.056 288.295C428.01 287.24 430.648 285.499 432.969 283.073C435.396 280.54 437.348 277.27 438.825 273.26C440.408 269.145 441.199 264.134 441.199 258.225V252.844C441.199 252.949 440.882 253.319 440.249 253.952C439.722 254.585 438.667 255.271 437.084 256.009C435.501 256.748 433.338 257.434 430.595 258.067C427.852 258.7 424.265 259.016 419.833 259.016C417.617 259.016 415.349 259.28 413.028 259.808C410.706 260.23 408.596 261.021 406.697 262.182C404.798 263.237 403.215 264.767 401.949 266.771C400.683 268.67 400.05 271.097 400.05 274.051C400.05 278.799 401.527 282.651 404.481 285.605C407.436 288.454 411.498 289.878 416.668 289.878ZM506.823 217.867C510.622 217.867 514.209 218.184 517.586 218.817C521.067 219.45 524.074 220.505 526.607 221.982C529.244 223.459 531.355 225.411 532.937 227.838C534.52 230.265 535.311 233.272 535.311 236.859C535.311 240.552 534.52 243.559 532.937 245.88C531.355 248.201 529.666 249.995 527.873 251.261C525.657 252.633 523.125 253.635 520.276 254.268V255.06C523.652 255.693 526.712 256.801 529.455 258.383C531.671 259.649 533.729 261.549 535.628 264.081C537.527 266.508 538.477 269.831 538.477 274.051C538.477 278.377 537.633 282.018 535.944 284.972C534.362 287.926 532.146 290.3 529.297 292.094C526.448 293.887 523.125 295.154 519.326 295.892C515.634 296.631 511.73 297 507.615 297H469.631V217.867H506.823ZM506.823 286.713C509.25 286.713 511.519 286.554 513.629 286.238C515.739 285.816 517.586 285.13 519.168 284.18C520.751 283.125 521.964 281.754 522.808 280.066C523.758 278.272 524.233 276.003 524.233 273.26C524.233 270.728 523.758 268.67 522.808 267.088C521.964 265.4 520.751 264.081 519.168 263.131C517.586 262.182 515.739 261.549 513.629 261.232C511.519 260.81 509.25 260.599 506.823 260.599H483.084V286.713H506.823ZM504.45 251.103C509.62 251.103 513.787 250.259 516.952 248.571C520.223 246.777 521.859 243.665 521.859 239.233C521.859 236.806 521.384 234.907 520.434 233.536C519.59 232.058 518.43 230.951 516.952 230.212C515.475 229.368 513.787 228.84 511.888 228.629C509.989 228.313 508.037 228.154 506.032 228.154H483.084V251.103H504.45ZM547.218 217.867H560.671V259.016L599.446 217.867H614.481L583.936 249.679L616.064 297H600.237L575.231 258.858L560.671 274.051V297H547.218V217.867ZM624.033 297V217.867H637.485V279.591L680.217 217.867H693.67V297H680.217V235.276L637.485 297H624.033ZM734.021 270.886H747.474C747.474 276.478 749.162 281.068 752.538 284.655C756.02 288.137 761.718 289.878 769.631 289.878C773.746 289.878 777.228 289.456 780.076 288.612C782.925 287.662 785.194 286.449 786.882 284.972C788.675 283.389 789.942 281.595 790.68 279.591C791.419 277.586 791.788 275.476 791.788 273.26C791.788 269.778 790.786 267.141 788.781 265.347C786.776 263.553 784.297 262.34 781.342 261.707C778.388 260.968 775.276 260.599 772.005 260.599H757.761V251.103H772.005C777.175 251.103 781.342 250.101 784.508 248.096C787.779 246.091 789.414 242.873 789.414 238.442C789.414 234.854 787.884 231.742 784.824 229.104C781.87 226.361 776.806 224.989 769.631 224.989C765.727 224.989 762.456 225.569 759.818 226.73C757.181 227.891 755.07 229.315 753.488 231.003C751.905 232.586 750.744 234.38 750.006 236.384C749.373 238.283 749.056 240.024 749.056 241.607H735.604C735.604 239.075 736.131 236.279 737.186 233.219C738.347 230.159 740.193 227.31 742.726 224.673C745.363 222.035 748.845 219.872 753.171 218.184C757.603 216.39 763.089 215.493 769.631 215.493C775.961 215.493 781.237 216.126 785.457 217.392C789.783 218.659 793.212 220.294 795.745 222.299C798.277 224.303 800.071 226.625 801.126 229.262C802.286 231.795 802.867 234.327 802.867 236.859C802.867 240.552 802.023 243.559 800.334 245.88C798.646 248.201 796.747 249.995 794.637 251.261C792.105 252.633 789.309 253.635 786.249 254.268V255.06C789.942 255.693 793.265 256.748 796.219 258.225C798.646 259.491 800.862 261.337 802.867 263.764C804.977 266.085 806.032 269.251 806.032 273.26C806.032 280.857 802.919 287.135 796.694 292.094C790.575 296.947 781.554 299.374 769.631 299.374C757.392 299.374 748.37 296.736 742.567 291.461C736.87 286.08 734.021 279.222 734.021 270.886ZM851.948 217.867C855.746 217.867 859.333 218.184 862.71 218.817C866.191 219.45 869.198 220.505 871.731 221.982C874.368 223.459 876.479 225.411 878.061 227.838C879.644 230.265 880.435 233.272 880.435 236.859C880.435 240.552 879.644 243.559 878.061 245.88C876.479 248.201 874.791 249.995 872.997 251.261C870.781 252.633 868.249 253.635 865.4 254.268V255.06C868.776 255.693 871.836 256.801 874.579 258.383C876.795 259.649 878.853 261.549 880.752 264.081C882.651 266.508 883.601 269.831 883.601 274.051C883.601 278.377 882.757 282.018 881.068 284.972C879.486 287.926 877.27 290.3 874.421 292.094C871.572 293.887 868.249 295.154 864.45 295.892C860.758 296.631 856.854 297 852.739 297H814.755V217.867H851.948ZM851.948 286.713C854.374 286.713 856.643 286.554 858.753 286.238C860.863 285.816 862.71 285.13 864.292 284.18C865.875 283.125 867.088 281.754 867.932 280.066C868.882 278.272 869.357 276.003 869.357 273.26C869.357 270.728 868.882 268.67 867.932 267.088C867.088 265.4 865.875 264.081 864.292 263.131C862.71 262.182 860.863 261.549 858.753 261.232C856.643 260.81 854.374 260.599 851.948 260.599H828.208V286.713H851.948ZM849.574 251.103C854.744 251.103 858.911 250.259 862.077 248.571C865.347 246.777 866.983 243.665 866.983 239.233C866.983 236.806 866.508 234.907 865.558 233.536C864.714 232.058 863.554 230.951 862.077 230.212C860.599 229.368 858.911 228.84 857.012 228.629C855.113 228.313 853.161 228.154 851.156 228.154H828.208V251.103H849.574ZM900.33 217.867L926.602 282.914L950.183 217.867H964.427L931.983 300.957C930.611 304.438 929.24 307.446 927.868 309.978C926.496 312.616 924.914 314.778 923.12 316.467C921.326 318.155 919.216 319.421 916.789 320.265C914.468 321.109 911.619 321.531 908.243 321.531C907.082 321.531 905.869 321.478 904.603 321.373C903.442 321.373 902.334 321.32 901.279 321.215C900.119 321.004 899.011 320.845 897.956 320.74V310.769C898.905 310.875 899.855 310.98 900.805 311.086C901.649 311.086 902.493 311.086 903.337 311.086C904.181 311.191 905.025 311.244 905.869 311.244C908.612 311.244 910.986 310.505 912.991 309.028C915.101 307.657 916.948 304.966 918.53 300.957L920.113 297L885.295 217.867H900.33ZM971.475 217.867H984.928V259.016L1023.7 217.867H1038.74L1008.19 249.679L1040.32 297H1024.49L999.488 258.858L984.928 274.051V297H971.475V217.867ZM1042.82 275.634C1042.82 272.258 1043.4 269.093 1044.57 266.138C1045.83 263.184 1047.84 260.599 1050.58 258.383C1053.32 256.167 1056.96 254.427 1061.5 253.16C1066.04 251.789 1071.68 251.103 1078.43 251.103C1082.97 251.103 1086.56 250.734 1089.2 249.995C1091.83 249.257 1093.79 248.307 1095.05 247.146C1096.42 245.986 1097.27 244.667 1097.58 243.19C1098.01 241.607 1098.22 240.024 1098.22 238.442C1098.22 233.694 1096.48 230.265 1092.99 228.154C1089.62 226.044 1084.76 224.989 1078.43 224.989C1064.72 224.989 1057.86 230.528 1057.86 241.607H1044.41C1044.41 237.07 1045.25 233.166 1046.94 229.895C1048.63 226.625 1050.95 223.934 1053.9 221.824C1056.96 219.608 1060.55 218.025 1064.67 217.076C1068.89 216.021 1073.48 215.493 1078.43 215.493C1089.2 215.493 1097.43 217.551 1103.12 221.666C1108.82 225.781 1111.67 232.428 1111.67 241.607V278.008C1111.67 279.591 1111.72 281.015 1111.83 282.281C1111.93 283.547 1112.2 284.603 1112.62 285.447C1113.15 286.291 1113.94 286.924 1114.99 287.346C1116.05 287.662 1117.58 287.715 1119.58 287.504V297C1118.84 297.106 1118.11 297.264 1117.37 297.475C1116.63 297.58 1115.84 297.633 1114.99 297.633C1114.15 297.739 1113.31 297.791 1112.46 297.791C1110.46 297.791 1108.56 297.633 1106.76 297.317C1105.08 297.106 1103.6 296.578 1102.33 295.734C1101.07 294.89 1100.06 293.676 1099.33 292.094C1098.59 290.511 1098.22 288.454 1098.22 285.921V283.547C1096.53 286.502 1094.37 289.139 1091.73 291.461C1089.51 293.465 1086.66 295.312 1083.18 297C1079.81 298.583 1075.59 299.374 1070.52 299.374C1061.34 299.374 1054.43 297.106 1049.79 292.569C1045.15 288.032 1042.82 282.387 1042.82 275.634ZM1073.69 289.878C1076.43 289.878 1079.23 289.35 1082.07 288.295C1085.03 287.24 1087.67 285.499 1089.99 283.073C1092.41 280.54 1094.37 277.27 1095.84 273.26C1097.43 269.145 1098.22 264.134 1098.22 258.225V252.844C1098.22 252.949 1097.9 253.319 1097.27 253.952C1096.74 254.585 1095.69 255.271 1094.1 256.009C1092.52 256.748 1090.36 257.434 1087.61 258.067C1084.87 258.7 1081.28 259.016 1076.85 259.016C1074.64 259.016 1072.37 259.28 1070.05 259.808C1067.72 260.23 1065.61 261.021 1063.72 262.182C1061.82 263.237 1060.23 264.767 1058.97 266.771C1057.7 268.67 1057.07 271.097 1057.07 274.051C1057.07 278.799 1058.55 282.651 1061.5 285.605C1064.45 288.454 1068.52 289.878 1073.69 289.878ZM64.5393 438V358.867H132.593V438H119.141V369.154H77.9919V438H64.5393ZM142.089 398.434C142.089 392.736 142.881 387.355 144.463 382.291C146.046 377.121 148.42 372.636 151.585 368.838C154.856 365.04 158.918 362.033 163.772 359.817C168.625 357.601 174.323 356.493 180.864 356.493C187.406 356.493 193.104 357.601 197.957 359.817C202.811 362.033 206.82 365.04 209.985 368.838C213.256 372.636 215.683 377.121 217.266 382.291C218.848 387.355 219.64 392.736 219.64 398.434C219.64 404.131 218.848 409.565 217.266 414.735C215.683 419.799 213.256 424.231 209.985 428.029C206.82 431.828 202.811 434.835 197.957 437.05C193.104 439.266 187.406 440.374 180.864 440.374C174.323 440.374 168.625 439.266 163.772 437.05C158.918 434.835 154.856 431.828 151.585 428.029C148.42 424.231 146.046 419.799 144.463 414.735C142.881 409.565 142.089 404.131 142.089 398.434ZM156.333 398.434C156.333 404.131 156.966 409.037 158.232 413.152C159.604 417.267 161.398 420.644 163.614 423.281C165.829 425.919 168.414 427.871 171.369 429.137C174.323 430.298 177.488 430.878 180.864 430.878C184.241 430.878 187.406 430.298 190.36 429.137C193.315 427.871 195.9 425.919 198.115 423.281C200.331 420.644 202.072 417.267 203.338 413.152C204.71 409.037 205.396 404.131 205.396 398.434C205.396 392.736 204.71 387.83 203.338 383.715C202.072 379.6 200.331 376.224 198.115 373.586C195.9 370.948 193.315 369.049 190.36 367.888C187.406 366.622 184.241 365.989 180.864 365.989C177.488 365.989 174.323 366.622 171.369 367.888C168.414 369.049 165.829 370.948 163.614 373.586C161.398 376.224 159.604 379.6 158.232 383.715C156.966 387.83 156.333 392.736 156.333 398.434ZM227.559 398.434C227.559 392.736 228.35 387.355 229.933 382.291C231.516 377.121 233.89 372.636 237.055 368.838C240.326 365.04 244.388 362.033 249.241 359.817C254.095 357.601 259.792 356.493 266.334 356.493C272.032 356.493 277.043 357.337 281.369 359.025C285.801 360.608 289.494 362.824 292.448 365.673C295.402 368.416 297.671 371.581 299.253 375.169C300.836 378.756 301.733 382.554 301.944 386.564H287.7C286.856 380.233 284.64 375.221 281.053 371.528C277.571 367.836 272.665 365.989 266.334 365.989C262.958 365.989 259.792 366.622 256.838 367.888C253.884 369.049 251.299 370.948 249.083 373.586C246.867 376.224 245.074 379.6 243.702 383.715C242.436 387.83 241.803 392.736 241.803 398.434C241.803 404.131 242.436 409.037 243.702 413.152C245.074 417.267 246.867 420.644 249.083 423.281C251.299 425.919 253.884 427.871 256.838 429.137C259.792 430.298 262.958 430.878 266.334 430.878C272.665 430.878 277.571 429.032 281.053 425.339C284.64 421.646 286.856 416.634 287.7 410.304H301.944C301.733 414.207 300.836 418.006 299.253 421.699C297.671 425.286 295.402 428.504 292.448 431.353C289.494 434.096 285.801 436.312 281.369 438C277.043 439.583 272.032 440.374 266.334 440.374C259.792 440.374 254.095 439.266 249.241 437.05C244.388 434.835 240.326 431.828 237.055 428.029C233.89 424.231 231.516 419.799 229.933 414.735C228.35 409.565 227.559 404.131 227.559 398.434ZM301.826 438V426.921C302.037 427.027 302.301 427.08 302.618 427.08C302.829 427.08 303.092 427.132 303.409 427.238C303.726 427.238 304.095 427.238 304.517 427.238C307.049 427.238 309.318 426.816 311.322 425.972C313.432 425.022 315.173 423.07 316.545 420.116C317.917 417.162 318.972 412.889 319.71 407.296C320.449 401.704 320.818 394.266 320.818 384.981V358.867H378.585V438H365.133V369.154H333.479V386.564C333.479 396.06 333.005 404.131 332.055 410.778C331.105 417.425 329.628 422.807 327.624 426.921C325.619 431.036 322.981 434.043 319.71 435.943C316.545 437.842 312.694 438.791 308.157 438.791C307.207 438.791 306.311 438.739 305.466 438.633C304.728 438.633 304.095 438.58 303.567 438.475C302.934 438.264 302.354 438.106 301.826 438ZM400.804 358.867L427.076 423.914L450.658 358.867H464.902L432.457 441.957C431.086 445.438 429.714 448.446 428.342 450.978C426.971 453.616 425.388 455.778 423.594 457.467C421.801 459.155 419.69 460.421 417.264 461.265C414.943 462.109 412.094 462.531 408.717 462.531C407.557 462.531 406.343 462.478 405.077 462.373C403.917 462.373 402.809 462.32 401.754 462.215C400.593 462.004 399.485 461.845 398.43 461.74V451.769C399.38 451.875 400.329 451.98 401.279 452.086C402.123 452.086 402.967 452.086 403.811 452.086C404.655 452.191 405.499 452.244 406.343 452.244C409.087 452.244 411.461 451.505 413.465 450.028C415.576 448.657 417.422 445.966 419.005 441.957L420.587 438L385.769 358.867H400.804ZM471.949 438V358.867H485.402V427.713H519.113V358.867H532.407V427.713H566.117V358.867H579.57V438H471.949ZM588.275 416.634C588.275 413.258 588.855 410.093 590.016 407.138C591.282 404.184 593.286 401.599 596.03 399.383C598.773 397.167 602.413 395.427 606.95 394.16C611.487 392.789 617.132 392.103 623.884 392.103C628.421 392.103 632.009 391.734 634.646 390.995C637.284 390.257 639.236 389.307 640.502 388.146C641.874 386.986 642.718 385.667 643.035 384.19C643.457 382.607 643.668 381.024 643.668 379.442C643.668 374.694 641.927 371.265 638.445 369.154C635.068 367.044 630.215 365.989 623.884 365.989C610.168 365.989 603.31 371.528 603.31 382.607H589.857C589.857 378.07 590.701 374.166 592.39 370.895C594.078 367.625 596.399 364.934 599.353 362.824C602.413 360.608 606 359.025 610.115 358.076C614.336 357.021 618.925 356.493 623.884 356.493C634.646 356.493 642.876 358.551 648.574 362.666C654.271 366.781 657.12 373.428 657.12 382.607V419.008C657.12 420.591 657.173 422.015 657.278 423.281C657.384 424.547 657.648 425.603 658.07 426.447C658.597 427.291 659.389 427.924 660.444 428.346C661.499 428.662 663.029 428.715 665.033 428.504V438C664.295 438.106 663.556 438.264 662.818 438.475C662.079 438.58 661.288 438.633 660.444 438.633C659.6 438.739 658.756 438.791 657.911 438.791C655.907 438.791 654.008 438.633 652.214 438.317C650.526 438.106 649.049 437.578 647.782 436.734C646.516 435.89 645.514 434.676 644.775 433.094C644.037 431.511 643.668 429.454 643.668 426.921V424.547C641.979 427.502 639.816 430.139 637.179 432.461C634.963 434.465 632.114 436.312 628.632 438C625.256 439.583 621.036 440.374 615.971 440.374C606.792 440.374 599.881 438.106 595.238 433.569C590.596 429.032 588.275 423.387 588.275 416.634ZM619.136 430.878C621.88 430.878 624.676 430.35 627.524 429.295C630.479 428.24 633.117 426.499 635.438 424.073C637.865 421.54 639.816 418.27 641.294 414.26C642.876 410.145 643.668 405.134 643.668 399.225V393.844C643.668 393.949 643.351 394.319 642.718 394.952C642.19 395.585 641.135 396.271 639.553 397.009C637.97 397.748 635.807 398.434 633.064 399.067C630.321 399.7 626.733 400.016 622.302 400.016C620.086 400.016 617.818 400.28 615.496 400.808C613.175 401.23 611.065 402.021 609.166 403.182C607.266 404.237 605.684 405.767 604.418 407.771C603.152 409.67 602.519 412.097 602.519 415.051C602.519 419.799 603.996 423.651 606.95 426.605C609.904 429.454 613.966 430.878 619.136 430.878ZM672.1 438V358.867H685.552V420.591L728.284 358.867H741.737V438H728.284V376.276L685.552 438H672.1ZM694.257 335.127C694.257 338.293 695.206 340.93 697.106 343.041C699.005 345.151 702.276 346.206 706.918 346.206C711.561 346.206 714.831 345.151 716.731 343.041C718.63 340.93 719.579 338.293 719.579 335.127H732.241C732.241 336.921 731.924 338.926 731.291 341.141C730.658 343.357 729.392 345.415 727.493 347.314C725.699 349.213 723.167 350.848 719.896 352.22C716.625 353.486 712.299 354.119 706.918 354.119C701.537 354.119 697.211 353.486 693.94 352.22C690.67 350.848 688.085 349.213 686.185 347.314C684.392 345.415 683.178 343.357 682.545 341.141C681.912 338.926 681.596 336.921 681.596 335.127H694.257ZM749.613 369.154V358.867H821.624V369.154H792.344V438H778.892V369.154H749.613ZM822.446 398.434C822.446 392.736 823.237 387.355 824.82 382.291C826.402 377.121 828.776 372.636 831.942 368.838C835.107 365.04 839.064 362.033 843.812 359.817C848.56 357.601 854.099 356.493 860.43 356.493C866.971 356.493 872.51 357.654 877.047 359.975C881.69 362.191 885.488 365.145 888.443 368.838C891.397 372.425 893.507 376.54 894.773 381.183C896.145 385.825 896.831 390.52 896.831 395.268V401.599H836.69C837.217 411.939 839.802 419.43 844.445 424.073C849.193 428.61 854.785 430.878 861.221 430.878C866.391 430.878 870.928 429.506 874.832 426.763C878.841 424.02 881.426 419.852 882.587 414.26H896.039C894.457 421.857 890.711 428.135 884.802 433.094C878.999 437.947 871.139 440.374 861.221 440.374C854.679 440.374 848.982 439.266 844.128 437.05C839.275 434.835 835.213 431.828 831.942 428.029C828.776 424.231 826.402 419.799 824.82 414.735C823.237 409.565 822.446 404.131 822.446 398.434ZM882.587 392.103C882.587 383.029 880.371 376.435 875.94 372.32C871.614 368.099 866.444 365.989 860.43 365.989C854.31 365.989 849.087 368.047 844.761 372.162C840.435 376.276 837.85 382.924 837.006 392.103H882.587Z" fill="black"/>
</svg>
