<svg width="1437" height="506" viewBox="0 0 1437 506" fill="none" xmlns="http://www.w3.org/2000/svg">
<rect width="1437" height="506" rx="50" fill="#FF2E2E"/>
<path d="M64.5393 156V76.8672H77.9919V138.591L120.724 76.8672H134.176V156H120.724V94.2764L77.9919 156H64.5393ZM143.635 116.434C143.635 110.736 144.426 105.355 146.009 100.291C147.592 95.1205 149.966 90.6363 153.131 86.838C156.402 83.0396 160.464 80.0325 165.317 77.8168C170.171 75.6011 175.868 74.4932 182.41 74.4932C188.108 74.4932 193.119 75.3373 197.445 77.0255C201.877 78.6081 205.57 80.8239 208.524 83.6726C211.478 86.4159 213.747 89.5812 215.329 93.1686C216.912 96.7559 217.809 100.554 218.02 104.564H203.776C202.932 98.2331 200.716 93.2213 197.129 89.5285C193.647 85.8356 188.741 83.9892 182.41 83.9892C179.034 83.9892 175.868 84.6222 172.914 85.8884C169.96 87.049 167.375 88.9482 165.159 91.5859C162.943 94.2237 161.15 97.6 159.778 101.715C158.512 105.83 157.879 110.736 157.879 116.434C157.879 122.131 158.512 127.037 159.778 131.152C161.15 135.267 162.943 138.644 165.159 141.281C167.375 143.919 169.96 145.871 172.914 147.137C175.868 148.298 179.034 148.878 182.41 148.878C188.741 148.878 193.647 147.032 197.129 143.339C200.716 139.646 202.932 134.634 203.776 128.304H218.02C217.809 132.207 216.912 136.006 215.329 139.699C213.747 143.286 211.478 146.504 208.524 149.353C205.57 152.096 201.877 154.312 197.445 156C193.119 157.583 188.108 158.374 182.41 158.374C175.868 158.374 170.171 157.266 165.317 155.05C160.464 152.835 156.402 149.828 153.131 146.029C149.966 142.231 147.592 137.799 146.009 132.735C144.426 127.565 143.635 122.131 143.635 116.434ZM225.859 116.434C225.859 110.736 226.65 105.355 228.233 100.291C229.816 95.1205 232.189 90.6363 235.355 86.838C238.626 83.0396 242.688 80.0325 247.541 77.8168C252.395 75.6011 258.092 74.4932 264.634 74.4932C270.331 74.4932 275.343 75.3373 279.669 77.0255C284.101 78.6081 287.793 80.8239 290.748 83.6726C293.702 86.4159 295.971 89.5812 297.553 93.1686C299.136 96.7559 300.033 100.554 300.244 104.564H286C285.156 98.2331 282.94 93.2213 279.353 89.5285C275.871 85.8356 270.965 83.9892 264.634 83.9892C261.258 83.9892 258.092 84.6222 255.138 85.8884C252.184 87.049 249.599 88.9482 247.383 91.5859C245.167 94.2237 243.374 97.6 242.002 101.715C240.736 105.83 240.103 110.736 240.103 116.434C240.103 122.131 240.736 127.037 242.002 131.152C243.374 135.267 245.167 138.644 247.383 141.281C249.599 143.919 252.184 145.871 255.138 147.137C258.092 148.298 261.258 148.878 264.634 148.878C270.965 148.878 275.871 147.032 279.353 143.339C282.94 139.646 285.156 134.634 286 128.304H300.244C300.033 132.207 299.136 136.006 297.553 139.699C295.971 143.286 293.702 146.504 290.748 149.353C287.793 152.096 284.101 154.312 279.669 156C275.343 157.583 270.331 158.374 264.634 158.374C258.092 158.374 252.395 157.266 247.541 155.05C242.688 152.835 238.626 149.828 235.355 146.029C232.189 142.231 229.816 137.799 228.233 132.735C226.65 127.565 225.859 122.131 225.859 116.434ZM300.126 156V144.921C300.337 145.027 300.601 145.08 300.918 145.08C301.129 145.08 301.392 145.132 301.709 145.238C302.025 145.238 302.395 145.238 302.817 145.238C305.349 145.238 307.617 144.816 309.622 143.972C311.732 143.022 313.473 141.07 314.845 138.116C316.217 135.162 317.272 130.889 318.01 125.296C318.749 119.704 319.118 112.266 319.118 102.981V76.8672H376.885V156H363.432V87.1545H331.779V104.564C331.779 114.06 331.305 122.131 330.355 128.778C329.405 135.425 327.928 140.807 325.924 144.921C323.919 149.036 321.281 152.043 318.01 153.943C314.845 155.842 310.994 156.791 306.457 156.791C305.507 156.791 304.61 156.739 303.766 156.633C303.028 156.633 302.395 156.58 301.867 156.475C301.234 156.264 300.654 156.106 300.126 156ZM386.443 116.434C386.443 110.736 387.234 105.355 388.817 100.291C390.399 95.1205 392.773 90.6363 395.939 86.838C399.104 83.0396 403.061 80.0325 407.809 77.8168C412.557 75.6011 418.096 74.4932 424.427 74.4932C430.968 74.4932 436.507 75.6539 441.044 77.9751C445.687 80.1908 449.485 83.1451 452.44 86.838C455.394 90.4253 457.504 94.5402 458.77 99.1827C460.142 103.825 460.828 108.52 460.828 113.268V119.599H400.687C401.214 129.939 403.799 137.43 408.442 142.073C413.19 146.61 418.782 148.878 425.218 148.878C430.388 148.878 434.925 147.506 438.829 144.763C442.838 142.02 445.423 137.852 446.584 132.26H460.036C458.454 139.857 454.708 146.135 448.799 151.094C442.996 155.947 435.136 158.374 425.218 158.374C418.676 158.374 412.979 157.266 408.125 155.05C403.272 152.835 399.21 149.828 395.939 146.029C392.773 142.231 390.399 137.799 388.817 132.735C387.234 127.565 386.443 122.131 386.443 116.434ZM446.584 110.103C446.584 101.029 444.368 94.4347 439.937 90.3198C435.611 86.0994 430.441 83.9892 424.427 83.9892C418.307 83.9892 413.084 86.0466 408.758 90.1615C404.432 94.2764 401.847 100.924 401.003 110.103H446.584ZM460.729 179.74V145.713H463.894C466.637 145.713 469.064 144.816 471.174 143.022C473.39 141.229 475.236 138.327 476.713 134.318C478.191 130.308 479.298 125.085 480.037 118.649C480.881 112.213 481.303 104.353 481.303 95.0678V76.8672H539.07V145.713H553.314V179.74H539.861V156H474.181V179.74H460.729ZM525.618 145.713V87.1545H493.964V96.6504C493.964 108.362 493.173 118.597 491.59 127.354C490.113 136.006 487.212 142.125 482.886 145.713H525.618ZM554.909 116.434C554.909 110.736 555.7 105.355 557.283 100.291C558.866 95.1205 561.24 90.6363 564.405 86.838C567.676 83.0396 571.738 80.0325 576.591 77.8168C581.445 75.6011 587.142 74.4932 593.684 74.4932C600.226 74.4932 605.923 75.6011 610.777 77.8168C615.63 80.0325 619.64 83.0396 622.805 86.838C626.076 90.6363 628.503 95.1205 630.085 100.291C631.668 105.355 632.459 110.736 632.459 116.434C632.459 122.131 631.668 127.565 630.085 132.735C628.503 137.799 626.076 142.231 622.805 146.029C619.64 149.828 615.63 152.835 610.777 155.05C605.923 157.266 600.226 158.374 593.684 158.374C587.142 158.374 581.445 157.266 576.591 155.05C571.738 152.835 567.676 149.828 564.405 146.029C561.24 142.231 558.866 137.799 557.283 132.735C555.7 127.565 554.909 122.131 554.909 116.434ZM569.153 116.434C569.153 122.131 569.786 127.037 571.052 131.152C572.424 135.267 574.217 138.644 576.433 141.281C578.649 143.919 581.234 145.871 584.188 147.137C587.142 148.298 590.308 148.878 593.684 148.878C597.06 148.878 600.226 148.298 603.18 147.137C606.134 145.871 608.719 143.919 610.935 141.281C613.151 138.644 614.892 135.267 616.158 131.152C617.529 127.037 618.215 122.131 618.215 116.434C618.215 110.736 617.529 105.83 616.158 101.715C614.892 97.6 613.151 94.2237 610.935 91.5859C608.719 88.9482 606.134 87.049 603.18 85.8884C600.226 84.6222 597.06 83.9892 593.684 83.9892C590.308 83.9892 587.142 84.6222 584.188 85.8884C581.234 87.049 578.649 88.9482 576.433 91.5859C574.217 94.2237 572.424 97.6 571.052 101.715C569.786 105.83 569.153 110.736 569.153 116.434ZM679.154 76.8672C682.952 76.8672 686.539 77.1838 689.916 77.8168C693.398 78.4499 696.405 79.505 698.937 80.9821C701.575 82.4593 703.685 84.4112 705.268 86.838C706.85 89.2647 707.641 92.2717 707.641 95.8591C707.641 99.5519 706.85 102.559 705.268 104.88C703.685 107.201 701.997 108.995 700.203 110.261C697.987 111.633 695.455 112.635 692.606 113.268V114.06C695.983 114.693 699.042 115.801 701.786 117.383C704.001 118.649 706.059 120.549 707.958 123.081C709.857 125.508 710.807 128.831 710.807 133.051C710.807 137.377 709.963 141.018 708.275 143.972C706.692 146.926 704.476 149.3 701.627 151.094C698.779 152.887 695.455 154.154 691.657 154.892C687.964 155.631 684.06 156 679.945 156H641.961V76.8672H679.154ZM679.154 145.713C681.58 145.713 683.849 145.554 685.959 145.238C688.069 144.816 689.916 144.13 691.498 143.18C693.081 142.125 694.294 140.754 695.139 139.066C696.088 137.272 696.563 135.003 696.563 132.26C696.563 129.728 696.088 127.67 695.139 126.088C694.294 124.4 693.081 123.081 691.498 122.131C689.916 121.182 688.069 120.549 685.959 120.232C683.849 119.81 681.58 119.599 679.154 119.599H655.414V145.713H679.154ZM676.78 110.103C681.95 110.103 686.117 109.259 689.283 107.571C692.554 105.777 694.189 102.665 694.189 98.2331C694.189 95.8063 693.714 93.9071 692.765 92.5355C691.92 91.0584 690.76 89.9505 689.283 89.2119C687.806 88.3679 686.117 87.8403 684.218 87.6293C682.319 87.3127 680.367 87.1545 678.362 87.1545H655.414V110.103H676.78ZM717.947 134.634C717.947 131.258 718.528 128.093 719.688 125.138C720.954 122.184 722.959 119.599 725.702 117.383C728.446 115.167 732.086 113.427 736.623 112.16C741.16 110.789 746.804 110.103 753.557 110.103C758.094 110.103 761.681 109.734 764.319 108.995C766.957 108.257 768.909 107.307 770.175 106.146C771.547 104.986 772.391 103.667 772.707 102.19C773.129 100.607 773.34 99.0244 773.34 97.4417C773.34 92.6938 771.599 89.2647 768.117 87.1545C764.741 85.0443 759.888 83.9892 753.557 83.9892C739.841 83.9892 732.983 89.5285 732.983 100.607H719.53C719.53 96.0701 720.374 92.1662 722.062 88.8954C723.75 85.6246 726.072 82.9341 729.026 80.8239C732.086 78.6081 735.673 77.0255 739.788 76.0759C744.008 75.0208 748.598 74.4932 753.557 74.4932C764.319 74.4932 772.549 76.5507 778.246 80.6656C783.944 84.7805 786.793 91.4277 786.793 100.607V137.008C786.793 138.591 786.846 140.015 786.951 141.281C787.057 142.547 787.32 143.603 787.742 144.447C788.27 145.291 789.061 145.924 790.116 146.346C791.171 146.662 792.701 146.715 794.706 146.504V156C793.968 156.106 793.229 156.264 792.49 156.475C791.752 156.58 790.96 156.633 790.116 156.633C789.272 156.739 788.428 156.791 787.584 156.791C785.579 156.791 783.68 156.633 781.887 156.317C780.198 156.106 778.721 155.578 777.455 154.734C776.189 153.89 775.187 152.676 774.448 151.094C773.71 149.511 773.34 147.454 773.34 144.921V142.547C771.652 145.502 769.489 148.139 766.851 150.461C764.636 152.465 761.787 154.312 758.305 156C754.929 157.583 750.708 158.374 745.644 158.374C736.464 158.374 729.553 156.106 724.911 151.569C720.269 147.032 717.947 141.387 717.947 134.634ZM748.809 148.878C751.552 148.878 754.348 148.35 757.197 147.295C760.151 146.24 762.789 144.499 765.11 142.073C767.537 139.54 769.489 136.27 770.966 132.26C772.549 128.145 773.34 123.134 773.34 117.225V111.844C773.34 111.949 773.024 112.319 772.391 112.952C771.863 113.585 770.808 114.271 769.225 115.009C767.643 115.748 765.48 116.434 762.736 117.067C759.993 117.7 756.406 118.016 751.974 118.016C749.759 118.016 747.49 118.28 745.169 118.808C742.848 119.23 740.738 120.021 738.838 121.182C736.939 122.237 735.357 123.767 734.09 125.771C732.824 127.67 732.191 130.097 732.191 133.051C732.191 137.799 733.668 141.651 736.623 144.605C739.577 147.454 743.639 148.878 748.809 148.878ZM815.225 76.8672V110.103H856.374V76.8672H869.827V156H856.374V119.599H815.225V156H801.772V76.8672H815.225ZM880.905 156V76.8672H894.358V138.591L937.089 76.8672H950.542V156H937.089V94.2764L894.358 156H880.905ZM960.001 116.434C960.001 110.736 960.792 105.355 962.375 100.291C963.957 95.1205 966.331 90.6363 969.497 86.838C972.662 83.0396 976.619 80.0325 981.367 77.8168C986.115 75.6011 991.654 74.4932 997.985 74.4932C1004.53 74.4932 1010.07 75.6539 1014.6 77.9751C1019.24 80.1908 1023.04 83.1451 1026 86.838C1028.95 90.4253 1031.06 94.5402 1032.33 99.1827C1033.7 103.825 1034.39 108.52 1034.39 113.268V119.599H974.245C974.772 129.939 977.357 137.43 982 142.073C986.748 146.61 992.34 148.878 998.776 148.878C1003.95 148.878 1008.48 147.506 1012.39 144.763C1016.4 142.02 1018.98 137.852 1020.14 132.26H1033.59C1032.01 139.857 1028.27 146.135 1022.36 151.094C1016.55 155.947 1008.69 158.374 998.776 158.374C992.234 158.374 986.537 157.266 981.683 155.05C976.83 152.835 972.768 149.828 969.497 146.029C966.331 142.231 963.957 137.799 962.375 132.735C960.792 127.565 960.001 122.131 960.001 116.434ZM1020.14 110.103C1020.14 101.029 1017.93 94.4347 1013.49 90.3198C1009.17 86.0994 1004 83.9892 997.985 83.9892C991.865 83.9892 986.642 86.0466 982.316 90.1615C977.99 94.2764 975.405 100.924 974.561 110.103H1020.14ZM62.9566 257.434C62.9566 251.736 63.748 246.355 65.3306 241.291C66.9133 236.121 69.2873 231.636 72.4526 227.838C75.7234 224.04 79.7855 221.033 84.639 218.817C89.4925 216.601 95.1901 215.493 101.732 215.493C107.429 215.493 112.441 216.337 116.767 218.025C121.198 219.608 124.891 221.824 127.846 224.673C130.8 227.416 133.068 230.581 134.651 234.169C136.234 237.756 137.13 241.554 137.341 245.564H123.098C122.253 239.233 120.038 234.221 116.45 230.528C112.969 226.836 108.062 224.989 101.732 224.989C98.3554 224.989 95.1901 225.622 92.2358 226.888C89.2815 228.049 86.6965 229.948 84.4808 232.586C82.265 235.224 80.4714 238.6 79.0997 242.715C77.8336 246.83 77.2005 251.736 77.2005 257.434C77.2005 263.131 77.8336 268.037 79.0997 272.152C80.4714 276.267 82.265 279.644 84.4808 282.281C86.6965 284.919 89.2815 286.871 92.2358 288.137C95.1901 289.298 98.3554 289.878 101.732 289.878C108.062 289.878 112.969 288.032 116.45 284.339C120.038 280.646 122.253 275.634 123.098 269.304H137.341C137.13 273.207 136.234 277.006 134.651 280.699C133.068 284.286 130.8 287.504 127.846 290.353C124.891 293.096 121.198 295.312 116.767 297C112.441 298.583 107.429 299.374 101.732 299.374C95.1901 299.374 89.4925 298.266 84.639 296.05C79.7855 293.835 75.7234 290.828 72.4526 287.029C69.2873 283.231 66.9133 278.799 65.3306 273.735C63.748 268.565 62.9566 263.131 62.9566 257.434ZM138.034 228.154V217.867H210.045V228.154H180.766V297H167.313V228.154H138.034ZM218.014 320.74V217.867H231.466V232.111C233.154 229.051 235.265 226.255 237.797 223.723C240.013 221.613 242.809 219.714 246.185 218.025C249.561 216.337 253.623 215.493 258.371 215.493C264.702 215.493 270.136 216.654 274.673 218.975C279.315 221.191 283.113 224.251 286.068 228.154C289.022 232.058 291.185 236.543 292.557 241.607C294.034 246.566 294.772 251.842 294.772 257.434C294.772 262.92 294.034 268.196 292.557 273.26C291.185 278.325 289.022 282.809 286.068 286.713C283.113 290.617 279.315 293.729 274.673 296.05C270.136 298.266 264.702 299.374 258.371 299.374C253.623 299.374 249.561 298.53 246.185 296.842C242.809 295.048 240.013 293.096 237.797 290.986C235.265 288.559 233.154 285.816 231.466 282.756V320.74H218.014ZM231.466 257.434C231.466 262.815 232.099 267.51 233.365 271.519C234.737 275.529 236.531 278.905 238.746 281.648C240.962 284.392 243.547 286.449 246.501 287.821C249.456 289.192 252.621 289.878 255.997 289.878C259.374 289.878 262.539 289.298 265.493 288.137C268.448 286.871 271.033 284.919 273.248 282.281C275.464 279.644 277.205 276.267 278.471 272.152C279.843 268.037 280.528 263.131 280.528 257.434C280.528 251.736 279.843 246.83 278.471 242.715C277.205 238.6 275.464 235.224 273.248 232.586C271.033 229.948 268.448 228.049 265.493 226.888C262.539 225.622 259.374 224.989 255.997 224.989C252.621 224.989 249.456 225.675 246.501 227.047C243.547 228.418 240.962 230.476 238.746 233.219C236.531 235.962 234.737 239.339 233.365 243.348C232.099 247.357 231.466 252.053 231.466 257.434ZM301.882 275.634C301.882 272.258 302.462 269.093 303.623 266.138C304.889 263.184 306.894 260.599 309.637 258.383C312.38 256.167 316.02 254.427 320.557 253.16C325.094 251.789 330.739 251.103 337.492 251.103C342.029 251.103 345.616 250.734 348.254 249.995C350.892 249.257 352.843 248.307 354.11 247.146C355.481 245.986 356.325 244.667 356.642 243.19C357.064 241.607 357.275 240.024 357.275 238.442C357.275 233.694 355.534 230.265 352.052 228.154C348.676 226.044 343.822 224.989 337.492 224.989C323.775 224.989 316.917 230.528 316.917 241.607H303.465C303.465 237.07 304.309 233.166 305.997 229.895C307.685 226.625 310.006 223.934 312.961 221.824C316.02 219.608 319.608 218.025 323.723 217.076C327.943 216.021 332.533 215.493 337.492 215.493C348.254 215.493 356.484 217.551 362.181 221.666C367.879 225.781 370.728 232.428 370.728 241.607V278.008C370.728 279.591 370.78 281.015 370.886 282.281C370.991 283.547 371.255 284.603 371.677 285.447C372.205 286.291 372.996 286.924 374.051 287.346C375.106 287.662 376.636 287.715 378.641 287.504V297C377.902 297.106 377.164 297.264 376.425 297.475C375.686 297.58 374.895 297.633 374.051 297.633C373.207 297.739 372.363 297.791 371.519 297.791C369.514 297.791 367.615 297.633 365.821 297.317C364.133 297.106 362.656 296.578 361.39 295.734C360.124 294.89 359.121 293.676 358.383 292.094C357.644 290.511 357.275 288.454 357.275 285.921V283.547C355.587 286.502 353.424 289.139 350.786 291.461C348.57 293.465 345.722 295.312 342.24 297C338.863 298.583 334.643 299.374 329.578 299.374C320.399 299.374 313.488 297.106 308.846 292.569C304.203 288.032 301.882 282.387 301.882 275.634ZM332.744 289.878C335.487 289.878 338.283 289.35 341.132 288.295C344.086 287.24 346.724 285.499 349.045 283.073C351.472 280.54 353.424 277.27 354.901 273.26C356.484 269.145 357.275 264.134 357.275 258.225V252.844C357.275 252.949 356.958 253.319 356.325 253.952C355.798 254.585 354.743 255.271 353.16 256.009C351.577 256.748 349.414 257.434 346.671 258.067C343.928 258.7 340.341 259.016 335.909 259.016C333.693 259.016 331.425 259.28 329.104 259.808C326.782 260.23 324.672 261.021 322.773 262.182C320.874 263.237 319.291 264.767 318.025 266.771C316.759 268.67 316.126 271.097 316.126 274.051C316.126 278.799 317.603 282.651 320.557 285.605C323.512 288.454 327.574 289.878 332.744 289.878ZM381.769 297L412.631 255.851L383.352 217.867H399.178L420.544 247.146L441.91 217.867H457.736L428.457 255.851L459.319 297H443.493L420.544 264.556L397.596 297H381.769ZM461.693 275.634C461.693 272.258 462.273 269.093 463.434 266.138C464.7 263.184 466.705 260.599 469.448 258.383C472.191 256.167 475.831 254.427 480.368 253.16C484.905 251.789 490.55 251.103 497.303 251.103C501.84 251.103 505.427 250.734 508.065 249.995C510.703 249.257 512.655 248.307 513.921 247.146C515.292 245.986 516.136 244.667 516.453 243.19C516.875 241.607 517.086 240.024 517.086 238.442C517.086 233.694 515.345 230.265 511.863 228.154C508.487 226.044 503.633 224.989 497.303 224.989C483.586 224.989 476.728 230.528 476.728 241.607H463.276C463.276 237.07 464.12 233.166 465.808 229.895C467.496 226.625 469.817 223.934 472.772 221.824C475.831 219.608 479.419 218.025 483.534 217.076C487.754 216.021 492.344 215.493 497.303 215.493C508.065 215.493 516.295 217.551 521.992 221.666C527.69 225.781 530.539 232.428 530.539 241.607V278.008C530.539 279.591 530.591 281.015 530.697 282.281C530.802 283.547 531.066 284.603 531.488 285.447C532.016 286.291 532.807 286.924 533.862 287.346C534.917 287.662 536.447 287.715 538.452 287.504V297C537.713 297.106 536.975 297.264 536.236 297.475C535.498 297.58 534.706 297.633 533.862 297.633C533.018 297.739 532.174 297.791 531.33 297.791C529.325 297.791 527.426 297.633 525.632 297.317C523.944 297.106 522.467 296.578 521.201 295.734C519.935 294.89 518.932 293.676 518.194 292.094C517.455 290.511 517.086 288.454 517.086 285.921V283.547C515.398 286.502 513.235 289.139 510.597 291.461C508.381 293.465 505.533 295.312 502.051 297C498.674 298.583 494.454 299.374 489.39 299.374C480.21 299.374 473.299 297.106 468.657 292.569C464.014 288.032 461.693 282.387 461.693 275.634ZM492.555 289.878C495.298 289.878 498.094 289.35 500.943 288.295C503.897 287.24 506.535 285.499 508.856 283.073C511.283 280.54 513.235 277.27 514.712 273.26C516.295 269.145 517.086 264.134 517.086 258.225V252.844C517.086 252.949 516.769 253.319 516.136 253.952C515.609 254.585 514.554 255.271 512.971 256.009C511.388 256.748 509.226 257.434 506.482 258.067C503.739 258.7 500.152 259.016 495.72 259.016C493.504 259.016 491.236 259.28 488.915 259.808C486.594 260.23 484.483 261.021 482.584 262.182C480.685 263.237 479.102 264.767 477.836 266.771C476.57 268.67 475.937 271.097 475.937 274.051C475.937 278.799 477.414 282.651 480.368 285.605C483.323 288.454 487.385 289.878 492.555 289.878ZM550.546 297V281.965H564.156V297H550.546ZM550.546 232.902V217.867H564.156V232.902H550.546ZM592.2 217.867V251.103H633.349V217.867H646.802V297H633.349V260.599H592.2V297H578.748V217.867H592.2ZM656.298 257.434C656.298 251.736 657.089 246.355 658.672 241.291C660.255 236.121 662.629 231.636 665.794 227.838C669.065 224.04 673.127 221.033 677.98 218.817C682.834 216.601 688.531 215.493 695.073 215.493C701.615 215.493 707.312 216.601 712.166 218.817C717.019 221.033 721.028 224.04 724.194 227.838C727.465 231.636 729.891 236.121 731.474 241.291C733.057 246.355 733.848 251.736 733.848 257.434C733.848 263.131 733.057 268.565 731.474 273.735C729.891 278.799 727.465 283.231 724.194 287.029C721.028 290.828 717.019 293.835 712.166 296.05C707.312 298.266 701.615 299.374 695.073 299.374C688.531 299.374 682.834 298.266 677.98 296.05C673.127 293.835 669.065 290.828 665.794 287.029C662.629 283.231 660.255 278.799 658.672 273.735C657.089 268.565 656.298 263.131 656.298 257.434ZM670.542 257.434C670.542 263.131 671.175 268.037 672.441 272.152C673.813 276.267 675.606 279.644 677.822 282.281C680.038 284.919 682.623 286.871 685.577 288.137C688.531 289.298 691.697 289.878 695.073 289.878C698.449 289.878 701.615 289.298 704.569 288.137C707.523 286.871 710.108 284.919 712.324 282.281C714.54 279.644 716.281 276.267 717.547 272.152C718.918 268.037 719.604 263.131 719.604 257.434C719.604 251.736 718.918 246.83 717.547 242.715C716.281 238.6 714.54 235.224 712.324 232.586C710.108 229.948 707.523 228.049 704.569 226.888C701.615 225.622 698.449 224.989 695.073 224.989C691.697 224.989 688.531 225.622 685.577 226.888C682.623 228.049 680.038 229.948 677.822 232.586C675.606 235.224 673.813 238.6 672.441 242.715C671.175 246.83 670.542 251.736 670.542 257.434ZM780.543 217.867C784.341 217.867 787.928 218.184 791.305 218.817C794.786 219.45 797.793 220.505 800.326 221.982C802.964 223.459 805.074 225.411 806.656 227.838C808.239 230.265 809.03 233.272 809.03 236.859C809.03 240.552 808.239 243.559 806.656 245.88C805.074 248.201 803.386 249.995 801.592 251.261C799.376 252.633 796.844 253.635 793.995 254.268V255.06C797.371 255.693 800.431 256.801 803.175 258.383C805.39 259.649 807.448 261.549 809.347 264.081C811.246 266.508 812.196 269.831 812.196 274.051C812.196 278.377 811.352 282.018 809.663 284.972C808.081 287.926 805.865 290.3 803.016 292.094C800.167 293.887 796.844 295.154 793.046 295.892C789.353 296.631 785.449 297 781.334 297H743.35V217.867H780.543ZM780.543 286.713C782.969 286.713 785.238 286.554 787.348 286.238C789.458 285.816 791.305 285.13 792.887 284.18C794.47 283.125 795.683 281.754 796.527 280.066C797.477 278.272 797.952 276.003 797.952 273.26C797.952 270.728 797.477 268.67 796.527 267.088C795.683 265.4 794.47 264.081 792.887 263.131C791.305 262.182 789.458 261.549 787.348 261.232C785.238 260.81 782.969 260.599 780.543 260.599H756.803V286.713H780.543ZM778.169 251.103C783.339 251.103 787.506 250.259 790.672 248.571C793.942 246.777 795.578 243.665 795.578 239.233C795.578 236.806 795.103 234.907 794.153 233.536C793.309 232.058 792.149 230.951 790.672 230.212C789.194 229.368 787.506 228.84 785.607 228.629C783.708 228.313 781.756 228.154 779.751 228.154H756.803V251.103H778.169ZM820.937 217.867H834.39V250.312H852.59C856.705 250.312 860.609 250.681 864.302 251.42C868.101 252.053 871.424 253.266 874.273 255.06C877.122 256.748 879.337 259.069 880.92 262.023C882.608 264.978 883.452 268.723 883.452 273.26C883.452 277.797 882.608 281.595 880.92 284.655C879.337 287.715 877.122 290.142 874.273 291.936C871.424 293.729 868.101 295.048 864.302 295.892C860.609 296.631 856.705 297 852.59 297H820.937V217.867ZM891.366 217.867H904.818V297H891.366V217.867ZM834.39 260.599V286.713H851.799C854.226 286.713 856.494 286.554 858.605 286.238C860.715 285.816 862.561 285.13 864.144 284.18C865.727 283.125 866.94 281.754 867.784 280.066C868.734 278.272 869.208 276.003 869.208 273.26C869.208 270.728 868.734 268.67 867.784 267.088C866.94 265.4 865.727 264.081 864.144 263.131C862.561 262.182 860.715 261.549 858.605 261.232C856.494 260.81 854.226 260.599 851.799 260.599H834.39ZM914.252 257.434C914.252 251.736 915.043 246.355 916.626 241.291C918.209 236.121 920.583 231.636 923.748 227.838C926.913 224.04 930.87 221.033 935.618 218.817C940.366 216.601 945.905 215.493 952.236 215.493C958.778 215.493 964.317 216.654 968.854 218.975C973.496 221.191 977.295 224.145 980.249 227.838C983.203 231.425 985.313 235.54 986.58 240.183C987.951 244.825 988.637 249.52 988.637 254.268V260.599H928.496C929.024 270.939 931.609 278.43 936.251 283.073C940.999 287.61 946.591 289.878 953.027 289.878C958.197 289.878 962.734 288.506 966.638 285.763C970.647 283.02 973.232 278.852 974.393 273.26H987.846C986.263 280.857 982.517 287.135 976.609 292.094C970.806 296.947 962.945 299.374 953.027 299.374C946.486 299.374 940.788 298.266 935.935 296.05C931.081 293.835 927.019 290.828 923.748 287.029C920.583 283.231 918.209 278.799 916.626 273.735C915.043 268.565 914.252 263.131 914.252 257.434ZM974.393 251.103C974.393 242.029 972.177 235.435 967.746 231.32C963.42 227.099 958.25 224.989 952.236 224.989C946.116 224.989 940.894 227.047 936.568 231.162C932.242 235.276 929.657 241.924 928.813 251.103H974.393ZM64.5393 438V358.867H120.724V369.154H77.9919V438H64.5393ZM122.306 398.434C122.306 392.736 123.098 387.355 124.68 382.291C126.263 377.121 128.637 372.636 131.802 368.838C135.073 365.04 139.135 362.033 143.989 359.817C148.842 357.601 154.54 356.493 161.081 356.493C167.623 356.493 173.32 357.601 178.174 359.817C183.027 362.033 187.037 365.04 190.202 368.838C193.473 372.636 195.9 377.121 197.482 382.291C199.065 387.355 199.856 392.736 199.856 398.434C199.856 404.131 199.065 409.565 197.482 414.735C195.9 419.799 193.473 424.231 190.202 428.029C187.037 431.828 183.027 434.835 178.174 437.05C173.32 439.266 167.623 440.374 161.081 440.374C154.54 440.374 148.842 439.266 143.989 437.05C139.135 434.835 135.073 431.828 131.802 428.029C128.637 424.231 126.263 419.799 124.68 414.735C123.098 409.565 122.306 404.131 122.306 398.434ZM136.55 398.434C136.55 404.131 137.183 409.037 138.449 413.152C139.821 417.267 141.615 420.644 143.83 423.281C146.046 425.919 148.631 427.871 151.585 429.137C154.54 430.298 157.705 430.878 161.081 430.878C164.458 430.878 167.623 430.298 170.577 429.137C173.532 427.871 176.117 425.919 178.332 423.281C180.548 420.644 182.289 417.267 183.555 413.152C184.927 409.037 185.612 404.131 185.612 398.434C185.612 392.736 184.927 387.83 183.555 383.715C182.289 379.6 180.548 376.224 178.332 373.586C176.117 370.948 173.532 369.049 170.577 367.888C167.623 366.622 164.458 365.989 161.081 365.989C157.705 365.989 154.54 366.622 151.585 367.888C148.631 369.049 146.046 370.948 143.83 373.586C141.615 376.224 139.821 379.6 138.449 383.715C137.183 387.83 136.55 392.736 136.55 398.434ZM209.358 461.74V358.867H222.811V373.111C224.499 370.051 226.609 367.255 229.142 364.723C231.357 362.613 234.153 360.714 237.53 359.025C240.906 357.337 244.968 356.493 249.716 356.493C256.047 356.493 261.481 357.654 266.018 359.975C270.66 362.191 274.458 365.251 277.413 369.154C280.367 373.058 282.53 377.543 283.902 382.607C285.379 387.566 286.117 392.842 286.117 398.434C286.117 403.92 285.379 409.196 283.902 414.26C282.53 419.325 280.367 423.809 277.413 427.713C274.458 431.617 270.66 434.729 266.018 437.05C261.481 439.266 256.047 440.374 249.716 440.374C244.968 440.374 240.906 439.53 237.53 437.842C234.153 436.048 231.357 434.096 229.142 431.986C226.609 429.559 224.499 426.816 222.811 423.756V461.74H209.358ZM222.811 398.434C222.811 403.815 223.444 408.51 224.71 412.519C226.082 416.529 227.876 419.905 230.091 422.648C232.307 425.392 234.892 427.449 237.846 428.821C240.801 430.192 243.966 430.878 247.342 430.878C250.719 430.878 253.884 430.298 256.838 429.137C259.792 427.871 262.377 425.919 264.593 423.281C266.809 420.644 268.55 417.267 269.816 413.152C271.188 409.037 271.873 404.131 271.873 398.434C271.873 392.736 271.188 387.83 269.816 383.715C268.55 379.6 266.809 376.224 264.593 373.586C262.377 370.948 259.792 369.049 256.838 367.888C253.884 366.622 250.719 365.989 247.342 365.989C243.966 365.989 240.801 366.675 237.846 368.047C234.892 369.418 232.307 371.476 230.091 374.219C227.876 376.962 226.082 380.339 224.71 384.348C223.444 388.357 222.811 393.053 222.811 398.434ZM295.601 438V358.867H309.053V420.591L351.785 358.867H365.238V438H351.785V376.276L309.053 438H295.601ZM373.905 411.886H387.358C387.358 417.478 389.046 422.068 392.422 425.655C395.904 429.137 401.602 430.878 409.515 430.878C413.63 430.878 417.112 430.456 419.96 429.612C422.809 428.662 425.078 427.449 426.766 425.972C428.56 424.389 429.826 422.595 430.564 420.591C431.303 418.586 431.672 416.476 431.672 414.26C431.672 410.778 430.67 408.141 428.665 406.347C426.66 404.553 424.181 403.34 421.227 402.707C418.272 401.968 415.16 401.599 411.889 401.599H397.645V392.103H411.889C417.059 392.103 421.227 391.101 424.392 389.096C427.663 387.091 429.298 383.873 429.298 379.442C429.298 375.854 427.768 372.742 424.708 370.104C421.754 367.361 416.69 365.989 409.515 365.989C405.611 365.989 402.34 366.569 399.702 367.73C397.065 368.891 394.954 370.315 393.372 372.003C391.789 373.586 390.629 375.38 389.89 377.384C389.257 379.283 388.94 381.024 388.94 382.607H375.488C375.488 380.075 376.015 377.279 377.07 374.219C378.231 371.159 380.078 368.31 382.61 365.673C385.248 363.035 388.729 360.872 393.055 359.184C397.487 357.39 402.973 356.493 409.515 356.493C415.846 356.493 421.121 357.126 425.341 358.392C429.667 359.659 433.096 361.294 435.629 363.299C438.161 365.303 439.955 367.625 441.01 370.262C442.17 372.795 442.751 375.327 442.751 377.859C442.751 381.552 441.907 384.559 440.218 386.88C438.53 389.201 436.631 390.995 434.521 392.261C431.989 393.633 429.193 394.635 426.133 395.268V396.06C429.826 396.693 433.149 397.748 436.104 399.225C438.53 400.491 440.746 402.337 442.751 404.764C444.861 407.085 445.916 410.251 445.916 414.26C445.916 421.857 442.803 428.135 436.578 433.094C430.459 437.947 421.438 440.374 409.515 440.374C397.276 440.374 388.255 437.736 382.452 432.461C376.754 427.08 373.905 420.222 373.905 411.886ZM453.056 398.434C453.056 392.736 453.848 387.355 455.43 382.291C457.013 377.121 459.387 372.636 462.552 368.838C465.823 365.04 469.885 362.033 474.739 359.817C479.592 357.601 485.29 356.493 491.832 356.493C498.373 356.493 504.071 357.601 508.924 359.817C513.778 362.033 517.787 365.04 520.952 368.838C524.223 372.636 526.65 377.121 528.233 382.291C529.815 387.355 530.607 392.736 530.607 398.434C530.607 404.131 529.815 409.565 528.233 414.735C526.65 419.799 524.223 424.231 520.952 428.029C517.787 431.828 513.778 434.835 508.924 437.05C504.071 439.266 498.373 440.374 491.832 440.374C485.29 440.374 479.592 439.266 474.739 437.05C469.885 434.835 465.823 431.828 462.552 428.029C459.387 424.231 457.013 419.799 455.43 414.735C453.848 409.565 453.056 404.131 453.056 398.434ZM467.3 398.434C467.3 404.131 467.933 409.037 469.2 413.152C470.571 417.267 472.365 420.644 474.581 423.281C476.796 425.919 479.381 427.871 482.336 429.137C485.29 430.298 488.455 430.878 491.832 430.878C495.208 430.878 498.373 430.298 501.327 429.137C504.282 427.871 506.867 425.919 509.082 423.281C511.298 420.644 513.039 417.267 514.305 413.152C515.677 409.037 516.363 404.131 516.363 398.434C516.363 392.736 515.677 387.83 514.305 383.715C513.039 379.6 511.298 376.224 509.082 373.586C506.867 370.948 504.282 369.049 501.327 367.888C498.373 366.622 495.208 365.989 491.832 365.989C488.455 365.989 485.29 366.622 482.336 367.888C479.381 369.049 476.796 370.948 474.581 373.586C472.365 376.224 470.571 379.6 469.2 383.715C467.933 387.83 467.3 392.736 467.3 398.434ZM553.561 358.867V392.103H594.71V358.867H608.163V438H594.71V401.599H553.561V438H540.109V358.867H553.561ZM616.076 369.154V358.867H688.087V369.154H658.808V438H645.355V369.154H616.076ZM696.056 358.867H709.509V391.312H727.709C731.824 391.312 735.728 391.681 739.421 392.42C743.219 393.053 746.543 394.266 749.391 396.06C752.24 397.748 754.456 400.069 756.039 403.023C757.727 405.978 758.571 409.723 758.571 414.26C758.571 418.797 757.727 422.595 756.039 425.655C754.456 428.715 752.24 431.142 749.391 432.936C746.543 434.729 743.219 436.048 739.421 436.892C735.728 437.631 731.824 438 727.709 438H696.056V358.867ZM766.484 358.867H779.937V438H766.484V358.867ZM709.509 401.599V427.713H726.918C729.344 427.713 731.613 427.554 733.723 427.238C735.833 426.816 737.68 426.13 739.262 425.18C740.845 424.125 742.058 422.754 742.903 421.066C743.852 419.272 744.327 417.003 744.327 414.26C744.327 411.728 743.852 409.67 742.903 408.088C742.058 406.4 740.845 405.081 739.262 404.131C737.68 403.182 735.833 402.549 733.723 402.232C731.613 401.81 729.344 401.599 726.918 401.599H709.509Z" fill="black"/>
</svg>
