<svg width="940" height="251" viewBox="0 0 940 251" fill="none" xmlns="http://www.w3.org/2000/svg">
<path d="M-0.5 35.2C-0.5 22.8788 -0.5 16.7183 1.89786 12.0122C4.00707 7.87264 7.37264 4.50707 11.5122 2.39786C16.2183 0 22.3788 0 34.7 0H888.8C901.121 0 907.282 0 911.988 2.39786C916.127 4.50707 919.493 7.87264 921.602 12.0122C924 16.7183 924 22.8788 924 35.2V48.8C924 61.1212 924 67.2817 921.602 71.9878C919.493 76.1274 916.127 79.4929 911.988 81.6021C907.282 84 901.121 84 888.8 84H34.7C22.3789 84 16.2183 84 11.5122 81.6021C7.37264 79.4929 4.00707 76.1274 1.89786 71.9878C-0.5 67.2817 -0.5 61.1212 -0.5 48.8V35.2Z" fill="#7571FC"/>
<path d="M503.5 35.2C503.5 22.8788 503.5 16.7183 505.898 12.0122C508.007 7.87264 511.373 4.50707 515.512 2.39786C520.218 0 526.379 0 538.7 0H904.8C917.121 0 923.282 0 927.988 2.39786C932.127 4.50707 935.493 7.87264 937.602 12.0122C940 16.7183 940 22.8788 940 35.2V215.8C940 228.121 940 234.282 937.602 238.988C935.493 243.127 932.127 246.493 927.988 248.602C923.282 251 917.121 251 904.8 251H538.7C526.379 251 520.218 251 515.512 248.602C511.373 246.493 508.007 243.127 505.898 238.988C503.5 234.282 503.5 228.121 503.5 215.8V35.2Z" fill="#7571FC"/>
</svg>
