<svg width="542" height="635" viewBox="0 0 542 635" fill="none" xmlns="http://www.w3.org/2000/svg">
<rect x="69" width="428" height="635" rx="20" fill="black"/>
<path d="M122.904 304H127.319V299.017L129.116 297.157L133.279 304H138.671L132.175 294.003L138.356 287.602H133.153L127.319 294.224V287.602H122.904V304ZM143.552 292.647C143.615 290.881 144.656 290.125 146.548 290.125C148.282 290.125 149.228 290.881 149.228 292.174C149.228 294.003 146.642 294.224 143.899 294.918C141.187 295.612 138.664 296.999 138.664 300.058C138.664 303.085 140.871 304.473 143.867 304.473C148.061 304.473 149.07 300.847 149.07 300.847H149.228V304H153.643V292.805C153.643 288.548 150.49 287.129 146.548 287.129C142.764 287.129 139.389 288.453 139.137 292.647H143.552ZM149.228 295.738C149.228 298.166 148.44 301.635 145.444 301.635C144.025 301.635 143.142 300.847 143.142 299.585C143.142 298.135 144.34 297.409 145.759 297.062C147.021 296.747 148.503 296.4 149.228 295.738ZM155.209 304H159.624V299.017L161.421 297.157L165.584 304H170.976L164.48 294.003L170.661 287.602H165.458L159.624 294.224V287.602H155.209V304ZM179.815 304H184.229V295.486C184.229 292.174 185.491 290.755 187.856 290.755C189.906 290.755 190.694 292.017 190.694 294.855V304H195.109V293.909C195.109 290.125 193.848 287.129 189.275 287.129C185.648 287.129 184.229 290.282 184.229 290.282H184.072V287.602H179.815V304ZM212.469 287.602H207.739L204.491 298.418L200.486 287.602H195.756L202.378 304C201.747 305.514 201.117 306.365 199.54 306.365C198.436 306.365 197.49 306.05 197.49 306.05V309.676C197.49 309.676 198.751 310.149 200.328 310.149C203.639 310.149 205.342 308.226 206.635 304.473L212.469 287.602ZM223.185 304H227.6V295.486C227.6 292.174 228.609 290.755 230.501 290.755C232.235 290.755 232.803 292.017 232.803 294.855V304H237.218V293.909C237.218 290.125 236.114 287.129 232.015 287.129C228.703 287.129 227.284 290.282 227.284 290.282H227.127L227.095 290.314C226.464 288.39 225.045 287.129 222.396 287.129C219.085 287.129 217.982 290.282 217.982 290.282H217.824V287.602H213.567V304H217.982V295.486C217.982 292.174 218.991 290.755 220.883 290.755C222.617 290.755 223.185 292.017 223.185 294.855V304ZM253.137 287.602H248.722V294.54H245.568C243.676 294.54 243.046 294.54 243.046 292.49V287.602H238.631V292.963C238.631 296.589 239.892 297.693 244.465 297.693H248.722V304H253.137V287.602ZM273.007 298.639C273.007 298.639 273.007 301.477 269.539 301.477C267.174 301.477 266.543 300.373 266.543 299.427C266.543 295.927 276.949 298.166 276.949 292.017C276.949 289.179 274.269 287.129 269.854 287.129C263.705 287.129 262.601 290.755 262.601 292.332H266.858C266.858 292.332 266.858 290.125 269.854 290.125C271.588 290.125 272.534 291.008 272.534 292.017C272.534 294.697 262.128 293.12 262.128 299.27C262.128 302.423 264.808 304.473 269.539 304.473C276.003 304.473 277.265 300.531 277.265 298.639H273.007ZM278.669 304H283.084V299.017L284.881 297.157L289.044 304H294.436L287.94 294.003L294.121 287.602H288.918L283.084 294.224V287.602H278.669V304ZM308.785 287.602H304.37V294.54H301.216C299.324 294.54 298.694 294.54 298.694 292.49V287.602H294.279V292.963C294.279 296.589 295.54 297.693 300.113 297.693H304.37V304H308.785V287.602ZM310.358 304H314.773V295.486C314.773 292.174 316.034 290.755 318.399 290.755C320.449 290.755 321.237 292.017 321.237 294.855V304H325.652V293.909C325.652 290.125 324.391 287.129 319.818 287.129C316.192 287.129 314.773 290.282 314.773 290.282H314.615V287.602H310.358V304ZM334.81 304H339.225V295.486C339.225 292.174 340.486 290.755 342.851 290.755C344.901 290.755 345.689 292.017 345.689 294.855V304H350.104V293.909C350.104 290.125 348.843 287.129 344.27 287.129C340.644 287.129 339.225 290.282 339.225 290.282H339.067V287.602H334.81V304ZM351.686 309.676H356.101V302.266H356.258C356.258 302.266 357.677 304.473 361.146 304.473C365.877 304.473 368.242 300.373 368.242 295.801C368.242 291.228 365.877 287.129 361.146 287.129C357.52 287.129 356.101 289.809 356.101 289.809H355.943V287.602H351.686V309.676ZM355.943 295.801C355.943 292.837 357.204 290.44 359.885 290.44C362.565 290.44 363.827 292.837 363.827 295.801C363.827 298.765 362.565 301.162 359.885 301.162C357.204 301.162 355.943 298.765 355.943 295.801ZM384.965 287.602H380.55V296.116C380.55 299.427 379.289 300.847 376.924 300.847C374.874 300.847 374.085 299.585 374.085 296.747V287.602H369.671V297.693C369.671 301.477 370.932 304.473 375.504 304.473C379.131 304.473 380.55 301.32 380.55 301.32H380.708V304H384.965V287.602ZM386.547 304H394.903C399.318 304 401.368 302.423 401.368 299.27C401.368 296.116 398.372 295.486 398.372 295.486V295.328C398.372 295.328 400.895 294.697 400.895 292.017C400.895 289.021 398.688 287.602 394.43 287.602H386.547V304ZM394.43 297.062C396.007 297.062 396.953 297.693 396.953 298.954C396.953 300.216 396.165 300.847 394.746 300.847H390.962V297.062H394.43ZM390.962 294.224V290.755H394.43C395.849 290.755 396.48 291.386 396.48 292.49C396.48 293.593 395.692 294.224 394.115 294.224H390.962ZM402.31 295.801C402.31 300.594 404.991 304.473 410.509 304.473C417.289 304.473 418.236 298.639 418.236 298.639H413.821C413.821 298.639 413.348 301.162 410.667 301.162C408.018 301.162 406.946 299.27 406.757 296.747H418.362C418.362 296.747 418.393 296.179 418.393 295.801C418.393 291.008 415.902 287.129 410.509 287.129C405.117 287.129 402.31 291.008 402.31 295.801ZM410.509 290.44C412.685 290.44 413.568 291.891 413.852 293.909H406.883C407.261 291.891 408.334 290.44 410.509 290.44ZM418.224 304H422.702L426.487 292.364L430.271 304H435.001L429.104 287.602H424.121L418.224 304ZM172.593 330H177.008V325.017L178.805 323.157L182.968 330H188.36L181.864 320.003L188.045 313.602H182.842L177.008 320.224V313.602H172.593V330ZM197.199 335.676H201.614V328.266H201.771C201.771 328.266 203.19 330.473 206.659 330.473C211.389 330.473 213.755 326.373 213.755 321.801C213.755 317.228 211.389 313.129 206.659 313.129C203.033 313.129 201.614 315.809 201.614 315.809H201.456V313.602H197.199V335.676ZM201.456 321.801C201.456 318.837 202.717 316.44 205.398 316.44C208.078 316.44 209.34 318.837 209.34 321.801C209.34 324.765 208.078 327.162 205.398 327.162C202.717 327.162 201.456 324.765 201.456 321.801ZM219.602 318.647C219.665 316.881 220.706 316.125 222.598 316.125C224.332 316.125 225.278 316.881 225.278 318.174C225.278 320.003 222.692 320.224 219.949 320.918C217.237 321.612 214.714 322.999 214.714 326.058C214.714 329.085 216.922 330.473 219.917 330.473C224.112 330.473 225.121 326.847 225.121 326.847H225.278V330H229.693V318.805C229.693 314.548 226.54 313.129 222.598 313.129C218.814 313.129 215.439 314.453 215.187 318.647H219.602ZM225.278 321.738C225.278 324.166 224.49 327.635 221.494 327.635C220.075 327.635 219.192 326.847 219.192 325.585C219.192 324.135 220.39 323.409 221.809 323.062C223.071 322.747 224.553 322.4 225.278 321.738ZM231.101 321.801C231.101 326.594 233.939 330.473 239.3 330.473C246.553 330.473 247.026 324.008 247.026 324.008H242.611C242.611 324.008 242.454 327.162 239.3 327.162C236.494 327.162 235.516 324.765 235.516 321.801C235.516 318.837 236.494 316.44 239.3 316.44C242.454 316.44 242.611 319.593 242.611 319.593H247.026C247.026 319.593 246.553 313.129 239.3 313.129C233.939 313.129 231.101 317.008 231.101 321.801ZM248.443 330H252.858V321.486C252.858 318.174 254.119 316.755 256.484 316.755C258.534 316.755 259.322 318.017 259.322 320.855V330H263.737V319.909C263.737 316.125 262.476 313.129 257.903 313.129C254.277 313.129 252.858 316.282 252.858 316.282H252.7V313.602H248.443V330ZM269.892 318.647C269.955 316.881 270.995 316.125 272.887 316.125C274.622 316.125 275.568 316.881 275.568 318.174C275.568 320.003 272.982 320.224 270.238 320.918C267.526 321.612 265.004 322.999 265.004 326.058C265.004 329.085 267.211 330.473 270.207 330.473C274.401 330.473 275.41 326.847 275.41 326.847H275.568V330H279.983V318.805C279.983 314.548 276.829 313.129 272.887 313.129C269.103 313.129 265.729 314.453 265.477 318.647H269.892ZM275.568 321.738C275.568 324.166 274.779 327.635 271.784 327.635C270.365 327.635 269.482 326.847 269.482 325.585C269.482 324.135 270.68 323.409 272.099 323.062C273.36 322.747 274.843 322.4 275.568 321.738ZM297.947 313.602H293.689V315.809H293.532C293.532 315.809 292.113 313.129 288.486 313.129C283.756 313.129 281.391 317.228 281.391 321.486C281.391 325.743 283.756 329.842 288.486 329.842C291.955 329.842 293.374 327.635 293.374 327.635H293.532V328.423C293.532 331.261 292.554 332.838 289.747 332.838C286.594 332.838 286.436 330.473 286.436 330.473H282.021C282.021 330.473 282.179 336.149 289.747 336.149C295.424 336.149 297.947 332.838 297.947 328.108V313.602ZM293.689 321.486C293.689 324.135 292.428 326.531 289.747 326.531C287.067 326.531 285.806 324.135 285.806 321.486C285.806 318.837 287.067 316.44 289.747 316.44C292.428 316.44 293.689 318.837 293.689 321.486ZM315.774 313.602H311.043L307.795 324.418L303.79 313.602H299.06L305.682 330C305.052 331.514 304.421 332.365 302.844 332.365C301.741 332.365 300.795 332.05 300.795 332.05V335.676C300.795 335.676 302.056 336.149 303.633 336.149C306.944 336.149 308.647 334.226 309.94 330.473L315.774 313.602ZM324.289 321.801C324.289 326.594 327.127 330.473 332.488 330.473C339.741 330.473 340.214 324.008 340.214 324.008H335.8C335.8 324.008 335.642 327.162 332.488 327.162C329.682 327.162 328.704 324.765 328.704 321.801C328.704 318.837 329.682 316.44 332.488 316.44C335.642 316.44 335.8 319.593 335.8 319.593H340.214C340.214 319.593 339.741 313.129 332.488 313.129C327.127 313.129 324.289 317.008 324.289 321.801ZM341.473 321.801C341.473 326.594 344.311 330.473 349.672 330.473C356.925 330.473 357.398 324.008 357.398 324.008H352.984C352.984 324.008 352.826 327.162 349.672 327.162C346.866 327.162 345.888 324.765 345.888 321.801C345.888 318.837 346.866 316.44 349.672 316.44C352.826 316.44 352.984 319.593 352.984 319.593H357.398C357.398 319.593 356.925 313.129 349.672 313.129C344.311 313.129 341.473 317.008 341.473 321.801ZM358.657 321.801C358.657 326.594 361.496 330.473 366.856 330.473C374.109 330.473 374.582 324.008 374.582 324.008H370.168C370.168 324.008 370.01 327.162 366.856 327.162C364.05 327.162 363.072 324.765 363.072 321.801C363.072 318.837 364.05 316.44 366.856 316.44C370.01 316.44 370.168 319.593 370.168 319.593H374.582C374.582 319.593 374.109 313.129 366.856 313.129C361.496 313.129 358.657 317.008 358.657 321.801ZM375.999 335.676H380.414V328.266H380.572C380.572 328.266 381.991 330.473 385.46 330.473C390.19 330.473 392.555 326.373 392.555 321.801C392.555 317.228 390.19 313.129 385.46 313.129C381.833 313.129 380.414 315.809 380.414 315.809H380.256V313.602H375.999V335.676ZM380.256 321.801C380.256 318.837 381.518 316.44 384.198 316.44C386.879 316.44 388.14 318.837 388.14 321.801C388.14 324.765 386.879 327.162 384.198 327.162C381.518 327.162 380.256 324.765 380.256 321.801Z" fill="white"/>
<path d="M90.1143 336.216L90.682 334.86L91.4073 333.094L92.101 331.707C92.7002 330.666 93.1732 330.224 93.7093 330.224C94.2454 330.224 94.4977 330.54 94.4977 331.171C94.4977 331.864 94.1823 332.905 93.5201 334.261C92.8579 335.617 92.1956 337.004 91.5334 338.487C90.8712 339.937 90.5558 341.136 90.5558 342.05C90.5558 343.848 91.7857 344.888 93.394 344.888C95.1284 344.888 96.3898 343.753 97.6512 341.735H97.8088C97.4935 342.838 97.4935 344.888 99.3856 344.888C101.025 344.888 102.192 343.469 103.737 339.653L103.99 339.023L103.359 338.77L103.107 339.401C101.814 342.523 100.679 344.1 99.7009 344.1C99.0702 344.1 98.7549 343.721 98.7549 342.996C98.7549 342.555 99.291 341.041 100.332 338.487L103.8 329.909H102.066L98.9756 337.477C98.9441 337.509 98.9126 337.604 98.881 337.698L98.1557 339.433L97.3674 341.009C96.9889 341.735 96.6421 342.239 96.3582 342.586C95.7591 343.217 94.7815 343.942 93.867 343.942C92.8894 343.942 92.1326 343.248 92.1326 342.208C92.1326 341.325 92.7948 339.527 94.0877 336.847C95.4122 334.135 96.0744 332.306 96.0744 331.328C96.0744 330.098 95.2545 329.436 94.0247 329.436C93.2994 329.436 92.6056 329.909 92.1326 330.414C91.9118 330.634 91.6595 331.044 91.3757 331.58C91.0919 332.117 90.9027 332.59 90.745 332.936L90.0513 334.608L89.4836 335.964L90.1143 336.216ZM112.832 330.224C114.598 330.224 115.355 331.234 115.355 331.959C115.355 332.716 113.462 332.779 113.462 334.166C113.462 334.702 113.935 335.112 114.566 335.112C115.607 335.112 116.458 334.229 116.458 332.59C116.458 330.95 115.291 329.436 112.989 329.436C111.381 329.436 109.867 329.972 108.385 331.044C106.903 332.117 105.768 333.409 104.917 334.955C104.097 336.468 103.687 337.951 103.687 339.37C103.687 342.775 105.484 344.888 108.89 344.888C110.561 344.888 112.043 344.352 113.336 343.311C114.629 342.271 115.575 341.041 116.111 339.653L116.364 339.023L115.733 338.77L115.481 339.401C115.008 340.599 114.188 341.672 113.021 342.649C111.886 343.627 110.561 344.1 109.048 344.1C106.777 344.1 105.421 342.334 105.421 339.843C105.421 337.477 106.178 335.27 107.723 333.252C109.268 331.234 110.971 330.224 112.832 330.224ZM122.24 344.415L125.331 336.847C127.097 332.527 128.39 330.382 129.178 330.382C129.588 330.382 129.809 330.761 129.809 331.486C129.809 332.369 129.209 334.229 127.98 337.036C126.781 339.843 126.182 341.703 126.182 342.681C126.182 344.068 126.907 344.888 128.137 344.888C128.894 344.857 129.556 344.447 130.156 343.595C130.502 343.122 131.102 341.829 131.953 339.716L132.237 339.023L131.606 338.77L131.322 339.464L130.692 341.009L130.408 341.703C130.156 342.302 130.029 342.523 129.777 342.933C129.43 343.658 128.926 344.1 128.453 344.1C128.074 344.1 127.664 343.69 127.664 342.838C127.664 342.05 128.263 340.284 129.462 337.541C130.692 334.797 131.291 332.81 131.291 331.644C131.291 330.161 130.786 329.436 129.809 329.436C129.367 329.436 128.957 329.594 128.579 329.941C128.106 330.288 127.507 331.171 126.718 332.59H126.561C127.16 331.044 126.844 329.436 125.362 329.436C124.511 329.436 123.691 330.256 123.281 330.918C123.06 331.234 122.808 331.707 122.461 332.306L122.303 332.59H122.146C122.461 331.486 122.461 329.436 120.569 329.436C119.781 329.436 119.087 329.815 118.551 330.54C118.015 331.265 117.352 332.653 116.532 334.671L115.996 335.964L116.627 336.216L117.163 334.923C118.582 331.486 119.244 330.224 120.254 330.224C120.884 330.224 121.2 330.603 121.2 331.328C121.2 331.77 120.664 333.283 119.623 335.838L116.154 344.415H117.794L120.884 336.847L121.105 336.311C121.483 335.396 121.767 334.702 121.988 334.229L122.839 332.432C123.596 331.013 124.227 330.382 124.858 330.382C125.394 330.382 125.646 330.697 125.646 331.328C125.646 331.77 125.11 333.283 124.069 335.838L120.6 344.415H122.24ZM140.757 329.436C139.307 329.436 137.888 329.972 136.5 331.044C135.113 332.117 134.009 333.473 133.157 335.081C132.338 336.689 131.928 338.266 131.928 339.811C131.928 341.356 132.338 342.618 133.157 343.532C134.009 344.447 135.144 344.888 136.626 344.888C138.108 344.888 139.528 344.352 140.915 343.28C142.303 342.208 143.406 340.883 144.226 339.275C145.078 337.667 145.488 336.09 145.488 334.545C145.488 331.423 143.753 329.436 140.757 329.436ZM140.537 330.224C142.429 330.224 143.753 331.77 143.753 334.198C143.753 335.491 143.469 336.878 142.902 338.36C142.366 339.843 141.514 341.199 140.411 342.365C139.307 343.532 138.14 344.1 136.847 344.1C134.955 344.1 133.662 342.586 133.662 340.158C133.662 337.604 134.766 334.292 136.942 331.99C138.045 330.824 139.244 330.224 140.537 330.224ZM143.753 348.357C143.406 349.208 143.059 349.776 142.649 350.028C142.24 350.281 141.546 350.407 140.568 350.407H139.969V351.037H147.664V350.407H146.402C144.983 350.407 144.794 349.902 145.456 348.357L148.294 341.419C148.042 343.28 149.209 344.888 151.448 344.888C155.39 345.077 159.804 338.707 159.647 333.693C159.647 331.076 158.165 329.436 156.178 329.436C154.317 329.436 152.772 330.603 151.479 332.905H151.322C151.668 332.053 151.732 331.265 151.448 330.54C151.195 329.815 150.628 329.436 149.745 329.436C148.105 329.436 146.938 330.855 145.393 334.671L144.857 335.964L145.488 336.216L146.024 334.923C147.317 331.801 148.452 330.224 149.429 330.224C150.06 330.224 150.376 330.603 150.376 331.328C150.376 331.77 149.839 333.283 148.799 335.838L143.753 348.357ZM150.155 336.847C151.952 332.432 153.813 330.224 155.705 330.224C156.935 330.224 157.881 331.486 157.881 333.851C157.881 336.216 157.156 338.518 155.736 340.757C154.317 342.996 152.835 344.1 151.29 344.1C148.799 344.1 148.357 341.262 149.114 339.433L150.155 336.847ZM159.971 336.216L160.539 334.86L161.264 333.094L161.958 331.707C162.557 330.666 163.03 330.224 163.566 330.224C164.103 330.224 164.355 330.54 164.355 331.171C164.355 331.864 164.039 332.905 163.377 334.261C162.715 335.617 162.053 337.004 161.391 338.487C160.728 339.937 160.413 341.136 160.413 342.05C160.413 343.848 161.643 344.888 163.251 344.888C164.986 344.888 166.247 343.753 167.508 341.735H167.666C167.351 342.838 167.351 344.888 169.243 344.888C170.883 344.888 172.049 343.469 173.595 339.653L173.847 339.023L173.216 338.77L172.964 339.401C171.671 342.523 170.536 344.1 169.558 344.1C168.927 344.1 168.612 343.721 168.612 342.996C168.612 342.555 169.148 341.041 170.189 338.487L173.658 329.909H171.923L168.833 337.477C168.801 337.509 168.77 337.604 168.738 337.698L168.013 339.433L167.225 341.009C166.846 341.735 166.499 342.239 166.215 342.586C165.616 343.217 164.639 343.942 163.724 343.942C162.747 343.942 161.99 343.248 161.99 342.208C161.99 341.325 162.652 339.527 163.945 336.847C165.269 334.135 165.932 332.306 165.932 331.328C165.932 330.098 165.112 329.436 163.882 329.436C163.157 329.436 162.463 329.909 161.99 330.414C161.769 330.634 161.517 331.044 161.233 331.58C160.949 332.117 160.76 332.59 160.602 332.936L159.908 334.608L159.341 335.964L159.971 336.216ZM173.355 338.739L173.071 339.433C172.44 340.883 172.125 342.05 172.125 342.933C172.125 344.226 172.692 344.888 173.828 344.888C175.057 344.888 176.067 344.005 177.423 341.262C178.652 338.739 179.945 337.477 181.364 337.477H182.973L182.815 337.856C181.932 340 181.491 341.609 181.491 342.681C181.491 344.163 182.058 344.888 183.225 344.888C184.013 344.888 184.676 344.51 185.212 343.784C185.748 343.059 186.442 341.672 187.261 339.653L187.514 339.023L186.883 338.77L186.631 339.401C185.212 342.838 184.549 344.1 183.54 344.1C183.004 344.1 182.752 343.784 182.752 343.154C182.752 342.618 183.004 341.955 183.288 341.072L183.73 339.906C183.856 339.653 184.203 338.77 184.329 338.487L187.735 329.909H183.667C181.901 329.909 180.355 330.319 178.999 331.139C177.643 331.927 176.981 333 176.981 334.324C176.981 335.932 178.4 336.784 179.819 336.941V337.099C178.211 337.446 176.792 338.96 175.909 340.631L175.373 341.672C174.553 343.28 173.954 344.1 173.544 344.1C173.008 344.1 172.755 343.721 172.755 342.965C172.755 342.239 173.071 341.167 173.701 339.716L173.985 339.023L173.355 338.739ZM178.747 334.324C178.747 332.306 180.702 330.697 183.351 330.697H185.748L183.288 336.689H181.837C180.292 336.689 178.747 335.964 178.747 334.324ZM208.054 338.77L207.77 339.464C207.454 340.253 207.202 340.82 207.013 341.23C206.855 341.64 206.603 342.082 206.319 342.618C205.783 343.658 205.279 344.1 204.742 344.1C204.112 344.1 203.796 343.69 203.796 342.838C203.796 342.05 204.364 340.41 205.531 337.856C206.698 335.302 207.265 333.441 207.265 332.274C207.265 330.477 206.098 329.436 204.585 329.436C203.04 329.436 201.652 330.477 200.485 332.59H200.328C200.643 331.486 200.643 329.436 198.751 329.436C197.111 329.436 195.944 330.855 194.399 334.671L193.863 335.964L194.494 336.216L195.03 334.923C196.323 331.801 197.458 330.224 198.435 330.224C199.066 330.224 199.381 330.603 199.381 331.328C199.381 331.77 198.845 333.283 197.805 335.838L194.336 344.415H196.07L199.161 336.847C199.224 336.689 199.318 336.5 199.413 336.216C200.075 334.545 200.485 333.662 201.242 332.369C202.03 331.076 203.008 330.382 204.112 330.382C205.089 330.382 205.688 331.013 205.688 332.117C205.688 333 205.121 334.734 203.954 337.351C202.787 339.937 202.22 341.703 202.22 342.681C202.22 344.068 203.166 344.888 204.427 344.888C205.594 344.731 206.319 344.226 207.044 342.744L207.707 341.419L208.4 339.716L208.684 339.023L208.054 338.77ZM217.207 329.436C215.757 329.436 214.338 329.972 212.95 331.044C211.563 332.117 210.459 333.473 209.607 335.081C208.787 336.689 208.378 338.266 208.378 339.811C208.378 341.356 208.787 342.618 209.607 343.532C210.459 344.447 211.594 344.888 213.076 344.888C214.558 344.888 215.977 344.352 217.365 343.28C218.753 342.208 219.856 340.883 220.676 339.275C221.528 337.667 221.938 336.09 221.938 334.545C221.938 331.423 220.203 329.436 217.207 329.436ZM216.987 330.224C218.879 330.224 220.203 331.77 220.203 334.198C220.203 335.491 219.919 336.878 219.352 338.36C218.816 339.843 217.964 341.199 216.86 342.365C215.757 343.532 214.59 344.1 213.297 344.1C211.405 344.1 210.112 342.586 210.112 340.158C210.112 337.604 211.216 334.292 213.392 331.99C214.495 330.824 215.694 330.224 216.987 330.224ZM226.367 329.909V330.697H229.363L228.354 333.22C227.029 336.531 225.737 339.149 224.475 341.136C223.245 343.122 222.205 344.1 221.353 344.1C221.069 344.1 220.943 343.974 220.943 343.753C220.943 343.658 221.101 343.406 221.416 343.059C221.732 342.712 221.889 342.365 221.889 342.05C221.889 341.419 221.511 341.104 220.786 341.104C219.997 341.104 219.114 341.892 219.114 343.248C219.114 344.1 219.713 344.888 220.943 344.888C222.425 344.888 223.876 343.658 225.263 341.356C226.683 338.991 227.786 336.626 229.205 333.063L230.151 330.697H233.273L230.341 337.856C229.458 340 229.016 341.609 229.016 342.681C229.016 344.068 229.773 344.888 230.908 344.888C232.548 344.888 233.746 343.438 235.26 339.653L235.512 339.023L234.882 338.77L234.629 339.401C233.336 342.523 232.201 344.1 231.224 344.1C230.593 344.1 230.278 343.721 230.278 342.996C230.278 342.555 230.814 341.041 231.854 338.487L235.323 329.909H226.367ZM235.682 336.216L236.25 334.86L236.975 333.094L237.669 331.707C238.268 330.666 238.741 330.224 239.277 330.224C239.813 330.224 240.066 330.54 240.066 331.171C240.066 331.864 239.75 332.905 239.088 334.261C238.426 335.617 237.764 337.004 237.101 338.487C236.439 339.937 236.124 341.136 236.124 342.05C236.124 343.848 237.354 344.888 238.962 344.888C240.696 344.888 241.958 343.753 243.219 341.735H243.377C243.061 342.838 243.061 344.888 244.954 344.888C246.593 344.888 247.76 343.469 249.305 339.653L249.558 339.023L248.927 338.77L248.675 339.401C247.382 342.523 246.246 344.1 245.269 344.1C244.638 344.1 244.323 343.721 244.323 342.996C244.323 342.555 244.859 341.041 245.9 338.487L249.368 329.909H247.634L244.544 337.477C244.512 337.509 244.481 337.604 244.449 337.698L243.724 339.433L242.935 341.009C242.557 341.735 242.21 342.239 241.926 342.586C241.327 343.217 240.349 343.942 239.435 343.942C238.457 343.942 237.701 343.248 237.701 342.208C237.701 341.325 238.363 339.527 239.656 336.847C240.98 334.135 241.642 332.306 241.642 331.328C241.642 330.098 240.822 329.436 239.593 329.436C238.867 329.436 238.174 329.909 237.701 330.414C237.48 330.634 237.228 331.044 236.944 331.58C236.66 332.117 236.471 332.59 236.313 332.936L235.619 334.608L235.052 335.964L235.682 336.216ZM255.026 344.415L258.116 336.847C259.882 332.527 261.175 330.382 261.963 330.382C262.373 330.382 262.594 330.761 262.594 331.486C262.594 332.369 261.995 334.229 260.765 337.036C259.567 339.843 258.967 341.703 258.967 342.681C258.967 344.068 259.693 344.888 260.923 344.888C261.679 344.857 262.342 344.447 262.941 343.595C263.288 343.122 263.887 341.829 264.738 339.716L265.022 339.023L264.391 338.77L264.108 339.464L263.477 341.009L263.193 341.703C262.941 342.302 262.815 342.523 262.562 342.933C262.215 343.658 261.711 344.1 261.238 344.1C260.859 344.1 260.45 343.69 260.45 342.838C260.45 342.05 261.049 340.284 262.247 337.541C263.477 334.797 264.076 332.81 264.076 331.644C264.076 330.161 263.571 329.436 262.594 329.436C262.152 329.436 261.742 329.594 261.364 329.941C260.891 330.288 260.292 331.171 259.503 332.59H259.346C259.945 331.044 259.63 329.436 258.147 329.436C257.296 329.436 256.476 330.256 256.066 330.918C255.845 331.234 255.593 331.707 255.246 332.306L255.089 332.59H254.931C255.246 331.486 255.246 329.436 253.354 329.436C252.566 329.436 251.872 329.815 251.336 330.54C250.8 331.265 250.138 332.653 249.318 334.671L248.782 335.964L249.412 336.216L249.948 334.923C251.367 331.486 252.03 330.224 253.039 330.224C253.67 330.224 253.985 330.603 253.985 331.328C253.985 331.77 253.449 333.283 252.408 335.838L248.939 344.415H250.579L253.67 336.847L253.89 336.311C254.269 335.396 254.552 334.702 254.773 334.229L255.625 332.432C256.382 331.013 257.012 330.382 257.643 330.382C258.179 330.382 258.431 330.697 258.431 331.328C258.431 331.77 257.895 333.283 256.855 335.838L253.386 344.415H255.026ZM265.344 336.216L265.911 334.86L266.637 333.094L267.33 331.707C267.929 330.666 268.402 330.224 268.939 330.224C269.475 330.224 269.727 330.54 269.727 331.171C269.727 331.864 269.412 332.905 268.749 334.261C268.087 335.617 267.425 337.004 266.763 338.487C266.1 339.937 265.785 341.136 265.785 342.05C265.785 343.848 267.015 344.888 268.623 344.888C270.358 344.888 271.619 343.753 272.88 341.735H273.038C272.723 342.838 272.723 344.888 274.615 344.888C276.255 344.888 277.421 343.469 278.967 339.653L279.219 339.023L278.588 338.77L278.336 339.401C277.043 342.523 275.908 344.1 274.93 344.1C274.299 344.1 273.984 343.721 273.984 342.996C273.984 342.555 274.52 341.041 275.561 338.487L279.03 329.909H277.295L274.205 337.477C274.173 337.509 274.142 337.604 274.11 337.698L273.385 339.433L272.597 341.009C272.218 341.735 271.871 342.239 271.587 342.586C270.988 343.217 270.011 343.942 269.096 343.942C268.119 343.942 267.362 343.248 267.362 342.208C267.362 341.325 268.024 339.527 269.317 336.847C270.641 334.135 271.304 332.306 271.304 331.328C271.304 330.098 270.484 329.436 269.254 329.436C268.529 329.436 267.835 329.909 267.362 330.414C267.141 330.634 266.889 331.044 266.605 331.58C266.321 332.117 266.132 332.59 265.974 332.936L265.281 334.608L264.713 335.964L265.344 336.216ZM278.766 336.216L279.333 334.86L280.059 333.094L280.752 331.707C281.351 330.666 281.825 330.224 282.361 330.224C282.897 330.224 283.149 330.54 283.149 331.171C283.149 331.644 282.865 332.527 282.266 333.756C281.698 334.986 281.415 335.964 281.415 336.689C281.415 338.487 282.644 339.527 284.253 339.527C285.293 339.527 286.334 338.865 287.438 337.572H287.595L287.469 337.856C286.586 340 286.145 341.609 286.145 342.681C286.145 344.068 286.902 344.888 288.037 344.888C289.677 344.888 290.843 343.469 292.389 339.653L292.641 339.023L292.01 338.77L291.758 339.401C290.465 342.523 289.33 344.1 288.352 344.1C287.722 344.1 287.406 343.721 287.406 342.996C287.406 342.555 287.942 341.041 288.983 338.487L291.096 333.22L291.19 333.126H291.159L292.452 329.909H290.717L289.834 332.117C289.803 332.148 289.771 332.243 289.74 332.337L289.014 334.072L288.226 335.648C287.848 336.374 287.501 336.878 287.217 337.225C286.618 337.856 285.64 338.581 284.726 338.581C283.748 338.581 282.991 337.887 282.991 336.847C282.991 336.279 283.275 335.396 283.843 334.166C284.442 332.936 284.726 331.99 284.726 331.328C284.726 330.098 283.906 329.436 282.676 329.436C281.951 329.436 281.257 329.909 280.784 330.414C280.563 330.634 280.311 331.044 280.027 331.58C279.743 332.117 279.554 332.59 279.396 332.936L278.703 334.608L278.135 335.964L278.766 336.216ZM304.361 338.77L304.109 339.401C303.636 340.599 302.816 341.672 301.649 342.649C300.514 343.627 299.189 344.1 297.675 344.1C295.405 344.1 294.049 342.334 294.049 339.843C294.049 339.149 294.112 338.55 294.207 338.077C295.563 337.951 296.761 337.824 299 337.288C300.135 337.004 301.113 336.689 301.964 336.311C303.636 335.554 305.086 334.103 305.086 332.432C305.086 330.634 303.856 329.436 301.617 329.436C300.009 329.436 298.495 329.972 297.013 331.044C295.531 332.117 294.396 333.409 293.544 334.955C292.724 336.468 292.315 337.951 292.315 339.37C292.315 342.775 294.112 344.888 297.518 344.888C299.189 344.888 300.671 344.352 301.964 343.311C303.257 342.271 304.203 341.041 304.739 339.653L304.992 339.023L304.361 338.77ZM301.46 330.224C303.32 330.224 304.14 331.171 304.14 332.432C304.14 334.166 302.469 335.522 300.072 336.248C297.707 336.973 296.004 337.257 294.333 337.414C294.806 335.428 295.752 333.756 297.108 332.337C298.464 330.918 299.914 330.224 301.46 330.224ZM314.242 330.224C316.008 330.224 316.765 331.234 316.765 331.959C316.765 332.716 314.873 332.779 314.873 334.166C314.873 334.702 315.346 335.112 315.977 335.112C317.017 335.112 317.869 334.229 317.869 332.59C317.869 330.95 316.702 329.436 314.4 329.436C312.792 329.436 311.278 329.972 309.796 331.044C308.314 332.117 307.179 333.409 306.327 334.955C305.507 336.468 305.097 337.951 305.097 339.37C305.097 342.775 306.895 344.888 310.301 344.888C311.972 344.888 313.454 344.352 314.747 343.311C316.04 342.271 316.986 341.041 317.522 339.653L317.774 339.023L317.144 338.77L316.891 339.401C316.418 340.599 315.598 341.672 314.432 342.649C313.296 343.627 311.972 344.1 310.458 344.1C308.188 344.1 306.832 342.334 306.832 339.843C306.832 337.477 307.589 335.27 309.134 333.252C310.679 331.234 312.382 330.224 314.242 330.224ZM319.614 344.415L322.768 336.689H324.155C325.48 336.689 326.142 337.257 326.142 338.36C326.142 338.96 325.984 339.685 325.638 340.599C325.291 341.482 325.133 342.176 325.133 342.681C325.133 344.068 326.079 344.888 327.34 344.888C328.507 344.731 329.233 344.226 329.958 342.744L330.62 341.419L331.314 339.716L331.598 339.023L330.967 338.77L330.683 339.464C330.368 340.253 330.116 340.82 329.926 341.23C329.769 341.64 329.516 342.082 329.233 342.618C328.696 343.658 328.192 344.1 327.656 344.1C327.025 344.1 326.71 343.69 326.71 342.838C326.71 342.334 326.867 341.609 327.214 340.663C327.561 339.716 327.719 338.96 327.719 338.36C327.719 336.153 325.133 336.027 325.133 336.058V335.901C325.669 335.648 326.268 335.049 326.962 334.072C327.656 333.094 328.35 332.211 329.012 331.423C329.706 330.634 330.368 330.224 330.967 330.224C331.818 330.224 332.228 330.634 332.228 331.486C332.228 333.063 329.863 332.432 329.863 334.009C329.863 334.545 330.336 334.955 330.967 334.955C332.008 334.955 333.174 333.567 333.174 331.801C333.174 330.382 332.386 329.436 331.125 329.436C329.863 329.436 328.633 330.445 327.719 331.738C326.363 333.567 325.038 335.901 323.399 335.901H323.083C323.809 334.04 324.187 332.621 324.187 331.644C324.187 330.256 323.43 329.436 322.295 329.436C320.655 329.436 319.488 330.855 317.943 334.671L317.407 335.964L318.038 336.216L318.574 334.923C319.867 331.801 321.002 330.224 321.98 330.224C322.61 330.224 322.926 330.603 322.926 331.328C322.926 331.77 322.389 333.283 321.349 335.838L317.88 344.415H319.614ZM341.059 329.436C339.609 329.436 338.19 329.972 336.802 331.044C335.415 332.117 334.311 333.473 333.459 335.081C332.64 336.689 332.23 338.266 332.23 339.811C332.23 341.356 332.64 342.618 333.459 343.532C334.311 344.447 335.446 344.888 336.928 344.888C338.41 344.888 339.829 344.352 341.217 343.28C342.605 342.208 343.708 340.883 344.528 339.275C345.38 337.667 345.79 336.09 345.79 334.545C345.79 331.423 344.055 329.436 341.059 329.436ZM340.839 330.224C342.731 330.224 344.055 331.77 344.055 334.198C344.055 335.491 343.771 336.878 343.204 338.36C342.668 339.843 341.816 341.199 340.712 342.365C339.609 343.532 338.442 344.1 337.149 344.1C335.257 344.1 333.964 342.586 333.964 340.158C333.964 337.604 335.068 334.292 337.244 331.99C338.347 330.824 339.546 330.224 340.839 330.224ZM357.3 338.77L357.048 339.401C356.448 340.852 355.502 341.987 354.209 342.838C352.916 343.69 351.592 344.1 350.173 344.1C347.808 344.1 347.051 342.744 347.051 341.577C347.051 339.937 348.092 338.707 350.141 337.919L355.376 335.869C357.994 334.829 359.034 333.914 359.034 332.432C359.034 330.761 357.489 329.436 354.619 329.436C351.813 329.436 349.227 331.107 347.745 334.671L347.619 334.986L348.249 335.239L348.375 334.923C349.668 331.801 351.624 330.224 354.304 330.224C356.417 330.224 357.142 331.36 357.142 332.59C357.142 333.851 356.417 334.765 354.935 335.365L349.7 337.414C346.578 338.644 345.159 339.748 345.159 341.735C345.159 343.406 346.546 344.888 349.858 344.888C351.34 344.888 352.853 344.447 354.336 343.564C355.849 342.681 356.953 341.388 357.678 339.653L357.93 339.023L357.3 338.77ZM367.395 329.436C365.944 329.436 364.525 329.972 363.137 331.044C361.75 332.117 360.646 333.473 359.795 335.081C358.975 336.689 358.565 338.266 358.565 339.811C358.565 341.356 358.975 342.618 359.795 343.532C360.646 344.447 361.781 344.888 363.264 344.888C364.746 344.888 366.165 344.352 367.552 343.28C368.94 342.208 370.044 340.883 370.864 339.275C371.715 337.667 372.125 336.09 372.125 334.545C372.125 331.423 370.39 329.436 367.395 329.436ZM367.174 330.224C369.066 330.224 370.39 331.77 370.39 334.198C370.39 335.491 370.107 336.878 369.539 338.36C369.003 339.843 368.152 341.199 367.048 342.365C365.944 343.532 364.777 344.1 363.484 344.1C361.592 344.1 360.299 342.586 360.299 340.158C360.299 337.604 361.403 334.292 363.579 331.99C364.683 330.824 365.881 330.224 367.174 330.224ZM380.633 344.415L383.787 336.689H385.174C386.499 336.689 387.161 337.257 387.161 338.36C387.161 338.96 387.003 339.685 386.656 340.599C386.309 341.482 386.152 342.176 386.152 342.681C386.152 344.068 387.098 344.888 388.359 344.888C389.526 344.731 390.251 344.226 390.977 342.744L391.639 341.419L392.333 339.716L392.616 339.023L391.986 338.77L391.702 339.464C391.387 340.253 391.134 340.82 390.945 341.23C390.787 341.64 390.535 342.082 390.251 342.618C389.715 343.658 389.211 344.1 388.675 344.1C388.044 344.1 387.728 343.69 387.728 342.838C387.728 342.334 387.886 341.609 388.233 340.663C388.58 339.716 388.738 338.96 388.738 338.36C388.738 336.153 386.152 336.027 386.152 336.058V335.901C386.688 335.648 387.287 335.049 387.981 334.072C388.675 333.094 389.368 332.211 390.031 331.423C390.724 330.634 391.387 330.224 391.986 330.224C392.837 330.224 393.247 330.634 393.247 331.486C393.247 333.063 390.882 332.432 390.882 334.009C390.882 334.545 391.355 334.955 391.986 334.955C393.026 334.955 394.193 333.567 394.193 331.801C394.193 330.382 393.405 329.436 392.143 329.436C390.882 329.436 389.652 330.445 388.738 331.738C387.382 333.567 386.057 335.901 384.417 335.901H384.102C384.827 334.04 385.206 332.621 385.206 331.644C385.206 330.256 384.449 329.436 383.314 329.436C381.674 329.436 380.507 330.855 378.962 334.671L378.426 335.964L379.056 336.216L379.592 334.923C380.885 331.801 382.021 330.224 382.998 330.224C383.629 330.224 383.944 330.603 383.944 331.328C383.944 331.77 383.408 333.283 382.368 335.838L378.899 344.415H380.633ZM391.829 348.357C391.482 349.208 391.136 349.776 390.726 350.028C390.316 350.281 389.622 350.407 388.644 350.407H388.045V351.037H395.74V350.407H394.478C393.059 350.407 392.87 349.902 393.532 348.357L396.37 341.419C396.118 343.28 397.285 344.888 399.524 344.888C403.466 345.077 407.881 338.707 407.723 333.693C407.723 331.076 406.241 329.436 404.254 329.436C402.393 329.436 400.848 330.603 399.555 332.905H399.398C399.745 332.053 399.808 331.265 399.524 330.54C399.272 329.815 398.704 329.436 397.821 329.436C396.181 329.436 395.014 330.855 393.469 334.671L392.933 335.964L393.564 336.216L394.1 334.923C395.393 331.801 396.528 330.224 397.506 330.224C398.136 330.224 398.452 330.603 398.452 331.328C398.452 331.77 397.916 333.283 396.875 335.838L391.829 348.357ZM398.231 336.847C400.028 332.432 401.889 330.224 403.781 330.224C405.011 330.224 405.957 331.486 405.957 333.851C405.957 336.216 405.232 338.518 403.813 340.757C402.393 342.996 400.911 344.1 399.366 344.1C396.875 344.1 396.433 341.262 397.19 339.433L398.231 336.847ZM408.048 336.216L408.615 334.86L409.34 333.094L410.034 331.707C410.633 330.666 411.106 330.224 411.643 330.224C412.179 330.224 412.431 330.54 412.431 331.171C412.431 331.864 412.116 332.905 411.453 334.261C410.791 335.617 410.129 337.004 409.467 338.487C408.804 339.937 408.489 341.136 408.489 342.05C408.489 343.848 409.719 344.888 411.327 344.888C413.062 344.888 414.323 343.753 415.584 341.735H415.742C415.427 342.838 415.427 344.888 417.319 344.888C418.959 344.888 420.125 343.469 421.671 339.653L421.923 339.023L421.292 338.77L421.04 339.401C419.747 342.523 418.612 344.1 417.634 344.1C417.003 344.1 416.688 343.721 416.688 342.996C416.688 342.555 417.224 341.041 418.265 338.487L421.734 329.909H419.999L416.909 337.477C416.877 337.509 416.846 337.604 416.814 337.698L416.089 339.433L415.301 341.009C414.922 341.735 414.575 342.239 414.291 342.586C413.692 343.217 412.715 343.942 411.8 343.942C410.823 343.942 410.066 343.248 410.066 342.208C410.066 341.325 410.728 339.527 412.021 336.847C413.345 334.135 414.008 332.306 414.008 331.328C414.008 330.098 413.188 329.436 411.958 329.436C411.233 329.436 410.539 329.909 410.066 330.414C409.845 330.634 409.593 331.044 409.309 331.58C409.025 332.117 408.836 332.59 408.678 332.936L407.984 334.608L407.417 335.964L408.048 336.216ZM425.782 337.32H427.832C429.819 337.32 431.08 338.266 431.08 339.653C431.08 341.072 430.513 342.176 429.377 342.965C428.242 343.721 426.886 344.1 425.278 344.1C422.597 344.1 421.778 342.555 421.778 342.05C421.778 341.293 423.67 341.23 423.67 339.843C423.67 339.307 423.197 338.897 422.566 338.897C421.525 338.897 420.674 339.78 420.674 341.419C420.674 342.271 421.084 343.091 421.872 343.816C422.661 344.541 423.859 344.888 425.436 344.888C427.706 344.888 429.567 344.321 430.986 343.185C432.405 342.019 433.13 340.82 433.13 339.527C433.13 338.014 431.932 337.162 430.134 336.91L430.197 336.752C431.459 336.531 432.562 336.058 433.477 335.302C434.392 334.513 434.865 333.599 434.865 332.527C434.865 330.792 433.414 329.436 430.513 329.436C428.841 329.436 427.328 329.972 426.035 331.013C424.742 332.053 423.827 333.283 423.291 334.671L423.165 334.986L423.796 335.239L423.922 334.923C424.395 333.725 425.215 332.653 426.35 331.675C427.517 330.697 428.841 330.224 430.355 330.224C432.089 330.224 433.193 331.076 433.193 332.495C433.193 334.986 431.049 336.531 428.179 336.531H426.129L425.782 337.32ZM434.722 336.216L435.289 334.86L436.015 333.094L436.708 331.707C437.307 330.666 437.781 330.224 438.317 330.224C438.853 330.224 439.105 330.54 439.105 331.171C439.105 331.864 438.79 332.905 438.127 334.261C437.465 335.617 436.803 337.004 436.141 338.487C435.478 339.937 435.163 341.136 435.163 342.05C435.163 343.848 436.393 344.888 438.001 344.888C439.736 344.888 440.997 343.753 442.258 341.735H442.416C442.101 342.838 442.101 344.888 443.993 344.888C445.633 344.888 446.799 343.469 448.345 339.653L448.597 339.023L447.966 338.77L447.714 339.401C446.421 342.523 445.286 344.1 444.308 344.1C443.678 344.1 443.362 343.721 443.362 342.996C443.362 342.555 443.898 341.041 444.939 338.487L448.408 329.909H446.673L443.583 337.477C443.551 337.509 443.52 337.604 443.488 337.698L442.763 339.433L441.975 341.009C441.596 341.735 441.249 342.239 440.966 342.586C440.366 343.217 439.389 343.942 438.474 343.942C437.497 343.942 436.74 343.248 436.74 342.208C436.74 341.325 437.402 339.527 438.695 336.847C440.019 334.135 440.682 332.306 440.682 331.328C440.682 330.098 439.862 329.436 438.632 329.436C437.907 329.436 437.213 329.909 436.74 330.414C436.519 330.634 436.267 331.044 435.983 331.58C435.699 332.117 435.51 332.59 435.352 332.936L434.659 334.608L434.091 335.964L434.722 336.216ZM457.439 330.224C459.205 330.224 459.962 331.234 459.962 331.959C459.962 332.716 458.07 332.779 458.07 334.166C458.07 334.702 458.543 335.112 459.173 335.112C460.214 335.112 461.066 334.229 461.066 332.59C461.066 330.95 459.899 329.436 457.597 329.436C455.988 329.436 454.475 329.972 452.993 331.044C451.511 332.117 450.375 333.409 449.524 334.955C448.704 336.468 448.294 337.951 448.294 339.37C448.294 342.775 450.091 344.888 453.497 344.888C455.169 344.888 456.651 344.352 457.944 343.311C459.237 342.271 460.183 341.041 460.719 339.653L460.971 339.023L460.34 338.77L460.088 339.401C459.615 340.599 458.795 341.672 457.628 342.649C456.493 343.627 455.169 344.1 453.655 344.1C451.384 344.1 450.028 342.334 450.028 339.843C450.028 337.477 450.785 335.27 452.33 333.252C453.876 331.234 455.579 330.224 457.439 330.224ZM475.677 329.594H475.078L473.028 333.22H472.871C473.028 332.18 472.902 331.297 472.492 330.571C472.082 329.815 471.294 329.436 470.064 329.436C468.803 329.436 467.447 330.004 466.028 331.107C464.609 332.211 463.41 333.693 462.401 335.554C461.424 337.414 460.919 339.243 460.919 341.104C460.919 343.532 462.243 344.888 464.23 344.888C465.902 344.888 467.636 343.69 469.402 341.262H469.56C469.181 342.113 469.118 342.933 469.402 343.721C469.686 344.51 470.253 344.888 471.136 344.888C472.776 344.888 473.943 343.469 475.488 339.653L475.74 339.023L475.11 338.77L474.857 339.401C473.564 342.523 472.429 344.1 471.452 344.1C470.821 344.1 470.506 343.721 470.506 342.996C470.506 342.555 471.042 341.041 472.082 338.487L472.965 336.311L475.677 329.594ZM470.758 337.477C470.001 339.338 468.897 341.293 467.1 342.901C466.217 343.69 465.365 344.1 464.546 344.1C463.41 344.1 462.653 343.091 462.653 341.419C462.653 338.676 463.757 335.712 465.239 333.693C466.753 331.644 468.677 330.224 470.222 330.224C472.618 330.256 472.618 333.063 471.799 334.892L470.758 337.477Z" fill="#FF0000"/>
<rect x="88" y="18" width="200" height="50" rx="20" fill="white"/>
<path d="M136.019 44.8098C136.019 43.3424 136.223 41.9565 136.63 40.6522C137.038 39.3206 137.649 38.1657 138.465 37.1875C139.307 36.2092 140.353 35.4348 141.603 34.8641C142.853 34.2935 144.321 34.0081 146.005 34.0081C147.473 34.0081 148.764 34.2255 149.878 34.6603C151.019 35.0679 151.97 35.6386 152.731 36.3723C153.492 37.0788 154.076 37.894 154.484 38.8179C154.891 39.7418 155.122 40.7201 155.177 41.7527H151.508C151.291 40.1223 150.72 38.8315 149.796 37.8804C148.899 36.9293 147.636 36.4538 146.005 36.4538C145.136 36.4538 144.321 36.6168 143.56 36.9429C142.799 37.2418 142.133 37.731 141.563 38.4103C140.992 39.0897 140.53 39.9592 140.177 41.019C139.851 42.0788 139.688 43.3424 139.688 44.8098C139.688 46.2772 139.851 47.5408 140.177 48.6005C140.53 49.6603 140.992 50.5299 141.563 51.2092C142.133 51.8886 142.799 52.3913 143.56 52.7174C144.321 53.0163 145.136 53.1658 146.005 53.1658C147.636 53.1658 148.899 52.6902 149.796 51.7391C150.72 50.788 151.291 49.4973 151.508 47.8668H155.177C155.122 48.8723 154.891 49.8505 154.484 50.8016C154.076 51.7255 153.492 52.5543 152.731 53.288C151.97 53.9946 151.019 54.5652 149.878 55C148.764 55.4076 147.473 55.6114 146.005 55.6114C144.321 55.6114 142.853 55.3261 141.603 54.7554C140.353 54.1848 139.307 53.4103 138.465 52.4321C137.649 51.4538 137.038 50.3125 136.63 49.0081C136.223 47.6766 136.019 46.2772 136.019 44.8098ZM157.603 34.6195H161.068V45.2174L171.054 34.6195H174.927L167.06 42.8125L175.334 55H171.258L164.818 45.1766L161.068 49.0897V55H157.603V34.6195ZM175.148 44.8098C175.148 43.3424 175.352 41.9565 175.759 40.6522C176.167 39.3206 176.778 38.1657 177.594 37.1875C178.436 36.2092 179.482 35.4348 180.732 34.8641C181.982 34.2935 183.45 34.0081 185.134 34.0081C186.819 34.0081 188.287 34.2935 189.537 34.8641C190.787 35.4348 191.819 36.2092 192.634 37.1875C193.477 38.1657 194.102 39.3206 194.509 40.6522C194.917 41.9565 195.121 43.3424 195.121 44.8098C195.121 46.2772 194.917 47.6766 194.509 49.0081C194.102 50.3125 193.477 51.4538 192.634 52.4321C191.819 53.4103 190.787 54.1848 189.537 54.7554C188.287 55.3261 186.819 55.6114 185.134 55.6114C183.45 55.6114 181.982 55.3261 180.732 54.7554C179.482 54.1848 178.436 53.4103 177.594 52.4321C176.778 51.4538 176.167 50.3125 175.759 49.0081C175.352 47.6766 175.148 46.2772 175.148 44.8098ZM178.816 44.8098C178.816 46.2772 178.979 47.5408 179.306 48.6005C179.659 49.6603 180.121 50.5299 180.691 51.2092C181.262 51.8886 181.928 52.3913 182.689 52.7174C183.45 53.0163 184.265 53.1658 185.134 53.1658C186.004 53.1658 186.819 53.0163 187.58 52.7174C188.341 52.3913 189.007 51.8886 189.577 51.2092C190.148 50.5299 190.596 49.6603 190.922 48.6005C191.276 47.5408 191.452 46.2772 191.452 44.8098C191.452 43.3424 191.276 42.0788 190.922 41.019C190.596 39.9592 190.148 39.0897 189.577 38.4103C189.007 37.731 188.341 37.2418 187.58 36.9429C186.819 36.6168 186.004 36.4538 185.134 36.4538C184.265 36.4538 183.45 36.6168 182.689 36.9429C181.928 37.2418 181.262 37.731 180.691 38.4103C180.121 39.0897 179.659 39.9592 179.306 41.019C178.979 42.0788 178.816 43.3424 178.816 44.8098ZM197.568 61.1141V34.6195H201.033V38.288C201.467 37.5 202.011 36.7799 202.663 36.1277C203.234 35.5842 203.954 35.0951 204.823 34.6603C205.693 34.2255 206.739 34.0081 207.962 34.0081C209.592 34.0081 210.992 34.307 212.16 34.9049C213.356 35.4755 214.334 36.2636 215.095 37.269C215.856 38.2744 216.413 39.4293 216.766 40.7337C217.147 42.0109 217.337 43.3696 217.337 44.8098C217.337 46.2228 217.147 47.5815 216.766 48.8859C216.413 50.1902 215.856 51.3451 215.095 52.3505C214.334 53.356 213.356 54.1576 212.16 54.7554C210.992 55.3261 209.592 55.6114 207.962 55.6114C206.739 55.6114 205.693 55.394 204.823 54.9592C203.954 54.4973 203.234 53.9946 202.663 53.4511C202.011 52.8261 201.467 52.1196 201.033 51.3315V61.1141H197.568ZM201.033 44.8098C201.033 46.1956 201.196 47.4049 201.522 48.4375C201.875 49.4701 202.337 50.3397 202.908 51.0462C203.478 51.7527 204.144 52.2826 204.905 52.6359C205.666 52.9891 206.481 53.1658 207.351 53.1658C208.22 53.1658 209.035 53.0163 209.796 52.7174C210.557 52.3913 211.223 51.8886 211.794 51.2092C212.364 50.5299 212.813 49.6603 213.139 48.6005C213.492 47.5408 213.669 46.2772 213.669 44.8098C213.669 43.3424 213.492 42.0788 213.139 41.019C212.813 39.9592 212.364 39.0897 211.794 38.4103C211.223 37.731 210.557 37.2418 209.796 36.9429C209.035 36.6168 208.22 36.4538 207.351 36.4538C206.481 36.4538 205.666 36.6304 204.905 36.9837C204.144 37.3369 203.478 37.8668 202.908 38.5733C202.337 39.2799 201.875 40.1494 201.522 41.182C201.196 42.2147 201.033 43.4239 201.033 44.8098ZM219.372 44.8098C219.372 43.3424 219.576 41.9565 219.983 40.6522C220.391 39.3206 221.002 38.1657 221.818 37.1875C222.66 36.2092 223.706 35.4348 224.956 34.8641C226.206 34.2935 227.674 34.0081 229.358 34.0081C231.043 34.0081 232.511 34.2935 233.761 34.8641C235.011 35.4348 236.043 36.2092 236.858 37.1875C237.701 38.1657 238.326 39.3206 238.733 40.6522C239.141 41.9565 239.345 43.3424 239.345 44.8098C239.345 46.2772 239.141 47.6766 238.733 49.0081C238.326 50.3125 237.701 51.4538 236.858 52.4321C236.043 53.4103 235.011 54.1848 233.761 54.7554C232.511 55.3261 231.043 55.6114 229.358 55.6114C227.674 55.6114 226.206 55.3261 224.956 54.7554C223.706 54.1848 222.66 53.4103 221.818 52.4321C221.002 51.4538 220.391 50.3125 219.983 49.0081C219.576 47.6766 219.372 46.2772 219.372 44.8098ZM223.04 44.8098C223.04 46.2772 223.203 47.5408 223.53 48.6005C223.883 49.6603 224.345 50.5299 224.915 51.2092C225.486 51.8886 226.152 52.3913 226.913 52.7174C227.674 53.0163 228.489 53.1658 229.358 53.1658C230.228 53.1658 231.043 53.0163 231.804 52.7174C232.565 52.3913 233.231 51.8886 233.801 51.2092C234.372 50.5299 234.82 49.6603 235.146 48.6005C235.5 47.5408 235.676 46.2772 235.676 44.8098C235.676 43.3424 235.5 42.0788 235.146 41.019C234.82 39.9592 234.372 39.0897 233.801 38.4103C233.231 37.731 232.565 37.2418 231.804 36.9429C231.043 36.6168 230.228 36.4538 229.358 36.4538C228.489 36.4538 227.674 36.6168 226.913 36.9429C226.152 37.2418 225.486 37.731 224.915 38.4103C224.345 39.0897 223.883 39.9592 223.53 41.019C223.203 42.0788 223.04 43.3424 223.04 44.8098Z" fill="black"/>
<path d="M92.6875 566.867C92.9049 568.497 93.462 569.788 94.3587 570.739C95.2826 571.69 96.5598 572.166 98.1902 572.166C99.8478 572.166 101.274 571.582 102.47 570.413C103.666 569.245 104.332 567.315 104.467 564.625H94.6033V562.179H104.427C104.182 559.815 103.462 558.103 102.266 557.043C101.098 555.984 99.7391 555.454 98.1902 555.454C96.5598 555.454 95.2826 555.929 94.3587 556.88C93.462 557.832 92.9049 559.122 92.6875 560.753H89.019C89.0734 559.72 89.3043 558.742 89.712 557.818C90.1196 556.894 90.7038 556.079 91.4647 555.372C92.2255 554.639 93.163 554.068 94.2772 553.66C95.4185 553.226 96.7228 553.008 98.1902 553.008C99.875 553.008 101.342 553.293 102.592 553.864C103.842 554.435 104.875 555.209 105.69 556.187C106.533 557.166 107.158 558.321 107.565 559.652C107.973 560.957 108.177 562.342 108.177 563.81C108.177 565.277 107.973 566.677 107.565 568.008C107.158 569.312 106.533 570.454 105.69 571.432C104.875 572.41 103.842 573.185 102.592 573.755C101.342 574.326 99.875 574.611 98.1902 574.611C96.7228 574.611 95.4185 574.408 94.2772 574C93.163 573.565 92.2255 572.995 91.4647 572.288C90.7038 571.554 90.1196 570.726 89.712 569.802C89.3043 568.851 89.0734 567.872 89.019 566.867H92.6875ZM110.603 553.62H114.068V564.217L124.054 553.62H127.927L120.06 561.812L128.334 574H124.258L117.818 564.177L114.068 568.09V574H110.603V553.62ZM128.148 563.81C128.148 562.342 128.352 560.957 128.759 559.652C129.167 558.321 129.778 557.166 130.594 556.187C131.436 555.209 132.482 554.435 133.732 553.864C134.982 553.293 136.45 553.008 138.134 553.008C139.602 553.008 140.892 553.226 142.007 553.66C143.148 554.068 144.099 554.639 144.86 555.372C145.621 556.079 146.205 556.894 146.613 557.818C147.02 558.742 147.251 559.72 147.306 560.753H143.637C143.42 559.122 142.849 557.832 141.925 556.88C141.028 555.929 139.765 555.454 138.134 555.454C137.265 555.454 136.45 555.617 135.689 555.943C134.928 556.242 134.262 556.731 133.691 557.41C133.121 558.09 132.659 558.959 132.306 560.019C131.979 561.079 131.816 562.342 131.816 563.81C131.816 565.277 131.979 566.541 132.306 567.601C132.659 568.66 133.121 569.53 133.691 570.209C134.262 570.889 134.928 571.391 135.689 571.717C136.45 572.016 137.265 572.166 138.134 572.166C139.765 572.166 141.028 571.69 141.925 570.739C142.849 569.788 143.42 568.497 143.637 566.867H147.306C147.251 567.872 147.02 568.851 146.613 569.802C146.205 570.726 145.621 571.554 144.86 572.288C144.099 572.995 143.148 573.565 142.007 574C140.892 574.408 139.602 574.611 138.134 574.611C136.45 574.611 134.982 574.326 133.732 573.755C132.482 573.185 131.436 572.41 130.594 571.432C129.778 570.454 129.167 569.312 128.759 568.008C128.352 566.677 128.148 565.277 128.148 563.81ZM149.732 574V553.62H167.259V574H163.795V556.269H153.197V574H149.732ZM168.89 574V571.147C168.944 571.174 169.012 571.187 169.094 571.187C169.148 571.187 169.216 571.201 169.297 571.228C169.379 571.228 169.474 571.228 169.583 571.228C170.235 571.228 170.819 571.12 171.335 570.902C171.879 570.658 172.327 570.155 172.68 569.394C173.034 568.633 173.305 567.533 173.496 566.092C173.686 564.652 173.781 562.736 173.781 560.345V553.62H188.659V574H185.194V556.269H177.042V560.753C177.042 563.198 176.92 565.277 176.675 566.989C176.43 568.701 176.05 570.087 175.534 571.147C175.017 572.207 174.338 572.981 173.496 573.47C172.68 573.959 171.689 574.204 170.52 574.204C170.276 574.204 170.045 574.19 169.827 574.163C169.637 574.163 169.474 574.149 169.338 574.122C169.175 574.068 169.026 574.027 168.89 574ZM191.12 563.81C191.12 562.342 191.324 560.957 191.732 559.652C192.139 558.321 192.751 557.166 193.566 556.187C194.381 555.209 195.4 554.435 196.623 553.864C197.846 553.293 199.273 553.008 200.903 553.008C202.588 553.008 204.014 553.307 205.183 553.905C206.379 554.476 207.357 555.236 208.118 556.187C208.879 557.111 209.422 558.171 209.748 559.367C210.101 560.562 210.278 561.772 210.278 562.995V564.625H194.789C194.925 567.288 195.59 569.217 196.786 570.413C198.009 571.582 199.449 572.166 201.107 572.166C202.438 572.166 203.607 571.812 204.612 571.106C205.645 570.399 206.311 569.326 206.609 567.886H210.074C209.667 569.842 208.702 571.459 207.18 572.736C205.686 573.986 203.661 574.611 201.107 574.611C199.422 574.611 197.955 574.326 196.705 573.755C195.455 573.185 194.408 572.41 193.566 571.432C192.751 570.454 192.139 569.312 191.732 568.008C191.324 566.677 191.12 565.277 191.12 563.81ZM206.609 562.179C206.609 559.842 206.039 558.144 204.898 557.084C203.783 555.997 202.452 555.454 200.903 555.454C199.327 555.454 197.982 555.984 196.868 557.043C195.753 558.103 195.088 559.815 194.87 562.179H206.609ZM212.705 574V553.62H216.169V569.516L227.175 553.62H230.639V574H227.175V558.103L216.169 574H212.705ZM218.411 547.505C218.411 548.321 218.656 549 219.145 549.543C219.634 550.087 220.476 550.359 221.672 550.359C222.868 550.359 223.71 550.087 224.199 549.543C224.688 549 224.933 548.321 224.933 547.505H228.194C228.194 547.967 228.112 548.484 227.949 549.054C227.786 549.625 227.46 550.155 226.971 550.644C226.509 551.133 225.857 551.554 225.014 551.908C224.172 552.234 223.058 552.397 221.672 552.397C220.286 552.397 219.172 552.234 218.33 551.908C217.487 551.554 216.821 551.133 216.332 550.644C215.87 550.155 215.558 549.625 215.395 549.054C215.232 548.484 215.15 547.967 215.15 547.505H218.411ZM236.948 553.62V562.179H247.546V553.62H251.01V574H247.546V564.625H236.948V574H233.483V553.62H236.948ZM253.456 563.81C253.456 562.342 253.66 560.957 254.067 559.652C254.475 558.321 255.086 557.166 255.902 556.187C256.717 555.209 257.736 554.435 258.959 553.864C260.181 553.293 261.608 553.008 263.239 553.008C264.923 553.008 266.35 553.307 267.518 553.905C268.714 554.476 269.692 555.236 270.453 556.187C271.214 557.111 271.758 558.171 272.084 559.367C272.437 560.562 272.614 561.772 272.614 562.995V564.625H257.124C257.26 567.288 257.926 569.217 259.122 570.413C260.344 571.582 261.785 572.166 263.442 572.166C264.774 572.166 265.942 571.812 266.948 571.106C267.98 570.399 268.646 569.326 268.945 567.886H272.41C272.002 569.842 271.037 571.459 269.516 572.736C268.021 573.986 265.997 574.611 263.442 574.611C261.758 574.611 260.29 574.326 259.04 573.755C257.79 573.185 256.744 572.41 255.902 571.432C255.086 570.454 254.475 569.312 254.067 568.008C253.66 566.677 253.456 565.277 253.456 563.81ZM268.945 562.179C268.945 559.842 268.374 558.144 267.233 557.084C266.119 555.997 264.787 555.454 263.239 555.454C261.662 555.454 260.317 555.984 259.203 557.043C258.089 558.103 257.423 559.815 257.206 562.179H268.945ZM275.04 580.114V553.62H278.505V557.288C278.94 556.5 279.483 555.78 280.135 555.128C280.706 554.584 281.426 554.095 282.296 553.66C283.165 553.226 284.211 553.008 285.434 553.008C287.065 553.008 288.464 553.307 289.632 553.905C290.828 554.476 291.806 555.264 292.567 556.269C293.328 557.274 293.885 558.429 294.238 559.734C294.619 561.011 294.809 562.37 294.809 563.81C294.809 565.223 294.619 566.582 294.238 567.886C293.885 569.19 293.328 570.345 292.567 571.351C291.806 572.356 290.828 573.158 289.632 573.755C288.464 574.326 287.065 574.611 285.434 574.611C284.211 574.611 283.165 574.394 282.296 573.959C281.426 573.497 280.706 572.995 280.135 572.451C279.483 571.826 278.94 571.12 278.505 570.332V580.114H275.04ZM278.505 563.81C278.505 565.196 278.668 566.405 278.994 567.437C279.347 568.47 279.809 569.34 280.38 570.046C280.95 570.753 281.616 571.283 282.377 571.636C283.138 571.989 283.953 572.166 284.823 572.166C285.692 572.166 286.507 572.016 287.268 571.717C288.029 571.391 288.695 570.889 289.266 570.209C289.836 569.53 290.285 568.66 290.611 567.601C290.964 566.541 291.141 565.277 291.141 563.81C291.141 562.342 290.964 561.079 290.611 560.019C290.285 558.959 289.836 558.09 289.266 557.41C288.695 556.731 288.029 556.242 287.268 555.943C286.507 555.617 285.692 555.454 284.823 555.454C283.953 555.454 283.138 555.63 282.377 555.984C281.616 556.337 280.95 556.867 280.38 557.573C279.809 558.28 279.347 559.149 278.994 560.182C278.668 561.215 278.505 562.424 278.505 563.81ZM88.4076 616.114V607.351H89.2228C89.9294 607.351 90.5544 607.12 91.0978 606.658C91.6685 606.196 92.144 605.448 92.5245 604.416C92.9049 603.383 93.1902 602.038 93.3804 600.38C93.5978 598.723 93.7065 596.698 93.7065 594.307V589.62H108.584V607.351H112.253V616.114H108.788V610H91.8723V616.114H88.4076ZM105.12 607.351V592.269H96.9674V594.715C96.9674 597.731 96.7636 600.367 96.356 602.622C95.9756 604.851 95.2283 606.427 94.1141 607.351H105.12ZM113.281 610V607.147C113.336 607.174 113.404 607.187 113.485 607.187C113.539 607.187 113.607 607.201 113.689 607.228C113.77 607.228 113.866 607.228 113.974 607.228C114.626 607.228 115.211 607.12 115.727 606.902C116.27 606.658 116.719 606.155 117.072 605.394C117.425 604.633 117.697 603.533 117.887 602.092C118.078 600.652 118.173 598.736 118.173 596.345V589.62H133.05V610H129.586V592.269H121.434V596.753C121.434 599.198 121.311 601.277 121.067 602.989C120.822 604.701 120.442 606.087 119.925 607.147C119.409 608.207 118.73 608.981 117.887 609.47C117.072 609.959 116.08 610.204 114.912 610.204C114.667 610.204 114.436 610.19 114.219 610.163C114.029 610.163 113.866 610.149 113.73 610.122C113.567 610.068 113.417 610.027 113.281 610ZM140.933 601.399C139.52 601.101 138.324 600.53 137.346 599.687C136.395 598.818 135.92 597.5 135.92 595.734C135.92 594.565 136.137 593.587 136.572 592.799C137.034 592.011 137.632 591.386 138.365 590.924C139.099 590.462 139.941 590.136 140.892 589.946C141.871 589.728 142.862 589.62 143.868 589.62H153.243V610H149.778V601.644H144.479L139.18 610H135.308L140.933 601.399ZM139.588 595.734C139.588 596.386 139.71 596.929 139.955 597.364C140.199 597.772 140.526 598.098 140.933 598.342C141.341 598.587 141.816 598.764 142.36 598.872C142.903 598.954 143.474 598.995 144.072 598.995H149.778V592.269H144.072C143.474 592.269 142.903 592.323 142.36 592.432C141.816 592.514 141.341 592.69 140.933 592.962C140.526 593.207 140.199 593.56 139.955 594.022C139.71 594.457 139.588 595.027 139.588 595.734ZM172.536 589.09L173.84 590.394L168.949 596.753L173.84 603.111L172.536 604.416L164.873 596.753L172.536 589.09ZM179.057 589.09L180.362 590.394L175.47 596.753L180.362 603.111L179.057 604.416L171.394 596.753L179.057 589.09ZM193.822 589.62C194.801 589.62 195.725 589.701 196.594 589.864C197.491 590.027 198.265 590.299 198.917 590.679C199.597 591.06 200.14 591.562 200.548 592.187C200.956 592.812 201.159 593.587 201.159 594.511C201.159 595.462 200.956 596.236 200.548 596.834C200.14 597.432 199.706 597.894 199.244 598.22C198.673 598.573 198.021 598.832 197.287 598.995V599.198C198.157 599.361 198.945 599.647 199.651 600.054C200.222 600.38 200.752 600.87 201.241 601.522C201.73 602.147 201.975 603.003 201.975 604.09C201.975 605.204 201.757 606.141 201.322 606.902C200.915 607.663 200.344 608.274 199.61 608.736C198.877 609.198 198.021 609.524 197.042 609.715C196.091 609.905 195.086 610 194.026 610H184.244V589.62H193.822ZM193.822 607.351C194.447 607.351 195.032 607.31 195.575 607.228C196.119 607.12 196.594 606.943 197.002 606.698C197.409 606.427 197.722 606.073 197.939 605.639C198.184 605.177 198.306 604.592 198.306 603.886C198.306 603.234 198.184 602.704 197.939 602.296C197.722 601.861 197.409 601.522 197.002 601.277C196.594 601.033 196.119 600.87 195.575 600.788C195.032 600.679 194.447 600.625 193.822 600.625H187.708V607.351H193.822ZM193.211 598.179C194.542 598.179 195.616 597.962 196.431 597.527C197.273 597.065 197.695 596.264 197.695 595.122C197.695 594.497 197.572 594.008 197.328 593.655C197.11 593.274 196.811 592.989 196.431 592.799C196.051 592.582 195.616 592.446 195.127 592.391C194.638 592.31 194.135 592.269 193.619 592.269H187.708V598.179H193.211ZM203.619 599.81C203.619 598.342 203.823 596.957 204.231 595.652C204.638 594.321 205.25 593.166 206.065 592.187C206.88 591.209 207.899 590.435 209.122 589.864C210.345 589.293 211.771 589.008 213.402 589.008C215.087 589.008 216.513 589.307 217.682 589.905C218.877 590.476 219.856 591.236 220.617 592.187C221.377 593.111 221.921 594.171 222.247 595.367C222.6 596.562 222.777 597.772 222.777 598.995V600.625H207.288C207.424 603.288 208.089 605.217 209.285 606.413C210.508 607.582 211.948 608.166 213.606 608.166C214.937 608.166 216.106 607.812 217.111 607.106C218.144 606.399 218.81 605.326 219.108 603.886H222.573C222.166 605.842 221.201 607.459 219.679 608.736C218.185 609.986 216.16 610.611 213.606 610.611C211.921 610.611 210.454 610.326 209.204 609.755C207.954 609.185 206.907 608.41 206.065 607.432C205.25 606.454 204.638 605.312 204.231 604.008C203.823 602.677 203.619 601.277 203.619 599.81ZM219.108 598.179C219.108 595.842 218.538 594.144 217.396 593.084C216.282 591.997 214.951 591.454 213.402 591.454C211.826 591.454 210.481 591.984 209.367 593.043C208.252 594.103 207.587 595.815 207.369 598.179H219.108ZM225.203 616.114V589.62H228.668V593.288C229.103 592.5 229.646 591.78 230.299 591.128C230.869 590.584 231.589 590.095 232.459 589.66C233.328 589.226 234.375 589.008 235.598 589.008C237.228 589.008 238.627 589.307 239.796 589.905C240.992 590.476 241.97 591.264 242.731 592.269C243.492 593.274 244.049 594.429 244.402 595.734C244.782 597.011 244.973 598.37 244.973 599.81C244.973 601.223 244.782 602.582 244.402 603.886C244.049 605.19 243.492 606.345 242.731 607.351C241.97 608.356 240.992 609.158 239.796 609.755C238.627 610.326 237.228 610.611 235.598 610.611C234.375 610.611 233.328 610.394 232.459 609.959C231.589 609.497 230.869 608.995 230.299 608.451C229.646 607.826 229.103 607.12 228.668 606.332V616.114H225.203ZM228.668 599.81C228.668 601.196 228.831 602.405 229.157 603.437C229.511 604.47 229.973 605.34 230.543 606.046C231.114 606.753 231.78 607.283 232.54 607.636C233.301 607.989 234.117 608.166 234.986 608.166C235.856 608.166 236.671 608.016 237.432 607.717C238.193 607.391 238.858 606.889 239.429 606.209C240 605.53 240.448 604.66 240.774 603.601C241.127 602.541 241.304 601.277 241.304 599.81C241.304 598.342 241.127 597.079 240.774 596.019C240.448 594.959 240 594.09 239.429 593.41C238.858 592.731 238.193 592.242 237.432 591.943C236.671 591.617 235.856 591.454 234.986 591.454C234.117 591.454 233.301 591.63 232.54 591.984C231.78 592.337 231.114 592.867 230.543 593.573C229.973 594.28 229.511 595.149 229.157 596.182C228.831 597.215 228.668 598.424 228.668 599.81ZM247.007 599.81C247.007 598.342 247.211 596.957 247.619 595.652C248.026 594.321 248.638 593.166 249.453 592.187C250.295 591.209 251.342 590.435 252.592 589.864C253.842 589.293 255.309 589.008 256.994 589.008C258.461 589.008 259.752 589.226 260.866 589.66C262.007 590.068 262.958 590.639 263.719 591.372C264.48 592.079 265.064 592.894 265.472 593.818C265.88 594.742 266.111 595.72 266.165 596.753H262.497C262.279 595.122 261.708 593.832 260.785 592.88C259.888 591.929 258.624 591.454 256.994 591.454C256.124 591.454 255.309 591.617 254.548 591.943C253.787 592.242 253.122 592.731 252.551 593.41C251.98 594.09 251.518 594.959 251.165 596.019C250.839 597.079 250.676 598.342 250.676 599.81C250.676 601.277 250.839 602.541 251.165 603.601C251.518 604.66 251.98 605.53 252.551 606.209C253.122 606.889 253.787 607.391 254.548 607.717C255.309 608.016 256.124 608.166 256.994 608.166C258.624 608.166 259.888 607.69 260.785 606.739C261.708 605.788 262.279 604.497 262.497 602.867H266.165C266.111 603.872 265.88 604.851 265.472 605.802C265.064 606.726 264.48 607.554 263.719 608.288C262.958 608.995 262.007 609.565 260.866 610C259.752 610.408 258.461 610.611 256.994 610.611C255.309 610.611 253.842 610.326 252.592 609.755C251.342 609.185 250.295 608.41 249.453 607.432C248.638 606.454 248.026 605.312 247.619 604.008C247.211 602.677 247.007 601.277 247.007 599.81ZM266.343 592.269V589.62H284.89V592.269H277.349V610H273.884V592.269H266.343ZM286.942 589.62H290.407V600.217L300.393 589.62H304.265L296.398 597.812L304.673 610H300.597L294.157 600.177L290.407 604.09V610H286.942V589.62ZM306.725 610V589.62H310.19V605.516L321.195 589.62H324.66V610H321.195V594.103L310.19 610H306.725ZM344.012 596.753L336.349 604.416L335.045 603.111L339.936 596.753L335.045 590.394L336.349 589.09L344.012 596.753ZM337.49 596.753L329.827 604.416L328.523 603.111L333.414 596.753L328.523 590.394L329.827 589.09L337.49 596.753Z" fill="white"/>
</svg>
