<svg width="276" height="56" viewBox="0 0 276 56" fill="none" xmlns="http://www.w3.org/2000/svg">
<path d="M3.59863 6.35378V10.4218C3.59863 11.8404 3.89069 12.873 4.47482 13.5197C5.05895 14.1665 6.01858 14.4898 7.35372 14.4898C8.45939 14.4898 9.35644 14.3021 10.0449 13.9265C10.7542 13.5302 11.1088 12.9356 11.1088 12.1429V6.35378H13.7687V22H11.1088V14.6463C10.8168 15.0009 10.4517 15.3138 10.0136 15.585C9.63807 15.8145 9.16869 16.0336 8.60542 16.2422C8.04216 16.4299 7.36416 16.5238 6.57141 16.5238C4.92334 16.5238 3.56734 16.0857 2.5034 15.2095C1.46031 14.3125 0.938773 12.9252 0.938773 11.0476V6.35378H3.59863ZM15.3211 8.38779V6.35378H29.5591V8.38779H23.77V22H21.1102V8.38779H15.3211ZM29.7217 14.1769C29.7217 13.0504 29.8782 11.9864 30.1911 10.9851C30.504 9.96284 30.9734 9.07622 31.5993 8.3252C32.246 7.57418 33.0491 6.97963 34.0088 6.54153C34.9684 6.10344 36.0949 5.88439 37.3884 5.88439C38.6818 5.88439 39.8083 6.10344 40.7679 6.54153C41.7276 6.97963 42.5203 7.57418 43.1462 8.3252C43.7929 9.07622 44.2727 9.96284 44.5856 10.9851C44.8985 11.9864 45.055 13.0504 45.055 14.1769C45.055 15.3034 44.8985 16.3778 44.5856 17.4C44.2727 18.4014 43.7929 19.2776 43.1462 20.0286C42.5203 20.7796 41.7276 21.3742 40.7679 21.8122C39.8083 22.2503 38.6818 22.4694 37.3884 22.4694C36.0949 22.4694 34.9684 22.2503 34.0088 21.8122C33.0491 21.3742 32.246 20.7796 31.5993 20.0286C30.9734 19.2776 30.504 18.4014 30.1911 17.4C29.8782 16.3778 29.7217 15.3034 29.7217 14.1769ZM32.538 14.1769C32.538 15.3034 32.6632 16.2735 32.9135 17.0871C33.1847 17.9007 33.5394 18.5683 33.9775 19.0898C34.4156 19.6113 34.9267 19.9973 35.5108 20.2476C36.0949 20.4771 36.7208 20.5918 37.3884 20.5918C38.0559 20.5918 38.6818 20.4771 39.2659 20.2476C39.85 19.9973 40.3611 19.6113 40.7992 19.0898C41.2373 18.5683 41.5815 17.9007 41.8319 17.0871C42.1031 16.2735 42.2387 15.3034 42.2387 14.1769C42.2387 13.0504 42.1031 12.0803 41.8319 11.2667C41.5815 10.4531 41.2373 9.78552 40.7992 9.26398C40.3611 8.74243 39.85 8.36692 39.2659 8.13745C38.6818 7.88711 38.0559 7.76194 37.3884 7.76194C36.7208 7.76194 36.0949 7.88711 35.5108 8.13745C34.9267 8.36692 34.4156 8.74243 33.9775 9.26398C33.5394 9.78552 33.1847 10.4531 32.9135 11.2667C32.6632 12.0803 32.538 13.0504 32.538 14.1769ZM46.6209 13.2381C46.6209 11.5483 46.7669 10.0046 47.0589 8.60683C47.3719 7.18824 47.8725 5.96784 48.561 4.94562C49.2494 3.90254 50.1569 3.09936 51.2834 2.5361C52.4308 1.95197 53.8494 1.65991 55.5392 1.65991H57.2603C57.9696 1.65991 58.512 1.5556 58.8875 1.34699C59.263 1.13837 59.4508 0.721137 59.4508 0.0952875H61.0154C61.0154 0.449936 60.9841 0.867168 60.9215 1.34699C60.8798 1.80594 60.7337 2.24404 60.4834 2.66127C60.2331 3.0785 59.8576 3.43315 59.3569 3.72521C58.8562 4.01727 58.1573 4.16331 57.2603 4.16331H54.6004C53.7868 4.16331 53.0358 4.28848 52.3474 4.53882C51.6589 4.78916 51.0539 5.18553 50.5324 5.72793C50.0109 6.27033 49.5832 6.97963 49.2494 7.85581C48.9365 8.732 48.7383 9.79595 48.6549 11.0476H48.8113C49.0617 10.1923 49.4372 9.43087 49.9378 8.7633C50.3759 8.20003 50.9601 7.68892 51.6902 7.22997C52.4412 6.75015 53.4113 6.51024 54.6004 6.51024C55.8938 6.51024 56.9995 6.73972 57.9174 7.19867C58.8562 7.63677 59.6176 8.23132 60.2018 8.98234C60.8068 9.7125 61.2449 10.5574 61.5161 11.517C61.8081 12.4767 61.9541 13.4676 61.9541 14.4898C61.9541 15.5538 61.7977 16.5655 61.4848 17.5252C61.1718 18.4848 60.692 19.3297 60.0453 20.0599C59.4195 20.79 58.6267 21.3742 57.6671 21.8122C56.7074 22.2503 55.5809 22.4694 54.2875 22.4694C52.9524 22.4694 51.805 22.2503 50.8453 21.8122C49.8857 21.3533 49.093 20.717 48.4671 19.9034C47.8413 19.0898 47.3719 18.1197 47.0589 16.9932C46.7669 15.8667 46.6209 14.615 46.6209 13.2381ZM54.2875 20.5918C54.9551 20.5918 55.5809 20.4771 56.165 20.2476C56.7492 19.9973 57.2603 19.6218 57.6984 19.1211C58.1365 18.6204 58.4807 17.9946 58.731 17.2435C59.0022 16.4717 59.1378 15.5538 59.1378 14.4898C59.1378 13.4259 59.0022 12.5184 58.731 11.7674C58.4807 10.9955 58.1365 10.3592 57.6984 9.85853C57.2603 9.35785 56.7492 8.99277 56.165 8.7633C55.5809 8.51296 54.9551 8.38779 54.2875 8.38779C53.6199 8.38779 52.9941 8.52339 52.41 8.79459C51.8258 9.06579 51.3147 9.46216 50.8766 9.9837C50.4385 10.4844 50.0839 11.1207 49.8127 11.8925C49.5623 12.6436 49.4372 13.5093 49.4372 14.4898C49.4372 15.5538 49.5623 16.4717 49.8127 17.2435C50.0839 17.9946 50.4385 18.6204 50.8766 19.1211C51.3147 19.6218 51.8258 19.9973 52.41 20.2476C52.9941 20.4771 53.6199 20.5918 54.2875 20.5918ZM63.8329 6.35378H66.4928V12.7687H70.0914C70.905 12.7687 71.6769 12.8417 72.407 12.9878C73.1581 13.1129 73.8152 13.3529 74.3785 13.7075C74.9417 14.0413 75.3798 14.5002 75.6928 15.0844C76.0265 15.6685 76.1934 16.4091 76.1934 17.3061C76.1934 18.2032 76.0265 18.9542 75.6928 19.5592C75.3798 20.1642 74.9417 20.644 74.3785 20.9986C73.8152 21.3533 73.1581 21.6141 72.407 21.781C71.6769 21.927 70.905 22 70.0914 22H63.8329V6.35378ZM77.7581 6.35378H80.4179V22H77.7581V6.35378ZM66.4928 14.8027V19.966H69.9349C70.4148 19.966 70.8633 19.9347 71.2805 19.8721C71.6978 19.7887 72.0628 19.6531 72.3758 19.4653C72.6887 19.2567 72.9286 18.9855 73.0955 18.6517C73.2832 18.2971 73.3771 17.8485 73.3771 17.3061C73.3771 16.8055 73.2832 16.3987 73.0955 16.0857C72.9286 15.7519 72.6887 15.4912 72.3758 15.3034C72.0628 15.1157 71.6978 14.9905 71.2805 14.9279C70.8633 14.8445 70.4148 14.8027 69.9349 14.8027H66.4928ZM88.8608 22V6.35378H91.5206V18.5578L99.9696 6.35378H102.629V22H99.9696V9.79595L91.5206 22H88.8608ZM104.343 16.8367H107.003C107.003 17.9424 107.337 18.8499 108.004 19.5592C108.693 20.2476 109.819 20.5918 111.384 20.5918C112.198 20.5918 112.886 20.5084 113.449 20.3415C114.013 20.1537 114.461 19.9138 114.795 19.6218C115.15 19.3088 115.4 18.9542 115.546 18.5578C115.692 18.1615 115.765 17.7442 115.765 17.3061C115.765 16.6177 115.567 16.0962 115.17 15.7415C114.774 15.3869 114.284 15.147 113.7 15.0218C113.116 14.8758 112.5 14.8027 111.853 14.8027H109.037V12.9252H111.853C112.876 12.9252 113.7 12.727 114.325 12.3306C114.972 11.9343 115.296 11.298 115.296 10.4218C115.296 9.7125 114.993 9.09708 114.388 8.57554C113.804 8.03314 112.803 7.76194 111.384 7.76194C110.612 7.76194 109.965 7.87668 109.444 8.10615C108.922 8.33563 108.505 8.61726 108.192 8.95105C107.879 9.26397 107.65 9.61862 107.504 10.015C107.379 10.3905 107.316 10.7347 107.316 11.0476H104.656C104.656 10.547 104.76 9.99413 104.969 9.38914C105.199 8.78416 105.564 8.22089 106.064 7.69935C106.586 7.17781 107.274 6.75015 108.13 6.41636C109.006 6.06171 110.091 5.88439 111.384 5.88439C112.636 5.88439 113.679 6.00956 114.513 6.2599C115.369 6.51024 116.047 6.83359 116.547 7.22997C117.048 7.62634 117.403 8.08529 117.611 8.60683C117.841 9.10751 117.955 9.60819 117.955 10.1089C117.955 10.839 117.789 11.4336 117.455 11.8925C117.121 12.3515 116.745 12.7061 116.328 12.9565C115.828 13.2277 115.275 13.4259 114.67 13.551V13.7075C115.4 13.8327 116.057 14.0413 116.641 14.3334C117.121 14.5837 117.559 14.9488 117.955 15.4286C118.373 15.8875 118.581 16.5134 118.581 17.3061C118.581 18.8082 117.966 20.0494 116.735 21.0299C115.525 21.9896 113.741 22.4694 111.384 22.4694C108.964 22.4694 107.18 21.9478 106.033 20.9048C104.906 19.8408 104.343 18.4848 104.343 16.8367ZM120.306 22V6.35378H124.374L129.224 19.1837L134.075 6.35378H138.143V22H135.483V8.85717L130.476 22H127.973L122.966 8.85717V22H120.306ZM140.009 14.1769C140.009 13.0504 140.166 11.9864 140.479 10.9851C140.792 9.96284 141.261 9.07622 141.887 8.3252C142.513 7.57418 143.295 6.97963 144.234 6.54153C145.172 6.10344 146.268 5.88439 147.519 5.88439C148.813 5.88439 149.908 6.11387 150.805 6.57282C151.723 7.01092 152.474 7.59504 153.058 8.3252C153.642 9.0345 154.06 9.8481 154.31 10.766C154.581 11.6839 154.717 12.6123 154.717 13.551V14.8027H142.826C142.93 16.8472 143.441 18.3284 144.359 19.2463C145.298 20.1433 146.403 20.5918 147.676 20.5918C148.698 20.5918 149.595 20.3206 150.367 19.7782C151.16 19.2358 151.671 18.4118 151.9 17.3061H154.56C154.247 18.8082 153.507 20.0494 152.338 21.0299C151.191 21.9896 149.637 22.4694 147.676 22.4694C146.382 22.4694 145.256 22.2503 144.296 21.8122C143.337 21.3742 142.533 20.7796 141.887 20.0286C141.261 19.2776 140.792 18.4014 140.479 17.4C140.166 16.3778 140.009 15.3034 140.009 14.1769ZM151.9 12.9252C151.9 11.1311 151.462 9.82724 150.586 9.01363C149.731 8.17917 148.709 7.76194 147.519 7.76194C146.309 7.76194 145.277 8.16874 144.421 8.98234C143.566 9.79595 143.055 11.1102 142.888 12.9252H151.9ZM159.239 6.35378V12.9252H167.375V6.35378H170.035V22H167.375V14.8027H159.239V22H156.58V6.35378H159.239ZM172.226 22V6.35378H174.886V18.5578L183.335 6.35378H185.994V22H183.335V9.79595L174.886 22H172.226ZM187.552 8.38779V6.35378H201.79V8.38779H196.001V22H193.341V8.38779H187.552ZM206.025 6.35378V12.7687H210.25C211.063 12.7687 211.835 12.8417 212.565 12.9878C213.316 13.1129 213.974 13.3529 214.537 13.7075C215.1 14.0413 215.538 14.5002 215.851 15.0844C216.185 15.6685 216.352 16.4091 216.352 17.3061C216.352 18.2032 216.185 18.9542 215.851 19.5592C215.538 20.1642 215.1 20.644 214.537 20.9986C213.974 21.3533 213.316 21.6141 212.565 21.781C211.835 21.927 211.063 22 210.25 22H203.365V6.35378H206.025ZM206.025 19.966H210.093C210.573 19.966 211.022 19.9347 211.439 19.8721C211.856 19.7887 212.221 19.6531 212.534 19.4653C212.847 19.2567 213.087 18.9855 213.254 18.6517C213.442 18.2971 213.535 17.8485 213.535 17.3061C213.535 16.8055 213.442 16.3987 213.254 16.0857C213.087 15.7519 212.847 15.4912 212.534 15.3034C212.221 15.1157 211.856 14.9905 211.439 14.9279C211.022 14.8445 210.573 14.8027 210.093 14.8027H206.025V19.966ZM224.329 22V6.35378H228.397L233.247 19.1837L238.098 6.35378H242.166V22H239.506V8.85717L234.499 22H231.996L226.989 8.85717V22H224.329ZM244.345 22V6.35378H247.005V18.5578L255.454 6.35378H258.114V22H255.454V9.79595L247.005 22H244.345ZM260.297 26.6939V6.35378H262.957V9.1701C263.291 8.56511 263.708 8.01228 264.208 7.5116C264.647 7.09437 265.199 6.71886 265.867 6.38507C266.535 6.05128 267.338 5.88439 268.276 5.88439C269.528 5.88439 270.603 6.11387 271.5 6.57282C272.418 7.01092 273.169 7.61591 273.753 8.38779C274.337 9.15967 274.764 10.0463 275.036 11.0476C275.328 12.0281 275.474 13.0712 275.474 14.1769C275.474 15.2617 275.328 16.3048 275.036 17.3061C274.764 18.3075 274.337 19.1941 273.753 19.966C273.169 20.7379 272.418 21.3533 271.5 21.8122C270.603 22.2503 269.528 22.4694 268.276 22.4694C267.338 22.4694 266.535 22.3025 265.867 21.9687C265.199 21.6141 264.647 21.2281 264.208 20.8109C263.708 20.3311 263.291 19.7887 262.957 19.1837V26.6939H260.297ZM262.957 14.1769C262.957 15.2408 263.082 16.1692 263.332 16.9619C263.603 17.7547 263.958 18.4222 264.396 18.9646C264.834 19.507 265.345 19.9138 265.93 20.185C266.514 20.4562 267.14 20.5918 267.807 20.5918C268.475 20.5918 269.101 20.4771 269.685 20.2476C270.269 19.9973 270.78 19.6113 271.218 19.0898C271.656 18.5683 272 17.9007 272.251 17.0871C272.522 16.2735 272.657 15.3034 272.657 14.1769C272.657 13.0504 272.522 12.0803 272.251 11.2667C272 10.4531 271.656 9.78552 271.218 9.26398C270.78 8.74243 270.269 8.36692 269.685 8.13745C269.101 7.88711 268.475 7.76194 267.807 7.76194C267.14 7.76194 266.514 7.89754 265.93 8.16874C265.345 8.43994 264.834 8.84674 264.396 9.38914C263.958 9.93155 263.603 10.5991 263.332 11.3919C263.082 12.1846 262.957 13.1129 262.957 14.1769ZM1.09524 35.3538H3.75509V43.4898L11.4217 35.3538H14.3945L8.35508 41.6436L14.7074 51H11.5782L6.634 43.4585L3.75509 46.4626V51H1.09524V35.3538ZM21.6089 51V48.8095C21.6506 48.8304 21.7028 48.8408 21.7654 48.8408C21.8071 48.8408 21.8592 48.8513 21.9218 48.8721C21.9844 48.8721 22.0574 48.8721 22.1409 48.8721C22.6416 48.8721 23.0901 48.7887 23.4864 48.6218C23.9037 48.434 24.2479 48.0481 24.5191 47.464C24.7903 46.8798 24.9989 46.0349 25.1449 44.9293C25.291 43.8236 25.364 42.3529 25.364 40.517V35.3538H36.7857V51H34.1259V37.3878H27.8674V40.83C27.8674 42.7075 27.7735 44.3034 27.5858 45.6177C27.398 46.932 27.1059 47.9959 26.7096 48.8095C26.3132 49.6231 25.7917 50.2177 25.1449 50.5932C24.5191 50.9687 23.7576 51.1565 22.8606 51.1565C22.6728 51.1565 22.4955 51.146 22.3286 51.1252C22.1826 51.1252 22.0574 51.1147 21.9531 51.0939C21.8279 51.0522 21.7132 51.0209 21.6089 51ZM41.1789 35.3538L46.3734 48.215L51.036 35.3538H53.8523L47.4374 51.7823C47.1662 52.4707 46.895 53.0653 46.6238 53.566C46.3526 54.0875 46.0397 54.5152 45.685 54.849C45.3304 55.1828 44.9131 55.4331 44.4333 55.6C43.9744 55.7669 43.4111 55.8503 42.7435 55.8503C42.514 55.8503 42.2741 55.8399 42.0238 55.819C41.7943 55.819 41.5753 55.8086 41.3667 55.7877C41.1372 55.746 40.9181 55.7147 40.7095 55.6939V53.7224C40.8973 53.7433 41.085 53.7642 41.2728 53.785C41.4397 53.785 41.6066 53.785 41.7735 53.785C41.9404 53.8059 42.1072 53.8163 42.2741 53.8163C42.8165 53.8163 43.2859 53.6703 43.6823 53.3782C44.0995 53.107 44.4646 52.5751 44.7775 51.7823L45.0905 51L38.2061 35.3538H41.1789ZM57.7492 35.3538V39.4218C57.7492 40.8404 58.0413 41.873 58.6254 42.5197C59.2095 43.1665 60.1692 43.4898 61.5043 43.4898C62.61 43.4898 63.507 43.3021 64.1955 42.9265C64.9048 42.5302 65.2594 41.9356 65.2594 41.1429V35.3538H67.9193V51H65.2594V43.6463C64.9674 44.0009 64.6023 44.3138 64.1642 44.585C63.7887 44.8145 63.3193 45.0336 62.756 45.2422C62.1928 45.4299 61.5148 45.5238 60.722 45.5238C59.0739 45.5238 57.7179 45.0857 56.654 44.2095C55.6109 43.3125 55.0894 41.9252 55.0894 40.0476V35.3538H57.7492ZM70.0975 51V35.3538H72.7574V48.966H79.4227V35.3538H82.0512V48.966H88.7165V35.3538H91.3764V51H70.0975ZM93.2539 43.1769C93.2539 42.0504 93.4104 40.9864 93.7233 39.9851C94.0362 38.9628 94.5056 38.0762 95.1315 37.3252C95.7573 36.5742 96.5396 35.9796 97.4784 35.5415C98.4172 35.1034 99.5124 34.8844 100.764 34.8844C102.058 34.8844 103.153 35.1139 104.05 35.5728C104.968 36.0109 105.719 36.595 106.303 37.3252C106.887 38.0345 107.304 38.8481 107.555 39.766C107.826 40.6839 107.961 41.6123 107.961 42.551V43.8027H96.0702C96.1746 45.8472 96.6857 47.3284 97.6036 48.2463C98.5424 49.1433 99.648 49.5918 100.921 49.5918C101.943 49.5918 102.84 49.3206 103.612 48.7782C104.404 48.2358 104.916 47.4118 105.145 46.3061H107.805C107.492 47.8082 106.751 49.0494 105.583 50.0299C104.436 50.9896 102.882 51.4694 100.921 51.4694C99.6272 51.4694 98.5006 51.2503 97.541 50.8122C96.5814 50.3742 95.7782 49.7796 95.1315 49.0286C94.5056 48.2776 94.0362 47.4014 93.7233 46.4C93.4104 45.3778 93.2539 44.3034 93.2539 43.1769ZM105.145 41.9252C105.145 40.1311 104.707 38.8272 103.831 38.0136C102.975 37.1792 101.953 36.7619 100.764 36.7619C99.5541 36.7619 98.5215 37.1687 97.6662 37.9823C96.8108 38.7959 96.2997 40.1102 96.1328 41.9252H105.145ZM109.824 51V35.3538H113.892L118.743 48.1837L123.593 35.3538H127.661V51H125.001V37.8572L119.994 51H117.491L112.484 37.8572V51H109.824ZM132.031 35.3538L137.225 48.215L141.888 35.3538H144.704L138.289 51.7823C138.018 52.4707 137.747 53.0653 137.476 53.566C137.205 54.0875 136.892 54.5152 136.537 54.849C136.182 55.1828 135.765 55.4331 135.285 55.6C134.826 55.7669 134.263 55.8503 133.596 55.8503C133.366 55.8503 133.126 55.8399 132.876 55.819C132.646 55.819 132.427 55.8086 132.219 55.7877C131.989 55.746 131.77 55.7147 131.561 55.6939V53.7224C131.749 53.7433 131.937 53.7642 132.125 53.785C132.292 53.785 132.459 53.785 132.625 53.785C132.792 53.8059 132.959 53.8163 133.126 53.8163C133.669 53.8163 134.138 53.6703 134.534 53.3782C134.952 53.107 135.317 52.5751 135.63 51.7823L135.942 51L129.058 35.3538H132.031ZM144.28 51V48.0272H146.972V51H144.28Z" fill="white"/>
</svg>
