<svg width="769" height="52" viewBox="0 0 769 52" fill="none" xmlns="http://www.w3.org/2000/svg">
<path d="M4.94421 10.3973C3.8594 10.1678 2.94149 9.72972 2.19047 9.08301C1.46031 8.41544 1.09524 7.40365 1.09524 6.04764C1.09524 5.15059 1.26213 4.39958 1.59591 3.79459C1.95056 3.1896 2.40952 2.70978 2.97278 2.35514C3.53605 2.00049 4.18276 1.75015 4.91291 1.60412C5.66393 1.43722 6.42538 1.35378 7.19726 1.35378H14.3945V17H11.7347V10.585H7.66665L3.59863 17H0.625849L4.94421 10.3973ZM3.91156 6.04764C3.91156 6.54832 4.00543 6.96556 4.19319 7.29934C4.38094 7.61227 4.63128 7.86261 4.94421 8.05036C5.25713 8.23812 5.62221 8.37372 6.03944 8.45716C6.45667 8.51975 6.89477 8.55104 7.35372 8.55104H11.7347V3.38779H7.35372C6.89477 3.38779 6.45667 3.42951 6.03944 3.51296C5.62221 3.57554 5.25713 3.71114 4.94421 3.91976C4.63128 4.10751 4.38094 4.37871 4.19319 4.73336C4.00543 5.06715 3.91156 5.50524 3.91156 6.04764ZM22.3839 11.8367H25.0437C25.0437 12.9424 25.3775 13.8499 26.0451 14.5592C26.7335 15.2476 27.8601 15.5918 29.4247 15.5918C30.2383 15.5918 30.9267 15.5084 31.49 15.3415C32.0532 15.1537 32.5018 14.9138 32.8356 14.6218C33.1902 14.3088 33.4405 13.9542 33.5866 13.5578C33.7326 13.1615 33.8056 12.7442 33.8056 12.3061C33.8056 11.6177 33.6074 11.0962 33.2111 10.7415C32.8147 10.3869 32.3244 10.147 31.7403 10.0218C31.1562 9.87575 30.5408 9.80274 29.8941 9.80274H27.0777V7.92519H29.8941C30.9163 7.92519 31.7403 7.72701 32.3662 7.33063C33.0129 6.93426 33.3362 6.29798 33.3362 5.4218C33.3362 4.7125 33.0337 4.09708 32.4288 3.57554C31.8446 3.03314 30.8433 2.76194 29.4247 2.76194C28.6528 2.76194 28.0061 2.87668 27.4845 3.10615C26.963 3.33563 26.5458 3.61726 26.2328 3.95105C25.9199 4.26397 25.6904 4.61862 25.5444 5.01499C25.4192 5.3905 25.3567 5.73472 25.3567 6.04764H22.6968C22.6968 5.54696 22.8011 4.99413 23.0097 4.38914C23.2392 3.78416 23.6043 3.22089 24.105 2.69935C24.6265 2.17781 25.3149 1.75015 26.1703 1.41636C27.0465 1.06171 28.1313 0.88439 29.4247 0.88439C30.6764 0.88439 31.7195 1.00956 32.5539 1.2599C33.4092 1.51024 34.0873 1.83359 34.5879 2.22997C35.0886 2.62634 35.4433 3.08529 35.6519 3.60683C35.8814 4.10751 35.9961 4.60819 35.9961 5.10887C35.9961 5.83903 35.8292 6.43358 35.4954 6.89254C35.1616 7.3515 34.7861 7.70614 34.3689 7.95648C33.8682 8.22768 33.3154 8.42587 32.7104 8.55104V8.7075C33.4405 8.83267 34.0977 9.04129 34.6818 9.33335C35.1616 9.58369 35.5997 9.94877 35.9961 10.4286C36.4133 10.8875 36.6219 11.5134 36.6219 12.3061C36.6219 13.8082 36.0065 15.0494 34.7757 16.0299C33.5657 16.9896 31.782 17.4694 29.4247 17.4694C27.0047 17.4694 25.2211 16.9478 24.0737 15.9048C22.9471 14.8408 22.3839 13.4848 22.3839 11.8367ZM38.0301 12.7755C38.0301 12.1079 38.1448 11.4821 38.3743 10.898C38.6247 10.3138 39.021 9.80274 39.5634 9.36464C40.1058 8.92655 40.8256 8.58233 41.7226 8.33199C42.6197 8.06079 43.7358 7.92519 45.0709 7.92519C45.968 7.92519 46.6772 7.85217 47.1988 7.70614C47.7203 7.56011 48.1063 7.37236 48.3566 7.14288C48.6278 6.9134 48.7947 6.65263 48.8573 6.36057C48.9407 6.04764 48.9825 5.73472 48.9825 5.4218C48.9825 4.48302 48.6382 3.80502 47.9498 3.38779C47.2822 2.97055 46.3226 2.76194 45.0709 2.76194C42.3589 2.76194 41.0029 3.85717 41.0029 6.04764H38.343C38.343 5.15059 38.5099 4.37871 38.8437 3.732C39.1775 3.08529 39.6364 2.55332 40.2206 2.13609C40.8256 1.69799 41.5349 1.38507 42.3485 1.19732C43.1829 0.988698 44.0904 0.88439 45.0709 0.88439C47.1988 0.88439 48.826 1.29119 49.9525 2.1048C51.079 2.9184 51.6423 4.23268 51.6423 6.04764V13.2449C51.6423 13.5578 51.6527 13.8395 51.6736 14.0898C51.6945 14.3401 51.7466 14.5488 51.8301 14.7157C51.9344 14.8825 52.0908 15.0077 52.2995 15.0912C52.5081 15.1537 52.8106 15.1642 53.2069 15.1225V17C53.0609 17.0209 52.9149 17.0522 52.7688 17.0939C52.6228 17.1147 52.4663 17.1252 52.2995 17.1252C52.1326 17.146 51.9657 17.1565 51.7988 17.1565C51.4024 17.1565 51.0269 17.1252 50.6722 17.0626C50.3385 17.0209 50.0464 16.9166 49.7961 16.7497C49.5457 16.5828 49.3475 16.3429 49.2015 16.0299C49.0555 15.717 48.9825 15.3102 48.9825 14.8095V14.3401C48.6487 14.9243 48.221 15.4458 47.6995 15.9048C47.2614 16.3011 46.6981 16.6662 46.0097 17C45.3421 17.3129 44.5076 17.4694 43.5063 17.4694C41.6913 17.4694 40.3249 17.0209 39.407 16.1238C38.4891 15.2268 38.0301 14.1107 38.0301 12.7755ZM44.1321 15.5918C44.6745 15.5918 45.2274 15.4875 45.7906 15.2789C46.3748 15.0703 46.8963 14.7261 47.3552 14.2463C47.8351 13.7456 48.221 13.0989 48.5131 12.3061C48.826 11.4925 48.9825 10.5016 48.9825 9.33335V8.26941C48.9825 8.29027 48.9199 8.36328 48.7947 8.48845C48.6904 8.61362 48.4818 8.74923 48.1689 8.89526C47.8559 9.04129 47.4283 9.17689 46.8859 9.30206C46.3435 9.42723 45.6342 9.48981 44.758 9.48981C44.3199 9.48981 43.8714 9.54197 43.4124 9.64628C42.9534 9.72972 42.5362 9.88618 42.1607 10.1157C41.7852 10.3243 41.4723 10.6268 41.2219 11.0231C40.9716 11.3987 40.8464 11.8785 40.8464 12.4626C40.8464 13.4014 41.1385 14.1628 41.7226 14.7469C42.3067 15.3102 43.1099 15.5918 44.1321 15.5918ZM57.264 1.35378V7.92519H65.4V1.35378H68.0598V17H65.4V9.80274H57.264V17H54.6041V1.35378H57.264ZM70.2503 17V1.35378H72.9102V13.5578L81.3591 1.35378H84.019V17H81.3591V4.79595L72.9102 17H70.2503ZM86.2021 17V1.35378H90.2701L95.1205 14.1837L99.9708 1.35378H104.039V17H101.379V3.85717L96.3722 17H93.8688L88.862 3.85717V17H86.2021ZM105.749 12.7755C105.749 12.1079 105.864 11.4821 106.093 10.898C106.343 10.3138 106.74 9.80274 107.282 9.36464C107.825 8.92655 108.544 8.58233 109.441 8.33199C110.338 8.06079 111.455 7.92519 112.79 7.92519C113.687 7.92519 114.396 7.85217 114.918 7.70614C115.439 7.56011 115.825 7.37236 116.075 7.14288C116.347 6.9134 116.514 6.65263 116.576 6.36057C116.66 6.04764 116.701 5.73472 116.701 5.4218C116.701 4.48302 116.357 3.80502 115.669 3.38779C115.001 2.97055 114.041 2.76194 112.79 2.76194C110.078 2.76194 108.722 3.85717 108.722 6.04764H106.062C106.062 5.15059 106.229 4.37871 106.563 3.732C106.896 3.08529 107.355 2.55332 107.939 2.13609C108.544 1.69799 109.254 1.38507 110.067 1.19732C110.902 0.988698 111.809 0.88439 112.79 0.88439C114.918 0.88439 116.545 1.29119 117.671 2.1048C118.798 2.9184 119.361 4.23268 119.361 6.04764V13.2449C119.361 13.5578 119.372 13.8395 119.392 14.0898C119.413 14.3401 119.465 14.5488 119.549 14.7157C119.653 14.8825 119.81 15.0077 120.018 15.0912C120.227 15.1537 120.529 15.1642 120.926 15.1225V17C120.78 17.0209 120.634 17.0522 120.488 17.0939C120.342 17.1147 120.185 17.1252 120.018 17.1252C119.851 17.146 119.684 17.1565 119.518 17.1565C119.121 17.1565 118.746 17.1252 118.391 17.0626C118.057 17.0209 117.765 16.9166 117.515 16.7497C117.265 16.5828 117.066 16.3429 116.92 16.0299C116.774 15.717 116.701 15.3102 116.701 14.8095V14.3401C116.367 14.9243 115.94 15.4458 115.418 15.9048C114.98 16.3011 114.417 16.6662 113.728 17C113.061 17.3129 112.226 17.4694 111.225 17.4694C109.41 17.4694 108.044 17.0209 107.126 16.1238C106.208 15.2268 105.749 14.1107 105.749 12.7755ZM111.851 15.5918C112.393 15.5918 112.946 15.4875 113.509 15.2789C114.094 15.0703 114.615 14.7261 115.074 14.2463C115.554 13.7456 115.94 13.0989 116.232 12.3061C116.545 11.4925 116.701 10.5016 116.701 9.33335V8.26941C116.701 8.29027 116.639 8.36328 116.514 8.48845C116.409 8.61362 116.201 8.74923 115.888 8.89526C115.575 9.04129 115.147 9.17689 114.605 9.30206C114.062 9.42723 113.353 9.48981 112.477 9.48981C112.039 9.48981 111.59 9.54197 111.131 9.64628C110.672 9.72972 110.255 9.88618 109.88 10.1157C109.504 10.3243 109.191 10.6268 108.941 11.0231C108.69 11.3987 108.565 11.8785 108.565 12.4626C108.565 13.4014 108.857 14.1628 109.441 14.7469C110.026 15.3102 110.829 15.5918 111.851 15.5918ZM122.323 17V1.35378H124.983V7.92519H127.862C127.966 6.94469 128.175 6.02678 128.488 5.17146C128.821 4.31613 129.28 3.57554 129.864 2.94969C130.469 2.30298 131.21 1.8023 132.086 1.44765C132.962 1.07214 133.985 0.88439 135.153 0.88439C136.446 0.88439 137.552 1.10344 138.47 1.54153C139.409 1.97963 140.17 2.57418 140.754 3.3252C141.359 4.07622 141.797 4.96284 142.068 5.98506C142.36 6.98642 142.507 8.05036 142.507 9.17689C142.507 10.3034 142.36 11.3778 142.068 12.4C141.797 13.4014 141.359 14.2776 140.754 15.0286C140.17 15.7796 139.409 16.3742 138.47 16.8122C137.552 17.2503 136.446 17.4694 135.153 17.4694C133.922 17.4694 132.848 17.2712 131.93 16.8748C131.033 16.4785 130.282 15.9361 129.677 15.2476C129.092 14.5383 128.644 13.7247 128.331 12.8068C128.039 11.868 127.862 10.8667 127.799 9.80274H124.983V17H122.323ZM130.615 9.17689C130.615 11.4508 131.033 13.0884 131.867 14.0898C132.722 15.0912 133.818 15.5918 135.153 15.5918C136.488 15.5918 137.573 15.0912 138.407 14.0898C139.263 13.0884 139.69 11.4508 139.69 9.17689C139.69 6.90297 139.263 5.26533 138.407 4.26398C137.573 3.26262 136.488 2.76194 135.153 2.76194C133.818 2.76194 132.722 3.26262 131.867 4.26398C131.033 5.26533 130.615 6.90297 130.615 9.17689ZM144.074 9.17689C144.074 8.05036 144.23 6.98642 144.543 5.98506C144.856 4.96284 145.325 4.07622 145.951 3.3252C146.598 2.57418 147.401 1.97963 148.361 1.54153C149.32 1.10344 150.447 0.88439 151.74 0.88439C152.867 0.88439 153.858 1.05128 154.713 1.38507C155.589 1.69799 156.319 2.13609 156.903 2.69935C157.488 3.24175 157.936 3.8676 158.249 4.5769C158.562 5.28619 158.739 6.03721 158.781 6.82996H155.965C155.798 5.57826 155.36 4.58733 154.65 3.85717C153.962 3.12702 152.992 2.76194 151.74 2.76194C151.073 2.76194 150.447 2.88711 149.863 3.13745C149.279 3.36692 148.767 3.74243 148.329 4.26398C147.891 4.78552 147.537 5.45309 147.265 6.26669C147.015 7.08029 146.89 8.05036 146.89 9.17689C146.89 10.3034 147.015 11.2735 147.265 12.0871C147.537 12.9007 147.891 13.5683 148.329 14.0898C148.767 14.6113 149.279 14.9973 149.863 15.2476C150.447 15.4771 151.073 15.5918 151.74 15.5918C152.992 15.5918 153.962 15.2268 154.65 14.4966C155.36 13.7664 155.798 12.7755 155.965 11.5238H158.781C158.739 12.2957 158.562 13.0467 158.249 13.7769C157.936 14.4862 157.488 15.1225 156.903 15.6857C156.319 16.2281 155.589 16.6662 154.713 17C153.858 17.3129 152.867 17.4694 151.74 17.4694C150.447 17.4694 149.32 17.2503 148.361 16.8122C147.401 16.3742 146.598 15.7796 145.951 15.0286C145.325 14.2776 144.856 13.4014 144.543 12.4C144.23 11.3778 144.074 10.3034 144.074 9.17689ZM163.304 1.35378V7.76873H167.528C168.342 7.76873 169.114 7.84174 169.844 7.98778C170.595 8.11295 171.252 8.35285 171.815 8.7075C172.379 9.04129 172.817 9.50024 173.13 10.0844C173.463 10.6685 173.63 11.4091 173.63 12.3061C173.63 13.2032 173.463 13.9542 173.13 14.5592C172.817 15.1642 172.379 15.644 171.815 15.9986C171.252 16.3533 170.595 16.6141 169.844 16.781C169.114 16.927 168.342 17 167.528 17H160.644V1.35378H163.304ZM163.304 14.966H167.372C167.852 14.966 168.3 14.9347 168.717 14.8721C169.135 14.7887 169.5 14.6531 169.813 14.4653C170.126 14.2567 170.365 13.9855 170.532 13.6517C170.72 13.2971 170.814 12.8485 170.814 12.3061C170.814 11.8055 170.72 11.3987 170.532 11.0857C170.365 10.7519 170.126 10.4912 169.813 10.3034C169.5 10.1157 169.135 9.99049 168.717 9.92791C168.3 9.84446 167.852 9.80274 167.372 9.80274H163.304V14.966ZM181.607 17V1.35378H195.063V17H192.403V3.38779H184.267V17H181.607ZM197.254 21.6939V1.35378H199.913V4.1701C200.247 3.56511 200.665 3.01228 201.165 2.5116C201.603 2.09437 202.156 1.71886 202.824 1.38507C203.491 1.05128 204.294 0.88439 205.233 0.88439C206.485 0.88439 207.559 1.11387 208.456 1.57282C209.374 2.01092 210.125 2.61591 210.709 3.38779C211.294 4.15967 211.721 5.04629 211.992 6.04764C212.284 7.02814 212.43 8.07122 212.43 9.17689C212.43 10.2617 212.284 11.3048 211.992 12.3061C211.721 13.3075 211.294 14.1941 210.709 14.966C210.125 15.7379 209.374 16.3533 208.456 16.8122C207.559 17.2503 206.485 17.4694 205.233 17.4694C204.294 17.4694 203.491 17.3025 202.824 16.9687C202.156 16.6141 201.603 16.2281 201.165 15.8109C200.665 15.3311 200.247 14.7887 199.913 14.1837V21.6939H197.254ZM199.913 9.17689C199.913 10.2408 200.039 11.1692 200.289 11.9619C200.56 12.7547 200.915 13.4222 201.353 13.9646C201.791 14.507 202.302 14.9138 202.886 15.185C203.47 15.4562 204.096 15.5918 204.764 15.5918C205.431 15.5918 206.057 15.4771 206.641 15.2476C207.225 14.9973 207.737 14.6113 208.175 14.0898C208.613 13.5683 208.957 12.9007 209.207 12.0871C209.479 11.2735 209.614 10.3034 209.614 9.17689C209.614 8.05036 209.479 7.08029 209.207 6.26669C208.957 5.45309 208.613 4.78552 208.175 4.26398C207.737 3.74243 207.225 3.36692 206.641 3.13745C206.057 2.88711 205.431 2.76194 204.764 2.76194C204.096 2.76194 203.47 2.89754 202.886 3.16874C202.302 3.43994 201.791 3.84674 201.353 4.38914C200.915 4.93155 200.56 5.59912 200.289 6.39186C200.039 7.1846 199.913 8.11295 199.913 9.17689ZM213.993 9.17689C213.993 8.05036 214.149 6.98642 214.462 5.98506C214.775 4.96284 215.244 4.07622 215.87 3.3252C216.517 2.57418 217.32 1.97963 218.28 1.54153C219.239 1.10344 220.366 0.88439 221.659 0.88439C222.953 0.88439 224.079 1.10344 225.039 1.54153C225.999 1.97963 226.791 2.57418 227.417 3.3252C228.064 4.07622 228.544 4.96284 228.857 5.98506C229.169 6.98642 229.326 8.05036 229.326 9.17689C229.326 10.3034 229.169 11.3778 228.857 12.4C228.544 13.4014 228.064 14.2776 227.417 15.0286C226.791 15.7796 225.999 16.3742 225.039 16.8122C224.079 17.2503 222.953 17.4694 221.659 17.4694C220.366 17.4694 219.239 17.2503 218.28 16.8122C217.32 16.3742 216.517 15.7796 215.87 15.0286C215.244 14.2776 214.775 13.4014 214.462 12.4C214.149 11.3778 213.993 10.3034 213.993 9.17689ZM216.809 9.17689C216.809 10.3034 216.934 11.2735 217.184 12.0871C217.456 12.9007 217.81 13.5683 218.248 14.0898C218.687 14.6113 219.198 14.9973 219.782 15.2476C220.366 15.4771 220.992 15.5918 221.659 15.5918C222.327 15.5918 222.953 15.4771 223.537 15.2476C224.121 14.9973 224.632 14.6113 225.07 14.0898C225.508 13.5683 225.852 12.9007 226.103 12.0871C226.374 11.2735 226.51 10.3034 226.51 9.17689C226.51 8.05036 226.374 7.08029 226.103 6.26669C225.852 5.45309 225.508 4.78552 225.07 4.26398C224.632 3.74243 224.121 3.36692 223.537 3.13745C222.953 2.88711 222.327 2.76194 221.659 2.76194C220.992 2.76194 220.366 2.88711 219.782 3.13745C219.198 3.36692 218.687 3.74243 218.248 4.26398C217.81 4.78552 217.456 5.45309 217.184 6.26669C216.934 7.08029 216.809 8.05036 216.809 9.17689ZM229.322 21.6939V14.966H229.948C230.491 14.966 230.97 14.7887 231.388 14.434C231.826 14.0794 232.191 13.5057 232.483 12.7129C232.775 11.9202 232.994 10.8875 233.14 9.61498C233.307 8.34242 233.39 6.78823 233.39 4.95241V1.35378H244.812V14.966H247.628V21.6939H244.969V17H231.982V21.6939H229.322ZM242.152 14.966V3.38779H235.894V5.26533C235.894 7.58097 235.737 9.60455 235.424 11.3361C235.132 13.0467 234.559 14.2567 233.703 14.966H242.152ZM250.142 1.35378L255.336 14.215L259.999 1.35378H262.815L256.4 17.7823C256.129 18.4707 255.858 19.0653 255.586 19.566C255.315 20.0875 255.002 20.5152 254.648 20.849C254.293 21.1828 253.876 21.4331 253.396 21.6C252.937 21.7669 252.374 21.8503 251.706 21.8503C251.477 21.8503 251.237 21.8399 250.986 21.819C250.757 21.819 250.538 21.8086 250.329 21.7877C250.1 21.746 249.881 21.7147 249.672 21.6939V19.7224C249.86 19.7433 250.048 19.7642 250.235 19.785C250.402 19.785 250.569 19.785 250.736 19.785C250.903 19.8059 251.07 19.8163 251.237 19.8163C251.779 19.8163 252.249 19.6703 252.645 19.3782C253.062 19.107 253.427 18.5751 253.74 17.7823L254.053 17L247.169 1.35378H250.142ZM264.208 1.35378H266.868V9.48981L274.535 1.35378H277.508L271.468 7.64356L277.821 17H274.691L269.747 9.45852L266.868 12.4626V17H264.208V1.35378ZM277.976 3.38779V1.35378H292.214V3.38779H286.425V17H283.765V3.38779H277.976ZM292.377 9.17689C292.377 8.05036 292.533 6.98642 292.846 5.98506C293.159 4.96284 293.628 4.07622 294.254 3.3252C294.901 2.57418 295.704 1.97963 296.664 1.54153C297.623 1.10344 298.75 0.88439 300.043 0.88439C301.337 0.88439 302.463 1.10344 303.423 1.54153C304.382 1.97963 305.175 2.57418 305.801 3.3252C306.448 4.07622 306.928 4.96284 307.24 5.98506C307.553 6.98642 307.71 8.05036 307.71 9.17689C307.71 10.3034 307.553 11.3778 307.24 12.4C306.928 13.4014 306.448 14.2776 305.801 15.0286C305.175 15.7796 304.382 16.3742 303.423 16.8122C302.463 17.2503 301.337 17.4694 300.043 17.4694C298.75 17.4694 297.623 17.2503 296.664 16.8122C295.704 16.3742 294.901 15.7796 294.254 15.0286C293.628 14.2776 293.159 13.4014 292.846 12.4C292.533 11.3778 292.377 10.3034 292.377 9.17689ZM295.193 9.17689C295.193 10.3034 295.318 11.2735 295.568 12.0871C295.84 12.9007 296.194 13.5683 296.632 14.0898C297.07 14.6113 297.582 14.9973 298.166 15.2476C298.75 15.4771 299.376 15.5918 300.043 15.5918C300.711 15.5918 301.337 15.4771 301.921 15.2476C302.505 14.9973 303.016 14.6113 303.454 14.0898C303.892 13.5683 304.236 12.9007 304.487 12.0871C304.758 11.2735 304.894 10.3034 304.894 9.17689C304.894 8.05036 304.758 7.08029 304.487 6.26669C304.236 5.45309 303.892 4.78552 303.454 4.26398C303.016 3.74243 302.505 3.36692 301.921 3.13745C301.337 2.88711 300.711 2.76194 300.043 2.76194C299.376 2.76194 298.75 2.88711 298.166 3.13745C297.582 3.36692 297.07 3.74243 296.632 4.26398C296.194 4.78552 295.84 5.45309 295.568 6.26669C295.318 7.08029 295.193 8.05036 295.193 9.17689ZM316.942 1.35378C317.693 1.35378 318.403 1.41636 319.07 1.54153C319.759 1.6667 320.353 1.87532 320.854 2.16738C321.375 2.45944 321.793 2.84538 322.106 3.3252C322.419 3.80502 322.575 4.39957 322.575 5.10887C322.575 5.83903 322.419 6.43358 322.106 6.89254C321.793 7.3515 321.459 7.70614 321.104 7.95648C320.666 8.22768 320.165 8.42587 319.602 8.55104V8.7075C320.27 8.83267 320.875 9.05172 321.417 9.36464C321.855 9.61498 322.262 9.99049 322.638 10.4912C323.013 10.971 323.201 11.6281 323.201 12.4626C323.201 13.3179 323.034 14.0376 322.7 14.6218C322.387 15.2059 321.949 15.6753 321.386 16.0299C320.823 16.3846 320.165 16.6349 319.414 16.781C318.684 16.927 317.912 17 317.099 17H309.589V1.35378H316.942ZM316.942 14.966C317.422 14.966 317.871 14.9347 318.288 14.8721C318.705 14.7887 319.07 14.6531 319.383 14.4653C319.696 14.2567 319.936 13.9855 320.103 13.6517C320.291 13.2971 320.385 12.8485 320.385 12.3061C320.385 11.8055 320.291 11.3987 320.103 11.0857C319.936 10.7519 319.696 10.4912 319.383 10.3034C319.07 10.1157 318.705 9.99049 318.288 9.92791C317.871 9.84446 317.422 9.80274 316.942 9.80274H312.248V14.966H316.942ZM316.473 7.92519C317.495 7.92519 318.319 7.7583 318.945 7.42451C319.592 7.06986 319.915 6.45445 319.915 5.57826C319.915 5.09844 319.821 4.72293 319.633 4.45173C319.467 4.15967 319.237 3.94062 318.945 3.79459C318.653 3.6277 318.319 3.52339 317.944 3.48166C317.568 3.41908 317.182 3.38779 316.786 3.38779H312.248V7.92519H316.473ZM324.929 1.35378H327.589V7.76873H331.188C332.001 7.76873 332.773 7.84174 333.503 7.98778C334.254 8.11295 334.912 8.35285 335.475 8.7075C336.038 9.04129 336.476 9.50024 336.789 10.0844C337.123 10.6685 337.29 11.4091 337.29 12.3061C337.29 13.2032 337.123 13.9542 336.789 14.5592C336.476 15.1642 336.038 15.644 335.475 15.9986C334.912 16.3533 334.254 16.6141 333.503 16.781C332.773 16.927 332.001 17 331.188 17H324.929V1.35378ZM338.854 1.35378H341.514V17H338.854V1.35378ZM327.589 9.80274V14.966H331.031C331.511 14.966 331.96 14.9347 332.377 14.8721C332.794 14.7887 333.159 14.6531 333.472 14.4653C333.785 14.2567 334.025 13.9855 334.192 13.6517C334.38 13.2971 334.473 12.8485 334.473 12.3061C334.473 11.8055 334.38 11.3987 334.192 11.0857C334.025 10.7519 333.785 10.4912 333.472 10.3034C333.159 10.1157 332.794 9.99049 332.377 9.92791C331.96 9.84446 331.511 9.80274 331.031 9.80274H327.589ZM343.692 17V1.35378H347.761L352.611 14.1837L357.461 1.35378H361.529V17H358.869V3.85717L353.863 17H351.359L346.352 3.85717V17H343.692ZM369.973 17V1.35378H372.633V13.5578L381.082 1.35378H383.742V17H381.082V4.79595L372.633 17H369.973ZM392.19 1.35378H394.85V9.48981L402.516 1.35378H405.489L399.45 7.64356L405.802 17H402.673L397.728 9.45852L394.85 12.4626V17H392.19V1.35378ZM405.659 9.17689C405.659 8.05036 405.815 6.98642 406.128 5.98506C406.441 4.96284 406.911 4.07622 407.536 3.3252C408.183 2.57418 408.986 1.97963 409.946 1.54153C410.906 1.10344 412.032 0.88439 413.326 0.88439C414.619 0.88439 415.745 1.10344 416.705 1.54153C417.665 1.97963 418.457 2.57418 419.083 3.3252C419.73 4.07622 420.21 4.96284 420.523 5.98506C420.836 6.98642 420.992 8.05036 420.992 9.17689C420.992 10.3034 420.836 11.3778 420.523 12.4C420.21 13.4014 419.73 14.2776 419.083 15.0286C418.457 15.7796 417.665 16.3742 416.705 16.8122C415.745 17.2503 414.619 17.4694 413.326 17.4694C412.032 17.4694 410.906 17.2503 409.946 16.8122C408.986 16.3742 408.183 15.7796 407.536 15.0286C406.911 14.2776 406.441 13.4014 406.128 12.4C405.815 11.3778 405.659 10.3034 405.659 9.17689ZM408.475 9.17689C408.475 10.3034 408.6 11.2735 408.851 12.0871C409.122 12.9007 409.477 13.5683 409.915 14.0898C410.353 14.6113 410.864 14.9973 411.448 15.2476C412.032 15.4771 412.658 15.5918 413.326 15.5918C413.993 15.5918 414.619 15.4771 415.203 15.2476C415.787 14.9973 416.298 14.6113 416.736 14.0898C417.174 13.5683 417.519 12.9007 417.769 12.0871C418.04 11.2735 418.176 10.3034 418.176 9.17689C418.176 8.05036 418.04 7.08029 417.769 6.26669C417.519 5.45309 417.174 4.78552 416.736 4.26398C416.298 3.74243 415.787 3.36692 415.203 3.13745C414.619 2.88711 413.993 2.76194 413.326 2.76194C412.658 2.76194 412.032 2.88711 411.448 3.13745C410.864 3.36692 410.353 3.74243 409.915 4.26398C409.477 4.78552 409.122 5.45309 408.851 6.26669C408.6 7.08029 408.475 8.05036 408.475 9.17689ZM422.871 17V1.35378H426.939L431.789 14.1837L436.64 1.35378H440.708V17H438.048V3.85717L433.041 17H430.538L425.531 3.85717V17H422.871ZM442.887 17V1.35378H446.955L451.805 14.1837L456.656 1.35378H460.724V17H458.064V3.85717L453.057 17H450.554L445.547 3.85717V17H442.887ZM465.094 1.35378L470.288 14.215L474.951 1.35378H477.767L471.352 17.7823C471.081 18.4707 470.81 19.0653 470.539 19.566C470.267 20.0875 469.954 20.5152 469.6 20.849C469.245 21.1828 468.828 21.4331 468.348 21.6C467.889 21.7669 467.326 21.8503 466.658 21.8503C466.429 21.8503 466.189 21.8399 465.939 21.819C465.709 21.819 465.49 21.8086 465.281 21.7877C465.052 21.746 464.833 21.7147 464.624 21.6939V19.7224C464.812 19.7433 465 19.7642 465.188 19.785C465.354 19.785 465.521 19.785 465.688 19.785C465.855 19.8059 466.022 19.8163 466.189 19.8163C466.731 19.8163 467.201 19.6703 467.597 19.3782C468.014 19.107 468.379 18.5751 468.692 17.7823L469.005 17L462.121 1.35378H465.094ZM481.821 1.35378V7.92519H489.957V1.35378H492.616V17H489.957V9.80274H481.821V17H479.161V1.35378H481.821ZM494.807 17V1.35378H497.467V13.5578L505.916 1.35378H508.576V17H505.916V4.79595L497.467 17H494.807ZM510.759 1.35378H513.419V9.48981L521.085 1.35378H524.058L518.019 7.64356L524.371 17H521.242L516.297 9.45852L513.419 12.4626V17H510.759V1.35378ZM524.866 12.7755C524.866 12.1079 524.981 11.4821 525.21 10.898C525.461 10.3138 525.857 9.80274 526.399 9.36464C526.942 8.92655 527.661 8.58233 528.558 8.33199C529.456 8.06079 530.572 7.92519 531.907 7.92519C532.804 7.92519 533.513 7.85217 534.035 7.70614C534.556 7.56011 534.942 7.37236 535.192 7.14288C535.464 6.9134 535.631 6.65263 535.693 6.36057C535.777 6.04764 535.818 5.73472 535.818 5.4218C535.818 4.48302 535.474 3.80502 534.786 3.38779C534.118 2.97055 533.158 2.76194 531.907 2.76194C529.195 2.76194 527.839 3.85717 527.839 6.04764H525.179C525.179 5.15059 525.346 4.37871 525.68 3.732C526.013 3.08529 526.472 2.55332 527.056 2.13609C527.661 1.69799 528.371 1.38507 529.184 1.19732C530.019 0.988698 530.926 0.88439 531.907 0.88439C534.035 0.88439 535.662 1.29119 536.788 2.1048C537.915 2.9184 538.478 4.23268 538.478 6.04764V13.2449C538.478 13.5578 538.489 13.8395 538.509 14.0898C538.53 14.3401 538.582 14.5488 538.666 14.7157C538.77 14.8825 538.927 15.0077 539.135 15.0912C539.344 15.1537 539.646 15.1642 540.043 15.1225V17C539.897 17.0209 539.751 17.0522 539.605 17.0939C539.459 17.1147 539.302 17.1252 539.135 17.1252C538.968 17.146 538.802 17.1565 538.635 17.1565C538.238 17.1565 537.863 17.1252 537.508 17.0626C537.174 17.0209 536.882 16.9166 536.632 16.7497C536.382 16.5828 536.183 16.3429 536.037 16.0299C535.891 15.717 535.818 15.3102 535.818 14.8095V14.3401C535.485 14.9243 535.057 15.4458 534.535 15.9048C534.097 16.3011 533.534 16.6662 532.846 17C532.178 17.3129 531.343 17.4694 530.342 17.4694C528.527 17.4694 527.161 17.0209 526.243 16.1238C525.325 15.2268 524.866 14.1107 524.866 12.7755ZM530.968 15.5918C531.51 15.5918 532.063 15.4875 532.626 15.2789C533.211 15.0703 533.732 14.7261 534.191 14.2463C534.671 13.7456 535.057 13.0989 535.349 12.3061C535.662 11.4925 535.818 10.5016 535.818 9.33335V8.26941C535.818 8.29027 535.756 8.36328 535.631 8.48845C535.526 8.61362 535.318 8.74923 535.005 8.89526C534.692 9.04129 534.264 9.17689 533.722 9.30206C533.179 9.42723 532.47 9.48981 531.594 9.48981C531.156 9.48981 530.707 9.54197 530.248 9.64628C529.789 9.72972 529.372 9.88618 528.997 10.1157C528.621 10.3243 528.308 10.6268 528.058 11.0231C527.807 11.3987 527.682 11.8785 527.682 12.4626C527.682 13.4014 527.974 14.1628 528.558 14.7469C529.143 15.3102 529.946 15.5918 530.968 15.5918ZM541.44 17V1.35378H544.1V14.966H552.236V1.35378H554.896V14.966H557.712V21.6939H555.052V17H541.44ZM559.134 17V1.35378H561.793V13.5578L570.242 1.35378H572.902V17H570.242V4.79595L561.793 17H559.134ZM574.773 9.17689C574.773 8.05036 574.929 6.98642 575.242 5.98506C575.555 4.96284 576.024 4.07622 576.65 3.3252C577.297 2.57418 578.1 1.97963 579.06 1.54153C580.019 1.10344 581.146 0.88439 582.439 0.88439C583.733 0.88439 584.859 1.10344 585.819 1.54153C586.778 1.97963 587.571 2.57418 588.197 3.3252C588.844 4.07622 589.324 4.96284 589.636 5.98506C589.949 6.98642 590.106 8.05036 590.106 9.17689C590.106 10.3034 589.949 11.3778 589.636 12.4C589.324 13.4014 588.844 14.2776 588.197 15.0286C587.571 15.7796 586.778 16.3742 585.819 16.8122C584.859 17.2503 583.733 17.4694 582.439 17.4694C581.146 17.4694 580.019 17.2503 579.06 16.8122C578.1 16.3742 577.297 15.7796 576.65 15.0286C576.024 14.2776 575.555 13.4014 575.242 12.4C574.929 11.3778 574.773 10.3034 574.773 9.17689ZM577.589 9.17689C577.589 10.3034 577.714 11.2735 577.964 12.0871C578.236 12.9007 578.59 13.5683 579.028 14.0898C579.466 14.6113 579.978 14.9973 580.562 15.2476C581.146 15.4771 581.772 15.5918 582.439 15.5918C583.107 15.5918 583.733 15.4771 584.317 15.2476C584.901 14.9973 585.412 14.6113 585.85 14.0898C586.288 13.5683 586.632 12.9007 586.883 12.0871C587.154 11.2735 587.29 10.3034 587.29 9.17689C587.29 8.05036 587.154 7.08029 586.883 6.26669C586.632 5.45309 586.288 4.78552 585.85 4.26398C585.412 3.74243 584.901 3.36692 584.317 3.13745C583.733 2.88711 583.107 2.76194 582.439 2.76194C581.772 2.76194 581.146 2.88711 580.562 3.13745C579.978 3.36692 579.466 3.74243 579.028 4.26398C578.59 4.78552 578.236 5.45309 577.964 6.26669C577.714 7.08029 577.589 8.05036 577.589 9.17689ZM594.644 1.35378V7.92519H602.78V1.35378H605.44V17H602.78V9.80274H594.644V17H591.985V1.35378H594.644ZM610.291 1.35378V7.92519H618.427V1.35378H621.087V17H618.427V9.80274H610.291V17H607.631V1.35378H610.291ZM623.277 1.35378H625.937V7.76873H629.536C630.349 7.76873 631.121 7.84174 631.851 7.98778C632.602 8.11295 633.259 8.35285 633.823 8.7075C634.386 9.04129 634.824 9.50024 635.137 10.0844C635.471 10.6685 635.638 11.4091 635.638 12.3061C635.638 13.2032 635.471 13.9542 635.137 14.5592C634.824 15.1642 634.386 15.644 633.823 15.9986C633.259 16.3533 632.602 16.6141 631.851 16.781C631.121 16.927 630.349 17 629.536 17H623.277V1.35378ZM637.202 1.35378H639.862V17H637.202V1.35378ZM625.937 9.80274V14.966H629.379C629.859 14.966 630.307 14.9347 630.725 14.8721C631.142 14.7887 631.507 14.6531 631.82 14.4653C632.133 14.2567 632.373 13.9855 632.54 13.6517C632.727 13.2971 632.821 12.8485 632.821 12.3061C632.821 11.8055 632.727 11.3987 632.54 11.0857C632.373 10.7519 632.133 10.4912 631.82 10.3034C631.507 10.1157 631.142 9.99049 630.725 9.92791C630.307 9.84446 629.859 9.80274 629.379 9.80274H625.937ZM642.04 17V1.35378H646.108L650.959 14.1837L655.809 1.35378H659.877V17H657.217V3.85717L652.21 17H649.707L644.7 3.85717V17H642.04ZM0.312924 51.6939V44.966H0.938773C1.48118 44.966 1.96099 44.7887 2.37823 44.434C2.81632 44.0794 3.1814 43.5057 3.47346 42.7129C3.76552 41.9202 3.98457 40.8875 4.1306 39.615C4.2975 38.3424 4.38094 36.7882 4.38094 34.9524V31.3538H15.8027V44.966H18.619V51.6939H15.9591V47H2.97278V51.6939H0.312924ZM13.1428 44.966V33.3878H6.88434V35.2653C6.88434 37.581 6.72788 39.6046 6.41495 41.3361C6.12289 43.0467 5.54919 44.2567 4.69387 44.966H13.1428ZM20.0418 47V31.3538H22.7017V43.5578L31.1506 31.3538H33.8105V47H31.1506V34.7959L22.7017 47H20.0418ZM35.5243 41.8367H38.1841C38.1841 42.9424 38.5179 43.8499 39.1855 44.5592C39.8739 45.2476 41.0004 45.5918 42.5651 45.5918C43.3787 45.5918 44.0671 45.5084 44.6304 45.3415C45.1936 45.1537 45.6421 44.9138 45.9759 44.6218C46.3306 44.3088 46.5809 43.9542 46.727 43.5578C46.873 43.1615 46.946 42.7442 46.946 42.3061C46.946 41.6177 46.7478 41.0962 46.3514 40.7415C45.9551 40.3869 45.4648 40.147 44.8807 40.0218C44.2966 39.8758 43.6812 39.8027 43.0344 39.8027H40.2181V37.9252H43.0344C44.0567 37.9252 44.8807 37.727 45.5065 37.3306C46.1533 36.9343 46.4766 36.298 46.4766 35.4218C46.4766 34.7125 46.1741 34.0971 45.5691 33.5755C44.985 33.0331 43.9836 32.7619 42.5651 32.7619C41.7932 32.7619 41.1465 32.8767 40.6249 33.1062C40.1034 33.3356 39.6862 33.6173 39.3732 33.951C39.0603 34.264 38.8308 34.6186 38.6848 35.015C38.5596 35.3905 38.497 35.7347 38.497 36.0476H35.8372C35.8372 35.547 35.9415 34.9941 36.1501 34.3891C36.3796 33.7842 36.7447 33.2209 37.2453 32.6994C37.7669 32.1778 38.4553 31.7501 39.3106 31.4164C40.1868 31.0617 41.2716 30.8844 42.5651 30.8844C43.8168 30.8844 44.8598 31.0096 45.6943 31.2599C46.5496 31.5102 47.2276 31.8336 47.7283 32.23C48.229 32.6263 48.5836 33.0853 48.7923 33.6068C49.0217 34.1075 49.1365 34.6082 49.1365 35.1089C49.1365 35.839 48.9696 36.4336 48.6358 36.8925C48.302 37.3515 47.9265 37.7061 47.5093 37.9565C47.0086 38.2277 46.4558 38.4259 45.8508 38.551V38.7075C46.5809 38.8327 47.2381 39.0413 47.8222 39.3334C48.302 39.5837 48.7401 39.9488 49.1365 40.4286C49.5537 40.8875 49.7623 41.5134 49.7623 42.3061C49.7623 43.8082 49.1469 45.0494 47.9161 46.0299C46.7061 46.9896 44.9224 47.4694 42.5651 47.4694C40.1451 47.4694 38.3614 46.9478 37.214 45.9048C36.0875 44.8408 35.5243 43.4848 35.5243 41.8367ZM51.1705 42.7755C51.1705 42.1079 51.2852 41.4821 51.5147 40.898C51.765 40.3138 52.1614 39.8027 52.7038 39.3646C53.2462 38.9265 53.9659 38.5823 54.863 38.332C55.76 38.0608 56.8761 37.9252 58.2113 37.9252C59.1083 37.9252 59.8176 37.8522 60.3392 37.7061C60.8607 37.5601 61.2466 37.3724 61.497 37.1429C61.7682 36.9134 61.9351 36.6526 61.9977 36.3606C62.0811 36.0476 62.1228 35.7347 62.1228 35.4218C62.1228 34.483 61.7786 33.805 61.0902 33.3878C60.4226 32.9706 59.463 32.7619 58.2113 32.7619C55.4993 32.7619 54.1433 33.8572 54.1433 36.0476H51.4834C51.4834 35.1506 51.6503 34.3787 51.9841 33.732C52.3179 33.0853 52.7768 32.5533 53.361 32.1361C53.9659 31.698 54.6752 31.3851 55.4888 31.1973C56.3233 30.9887 57.2308 30.8844 58.2113 30.8844C60.3392 30.8844 61.9664 31.2912 63.0929 32.1048C64.2194 32.9184 64.7827 34.2327 64.7827 36.0476V43.2449C64.7827 43.5578 64.7931 43.8395 64.814 44.0898C64.8348 44.3401 64.887 44.5488 64.9704 44.7157C65.0748 44.8825 65.2312 45.0077 65.4398 45.0912C65.6485 45.1537 65.9509 45.1642 66.3473 45.1225V47C66.2013 47.0209 66.0553 47.0522 65.9092 47.0939C65.7632 47.1147 65.6067 47.1252 65.4398 47.1252C65.2729 47.146 65.106 47.1565 64.9392 47.1565C64.5428 47.1565 64.1673 47.1252 63.8126 47.0626C63.4788 47.0209 63.1868 46.9166 62.9364 46.7497C62.6861 46.5828 62.4879 46.3429 62.3419 46.0299C62.1959 45.717 62.1228 45.3102 62.1228 44.8095V44.3401C61.7891 44.9243 61.3614 45.4458 60.8398 45.9048C60.4018 46.3011 59.8385 46.6662 59.1501 47C58.4825 47.3129 57.648 47.4694 56.6467 47.4694C54.8317 47.4694 53.4653 47.0209 52.5473 46.1238C51.6294 45.2268 51.1705 44.1107 51.1705 42.7755ZM57.2725 45.5918C57.8149 45.5918 58.3677 45.4875 58.931 45.2789C59.5151 45.0703 60.0367 44.7261 60.4956 44.2463C60.9754 43.7456 61.3614 43.0989 61.6535 42.3061C61.9664 41.4925 62.1228 40.5016 62.1228 39.3334V38.2694C62.1228 38.2903 62.0603 38.3633 61.9351 38.4885C61.8308 38.6136 61.6222 38.7492 61.3092 38.8953C60.9963 39.0413 60.5686 39.1769 60.0262 39.3021C59.4838 39.4272 58.7745 39.4898 57.8984 39.4898C57.4603 39.4898 57.0117 39.542 56.5528 39.6463C56.0938 39.7297 55.6766 39.8862 55.3011 40.1157C54.9256 40.3243 54.6126 40.6268 54.3623 41.0231C54.112 41.3987 53.9868 41.8785 53.9868 42.4626C53.9868 43.4014 54.2789 44.1628 54.863 44.7469C55.4471 45.3102 56.2503 45.5918 57.2725 45.5918ZM67.7445 47V31.3538H70.4043V43.5578L78.8533 31.3538H81.5132V47H78.8533V34.7959L70.4043 47H67.7445ZM72.1254 26.6599C72.1254 27.2858 72.3132 27.8073 72.6887 28.2245C73.0642 28.6418 73.7109 28.8504 74.6288 28.8504C75.5467 28.8504 76.1934 28.6418 76.5689 28.2245C76.9445 27.8073 77.1322 27.2858 77.1322 26.6599H79.6356C79.6356 27.0146 79.573 27.4109 79.4478 27.849C79.3227 28.2871 79.0723 28.6939 78.6968 29.0694C78.3422 29.4449 77.8415 29.7683 77.1948 30.0395C76.5481 30.2898 75.6928 30.415 74.6288 30.415C73.5649 30.415 72.7095 30.2898 72.0628 30.0395C71.4161 29.7683 70.905 29.4449 70.5295 29.0694C70.1749 28.6939 69.9349 28.2871 69.8098 27.849C69.6846 27.4109 69.622 27.0146 69.622 26.6599H72.1254ZM86.3561 31.3538V37.9252H94.4922V31.3538H97.152V47H94.4922V39.8027H86.3561V47H83.6963V31.3538H86.3561ZM99.0296 39.1769C99.0296 38.0504 99.186 36.9864 99.499 35.9851C99.8119 34.9628 100.281 34.0762 100.907 33.3252C101.554 32.5742 102.357 31.9796 103.317 31.5415C104.276 31.1034 105.403 30.8844 106.696 30.8844C107.99 30.8844 109.116 31.1034 110.076 31.5415C111.035 31.9796 111.828 32.5742 112.454 33.3252C113.101 34.0762 113.581 34.9628 113.893 35.9851C114.206 36.9864 114.363 38.0504 114.363 39.1769C114.363 40.3034 114.206 41.3778 113.893 42.4C113.581 43.4014 113.101 44.2776 112.454 45.0286C111.828 45.7796 111.035 46.3742 110.076 46.8122C109.116 47.2503 107.99 47.4694 106.696 47.4694C105.403 47.4694 104.276 47.2503 103.317 46.8122C102.357 46.3742 101.554 45.7796 100.907 45.0286C100.281 44.2776 99.8119 43.4014 99.499 42.4C99.186 41.3778 99.0296 40.3034 99.0296 39.1769ZM101.846 39.1769C101.846 40.3034 101.971 41.2735 102.221 42.0871C102.493 42.9007 102.847 43.5683 103.285 44.0898C103.723 44.6113 104.235 44.9973 104.819 45.2476C105.403 45.4771 106.029 45.5918 106.696 45.5918C107.364 45.5918 107.99 45.4771 108.574 45.2476C109.158 44.9973 109.669 44.6113 110.107 44.0898C110.545 43.5683 110.889 42.9007 111.14 42.0871C111.411 41.2735 111.547 40.3034 111.547 39.1769C111.547 38.0504 111.411 37.0803 111.14 36.2667C110.889 35.4531 110.545 34.7855 110.107 34.264C109.669 33.7424 109.158 33.3669 108.574 33.1374C107.99 32.8871 107.364 32.7619 106.696 32.7619C106.029 32.7619 105.403 32.8871 104.819 33.1374C104.235 33.3669 103.723 33.7424 103.285 34.264C102.847 34.7855 102.493 35.4531 102.221 36.2667C101.971 37.0803 101.846 38.0504 101.846 39.1769ZM116.242 47V31.3538H120.31L125.16 44.1837L130.01 31.3538H134.078V47H131.418V33.8572L126.412 47H123.908L118.902 33.8572V47H116.242ZM136.352 50.7551V49.5034C137.144 49.5034 137.676 49.3156 137.948 48.9401C138.24 48.5855 138.386 48.0952 138.386 47.4694V47H136.946V44.0272H139.637V47.4694C139.637 48.5751 139.377 49.3991 138.855 49.9415C138.334 50.4839 137.603 50.7551 136.665 50.7551H136.352ZM148.787 47V31.3538H151.447V43.5578L159.896 31.3538H162.556V47H159.896V34.7959L151.447 47H148.787ZM164.739 47V31.3538H167.399V44.966H174.064V31.3538H176.693V44.966H183.358V31.3538H186.018V44.966H188.834V51.6939H186.174V47H164.739ZM191.346 31.3538L196.541 44.215L201.203 31.3538H204.019L197.604 47.7823C197.333 48.4707 197.062 49.0653 196.791 49.566C196.52 50.0875 196.207 50.5152 195.852 50.849C195.497 51.1828 195.08 51.4331 194.6 51.6C194.141 51.7669 193.578 51.8503 192.911 51.8503C192.681 51.8503 192.441 51.8399 192.191 51.819C191.961 51.819 191.742 51.8086 191.534 51.7877C191.304 51.746 191.085 51.7147 190.877 51.6939V49.7224C191.064 49.7433 191.252 49.7642 191.44 49.785C191.607 49.785 191.774 49.785 191.941 49.785C192.107 49.8059 192.274 49.8163 192.441 49.8163C192.984 49.8163 193.453 49.6703 193.849 49.3782C194.267 49.107 194.632 48.5751 194.945 47.7823L195.258 47L188.373 31.3538H191.346ZM211.677 47V31.3538H215.746L220.596 44.1837L225.446 31.3538H229.514V47H226.854V33.8572L221.848 47H219.344L214.337 33.8572V47H211.677ZM231.381 39.1769C231.381 38.0504 231.537 36.9864 231.85 35.9851C232.163 34.9628 232.632 34.0762 233.258 33.3252C233.884 32.5742 234.666 31.9796 235.605 31.5415C236.544 31.1034 237.639 30.8844 238.891 30.8844C240.184 30.8844 241.28 31.1139 242.177 31.5728C243.095 32.0109 243.846 32.595 244.43 33.3252C245.014 34.0345 245.431 34.8481 245.681 35.766C245.953 36.6839 246.088 37.6123 246.088 38.551V39.8027H234.197C234.301 41.8472 234.812 43.3284 235.73 44.2463C236.669 45.1433 237.775 45.5918 239.047 45.5918C240.07 45.5918 240.967 45.3206 241.739 44.7782C242.531 44.2358 243.042 43.4118 243.272 42.3061H245.932C245.619 43.8082 244.878 45.0494 243.71 46.0299C242.563 46.9896 241.008 47.4694 239.047 47.4694C237.754 47.4694 236.627 47.2503 235.668 46.8122C234.708 46.3742 233.905 45.7796 233.258 45.0286C232.632 44.2776 232.163 43.4014 231.85 42.4C231.537 41.3778 231.381 40.3034 231.381 39.1769ZM243.272 37.9252C243.272 36.1311 242.834 34.8272 241.958 34.0136C241.102 33.1792 240.08 32.7619 238.891 32.7619C237.681 32.7619 236.648 33.1687 235.793 33.9823C234.938 34.7959 234.427 36.1102 234.26 37.9252H243.272ZM247.638 39.1769C247.638 38.0504 247.795 36.9864 248.108 35.9851C248.42 34.9628 248.89 34.0762 249.516 33.3252C250.162 32.5742 250.966 31.9796 251.925 31.5415C252.885 31.1034 254.011 30.8844 255.305 30.8844C256.431 30.8844 257.422 31.0513 258.278 31.3851C259.154 31.698 259.884 32.1361 260.468 32.6994C261.052 33.2418 261.501 33.8676 261.814 34.5769C262.127 35.2862 262.304 36.0372 262.346 36.83H259.529C259.362 35.5783 258.924 34.5873 258.215 33.8572C257.527 33.127 256.556 32.7619 255.305 32.7619C254.637 32.7619 254.011 32.8871 253.427 33.1374C252.843 33.3669 252.332 33.7424 251.894 34.264C251.456 34.7855 251.101 35.4531 250.83 36.2667C250.58 37.0803 250.454 38.0504 250.454 39.1769C250.454 40.3034 250.58 41.2735 250.83 42.0871C251.101 42.9007 251.456 43.5683 251.894 44.0898C252.332 44.6113 252.843 44.9973 253.427 45.2476C254.011 45.4771 254.637 45.5918 255.305 45.5918C256.556 45.5918 257.527 45.2268 258.215 44.4966C258.924 43.7664 259.362 42.7755 259.529 41.5238H262.346C262.304 42.2957 262.127 43.0467 261.814 43.7769C261.501 44.4862 261.052 45.1225 260.468 45.6857C259.884 46.2281 259.154 46.6662 258.278 47C257.422 47.3129 256.431 47.4694 255.305 47.4694C254.011 47.4694 252.885 47.2503 251.925 46.8122C250.966 46.3742 250.162 45.7796 249.516 45.0286C248.89 44.2776 248.42 43.4014 248.108 42.4C247.795 41.3778 247.638 40.3034 247.638 39.1769ZM262.482 33.3878V31.3538H276.721V33.3878H270.931V47H268.272V33.3878H262.482ZM276.883 39.1769C276.883 38.0504 277.04 36.9864 277.352 35.9851C277.665 34.9628 278.135 34.0762 278.761 33.3252C279.407 32.5742 280.211 31.9796 281.17 31.5415C282.13 31.1034 283.256 30.8844 284.55 30.8844C285.843 30.8844 286.97 31.1034 287.929 31.5415C288.889 31.9796 289.682 32.5742 290.308 33.3252C290.954 34.0762 291.434 34.9628 291.747 35.9851C292.06 36.9864 292.216 38.0504 292.216 39.1769C292.216 40.3034 292.06 41.3778 291.747 42.4C291.434 43.4014 290.954 44.2776 290.308 45.0286C289.682 45.7796 288.889 46.3742 287.929 46.8122C286.97 47.2503 285.843 47.4694 284.55 47.4694C283.256 47.4694 282.13 47.2503 281.17 46.8122C280.211 46.3742 279.407 45.7796 278.761 45.0286C278.135 44.2776 277.665 43.4014 277.352 42.4C277.04 41.3778 276.883 40.3034 276.883 39.1769ZM279.699 39.1769C279.699 40.3034 279.825 41.2735 280.075 42.0871C280.346 42.9007 280.701 43.5683 281.139 44.0898C281.577 44.6113 282.088 44.9973 282.672 45.2476C283.256 45.4771 283.882 45.5918 284.55 45.5918C285.217 45.5918 285.843 45.4771 286.427 45.2476C287.011 44.9973 287.523 44.6113 287.961 44.0898C288.399 43.5683 288.743 42.9007 288.993 42.0871C289.264 41.2735 289.4 40.3034 289.4 39.1769C289.4 38.0504 289.264 37.0803 288.993 36.2667C288.743 35.4531 288.399 34.7855 287.961 34.264C287.523 33.7424 287.011 33.3669 286.427 33.1374C285.843 32.8871 285.217 32.7619 284.55 32.7619C283.882 32.7619 283.256 32.8871 282.672 33.1374C282.088 33.3669 281.577 33.7424 281.139 34.264C280.701 34.7855 280.346 35.4531 280.075 36.2667C279.825 37.0803 279.699 38.0504 279.699 39.1769ZM293.242 50.7551V49.5034C294.034 49.5034 294.566 49.3156 294.838 48.9401C295.13 48.5855 295.276 48.0952 295.276 47.4694V47H293.836V44.0272H296.527V47.4694C296.527 48.5751 296.267 49.3991 295.745 49.9415C295.224 50.4839 294.493 50.7551 293.555 50.7551H293.242ZM305.677 47V31.3538H316.786V33.3878H308.337V47H305.677ZM315.376 51.6939V44.966H316.002C316.545 44.966 317.025 44.7887 317.442 44.434C317.88 44.0794 318.245 43.5057 318.537 42.7129C318.829 41.9202 319.048 40.8875 319.194 39.615C319.361 38.3424 319.445 36.7882 319.445 34.9524V31.3538H330.866V44.966H333.683V51.6939H331.023V47H318.036V51.6939H315.376ZM328.206 44.966V33.3878H321.948V35.2653C321.948 37.581 321.791 39.6046 321.479 41.3361C321.186 43.0467 320.613 44.2567 319.757 44.966H328.206ZM333.998 39.1769C333.998 38.0504 334.154 36.9864 334.467 35.9851C334.78 34.9628 335.25 34.0762 335.875 33.3252C336.501 32.5742 337.284 31.9796 338.222 31.5415C339.161 31.1034 340.256 30.8844 341.508 30.8844C342.802 30.8844 343.897 31.1139 344.794 31.5728C345.712 32.0109 346.463 32.595 347.047 33.3252C347.631 34.0345 348.048 34.8481 348.299 35.766C348.57 36.6839 348.705 37.6123 348.705 38.551V39.8027H336.814C336.919 41.8472 337.43 43.3284 338.348 44.2463C339.286 45.1433 340.392 45.5918 341.665 45.5918C342.687 45.5918 343.584 45.3206 344.356 44.7782C345.148 44.2358 345.66 43.4118 345.889 42.3061H348.549C348.236 43.8082 347.495 45.0494 346.327 46.0299C345.18 46.9896 343.626 47.4694 341.665 47.4694C340.371 47.4694 339.245 47.2503 338.285 46.8122C337.325 46.3742 336.522 45.7796 335.875 45.0286C335.25 44.2776 334.78 43.4014 334.467 42.4C334.154 41.3778 333.998 40.3034 333.998 39.1769ZM345.889 37.9252C345.889 36.1311 345.451 34.8272 344.575 34.0136C343.719 33.1792 342.697 32.7619 341.508 32.7619C340.298 32.7619 339.266 33.1687 338.41 33.9823C337.555 34.7959 337.044 36.1102 336.877 37.9252H345.889ZM356.52 39.1769C356.52 38.0504 356.676 36.9864 356.989 35.9851C357.302 34.9628 357.772 34.0762 358.397 33.3252C359.044 32.5742 359.847 31.9796 360.807 31.5415C361.767 31.1034 362.893 30.8844 364.187 30.8844C365.313 30.8844 366.304 31.0513 367.159 31.3851C368.036 31.698 368.766 32.1361 369.35 32.6994C369.934 33.2418 370.383 33.8676 370.695 34.5769C371.008 35.2862 371.186 36.0372 371.227 36.83H368.411C368.244 35.5783 367.806 34.5873 367.097 33.8572C366.408 33.127 365.438 32.7619 364.187 32.7619C363.519 32.7619 362.893 32.8871 362.309 33.1374C361.725 33.3669 361.214 33.7424 360.776 34.264C360.338 34.7855 359.983 35.4531 359.712 36.2667C359.461 37.0803 359.336 38.0504 359.336 39.1769C359.336 40.3034 359.461 41.2735 359.712 42.0871C359.983 42.9007 360.338 43.5683 360.776 44.0898C361.214 44.6113 361.725 44.9973 362.309 45.2476C362.893 45.4771 363.519 45.5918 364.187 45.5918C365.438 45.5918 366.408 45.2268 367.097 44.4966C367.806 43.7664 368.244 42.7755 368.411 41.5238H371.227C371.186 42.2957 371.008 43.0467 370.695 43.7769C370.383 44.4862 369.934 45.1225 369.35 45.6857C368.766 46.2281 368.036 46.6662 367.159 47C366.304 47.3129 365.313 47.4694 364.187 47.4694C362.893 47.4694 361.767 47.2503 360.807 46.8122C359.847 46.3742 359.044 45.7796 358.397 45.0286C357.772 44.2776 357.302 43.4014 356.989 42.4C356.676 41.3778 356.52 40.3034 356.52 39.1769ZM373.09 47V31.3538H377.158L382.009 44.1837L386.859 31.3538H390.927V47H388.267V33.8572L383.26 47H380.757L375.75 33.8572V47H373.09ZM392.794 39.1769C392.794 38.0504 392.95 36.9864 393.263 35.9851C393.576 34.9628 394.045 34.0762 394.671 33.3252C395.318 32.5742 396.121 31.9796 397.081 31.5415C398.04 31.1034 399.167 30.8844 400.46 30.8844C401.754 30.8844 402.88 31.1034 403.84 31.5415C404.799 31.9796 405.592 32.5742 406.218 33.3252C406.865 34.0762 407.344 34.9628 407.657 35.9851C407.97 36.9864 408.127 38.0504 408.127 39.1769C408.127 40.3034 407.97 41.3778 407.657 42.4C407.344 43.4014 406.865 44.2776 406.218 45.0286C405.592 45.7796 404.799 46.3742 403.84 46.8122C402.88 47.2503 401.754 47.4694 400.46 47.4694C399.167 47.4694 398.04 47.2503 397.081 46.8122C396.121 46.3742 395.318 45.7796 394.671 45.0286C394.045 44.2776 393.576 43.4014 393.263 42.4C392.95 41.3778 392.794 40.3034 392.794 39.1769ZM395.61 39.1769C395.61 40.3034 395.735 41.2735 395.985 42.0871C396.257 42.9007 396.611 43.5683 397.049 44.0898C397.487 44.6113 397.998 44.9973 398.583 45.2476C399.167 45.4771 399.793 45.5918 400.46 45.5918C401.128 45.5918 401.754 45.4771 402.338 45.2476C402.922 44.9973 403.433 44.6113 403.871 44.0898C404.309 43.5683 404.653 42.9007 404.904 42.0871C405.175 41.2735 405.31 40.3034 405.31 39.1769C405.31 38.0504 405.175 37.0803 404.904 36.2667C404.653 35.4531 404.309 34.7855 403.871 34.264C403.433 33.7424 402.922 33.3669 402.338 33.1374C401.754 32.8871 401.128 32.7619 400.46 32.7619C399.793 32.7619 399.167 32.8871 398.583 33.1374C397.998 33.3669 397.487 33.7424 397.049 34.264C396.611 34.7855 396.257 35.4531 395.985 36.2667C395.735 37.0803 395.61 38.0504 395.61 39.1769ZM410.006 47V31.3538H421.114V33.3878H412.665V47H410.006ZM424.878 31.3538L430.073 44.215L434.735 31.3538H437.551L431.137 47.7823C430.865 48.4707 430.594 49.0653 430.323 49.566C430.052 50.0875 429.739 50.5152 429.384 50.849C429.03 51.1828 428.612 51.4331 428.132 51.6C427.674 51.7669 427.11 51.8503 426.443 51.8503C426.213 51.8503 425.973 51.8399 425.723 51.819C425.493 51.819 425.274 51.8086 425.066 51.7877C424.836 51.746 424.617 51.7147 424.409 51.6939V49.7224C424.596 49.7433 424.784 49.7642 424.972 49.785C425.139 49.785 425.306 49.785 425.473 49.785C425.64 49.8059 425.806 49.8163 425.973 49.8163C426.516 49.8163 426.985 49.6703 427.381 49.3782C427.799 49.107 428.164 48.5751 428.477 47.7823L428.79 47L421.905 31.3538H424.878ZM445.21 47V31.3538H458.665V47H456.005V33.3878H447.869V47H445.21ZM460.856 51.6939V31.3538H463.516V34.1701C463.849 33.5651 464.267 33.0123 464.767 32.5116C465.205 32.0944 465.758 31.7189 466.426 31.3851C467.093 31.0513 467.897 30.8844 468.835 30.8844C470.087 30.8844 471.161 31.1139 472.058 31.5728C472.976 32.0109 473.727 32.6159 474.312 33.3878C474.896 34.1597 475.323 35.0463 475.595 36.0476C475.887 37.0281 476.033 38.0712 476.033 39.1769C476.033 40.2617 475.887 41.3048 475.595 42.3061C475.323 43.3075 474.896 44.1941 474.312 44.966C473.727 45.7379 472.976 46.3533 472.058 46.8122C471.161 47.2503 470.087 47.4694 468.835 47.4694C467.897 47.4694 467.093 47.3025 466.426 46.9687C465.758 46.6141 465.205 46.2281 464.767 45.8109C464.267 45.3311 463.849 44.7887 463.516 44.1837V51.6939H460.856ZM463.516 39.1769C463.516 40.2408 463.641 41.1692 463.891 41.9619C464.162 42.7547 464.517 43.4222 464.955 43.9646C465.393 44.507 465.904 44.9138 466.488 45.185C467.073 45.4562 467.698 45.5918 468.366 45.5918C469.034 45.5918 469.659 45.4771 470.244 45.2476C470.828 44.9973 471.339 44.6113 471.777 44.0898C472.215 43.5683 472.559 42.9007 472.81 42.0871C473.081 41.2735 473.216 40.3034 473.216 39.1769C473.216 38.0504 473.081 37.0803 472.81 36.2667C472.559 35.4531 472.215 34.7855 471.777 34.264C471.339 33.7424 470.828 33.3669 470.244 33.1374C469.659 32.8871 469.034 32.7619 468.366 32.7619C467.698 32.7619 467.073 32.8975 466.488 33.1687C465.904 33.4399 465.393 33.8467 464.955 34.3891C464.517 34.9315 464.162 35.5991 463.891 36.3919C463.641 37.1846 463.516 38.1129 463.516 39.1769ZM477.908 47V31.3538H480.568V43.5578L489.017 31.3538H491.676V47H489.017V34.7959L480.568 47H477.908ZM493.86 47V31.3538H497.928L502.778 44.1837L507.628 31.3538H511.696V47H509.036V33.8572L504.03 47H501.526L496.519 33.8572V47H493.86ZM513.563 39.1769C513.563 38.0504 513.719 36.9864 514.032 35.9851C514.345 34.9628 514.814 34.0762 515.44 33.3252C516.066 32.5742 516.848 31.9796 517.787 31.5415C518.726 31.1034 519.821 30.8844 521.073 30.8844C522.366 30.8844 523.462 31.1139 524.359 31.5728C525.277 32.0109 526.028 32.595 526.612 33.3252C527.196 34.0345 527.613 34.8481 527.863 35.766C528.135 36.6839 528.27 37.6123 528.27 38.551V39.8027H516.379C516.483 41.8472 516.995 43.3284 517.912 44.2463C518.851 45.1433 519.957 45.5918 521.229 45.5918C522.252 45.5918 523.149 45.3206 523.921 44.7782C524.713 44.2358 525.224 43.4118 525.454 42.3061H528.114C527.801 43.8082 527.06 45.0494 525.892 46.0299C524.745 46.9896 523.19 47.4694 521.229 47.4694C519.936 47.4694 518.809 47.2503 517.85 46.8122C516.89 46.3742 516.087 45.7796 515.44 45.0286C514.814 44.2776 514.345 43.4014 514.032 42.4C513.719 41.3778 513.563 40.3034 513.563 39.1769ZM525.454 37.9252C525.454 36.1311 525.016 34.8272 524.14 34.0136C523.284 33.1792 522.262 32.7619 521.073 32.7619C519.863 32.7619 518.83 33.1687 517.975 33.9823C517.12 34.7959 516.609 36.1102 516.442 37.9252H525.454ZM532.793 31.3538V37.9252H540.929V31.3538H543.589V47H540.929V39.8027H532.793V47H530.133V31.3538H532.793ZM545.779 47V31.3538H548.439V43.5578L556.888 31.3538H559.548V47H556.888V34.7959L548.439 47H545.779ZM561.105 33.3878V31.3538H575.343V33.3878H569.554V47H566.894V33.3878H561.105ZM579.579 31.3538V37.7687H583.803C584.617 37.7687 585.389 37.8417 586.119 37.9878C586.87 38.1129 587.527 38.3529 588.09 38.7075C588.654 39.0413 589.092 39.5002 589.405 40.0844C589.738 40.6685 589.905 41.4091 589.905 42.3061C589.905 43.2032 589.738 43.9542 589.405 44.5592C589.092 45.1642 588.654 45.644 588.09 45.9986C587.527 46.3533 586.87 46.6141 586.119 46.781C585.389 46.927 584.617 47 583.803 47H576.919V31.3538H579.579ZM579.579 44.966H583.647C584.127 44.966 584.575 44.9347 584.992 44.8721C585.41 44.7887 585.775 44.6531 586.088 44.4653C586.401 44.2567 586.64 43.9855 586.807 43.6517C586.995 43.2971 587.089 42.8485 587.089 42.3061C587.089 41.8055 586.995 41.3987 586.807 41.0857C586.64 40.7519 586.401 40.4912 586.088 40.3034C585.775 40.1157 585.41 39.9905 584.992 39.9279C584.575 39.8445 584.127 39.8027 583.647 39.8027H579.579V44.966ZM597.57 39.1769C597.57 38.0504 597.726 36.9864 598.039 35.9851C598.352 34.9628 598.821 34.0762 599.447 33.3252C600.094 32.5742 600.897 31.9796 601.857 31.5415C602.816 31.1034 603.943 30.8844 605.236 30.8844C606.363 30.8844 607.354 31.0513 608.209 31.3851C609.085 31.698 609.815 32.1361 610.399 32.6994C610.984 33.2418 611.432 33.8676 611.745 34.5769C612.058 35.2862 612.235 36.0372 612.277 36.83H609.461C609.294 35.5783 608.856 34.5873 608.146 33.8572C607.458 33.127 606.488 32.7619 605.236 32.7619C604.569 32.7619 603.943 32.8871 603.359 33.1374C602.775 33.3669 602.263 33.7424 601.825 34.264C601.387 34.7855 601.033 35.4531 600.761 36.2667C600.511 37.0803 600.386 38.0504 600.386 39.1769C600.386 40.3034 600.511 41.2735 600.761 42.0871C601.033 42.9007 601.387 43.5683 601.825 44.0898C602.263 44.6113 602.775 44.9973 603.359 45.2476C603.943 45.4771 604.569 45.5918 605.236 45.5918C606.488 45.5918 607.458 45.2268 608.146 44.4966C608.856 43.7664 609.294 42.7755 609.461 41.5238H612.277C612.235 42.2957 612.058 43.0467 611.745 43.7769C611.432 44.4862 610.984 45.1225 610.399 45.6857C609.815 46.2281 609.085 46.6662 608.209 47C607.354 47.3129 606.363 47.4694 605.236 47.4694C603.943 47.4694 602.816 47.2503 601.857 46.8122C600.897 46.3742 600.094 45.7796 599.447 45.0286C598.821 44.2776 598.352 43.4014 598.039 42.4C597.726 41.3778 597.57 40.3034 597.57 39.1769ZM621.494 31.3538C622.245 31.3538 622.954 31.4164 623.622 31.5415C624.31 31.6667 624.905 31.8753 625.405 32.1674C625.927 32.4594 626.344 32.8454 626.657 33.3252C626.97 33.805 627.126 34.3996 627.126 35.1089C627.126 35.839 626.97 36.4336 626.657 36.8925C626.344 37.3515 626.01 37.7061 625.656 37.9565C625.217 38.2277 624.717 38.4259 624.153 38.551V38.7075C624.821 38.8327 625.426 39.0517 625.968 39.3646C626.407 39.615 626.813 39.9905 627.189 40.4912C627.564 40.971 627.752 41.6281 627.752 42.4626C627.752 43.3179 627.585 44.0376 627.251 44.6218C626.939 45.2059 626.5 45.6753 625.937 46.0299C625.374 46.3846 624.717 46.6349 623.966 46.781C623.236 46.927 622.464 47 621.65 47H614.14V31.3538H621.494ZM621.494 44.966C621.973 44.966 622.422 44.9347 622.839 44.8721C623.256 44.7887 623.622 44.6531 623.934 44.4653C624.247 44.2567 624.487 43.9855 624.654 43.6517C624.842 43.2971 624.936 42.8485 624.936 42.3061C624.936 41.8055 624.842 41.3987 624.654 41.0857C624.487 40.7519 624.247 40.4912 623.934 40.3034C623.622 40.1157 623.256 39.9905 622.839 39.9279C622.422 39.8445 621.973 39.8027 621.494 39.8027H616.8V44.966H621.494ZM621.024 37.9252C622.046 37.9252 622.871 37.7583 623.496 37.4245C624.143 37.0699 624.466 36.4544 624.466 35.5783C624.466 35.0984 624.373 34.7229 624.185 34.4517C624.018 34.1597 623.788 33.9406 623.496 33.7946C623.204 33.6277 622.871 33.5234 622.495 33.4817C622.119 33.4191 621.734 33.3878 621.337 33.3878H616.8V37.9252H621.024ZM629.015 39.1769C629.015 38.0504 629.171 36.9864 629.484 35.9851C629.797 34.9628 630.266 34.0762 630.892 33.3252C631.539 32.5742 632.342 31.9796 633.302 31.5415C634.261 31.1034 635.388 30.8844 636.681 30.8844C637.975 30.8844 639.101 31.1034 640.061 31.5415C641.021 31.9796 641.813 32.5742 642.439 33.3252C643.086 34.0762 643.566 34.9628 643.879 35.9851C644.192 36.9864 644.348 38.0504 644.348 39.1769C644.348 40.3034 644.192 41.3778 643.879 42.4C643.566 43.4014 643.086 44.2776 642.439 45.0286C641.813 45.7796 641.021 46.3742 640.061 46.8122C639.101 47.2503 637.975 47.4694 636.681 47.4694C635.388 47.4694 634.261 47.2503 633.302 46.8122C632.342 46.3742 631.539 45.7796 630.892 45.0286C630.266 44.2776 629.797 43.4014 629.484 42.4C629.171 41.3778 629.015 40.3034 629.015 39.1769ZM631.831 39.1769C631.831 40.3034 631.956 41.2735 632.207 42.0871C632.478 42.9007 632.832 43.5683 633.271 44.0898C633.709 44.6113 634.22 44.9973 634.804 45.2476C635.388 45.4771 636.014 45.5918 636.681 45.5918C637.349 45.5918 637.975 45.4771 638.559 45.2476C639.143 44.9973 639.654 44.6113 640.092 44.0898C640.53 43.5683 640.875 42.9007 641.125 42.0871C641.396 41.2735 641.532 40.3034 641.532 39.1769C641.532 38.0504 641.396 37.0803 641.125 36.2667C640.875 35.4531 640.53 34.7855 640.092 34.264C639.654 33.7424 639.143 33.3669 638.559 33.1374C637.975 32.8871 637.349 32.7619 636.681 32.7619C636.014 32.7619 635.388 32.8871 634.804 33.1374C634.22 33.3669 633.709 33.7424 633.271 34.264C632.832 34.7855 632.478 35.4531 632.207 36.2667C631.956 37.0803 631.831 38.0504 631.831 39.1769ZM646.227 47V31.3538H648.887V43.5578L657.336 31.3538H659.996V47H657.336V34.7959L648.887 47H646.227ZM671.103 31.3538V37.9252H679.239V31.3538H681.899V47H679.239V39.8027H671.103V47H668.443V31.3538H671.103ZM683.62 42.7755C683.62 42.1079 683.735 41.4821 683.964 40.898C684.215 40.3138 684.611 39.8027 685.153 39.3646C685.696 38.9265 686.416 38.5823 687.313 38.332C688.21 38.0608 689.326 37.9252 690.661 37.9252C691.558 37.9252 692.267 37.8522 692.789 37.7061C693.31 37.5601 693.696 37.3724 693.947 37.1429C694.218 36.9134 694.385 36.6526 694.447 36.3606C694.531 36.0476 694.572 35.7347 694.572 35.4218C694.572 34.483 694.228 33.805 693.54 33.3878C692.872 32.9706 691.913 32.7619 690.661 32.7619C687.949 32.7619 686.593 33.8572 686.593 36.0476H683.933C683.933 35.1506 684.1 34.3787 684.434 33.732C684.768 33.0853 685.226 32.5533 685.811 32.1361C686.416 31.698 687.125 31.3851 687.938 31.1973C688.773 30.9887 689.68 30.8844 690.661 30.8844C692.789 30.8844 694.416 31.2912 695.543 32.1048C696.669 32.9184 697.232 34.2327 697.232 36.0476V43.2449C697.232 43.5578 697.243 43.8395 697.264 44.0898C697.284 44.3401 697.337 44.5488 697.42 44.7157C697.524 44.8825 697.681 45.0077 697.889 45.0912C698.098 45.1537 698.401 45.1642 698.797 45.1225V47C698.651 47.0209 698.505 47.0522 698.359 47.0939C698.213 47.1147 698.056 47.1252 697.889 47.1252C697.723 47.146 697.556 47.1565 697.389 47.1565C696.992 47.1565 696.617 47.1252 696.262 47.0626C695.928 47.0209 695.636 46.9166 695.386 46.7497C695.136 46.5828 694.938 46.3429 694.792 46.0299C694.645 45.717 694.572 45.3102 694.572 44.8095V44.3401C694.239 44.9243 693.811 45.4458 693.289 45.9048C692.851 46.3011 692.288 46.6662 691.6 47C690.932 47.3129 690.098 47.4694 689.096 47.4694C687.281 47.4694 685.915 47.0209 684.997 46.1238C684.079 45.2268 683.62 44.1107 683.62 42.7755ZM689.722 45.5918C690.265 45.5918 690.817 45.4875 691.381 45.2789C691.965 45.0703 692.486 44.7261 692.945 44.2463C693.425 43.7456 693.811 43.0989 694.103 42.3061C694.416 41.4925 694.572 40.5016 694.572 39.3334V38.2694C694.572 38.2903 694.51 38.3633 694.385 38.4885C694.28 38.6136 694.072 38.7492 693.759 38.8953C693.446 39.0413 693.018 39.1769 692.476 39.3021C691.933 39.4272 691.224 39.4898 690.348 39.4898C689.91 39.4898 689.461 39.542 689.002 39.6463C688.543 39.7297 688.126 39.8862 687.751 40.1157C687.375 40.3243 687.062 40.6268 686.812 41.0231C686.562 41.3987 686.436 41.8785 686.436 42.4626C686.436 43.4014 686.728 44.1628 687.313 44.7469C687.897 45.3102 688.7 45.5918 689.722 45.5918ZM707.548 31.3538C708.299 31.3538 709.008 31.4164 709.676 31.5415C710.364 31.6667 710.959 31.8753 711.459 32.1674C711.981 32.4594 712.398 32.8454 712.711 33.3252C713.024 33.805 713.18 34.3996 713.18 35.1089C713.18 35.839 713.024 36.4336 712.711 36.8925C712.398 37.3515 712.064 37.7061 711.71 37.9565C711.272 38.2277 710.771 38.4259 710.208 38.551V38.7075C710.875 38.8327 711.48 39.0517 712.023 39.3646C712.461 39.615 712.868 39.9905 713.243 40.4912C713.619 40.971 713.806 41.6281 713.806 42.4626C713.806 43.3179 713.639 44.0376 713.306 44.6218C712.993 45.2059 712.555 45.6753 711.991 46.0299C711.428 46.3846 710.771 46.6349 710.02 46.781C709.29 46.927 708.518 47 707.704 47H700.194V31.3538H707.548ZM707.548 44.966C708.028 44.966 708.476 44.9347 708.893 44.8721C709.311 44.7887 709.676 44.6531 709.989 44.4653C710.302 44.2567 710.541 43.9855 710.708 43.6517C710.896 43.2971 710.99 42.8485 710.99 42.3061C710.99 41.8055 710.896 41.3987 710.708 41.0857C710.541 40.7519 710.302 40.4912 709.989 40.3034C709.676 40.1157 709.311 39.9905 708.893 39.9279C708.476 39.8445 708.028 39.8027 707.548 39.8027H702.854V44.966H707.548ZM707.078 37.9252C708.101 37.9252 708.925 37.7583 709.551 37.4245C710.197 37.0699 710.521 36.4544 710.521 35.5783C710.521 35.0984 710.427 34.7229 710.239 34.4517C710.072 34.1597 709.843 33.9406 709.551 33.7946C709.258 33.6277 708.925 33.5234 708.549 33.4817C708.174 33.4191 707.788 33.3878 707.391 33.3878H702.854V37.9252H707.078ZM715.535 31.3538H718.195V37.7687H721.793C722.607 37.7687 723.379 37.8417 724.109 37.9878C724.86 38.1129 725.517 38.3529 726.08 38.7075C726.644 39.0413 727.082 39.5002 727.395 40.0844C727.728 40.6685 727.895 41.4091 727.895 42.3061C727.895 43.2032 727.728 43.9542 727.395 44.5592C727.082 45.1642 726.644 45.644 726.08 45.9986C725.517 46.3533 724.86 46.6141 724.109 46.781C723.379 46.927 722.607 47 721.793 47H715.535V31.3538ZM729.46 31.3538H732.12V47H729.46V31.3538ZM718.195 39.8027V44.966H721.637C722.117 44.966 722.565 44.9347 722.982 44.8721C723.4 44.7887 723.765 44.6531 724.078 44.4653C724.391 44.2567 724.63 43.9855 724.797 43.6517C724.985 43.2971 725.079 42.8485 725.079 42.3061C725.079 41.8055 724.985 41.3987 724.797 41.0857C724.63 40.7519 724.391 40.4912 724.078 40.3034C723.765 40.1157 723.4 39.9905 722.982 39.9279C722.565 39.8445 722.117 39.8027 721.637 39.8027H718.195ZM734.298 31.3538H736.958V39.4898L744.625 31.3538H747.597L741.558 37.6436L747.91 47H744.781L739.837 39.4585L736.958 42.4626V47H734.298V31.3538ZM749.486 47V31.3538H752.146V43.5578L760.595 31.3538H763.254V47H760.595V34.7959L752.146 47H749.486ZM765.532 50.7551V49.5034C766.324 49.5034 766.856 49.3156 767.127 48.9401C767.419 48.5855 767.566 48.0952 767.566 47.4694V47H766.126V44.0272H768.817V47.4694C768.817 48.5751 768.556 49.3991 768.035 49.9415C767.513 50.4839 766.783 50.7551 765.844 50.7551H765.532Z" fill="white"/>
</svg>
